<svg width="381" height="290" viewBox="0 0 381 290" fill="none" xmlns="http://www.w3.org/2000/svg">
<g filter="url(#filter0_d_601_447)">
<path fill-rule="evenodd" clip-rule="evenodd" d="M331 50C331 38.9543 322.046 30 311 30H50C38.9543 30 30 38.9543 30 50V220C30 231.046 38.9543 240 50 240H311C322.046 240 331 231.046 331 220V179.652C331 172.059 326.322 165.43 321.057 159.959C314.829 153.488 311 144.691 311 135C311 125.309 314.829 116.512 321.057 110.041C326.322 104.57 331 97.9407 331 90.3477V50Z" fill="url(#paint0_linear_601_447)"/>
</g>
<defs>
<filter id="filter0_d_601_447" x="0" y="0" width="381" height="290" filterUnits="userSpaceOnUse" color-interpolation-filters="sRGB">
<feFlood flood-opacity="0" result="BackgroundImageFix"/>
<feColorMatrix in="SourceAlpha" type="matrix" values="0 0 0 0 0 0 0 0 0 0 0 0 0 0 0 0 0 0 127 0" result="hardAlpha"/>
<feOffset dx="10" dy="10"/>
<feGaussianBlur stdDeviation="20"/>
<feComposite in2="hardAlpha" operator="out"/>
<feColorMatrix type="matrix" values="0 0 0 0 0 0 0 0 0 0 0 0 0 0 0 0 0 0 0.05 0"/>
<feBlend mode="normal" in2="BackgroundImageFix" result="effect1_dropShadow_601_447"/>
<feBlend mode="normal" in="SourceGraphic" in2="effect1_dropShadow_601_447" result="shape"/>
</filter>
<linearGradient id="paint0_linear_601_447" x1="34.5" y1="33.4884" x2="262.365" y2="360.094" gradientUnits="userSpaceOnUse">
<stop offset="0.403929" stop-color="white"/>
<stop offset="1" stop-color="#F1F3EF"/>
</linearGradient>
</defs>
</svg>
