<svg width="381" height="290" viewBox="0 0 381 290" fill="none" xmlns="http://www.w3.org/2000/svg">
<g filter="url(#filter0_d_604_398)">
<path fill-rule="evenodd" clip-rule="evenodd" d="M30 220C30 231.046 38.9543 240 50 240L311 240C322.046 240 331 231.046 331 220L331 50C331 38.9543 322.046 30 311 30L50 30C38.9543 30 30 38.9543 30 50L30 90.3477C30 97.9407 34.678 104.57 39.943 110.041C46.1708 116.512 50 125.309 50 135C50 144.691 46.1708 153.488 39.943 159.959C34.678 165.43 30 172.059 30 179.652L30 220Z" fill="url(#paint0_linear_604_398)"/>
</g>
<defs>
<filter id="filter0_d_604_398" x="0" y="0" width="381" height="290" filterUnits="userSpaceOnUse" color-interpolation-filters="sRGB">
<feFlood flood-opacity="0" result="BackgroundImageFix"/>
<feColorMatrix in="SourceAlpha" type="matrix" values="0 0 0 0 0 0 0 0 0 0 0 0 0 0 0 0 0 0 127 0" result="hardAlpha"/>
<feOffset dx="10" dy="10"/>
<feGaussianBlur stdDeviation="20"/>
<feComposite in2="hardAlpha" operator="out"/>
<feColorMatrix type="matrix" values="0 0 0 0 0 0 0 0 0 0 0 0 0 0 0 0 0 0 0.05 0"/>
<feBlend mode="normal" in2="BackgroundImageFix" result="effect1_dropShadow_604_398"/>
<feBlend mode="normal" in="SourceGraphic" in2="effect1_dropShadow_604_398" result="shape"/>
</filter>
<linearGradient id="paint0_linear_604_398" x1="34" y1="36.5" x2="265.482" y2="364.146" gradientUnits="userSpaceOnUse">
<stop offset="0.403929" stop-color="white"/>
<stop offset="1" stop-color="#F1F3EF"/>
</linearGradient>
</defs>
</svg>
