<svg width="375" viewBox="20 30 335 200" fill="none" xmlns="http://www.w3.org/2000/svg">
<g filter="url(#filter0_d_601_1052)">
<path fill-rule="evenodd" clip-rule="evenodd" 
d="M335 230C346.046 230 355 221.046 355 210L355 50C355 38.9543 346.046 30 335 30L40 30C28.9543 30 20 38.9543 20 50L20 210C20 221.046 28.9543 230 40 230L143.348 230C150.941 230 157.57
 225.322 163.041 220.057C169.512 213.829 178.309 210 188 210C197.691 210 206.488 213.829 212.959 220.057C218.43 225.322 225.059 230 232.652 230L335 230Z" 
 fill="url(#paint0_linear_601_1052)"/>
</g>
<defs>
<filter id="filter0_d_601_1052" x="-10" y="0" width="415" height="280" filterUnits="userSpaceOnUse" color-interpolation-filters="sRGB">
<feFlood flood-opacity="0" result="BackgroundImageFix"/>
<feColorMatrix in="SourceAlpha" type="matrix" values="0 0 0 0 0 0 0 0 0 0 0 0 0 0 0 0 0 0 127 0" result="hardAlpha"/>
<feOffset dx="10" dy="10"/>
<feGaussianBlur stdDeviation="20"/>
<feComposite in2="hardAlpha" operator="out"/>
<feColorMatrix type="matrix" values="0 0 0 0 0 0 0 0 0 0 0 0 0 0 0 0 0 0 0.05 0"/>
<feBlend mode="normal" in2="BackgroundImageFix" result="effect1_dropShadow_601_1052"/>
<feBlend mode="normal" in="SourceGraphic" in2="effect1_dropShadow_601_1052" result="shape"/>
</filter>
<linearGradient id="paint0_linear_601_1052" x1="-3.50001" y1="14.5" x2="241.877" y2="411.757" gradientUnits="userSpaceOnUse">
<stop offset="0.403929" stop-color="white"/>
<stop offset="1" stop-color="#F1F3EF"/>
</linearGradient>
</defs>
</svg>