<svg width="375" viewBox="20 30 335 200" fill="none" xmlns="http://www.w3.org/2000/svg">
<g filter="url(#filter0_d_601_1060)">
<path fill-rule="evenodd" clip-rule="evenodd" d="M335 30C346.046 30 355 38.9543 355 50L355 210C355 221.046 346.046 230 335 230L232.652 230C225.059 230 218.43 225.322 212.959 220.057C206.487 213.829 197.691 210 188 210C178.309 210 169.512 213.829 163.04 220.057C157.569 225.322 150.94 230 143.347 230L40 230C28.9543 230 20 221.046 20 210L20 50C20 38.9543 28.9543 30 40 30L143.347 30C150.94 30 157.569 34.678 163.04 39.943C169.512 46.1708 178.309 50 188 50C197.691 50 206.487 46.1708 212.959 39.943C218.43 34.678 225.059 30 232.652 30L335 30Z" fill="url(#paint0_linear_601_1060)"/>
</g>
<defs>
<filter id="filter0_d_601_1060" x="-10" y="0" width="415" height="280" filterUnits="userSpaceOnUse" color-interpolation-filters="sRGB">
<feFlood flood-opacity="0" result="BackgroundImageFix"/>
<feColorMatrix in="SourceAlpha" type="matrix" values="0 0 0 0 0 0 0 0 0 0 0 0 0 0 0 0 0 0 127 0" result="hardAlpha"/>
<feOffset dx="10" dy="10"/>
<feGaussianBlur stdDeviation="20"/>
<feComposite in2="hardAlpha" operator="out"/>
<feColorMatrix type="matrix" values="0 0 0 0 0 0 0 0 0 0 0 0 0 0 0 0 0 0 0.05 0"/>
<feBlend mode="normal" in2="BackgroundImageFix" result="effect1_dropShadow_601_1060"/>
<feBlend mode="normal" in="SourceGraphic" in2="effect1_dropShadow_601_1060" result="shape"/>
</filter>
<linearGradient id="paint0_linear_601_1060" x1="68.2688" y1="14.4999" x2="342.649" y2="292.961" gradientUnits="userSpaceOnUse">
<stop offset="0.403929" stop-color="white"/>
<stop offset="1" stop-color="#F1F3EF"/>
</linearGradient>
</defs>
</svg>
