<svg width="375" viewBox="20 30 335 200" fill="none" xmlns="http://www.w3.org/2000/svg">
<g filter="url(#filter0_d_601_1076)">
<path fill-rule="evenodd" clip-rule="evenodd" d="M40 30.0001C28.9543 30.0001 20 38.9544 20 50.0001L20 210C20 221.046 28.9543 230 40 230L335 230C346.046 230 355 221.046 355 210L355 50.0001C355 38.9544 346.046 30.0001 335 30.0001L231.652 30.0001C224.059 30.0001 217.43 34.6781 211.959 39.9431C205.488 46.1709 196.691 50.0001 187 50.0001C177.309 50.0001 168.512 46.1709 162.041 39.9431C156.57 34.6781 149.941 30.0001 142.348 30.0001L40 30.0001Z" fill="url(#paint0_linear_601_1076)"/>
</g>
<defs>
<filter id="filter0_d_601_1076" x="-10" y="0" width="415" height="280" filterUnits="userSpaceOnUse" color-interpolation-filters="sRGB">
<feFlood flood-opacity="0" result="BackgroundImageFix"/>
<feColorMatrix in="SourceAlpha" type="matrix" values="0 0 0 0 0 0 0 0 0 0 0 0 0 0 0 0 0 0 127 0" result="hardAlpha"/>
<feOffset dx="10" dy="10"/>
<feGaussianBlur stdDeviation="20"/>
<feComposite in2="hardAlpha" operator="out"/>
<feColorMatrix type="matrix" values="0 0 0 0 0 0 0 0 0 0 0 0 0 0 0 0 0 0 0.05 0"/>
<feBlend mode="normal" in2="BackgroundImageFix" result="effect1_dropShadow_601_1076"/>
<feBlend mode="normal" in="SourceGraphic" in2="effect1_dropShadow_601_1076" result="shape"/>
</filter>
<linearGradient id="paint0_linear_601_1076" x1="58.5" y1="19.0002" x2="233.563" y2="414.393" gradientUnits="userSpaceOnUse">
<stop offset="0.403929" stop-color="white"/>
<stop offset="1" stop-color="#F1F3EF"/>
</linearGradient>
</defs>
</svg>
