<svg width="375" height="988" viewBox="0 0 375 988" fill="none" xmlns="http://www.w3.org/2000/svg">
<g filter="url(#filter0_d_601_1050)">
<path fill-rule="evenodd" clip-rule="evenodd" d="M335 230C346.046 230 355 221.046 355 210L355 50C355 38.9543 346.046 30 335 30L40 30C28.9543 30 20 38.9543 20 50L20 210C20 221.046 28.9543 230 40 230L143.348 230C150.941 230 157.57 225.322 163.041 220.057C169.512 213.829 178.309 210 188 210C197.691 210 206.488 213.829 212.959 220.057C218.43 225.322 225.059 230 232.652 230L335 230Z" fill="url(#paint0_linear_601_1050)"/>
</g>
<path d="M150.062 83.84H142.184V101H146.656V95.046H150.062C154.326 95.046 156.692 93.044 156.692 89.534C156.692 85.842 154.326 83.84 150.062 83.84ZM149.36 91.77H146.656V87.22H149.36C151.336 87.22 152.194 87.974 152.194 89.482C152.194 91.016 151.336 91.77 149.36 91.77ZM171.797 98.478C171.173 98.478 170.861 98.14 170.861 97.464V92.732C170.861 89.378 168.651 87.74 164.647 87.74C161.111 87.74 159.083 89.274 158.641 91.744L162.229 92.784C162.489 91.276 163.399 90.782 164.647 90.782C165.817 90.782 166.493 91.536 166.493 92.706V93.174L163.555 93.746C159.863 94.474 158.485 95.852 158.485 98.01C158.485 100.116 159.941 101.26 162.515 101.26C164.907 101.26 166.415 100.506 167.143 99.258C167.533 100.662 168.755 101.26 170.497 101.26C171.147 101.26 171.745 101.13 172.265 100.844L172.603 98.374C172.369 98.452 172.109 98.478 171.797 98.478ZM164.127 98.4C163.321 98.4 162.853 98.01 162.853 97.282C162.853 96.554 163.295 96.19 164.387 95.93L166.493 95.436V96.554C166.493 97.75 165.219 98.4 164.127 98.4ZM179.729 101.26C183.915 101.26 185.917 99.388 185.917 96.996C185.917 94.76 184.383 93.538 180.535 92.862C178.715 92.524 178.143 92.186 178.143 91.666C178.143 91.146 178.819 90.678 180.119 90.678C181.679 90.678 182.823 91.198 183.655 92.42L185.943 90.184C184.825 88.65 183.109 87.74 179.989 87.74C175.751 87.74 173.723 89.924 173.723 92.056C173.723 94.188 175.153 95.462 179.105 96.242C180.847 96.606 181.471 96.918 181.471 97.412C181.471 97.958 180.743 98.322 179.521 98.322C177.857 98.322 176.453 97.776 175.673 96.476L173.385 98.972C174.711 100.584 176.869 101.26 179.729 101.26ZM193.592 101.26C197.778 101.26 199.78 99.388 199.78 96.996C199.78 94.76 198.246 93.538 194.398 92.862C192.578 92.524 192.006 92.186 192.006 91.666C192.006 91.146 192.682 90.678 193.982 90.678C195.542 90.678 196.686 91.198 197.518 92.42L199.806 90.184C198.688 88.65 196.972 87.74 193.852 87.74C189.614 87.74 187.586 89.924 187.586 92.056C187.586 94.188 189.016 95.462 192.968 96.242C194.71 96.606 195.334 96.918 195.334 97.412C195.334 97.958 194.606 98.322 193.384 98.322C191.72 98.322 190.316 97.776 189.536 96.476L187.248 98.972C188.574 100.584 190.732 101.26 193.592 101.26ZM208.237 87.74C203.895 87.74 201.373 90.236 201.373 94.5C201.373 98.764 203.895 101.26 208.237 101.26C212.579 101.26 215.101 98.764 215.101 94.5C215.101 90.236 212.579 87.74 208.237 87.74ZM208.237 90.886C209.875 90.886 210.681 91.952 210.681 94.5C210.681 97.048 209.875 98.114 208.237 98.114C206.599 98.114 205.793 97.048 205.793 94.5C205.793 91.952 206.599 90.886 208.237 90.886ZM229.216 83.84C228.358 85.114 225.758 86.518 223.99 86.726L224.406 90.418C225.888 90.158 227.292 89.3 228.462 88.234V101H232.778V83.84H229.216Z" fill="#2DB563"/>
<path d="M118.953 133.8V130.248H123.721V129.048H118.953V125.64H125.081V124.44H117.673V135H125.321V133.8H118.953ZM130.356 135.16C132.404 135.16 133.7 134.184 133.7 132.792C133.7 131.48 132.9 130.808 130.66 130.44C129.028 130.168 128.5 129.816 128.5 129.128C128.5 128.536 129.3 127.96 130.372 127.96C131.38 127.96 132.1 128.344 132.452 129.4L133.54 128.76C133.092 127.448 132.084 126.84 130.372 126.84C128.42 126.84 127.22 127.944 127.22 129.24C127.22 130.584 128.052 131.208 130.324 131.624C131.924 131.912 132.42 132.264 132.42 132.856C132.42 133.512 131.796 134.04 130.484 134.04C129.332 134.04 128.34 133.608 127.956 132.632L126.916 133.352C127.524 134.584 128.884 135.16 130.356 135.16ZM139.45 126.84C137.034 126.84 135.578 128.408 135.578 131C135.578 133.592 137.034 135.16 139.45 135.16C141.146 135.16 142.298 134.28 142.842 132.808L141.658 132.392C141.418 133.448 140.666 134.04 139.418 134.04C137.818 134.04 136.858 132.904 136.858 131C136.858 129.096 137.818 127.96 139.418 127.96C140.522 127.96 141.21 128.52 141.546 129.544L142.762 128.968C142.17 127.656 141.098 126.84 139.45 126.84ZM148.481 126.84C146.065 126.84 144.609 128.408 144.609 131C144.609 133.592 146.065 135.16 148.481 135.16C150.897 135.16 152.353 133.592 152.353 131C152.353 128.408 150.897 126.84 148.481 126.84ZM148.481 127.944C150.097 127.944 151.073 129.096 151.073 131C151.073 132.904 150.097 134.056 148.481 134.056C146.865 134.056 145.889 132.904 145.889 131C145.889 129.096 146.865 127.944 148.481 127.944ZM156.056 123.32H154.776V133.016C154.776 134.472 155.4 135.16 156.696 135.16C157.112 135.16 157.544 135.08 157.88 134.936L158.088 133.704C157.624 133.88 157.352 133.928 156.92 133.928C156.264 133.928 156.056 133.672 156.056 132.856V123.32ZM163.618 126.84C162.53 126.84 161.57 127.24 161.01 128.2V123.32H159.73V135H161.01V130.76C161.01 128.712 162.322 127.96 163.49 127.96C164.594 127.96 165.458 128.552 165.458 130.328V135H166.738V129.88C166.738 127.816 165.33 126.84 163.618 126.84ZM176.196 134.072C175.748 134.072 175.588 133.88 175.588 133.496V129.56C175.588 127.704 174.26 126.84 172.436 126.84C170.884 126.84 169.62 127.608 169.204 128.792L170.148 129.48C170.58 128.472 171.38 127.96 172.436 127.96C173.636 127.96 174.308 128.664 174.308 129.72V130.168L172.18 130.52C170.116 130.872 169.06 131.816 169.06 133.016C169.06 134.456 170.276 135.16 171.78 135.16C172.804 135.16 173.844 134.728 174.356 133.976C174.5 134.872 175.012 135.16 175.796 135.16C176.196 135.16 176.532 135.08 176.756 135L176.836 133.992C176.644 134.04 176.404 134.072 176.196 134.072ZM171.844 134.04C170.932 134.04 170.388 133.688 170.388 133.016C170.388 132.264 171.108 131.8 172.516 131.544L174.308 131.208V132.312C174.308 133.368 173.124 134.04 171.844 134.04ZM186.497 135.16C188.545 135.16 189.841 134.184 189.841 132.792C189.841 131.48 189.041 130.808 186.801 130.44C185.169 130.168 184.641 129.816 184.641 129.128C184.641 128.536 185.441 127.96 186.513 127.96C187.521 127.96 188.241 128.344 188.593 129.4L189.681 128.76C189.233 127.448 188.225 126.84 186.513 126.84C184.561 126.84 183.361 127.944 183.361 129.24C183.361 130.584 184.193 131.208 186.465 131.624C188.065 131.912 188.561 132.264 188.561 132.856C188.561 133.512 187.937 134.04 186.625 134.04C185.473 134.04 184.481 133.608 184.097 132.632L183.057 133.352C183.665 134.584 185.025 135.16 186.497 135.16ZM199.079 130.584C199.079 128.52 197.815 126.84 195.495 126.84C193.079 126.84 191.719 128.408 191.719 131C191.719 133.592 193.175 135.16 195.591 135.16C197.319 135.16 198.311 134.504 198.919 133.416L197.847 132.856C197.559 133.624 196.759 134.04 195.591 134.04C194.119 134.04 193.143 133.096 192.983 131.48H199.015C199.047 131.256 199.079 130.952 199.079 130.584ZM195.495 127.96C196.855 127.96 197.671 128.872 197.847 130.344H192.999C193.191 128.84 194.071 127.96 195.495 127.96ZM207.159 127V131.352C207.159 133.24 205.959 134.04 204.599 134.04C203.447 134.04 202.711 133.544 202.711 131.896V127H201.431V132.232C201.431 134.344 202.791 135.16 204.375 135.16C205.655 135.16 206.679 134.744 207.239 133.784L207.319 135H208.439V127H207.159ZM220.807 126.84C219.543 126.84 218.535 127.48 218.071 128.392L217.991 127H216.871V138.36H218.151V133.752C218.647 134.584 219.607 135.16 220.807 135.16C223.031 135.16 224.455 133.608 224.455 131C224.455 128.392 223.031 126.84 220.807 126.84ZM220.663 134.04C219.143 134.04 218.151 132.904 218.151 131.096V130.904C218.151 129.096 219.143 127.96 220.663 127.96C222.231 127.96 223.175 129.144 223.175 131C223.175 132.856 222.231 134.04 220.663 134.04ZM228.165 123.32H226.885V133.016C226.885 134.472 227.509 135.16 228.805 135.16C229.221 135.16 229.653 135.08 229.989 134.936L230.197 133.704C229.733 133.88 229.461 133.928 229.029 133.928C228.373 133.928 228.165 133.672 228.165 132.856V123.32ZM238.4 134.072C237.952 134.072 237.792 133.88 237.792 133.496V129.56C237.792 127.704 236.464 126.84 234.64 126.84C233.088 126.84 231.824 127.608 231.408 128.792L232.352 129.48C232.784 128.472 233.584 127.96 234.64 127.96C235.84 127.96 236.512 128.664 236.512 129.72V130.168L234.384 130.52C232.32 130.872 231.264 131.816 231.264 133.016C231.264 134.456 232.48 135.16 233.984 135.16C235.008 135.16 236.048 134.728 236.56 133.976C236.704 134.872 237.216 135.16 238 135.16C238.4 135.16 238.736 135.08 238.96 135L239.04 133.992C238.848 134.04 238.608 134.072 238.4 134.072ZM234.048 134.04C233.136 134.04 232.592 133.688 232.592 133.016C232.592 132.264 233.312 131.8 234.72 131.544L236.512 131.208V132.312C236.512 133.368 235.328 134.04 234.048 134.04ZM244.79 126.84C243.686 126.84 242.662 127.24 242.102 128.248L242.022 127H240.902V135H242.182V130.744C242.182 128.696 243.494 127.96 244.662 127.96C245.766 127.96 246.63 128.552 246.63 130.328V135H247.91V129.88C247.91 127.816 246.502 126.84 244.79 126.84ZM254.184 126.84C251.768 126.84 250.312 128.408 250.312 131C250.312 133.592 251.768 135.16 254.184 135.16C256.6 135.16 258.056 133.592 258.056 131C258.056 128.408 256.6 126.84 254.184 126.84ZM254.184 127.944C255.8 127.944 256.776 129.096 256.776 131C256.776 132.904 255.8 134.056 254.184 134.056C252.568 134.056 251.592 132.904 251.592 131C251.592 129.096 252.568 127.944 254.184 127.944ZM121.97 143.984C119.714 145.936 118.546 148.496 118.546 151.504C118.546 154.512 119.714 157.072 121.97 159.024L122.706 158.288C120.594 156.352 119.858 154.432 119.858 151.504C119.858 148.576 120.594 146.656 122.706 144.72L121.97 143.984ZM130.54 155.072C130.092 155.072 129.932 154.88 129.932 154.496V150.56C129.932 148.704 128.604 147.84 126.78 147.84C125.228 147.84 123.964 148.608 123.548 149.792L124.492 150.48C124.924 149.472 125.724 148.96 126.78 148.96C127.98 148.96 128.652 149.664 128.652 150.72V151.168L126.524 151.52C124.46 151.872 123.404 152.816 123.404 154.016C123.404 155.456 124.62 156.16 126.124 156.16C127.148 156.16 128.188 155.728 128.7 154.976C128.844 155.872 129.356 156.16 130.14 156.16C130.54 156.16 130.876 156.08 131.1 156L131.18 154.992C130.988 155.04 130.748 155.072 130.54 155.072ZM126.188 155.04C125.276 155.04 124.732 154.688 124.732 154.016C124.732 153.264 125.452 152.8 126.86 152.544L128.652 152.208V153.312C128.652 154.368 127.468 155.04 126.188 155.04ZM136.931 147.84C135.827 147.84 134.803 148.24 134.243 149.248L134.163 148H133.043V156H134.323V151.744C134.323 149.696 135.635 148.96 136.803 148.96C137.907 148.96 138.771 149.552 138.771 151.328V156H140.051V150.88C140.051 148.816 138.643 147.84 136.931 147.84ZM148.597 148V152.352C148.597 154.24 147.397 155.04 146.037 155.04C144.885 155.04 144.149 154.544 144.149 152.896V148H142.869V153.232C142.869 155.344 144.229 156.16 145.813 156.16C147.093 156.16 148.117 155.744 148.677 154.784L148.757 156H149.877V148H148.597ZM159.415 155.072C158.967 155.072 158.807 154.88 158.807 154.496V150.56C158.807 148.704 157.479 147.84 155.655 147.84C154.103 147.84 152.839 148.608 152.423 149.792L153.367 150.48C153.799 149.472 154.599 148.96 155.655 148.96C156.855 148.96 157.527 149.664 157.527 150.72V151.168L155.399 151.52C153.335 151.872 152.279 152.816 152.279 154.016C152.279 155.456 153.495 156.16 154.999 156.16C156.023 156.16 157.063 155.728 157.575 154.976C157.719 155.872 158.231 156.16 159.015 156.16C159.415 156.16 159.751 156.08 159.975 156L160.055 154.992C159.863 155.04 159.623 155.072 159.415 155.072ZM155.063 155.04C154.151 155.04 153.607 154.688 153.607 154.016C153.607 153.264 154.327 152.8 155.735 152.544L157.527 152.208V153.312C157.527 154.368 156.343 155.04 155.063 155.04ZM163.134 144.32H161.854V154.016C161.854 155.472 162.478 156.16 163.774 156.16C164.19 156.16 164.622 156.08 164.958 155.936L165.166 154.704C164.702 154.88 164.43 154.928 163.998 154.928C163.342 154.928 163.134 154.672 163.134 153.856V144.32ZM175.075 147.84C172.659 147.84 171.203 149.408 171.203 152C171.203 154.592 172.659 156.16 175.075 156.16C177.491 156.16 178.947 154.592 178.947 152C178.947 149.408 177.491 147.84 175.075 147.84ZM175.075 148.944C176.691 148.944 177.667 150.096 177.667 152C177.667 153.904 176.691 155.056 175.075 155.056C173.459 155.056 172.483 153.904 172.483 152C172.483 150.096 173.459 148.944 175.075 148.944ZM187.081 148V152.352C187.081 154.24 185.881 155.04 184.521 155.04C183.369 155.04 182.633 154.544 182.633 152.896V148H181.353V153.232C181.353 155.344 182.713 156.16 184.297 156.16C185.577 156.16 186.601 155.744 187.161 154.784L187.241 156H188.361V148H187.081ZM206.089 147.84C205.081 147.84 203.801 148.32 203.305 149.408C202.777 148.336 201.673 147.84 200.553 147.84C199.561 147.84 198.569 148.272 197.993 149.248L197.913 148H196.793V156H198.073V151.728C198.073 149.744 199.385 148.96 200.441 148.96C201.497 148.96 202.329 149.552 202.329 151.008V156H203.609V151.616C203.609 149.904 204.729 148.96 205.977 148.96C207.033 148.96 207.865 149.552 207.865 151.008V156H209.145V150.88C209.145 148.768 207.625 147.84 206.089 147.84ZM218.907 151.584C218.907 149.52 217.643 147.84 215.323 147.84C212.907 147.84 211.547 149.408 211.547 152C211.547 154.592 213.003 156.16 215.419 156.16C217.147 156.16 218.139 155.504 218.747 154.416L217.675 153.856C217.387 154.624 216.587 155.04 215.419 155.04C213.947 155.04 212.971 154.096 212.811 152.48H218.843C218.875 152.256 218.907 151.952 218.907 151.584ZM215.323 148.96C216.683 148.96 217.499 149.872 217.675 151.344H212.827C213.019 149.84 213.899 148.96 215.323 148.96ZM225.228 147.84C224.124 147.84 223.1 148.24 222.54 149.248L222.46 148H221.34V156H222.62V151.744C222.62 149.696 223.932 148.96 225.1 148.96C226.204 148.96 227.068 149.552 227.068 151.328V156H228.348V150.88C228.348 148.816 226.94 147.84 225.228 147.84ZM233.966 156.16C236.014 156.16 237.31 155.184 237.31 153.792C237.31 152.48 236.51 151.808 234.27 151.44C232.638 151.168 232.11 150.816 232.11 150.128C232.11 149.536 232.91 148.96 233.982 148.96C234.99 148.96 235.71 149.344 236.062 150.4L237.15 149.76C236.702 148.448 235.694 147.84 233.982 147.84C232.03 147.84 230.83 148.944 230.83 150.24C230.83 151.584 231.662 152.208 233.934 152.624C235.534 152.912 236.03 153.264 236.03 153.856C236.03 154.512 235.406 155.04 234.094 155.04C232.942 155.04 231.95 154.608 231.566 153.632L230.526 154.352C231.134 155.584 232.494 156.16 233.966 156.16ZM246.243 155.072C245.795 155.072 245.635 154.88 245.635 154.496V150.56C245.635 148.704 244.307 147.84 242.483 147.84C240.931 147.84 239.667 148.608 239.251 149.792L240.195 150.48C240.627 149.472 241.427 148.96 242.483 148.96C243.683 148.96 244.355 149.664 244.355 150.72V151.168L242.227 151.52C240.163 151.872 239.107 152.816 239.107 154.016C239.107 155.456 240.323 156.16 241.827 156.16C242.851 156.16 243.891 155.728 244.403 154.976C244.547 155.872 245.059 156.16 245.843 156.16C246.243 156.16 246.579 156.08 246.803 156L246.883 154.992C246.691 155.04 246.451 155.072 246.243 155.072ZM241.891 155.04C240.979 155.04 240.435 154.688 240.435 154.016C240.435 153.264 241.155 152.8 242.563 152.544L244.355 152.208V153.312C244.355 154.368 243.171 155.04 241.891 155.04ZM249.962 144.32H248.682V154.016C248.682 155.472 249.306 156.16 250.602 156.16C251.018 156.16 251.45 156.08 251.786 155.936L251.994 154.704C251.53 154.88 251.258 154.928 250.826 154.928C250.17 154.928 249.962 154.672 249.962 153.856V144.32ZM253.036 143.984L252.3 144.72C254.412 146.656 255.148 148.576 255.148 151.504C255.148 154.432 254.412 156.352 252.3 158.288L253.036 159.024C255.292 157.072 256.46 154.512 256.46 151.504C256.46 148.496 255.292 145.936 253.036 143.984Z" fill="#2C2C2C"/>
<path fill-rule="evenodd" clip-rule="evenodd" d="M188 275C203.464 275 216 262.464 216 247C216 231.536 203.464 219 188 219C172.536 219 160 231.536 160 247C160 262.464 172.536 275 188 275ZM189.073 259.269L195.217 253.124C195.594 252.747 195.594 252.136 195.217 251.759C194.84 251.382 194.229 251.382 193.852 251.759L189.355 256.255L189.355 235.414C189.355 234.881 188.923 234.448 188.39 234.448C187.857 234.448 187.424 234.881 187.424 235.414L187.424 256.255L182.928 251.759C182.551 251.382 181.94 251.382 181.563 251.759C181.186 252.136 181.186 252.747 181.563 253.124L187.707 259.269C188.084 259.646 188.695 259.646 189.073 259.269Z" fill="#2DB563"/>
<g filter="url(#filter1_d_601_1050)">
<path fill-rule="evenodd" clip-rule="evenodd" d="M335 266C346.046 266 355 274.954 355 286L355 446C355 457.046 346.046 466 335 466L232.652 466C225.059 466 218.43 461.322 212.959 456.057C206.487 449.829 197.691 446 188 446C178.309 446 169.512 449.829 163.04 456.057C157.569 461.322 150.94 466 143.347 466L40 466C28.9543 466 20 457.046 20 446L20 286C20 274.954 28.9543 266 40 266L143.347 266C150.94 266 157.569 270.678 163.04 275.943C169.512 282.171 178.309 286 188 286C197.691 286 206.487 282.171 212.959 275.943C218.43 270.678 225.059 266 232.652 266L335 266Z" fill="url(#paint1_linear_601_1050)"/>
</g>
<path d="M147.929 330.84H140.051V348H144.523V342.046H147.929C152.193 342.046 154.559 340.044 154.559 336.534C154.559 332.842 152.193 330.84 147.929 330.84ZM147.227 338.77H144.523V334.22H147.227C149.203 334.22 150.061 334.974 150.061 336.482C150.061 338.016 149.203 338.77 147.227 338.77ZM169.665 345.478C169.041 345.478 168.729 345.14 168.729 344.464V339.732C168.729 336.378 166.519 334.74 162.515 334.74C158.979 334.74 156.951 336.274 156.509 338.744L160.097 339.784C160.357 338.276 161.267 337.782 162.515 337.782C163.685 337.782 164.361 338.536 164.361 339.706V340.174L161.423 340.746C157.731 341.474 156.353 342.852 156.353 345.01C156.353 347.116 157.809 348.26 160.383 348.26C162.775 348.26 164.283 347.506 165.011 346.258C165.401 347.662 166.623 348.26 168.365 348.26C169.015 348.26 169.613 348.13 170.133 347.844L170.471 345.374C170.237 345.452 169.977 345.478 169.665 345.478ZM161.995 345.4C161.189 345.4 160.721 345.01 160.721 344.282C160.721 343.554 161.163 343.19 162.255 342.93L164.361 342.436V343.554C164.361 344.75 163.087 345.4 161.995 345.4ZM177.596 348.26C181.782 348.26 183.784 346.388 183.784 343.996C183.784 341.76 182.25 340.538 178.402 339.862C176.582 339.524 176.01 339.186 176.01 338.666C176.01 338.146 176.686 337.678 177.986 337.678C179.546 337.678 180.69 338.198 181.522 339.42L183.81 337.184C182.692 335.65 180.976 334.74 177.856 334.74C173.618 334.74 171.59 336.924 171.59 339.056C171.59 341.188 173.02 342.462 176.972 343.242C178.714 343.606 179.338 343.918 179.338 344.412C179.338 344.958 178.61 345.322 177.388 345.322C175.724 345.322 174.32 344.776 173.54 343.476L171.252 345.972C172.578 347.584 174.736 348.26 177.596 348.26ZM191.459 348.26C195.645 348.26 197.647 346.388 197.647 343.996C197.647 341.76 196.113 340.538 192.265 339.862C190.445 339.524 189.873 339.186 189.873 338.666C189.873 338.146 190.549 337.678 191.849 337.678C193.409 337.678 194.553 338.198 195.385 339.42L197.673 337.184C196.555 335.65 194.839 334.74 191.719 334.74C187.481 334.74 185.453 336.924 185.453 339.056C185.453 341.188 186.883 342.462 190.835 343.242C192.577 343.606 193.201 343.918 193.201 344.412C193.201 344.958 192.473 345.322 191.251 345.322C189.587 345.322 188.183 344.776 187.403 343.476L185.115 345.972C186.441 347.584 188.599 348.26 191.459 348.26ZM206.104 334.74C201.762 334.74 199.24 337.236 199.24 341.5C199.24 345.764 201.762 348.26 206.104 348.26C210.446 348.26 212.968 345.764 212.968 341.5C212.968 337.236 210.446 334.74 206.104 334.74ZM206.104 337.886C207.742 337.886 208.548 338.952 208.548 341.5C208.548 344.048 207.742 345.114 206.104 345.114C204.466 345.114 203.66 344.048 203.66 341.5C203.66 338.952 204.466 337.886 206.104 337.886ZM222.918 348H235.788V344.594H231.758C230.666 344.594 229.158 344.646 228.3 344.698V344.672C232.954 341.994 235.58 339.446 235.58 336.092C235.58 333.414 233.656 330.58 229.106 330.58C225.258 330.58 222.45 332.634 222.372 336.43L226.194 337.6C226.246 335.312 227.182 334.09 228.82 334.09C230.354 334.09 231.134 335.078 231.134 336.404C231.134 338.822 228.794 341.474 222.918 345.14V348Z" fill="#2DB563"/>
<path d="M96.4197 379.296L95.1397 378.816C94.6757 380.24 93.5717 380.96 92.1637 380.96C89.9717 380.96 88.6117 379.376 88.6117 376.72C88.6117 374.048 90.0677 372.48 92.2277 372.48C93.6357 372.48 94.4997 373.12 94.9637 374.336L96.2277 373.744C95.5557 372.144 94.1797 371.28 92.1317 371.28C89.1877 371.28 87.2677 373.376 87.2677 376.72C87.2677 380.064 89.1557 382.16 92.1637 382.16C94.1477 382.16 95.7477 381.104 96.4197 379.296ZM105.196 381.072C104.748 381.072 104.588 380.88 104.588 380.496V376.56C104.588 374.704 103.26 373.84 101.436 373.84C99.8844 373.84 98.6204 374.608 98.2044 375.792L99.1484 376.48C99.5804 375.472 100.38 374.96 101.436 374.96C102.636 374.96 103.308 375.664 103.308 376.72V377.168L101.18 377.52C99.1164 377.872 98.0604 378.816 98.0604 380.016C98.0604 381.456 99.2764 382.16 100.78 382.16C101.804 382.16 102.844 381.728 103.356 380.976C103.5 381.872 104.012 382.16 104.796 382.16C105.196 382.16 105.532 382.08 105.756 382L105.836 380.992C105.644 381.04 105.404 381.072 105.196 381.072ZM100.844 381.04C99.9324 381.04 99.3884 380.688 99.3884 380.016C99.3884 379.264 100.108 378.8 101.516 378.544L103.308 378.208V379.312C103.308 380.368 102.124 381.04 100.844 381.04ZM113.523 370.32V375.248C113.027 374.416 112.067 373.84 110.867 373.84C108.643 373.84 107.219 375.392 107.219 378C107.219 380.608 108.643 382.16 110.867 382.16C112.131 382.16 113.139 381.52 113.603 380.608L113.683 382H114.803V370.32H113.523ZM111.011 381.04C109.443 381.04 108.499 379.856 108.499 378C108.499 376.144 109.443 374.96 111.011 374.96C112.531 374.96 113.523 376.096 113.523 377.904V378.096C113.523 379.904 112.531 381.04 111.011 381.04ZM124.337 381.072C123.889 381.072 123.729 380.88 123.729 380.496V376.56C123.729 374.704 122.401 373.84 120.577 373.84C119.025 373.84 117.761 374.608 117.345 375.792L118.289 376.48C118.721 375.472 119.521 374.96 120.577 374.96C121.777 374.96 122.449 375.664 122.449 376.72V377.168L120.321 377.52C118.257 377.872 117.201 378.816 117.201 380.016C117.201 381.456 118.417 382.16 119.921 382.16C120.945 382.16 121.985 381.728 122.497 380.976C122.641 381.872 123.153 382.16 123.937 382.16C124.337 382.16 124.673 382.08 124.897 382L124.977 380.992C124.785 381.04 124.545 381.072 124.337 381.072ZM119.985 381.04C119.073 381.04 118.529 380.688 118.529 380.016C118.529 379.264 119.249 378.8 120.657 378.544L122.449 378.208V379.312C122.449 380.368 121.265 381.04 119.985 381.04ZM129.56 382.16C131.608 382.16 132.904 381.184 132.904 379.792C132.904 378.48 132.104 377.808 129.864 377.44C128.232 377.168 127.704 376.816 127.704 376.128C127.704 375.536 128.504 374.96 129.576 374.96C130.584 374.96 131.304 375.344 131.656 376.4L132.744 375.76C132.296 374.448 131.288 373.84 129.576 373.84C127.624 373.84 126.424 374.944 126.424 376.24C126.424 377.584 127.256 378.208 129.528 378.624C131.128 378.912 131.624 379.264 131.624 379.856C131.624 380.512 131 381.04 129.688 381.04C128.536 381.04 127.544 380.608 127.16 379.632L126.12 380.352C126.728 381.584 128.088 382.16 129.56 382.16ZM139.725 380.368C139.357 380.736 138.941 380.96 138.365 380.96C137.661 380.96 137.165 380.576 137.165 379.792V375.104H140.125V374H137.165V371.728L135.885 372.08V374H134.285V375.104H135.885V380.016C135.901 381.568 136.925 382.16 138.109 382.16C138.989 382.16 139.677 381.888 140.173 381.44L139.725 380.368ZM145.756 373.84C144.508 373.84 143.644 374.336 143.196 375.312L143.02 374H141.98V382H143.26V377.68C143.26 375.888 144.412 375.04 145.372 375.04C145.788 375.04 146.14 375.12 146.38 375.248L146.636 374C146.396 373.872 146.028 373.84 145.756 373.84ZM155.125 377.584C155.125 375.52 153.861 373.84 151.541 373.84C149.125 373.84 147.765 375.408 147.765 378C147.765 380.592 149.221 382.16 151.637 382.16C153.365 382.16 154.357 381.504 154.965 380.416L153.893 379.856C153.605 380.624 152.805 381.04 151.637 381.04C150.165 381.04 149.189 380.096 149.029 378.48H155.061C155.093 378.256 155.125 377.952 155.125 377.584ZM151.541 374.96C152.901 374.96 153.717 375.872 153.893 377.344H149.045C149.237 375.84 150.117 374.96 151.541 374.96ZM166.387 373.84C163.971 373.84 162.515 375.408 162.515 378C162.515 380.592 163.971 382.16 166.387 382.16C168.803 382.16 170.259 380.592 170.259 378C170.259 375.408 168.803 373.84 166.387 373.84ZM166.387 374.944C168.003 374.944 168.979 376.096 168.979 378C168.979 379.904 168.003 381.056 166.387 381.056C164.771 381.056 163.795 379.904 163.795 378C163.795 376.096 164.771 374.944 166.387 374.944ZM175.466 382.16C177.514 382.16 178.81 381.184 178.81 379.792C178.81 378.48 178.01 377.808 175.77 377.44C174.138 377.168 173.61 376.816 173.61 376.128C173.61 375.536 174.41 374.96 175.482 374.96C176.49 374.96 177.21 375.344 177.562 376.4L178.65 375.76C178.202 374.448 177.194 373.84 175.482 373.84C173.53 373.84 172.33 374.944 172.33 376.24C172.33 377.584 173.162 378.208 175.434 378.624C177.034 378.912 177.53 379.264 177.53 379.856C177.53 380.512 176.906 381.04 175.594 381.04C174.442 381.04 173.45 380.608 173.066 379.632L172.026 380.352C172.634 381.584 173.994 382.16 175.466 382.16ZM189.356 382.16C191.404 382.16 192.7 381.184 192.7 379.792C192.7 378.48 191.9 377.808 189.66 377.44C188.028 377.168 187.5 376.816 187.5 376.128C187.5 375.536 188.3 374.96 189.372 374.96C190.38 374.96 191.1 375.344 191.452 376.4L192.54 375.76C192.092 374.448 191.084 373.84 189.372 373.84C187.42 373.84 186.22 374.944 186.22 376.24C186.22 377.584 187.052 378.208 189.324 378.624C190.924 378.912 191.42 379.264 191.42 379.856C191.42 380.512 190.796 381.04 189.484 381.04C188.332 381.04 187.34 380.608 186.956 379.632L185.916 380.352C186.524 381.584 187.884 382.16 189.356 382.16ZM201.938 377.584C201.938 375.52 200.674 373.84 198.354 373.84C195.938 373.84 194.578 375.408 194.578 378C194.578 380.592 196.034 382.16 198.45 382.16C200.178 382.16 201.17 381.504 201.778 380.416L200.706 379.856C200.418 380.624 199.618 381.04 198.45 381.04C196.978 381.04 196.002 380.096 195.842 378.48H201.874C201.906 378.256 201.938 377.952 201.938 377.584ZM198.354 374.96C199.714 374.96 200.53 375.872 200.706 377.344H195.858C196.05 375.84 196.93 374.96 198.354 374.96ZM210.019 374V378.352C210.019 380.24 208.819 381.04 207.459 381.04C206.307 381.04 205.571 380.544 205.571 378.896V374H204.291V379.232C204.291 381.344 205.651 382.16 207.235 382.16C208.515 382.16 209.539 381.744 210.099 380.784L210.179 382H211.299V374H210.019ZM216.997 382.16C219.045 382.16 220.341 381.184 220.341 379.792C220.341 378.48 219.541 377.808 217.301 377.44C215.669 377.168 215.141 376.816 215.141 376.128C215.141 375.536 215.941 374.96 217.013 374.96C218.021 374.96 218.741 375.344 219.093 376.4L220.181 375.76C219.733 374.448 218.725 373.84 217.013 373.84C215.061 373.84 213.861 374.944 213.861 376.24C213.861 377.584 214.693 378.208 216.965 378.624C218.565 378.912 219.061 379.264 219.061 379.856C219.061 380.512 218.437 381.04 217.125 381.04C215.973 381.04 214.981 380.608 214.597 379.632L213.557 380.352C214.165 381.584 215.525 382.16 216.997 382.16ZM233.992 370.32V375.248C233.496 374.416 232.536 373.84 231.336 373.84C229.112 373.84 227.688 375.392 227.688 378C227.688 380.608 229.112 382.16 231.336 382.16C232.6 382.16 233.608 381.52 234.072 380.608L234.152 382H235.272V370.32H233.992ZM231.48 381.04C229.912 381.04 228.968 379.856 228.968 378C228.968 376.144 229.912 374.96 231.48 374.96C233 374.96 233.992 376.096 233.992 377.904V378.096C233.992 379.904 233 381.04 231.48 381.04ZM244.806 381.072C244.358 381.072 244.198 380.88 244.198 380.496V376.56C244.198 374.704 242.87 373.84 241.046 373.84C239.494 373.84 238.23 374.608 237.814 375.792L238.758 376.48C239.19 375.472 239.99 374.96 241.046 374.96C242.246 374.96 242.918 375.664 242.918 376.72V377.168L240.79 377.52C238.726 377.872 237.67 378.816 237.67 380.016C237.67 381.456 238.886 382.16 240.39 382.16C241.414 382.16 242.454 381.728 242.966 380.976C243.11 381.872 243.622 382.16 244.406 382.16C244.806 382.16 245.142 382.08 245.366 382L245.446 380.992C245.254 381.04 245.014 381.072 244.806 381.072ZM240.454 381.04C239.542 381.04 238.998 380.688 238.998 380.016C238.998 379.264 239.718 378.8 241.126 378.544L242.918 378.208V379.312C242.918 380.368 241.734 381.04 240.454 381.04ZM253.132 370.32V375.248C252.636 374.416 251.676 373.84 250.476 373.84C248.252 373.84 246.828 375.392 246.828 378C246.828 380.608 248.252 382.16 250.476 382.16C251.74 382.16 252.748 381.52 253.212 380.608L253.292 382H254.412V370.32H253.132ZM250.62 381.04C249.052 381.04 248.108 379.856 248.108 378C248.108 376.144 249.052 374.96 250.62 374.96C252.14 374.96 253.132 376.096 253.132 377.904V378.096C253.132 379.904 252.14 381.04 250.62 381.04ZM260.762 373.84C258.346 373.84 256.89 375.408 256.89 378C256.89 380.592 258.346 382.16 260.762 382.16C263.178 382.16 264.634 380.592 264.634 378C264.634 375.408 263.178 373.84 260.762 373.84ZM260.762 374.944C262.378 374.944 263.354 376.096 263.354 378C263.354 379.904 262.378 381.056 260.762 381.056C259.146 381.056 258.17 379.904 258.17 378C258.17 376.096 259.146 374.944 260.762 374.944ZM269.841 382.16C271.889 382.16 273.185 381.184 273.185 379.792C273.185 378.48 272.385 377.808 270.145 377.44C268.513 377.168 267.985 376.816 267.985 376.128C267.985 375.536 268.785 374.96 269.857 374.96C270.865 374.96 271.585 375.344 271.937 376.4L273.025 375.76C272.577 374.448 271.569 373.84 269.857 373.84C267.905 373.84 266.705 374.944 266.705 376.24C266.705 377.584 267.537 378.208 269.809 378.624C271.409 378.912 271.905 379.264 271.905 379.856C271.905 380.512 271.281 381.04 269.969 381.04C268.817 381.04 267.825 380.608 267.441 379.632L266.401 380.352C267.009 381.584 268.369 382.16 269.841 382.16ZM287.875 377.584C287.875 375.52 286.611 373.84 284.291 373.84C281.875 373.84 280.515 375.408 280.515 378C280.515 380.592 281.971 382.16 284.387 382.16C286.115 382.16 287.107 381.504 287.715 380.416L286.643 379.856C286.355 380.624 285.555 381.04 284.387 381.04C282.915 381.04 281.939 380.096 281.779 378.48H287.811C287.843 378.256 287.875 377.952 287.875 377.584ZM284.291 374.96C285.651 374.96 286.467 375.872 286.643 377.344H281.795C281.987 375.84 282.867 374.96 284.291 374.96ZM108.736 393.784C108.736 392.824 109.264 392.408 110.192 392.408C110.56 392.408 110.848 392.488 111.104 392.648L111.44 391.608C111.152 391.368 110.64 391.24 110.08 391.24C108.32 391.24 107.456 392.232 107.456 393.656V395H105.856V396.104H107.456V403H108.736V396.104H111.408V395H108.736V393.784ZM116.27 394.84C113.854 394.84 112.398 396.408 112.398 399C112.398 401.592 113.854 403.16 116.27 403.16C118.686 403.16 120.142 401.592 120.142 399C120.142 396.408 118.686 394.84 116.27 394.84ZM116.27 395.944C117.886 395.944 118.862 397.096 118.862 399C118.862 400.904 117.886 402.056 116.27 402.056C114.654 402.056 113.678 400.904 113.678 399C113.678 397.096 114.654 395.944 116.27 395.944ZM126.405 394.84C125.157 394.84 124.293 395.336 123.845 396.312L123.669 395H122.629V403H123.909V398.68C123.909 396.888 125.061 396.04 126.021 396.04C126.437 396.04 126.789 396.12 127.029 396.248L127.285 395C127.045 394.872 126.677 394.84 126.405 394.84ZM138.456 394.84C137.448 394.84 136.168 395.32 135.672 396.408C135.144 395.336 134.04 394.84 132.92 394.84C131.928 394.84 130.936 395.272 130.36 396.248L130.28 395H129.16V403H130.44V398.728C130.44 396.744 131.752 395.96 132.808 395.96C133.864 395.96 134.696 396.552 134.696 398.008V403H135.976V398.616C135.976 396.904 137.096 395.96 138.344 395.96C139.4 395.96 140.232 396.552 140.232 398.008V403H141.512V397.88C141.512 395.768 139.992 394.84 138.456 394.84ZM150.97 402.072C150.522 402.072 150.362 401.88 150.362 401.496V397.56C150.362 395.704 149.034 394.84 147.21 394.84C145.658 394.84 144.394 395.608 143.978 396.792L144.922 397.48C145.354 396.472 146.154 395.96 147.21 395.96C148.41 395.96 149.082 396.664 149.082 397.72V398.168L146.954 398.52C144.89 398.872 143.834 399.816 143.834 401.016C143.834 402.456 145.05 403.16 146.554 403.16C147.578 403.16 148.618 402.728 149.13 401.976C149.274 402.872 149.786 403.16 150.57 403.16C150.97 403.16 151.306 403.08 151.53 403L151.61 401.992C151.418 402.04 151.178 402.072 150.97 402.072ZM146.618 402.04C145.706 402.04 145.162 401.688 145.162 401.016C145.162 400.264 145.882 399.8 147.29 399.544L149.082 399.208V400.312C149.082 401.368 147.898 402.04 146.618 402.04ZM164.375 391.32V396.248C163.879 395.416 162.919 394.84 161.719 394.84C159.495 394.84 158.071 396.392 158.071 399C158.071 401.608 159.495 403.16 161.719 403.16C162.983 403.16 163.991 402.52 164.455 401.608L164.535 403H165.655V391.32H164.375ZM161.863 402.04C160.295 402.04 159.351 400.856 159.351 399C159.351 397.144 160.295 395.96 161.863 395.96C163.383 395.96 164.375 397.096 164.375 398.904V399.096C164.375 400.904 163.383 402.04 161.863 402.04ZM175.493 398.584C175.493 396.52 174.229 394.84 171.909 394.84C169.493 394.84 168.133 396.408 168.133 399C168.133 401.592 169.589 403.16 172.005 403.16C173.733 403.16 174.725 402.504 175.333 401.416L174.261 400.856C173.973 401.624 173.173 402.04 172.005 402.04C170.533 402.04 169.557 401.096 169.397 399.48H175.429C175.461 399.256 175.493 398.952 175.493 398.584ZM171.909 395.96C173.269 395.96 174.085 396.872 174.261 398.344H169.413C169.605 396.84 170.485 395.96 171.909 395.96ZM187.315 394.84C186.051 394.84 185.043 395.48 184.579 396.392L184.499 395H183.379V406.36H184.659V401.752C185.155 402.584 186.115 403.16 187.315 403.16C189.539 403.16 190.963 401.608 190.963 399C190.963 396.392 189.539 394.84 187.315 394.84ZM187.171 402.04C185.651 402.04 184.659 400.904 184.659 399.096V398.904C184.659 397.096 185.651 395.96 187.171 395.96C188.739 395.96 189.683 397.144 189.683 399C189.683 400.856 188.739 402.04 187.171 402.04ZM200.017 402.072C199.569 402.072 199.409 401.88 199.409 401.496V397.56C199.409 395.704 198.081 394.84 196.257 394.84C194.705 394.84 193.441 395.608 193.025 396.792L193.969 397.48C194.401 396.472 195.201 395.96 196.257 395.96C197.457 395.96 198.129 396.664 198.129 397.72V398.168L196.001 398.52C193.937 398.872 192.881 399.816 192.881 401.016C192.881 402.456 194.097 403.16 195.601 403.16C196.625 403.16 197.665 402.728 198.177 401.976C198.321 402.872 198.833 403.16 199.617 403.16C200.017 403.16 200.353 403.08 200.577 403L200.657 401.992C200.465 402.04 200.225 402.072 200.017 402.072ZM195.665 402.04C194.753 402.04 194.209 401.688 194.209 401.016C194.209 400.264 194.929 399.8 196.337 399.544L198.129 399.208V400.312C198.129 401.368 196.945 402.04 195.665 402.04ZM206.983 401.976H204.327C203.703 401.976 203.271 401.672 203.271 401.112C203.271 400.568 203.527 400.248 204.167 400.104C204.519 400.2 204.935 400.248 205.399 400.248C207.319 400.248 208.679 399.128 208.679 397.544C208.679 396.712 208.311 396.008 207.671 395.528C207.895 394.952 208.503 394.648 209.575 394.648L209.287 393.528C208.087 393.528 207.335 394.056 207.031 395.16C206.551 394.952 206.007 394.84 205.399 394.84C203.479 394.84 202.119 395.96 202.119 397.544C202.119 398.472 202.519 399.256 203.287 399.736C202.583 399.976 202.087 400.472 202.087 401.304C202.087 402.008 202.567 402.488 203.175 402.776C202.295 403.016 201.767 403.592 201.767 404.328C201.767 405.528 202.919 406.44 205.447 406.44C207.607 406.44 209.399 405.464 209.399 403.88C209.399 402.728 208.503 401.976 206.983 401.976ZM205.399 395.88C206.503 395.88 207.351 396.552 207.351 397.544C207.351 398.536 206.503 399.208 205.399 399.208C204.295 399.208 203.447 398.536 203.447 397.544C203.447 396.552 204.295 395.88 205.399 395.88ZM205.591 405.368C203.831 405.368 202.951 404.856 202.951 404.072C202.951 403.464 203.479 403.08 204.487 403.08H206.631C207.831 403.08 208.215 403.448 208.215 404.024C208.215 404.728 207.287 405.368 205.591 405.368ZM217.861 402.072C217.413 402.072 217.253 401.88 217.253 401.496V397.56C217.253 395.704 215.925 394.84 214.101 394.84C212.549 394.84 211.285 395.608 210.868 396.792L211.812 397.48C212.245 396.472 213.045 395.96 214.101 395.96C215.301 395.96 215.973 396.664 215.973 397.72V398.168L213.845 398.52C211.781 398.872 210.725 399.816 210.725 401.016C210.725 402.456 211.941 403.16 213.445 403.16C214.469 403.16 215.509 402.728 216.021 401.976C216.165 402.872 216.677 403.16 217.461 403.16C217.861 403.16 218.197 403.08 218.421 403L218.501 401.992C218.309 402.04 218.069 402.072 217.861 402.072ZM213.509 402.04C212.597 402.04 212.053 401.688 212.053 401.016C212.053 400.264 212.773 399.8 214.181 399.544L215.973 399.208V400.312C215.973 401.368 214.789 402.04 213.509 402.04ZM229.659 394.84C228.651 394.84 227.371 395.32 226.875 396.408C226.347 395.336 225.243 394.84 224.123 394.84C223.131 394.84 222.139 395.272 221.563 396.248L221.483 395H220.363V403H221.643V398.728C221.643 396.744 222.955 395.96 224.011 395.96C225.067 395.96 225.899 396.552 225.899 398.008V403H227.179V398.616C227.179 396.904 228.299 395.96 229.547 395.96C230.603 395.96 231.435 396.552 231.435 398.008V403H232.715V397.88C232.715 395.768 231.195 394.84 229.659 394.84ZM242.477 398.584C242.477 396.52 241.213 394.84 238.893 394.84C236.477 394.84 235.117 396.408 235.117 399C235.117 401.592 236.573 403.16 238.989 403.16C240.717 403.16 241.709 402.504 242.317 401.416L241.245 400.856C240.957 401.624 240.157 402.04 238.989 402.04C237.517 402.04 236.541 401.096 236.381 399.48H242.413C242.445 399.256 242.477 398.952 242.477 398.584ZM238.893 395.96C240.253 395.96 241.069 396.872 241.245 398.344H236.397C236.589 396.84 237.469 395.96 238.893 395.96ZM248.798 394.84C247.694 394.84 246.67 395.24 246.11 396.248L246.03 395H244.91V403H246.19V398.744C246.19 396.696 247.502 395.96 248.67 395.96C249.774 395.96 250.638 396.552 250.638 398.328V403H251.918V397.88C251.918 395.816 250.51 394.84 248.798 394.84ZM259.155 401.368C258.787 401.736 258.371 401.96 257.795 401.96C257.091 401.96 256.595 401.576 256.595 400.792V396.104H259.555V395H256.595V392.728L255.315 393.08V395H253.715V396.104H255.315V401.016C255.331 402.568 256.355 403.16 257.539 403.16C258.419 403.16 259.107 402.888 259.603 402.44L259.155 401.368ZM264.786 394.84C262.37 394.84 260.914 396.408 260.914 399C260.914 401.592 262.37 403.16 264.786 403.16C267.202 403.16 268.658 401.592 268.658 399C268.658 396.408 267.202 394.84 264.786 394.84ZM264.786 395.944C266.402 395.944 267.378 397.096 267.378 399C267.378 400.904 266.402 402.056 264.786 402.056C263.17 402.056 262.194 400.904 262.194 399C262.194 397.096 263.17 395.944 264.786 395.944Z" fill="#2C2C2C"/>
<path fill-rule="evenodd" clip-rule="evenodd" d="M188 511C203.464 511 216 498.464 216 483C216 467.536 203.464 455 188 455C172.536 455 160 467.536 160 483C160 498.464 172.536 511 188 511ZM189.073 495.269L195.217 489.124C195.594 488.747 195.594 488.136 195.217 487.759C194.84 487.382 194.229 487.382 193.852 487.759L189.355 492.255L189.355 471.414C189.355 470.881 188.923 470.448 188.39 470.448C187.857 470.448 187.424 470.881 187.424 471.414L187.424 492.255L182.928 487.759C182.551 487.382 181.94 487.382 181.563 487.759C181.186 488.136 181.186 488.747 181.563 489.124L187.707 495.269C188.084 495.646 188.695 495.646 189.073 495.269Z" fill="#2DB563"/>
<path fill-rule="evenodd" clip-rule="evenodd" d="M188 746C203.464 746 216 733.464 216 718C216 702.536 203.464 690 188 690C172.536 690 160 702.536 160 718C160 733.464 172.536 746 188 746ZM189.073 730.269L195.217 724.124C195.594 723.747 195.594 723.136 195.217 722.759C194.84 722.382 194.229 722.382 193.852 722.759L189.355 727.255L189.355 706.414C189.355 705.881 188.923 705.448 188.39 705.448C187.857 705.448 187.424 705.881 187.424 706.414L187.424 727.255L182.928 722.759C182.551 722.382 181.94 722.382 181.563 722.759C181.186 723.136 181.186 723.747 181.563 724.124L187.707 730.269C188.084 730.646 188.695 730.646 189.073 730.269Z" fill="#2DB563"/>
<g filter="url(#filter2_d_601_1050)">
<path fill-rule="evenodd" clip-rule="evenodd" d="M335 502C346.046 502 355 510.954 355 522L355 682C355 693.046 346.046 702 335 702L232.652 702C225.059 702 218.43 697.322 212.959 692.057C206.487 685.829 197.691 682 188 682C178.309 682 169.512 685.829 163.04 692.057C157.569 697.322 150.94 702 143.347 702L40 702C28.9543 702 20 693.046 20 682L20 522C20 510.954 28.9543 502 40 502L143.347 502C150.94 502 157.569 506.678 163.04 511.943C169.512 518.171 178.309 522 188 522C197.691 522 206.487 518.171 212.959 511.943C218.43 506.678 225.059 502 232.652 502L335 502Z" fill="url(#paint2_linear_601_1050)"/>
</g>
<path d="M147.967 554.84H140.089V572H144.561V566.046H147.967C152.231 566.046 154.597 564.044 154.597 560.534C154.597 556.842 152.231 554.84 147.967 554.84ZM147.265 562.77H144.561V558.22H147.265C149.241 558.22 150.099 558.974 150.099 560.482C150.099 562.016 149.241 562.77 147.265 562.77ZM169.703 569.478C169.079 569.478 168.767 569.14 168.767 568.464V563.732C168.767 560.378 166.557 558.74 162.553 558.74C159.017 558.74 156.989 560.274 156.547 562.744L160.135 563.784C160.395 562.276 161.305 561.782 162.553 561.782C163.723 561.782 164.399 562.536 164.399 563.706V564.174L161.461 564.746C157.769 565.474 156.391 566.852 156.391 569.01C156.391 571.116 157.847 572.26 160.421 572.26C162.813 572.26 164.321 571.506 165.049 570.258C165.439 571.662 166.661 572.26 168.403 572.26C169.053 572.26 169.651 572.13 170.171 571.844L170.509 569.374C170.275 569.452 170.015 569.478 169.703 569.478ZM162.033 569.4C161.227 569.4 160.759 569.01 160.759 568.282C160.759 567.554 161.201 567.19 162.293 566.93L164.399 566.436V567.554C164.399 568.75 163.125 569.4 162.033 569.4ZM177.634 572.26C181.82 572.26 183.822 570.388 183.822 567.996C183.822 565.76 182.288 564.538 178.44 563.862C176.62 563.524 176.048 563.186 176.048 562.666C176.048 562.146 176.724 561.678 178.024 561.678C179.584 561.678 180.728 562.198 181.56 563.42L183.848 561.184C182.73 559.65 181.014 558.74 177.894 558.74C173.656 558.74 171.628 560.924 171.628 563.056C171.628 565.188 173.058 566.462 177.01 567.242C178.752 567.606 179.376 567.918 179.376 568.412C179.376 568.958 178.648 569.322 177.426 569.322C175.762 569.322 174.358 568.776 173.578 567.476L171.29 569.972C172.616 571.584 174.774 572.26 177.634 572.26ZM191.497 572.26C195.683 572.26 197.685 570.388 197.685 567.996C197.685 565.76 196.151 564.538 192.303 563.862C190.483 563.524 189.911 563.186 189.911 562.666C189.911 562.146 190.587 561.678 191.887 561.678C193.447 561.678 194.591 562.198 195.423 563.42L197.711 561.184C196.593 559.65 194.877 558.74 191.757 558.74C187.519 558.74 185.491 560.924 185.491 563.056C185.491 565.188 186.921 566.462 190.873 567.242C192.615 567.606 193.239 567.918 193.239 568.412C193.239 568.958 192.511 569.322 191.289 569.322C189.625 569.322 188.221 568.776 187.441 567.476L185.153 569.972C186.479 571.584 188.637 572.26 191.497 572.26ZM206.142 558.74C201.8 558.74 199.278 561.236 199.278 565.5C199.278 569.764 201.8 572.26 206.142 572.26C210.484 572.26 213.006 569.764 213.006 565.5C213.006 561.236 210.484 558.74 206.142 558.74ZM206.142 561.886C207.78 561.886 208.586 562.952 208.586 565.5C208.586 568.048 207.78 569.114 206.142 569.114C204.504 569.114 203.698 568.048 203.698 565.5C203.698 562.952 204.504 561.886 206.142 561.886ZM229.17 554.58C225.842 554.58 223.19 555.828 222.592 559.026L226.518 560.352C226.674 558.714 227.584 558.038 228.91 558.038C230.21 558.038 230.964 558.74 230.938 560.066C230.938 561.392 230.184 562.042 228.546 562.042H227.792V564.876H228.754C230.496 564.876 231.276 565.396 231.302 566.722C231.328 568.048 230.418 568.802 228.91 568.802C227.376 568.802 226.44 568.1 226.258 566.254L222.202 567.996C223.164 571.012 225.348 572.26 228.962 572.26C232.836 572.26 235.618 570.284 235.618 567.32C235.618 564.278 233.252 563.42 232.056 563.42V563.342C233.044 563.342 235.28 562.276 235.28 559.39C235.28 556.478 233.07 554.58 229.17 554.58Z" fill="#2DB563"/>
<path d="M90.3575 595.44H88.9815L86.2935 602.752L85.6215 604.832L84.9495 602.736L82.2615 595.44H80.8855L84.9015 606H86.3575L90.3575 595.44ZM94.9421 597.84C92.5261 597.84 91.0701 599.408 91.0701 602C91.0701 604.592 92.5261 606.16 94.9421 606.16C97.3581 606.16 98.8141 604.592 98.8141 602C98.8141 599.408 97.3581 597.84 94.9421 597.84ZM94.9421 598.944C96.5581 598.944 97.5341 600.096 97.5341 602C97.5341 603.904 96.5581 605.056 94.9421 605.056C93.3261 605.056 92.3501 603.904 92.3501 602C92.3501 600.096 93.3261 598.944 94.9421 598.944ZM104.677 597.84C102.261 597.84 100.805 599.408 100.805 602C100.805 604.592 102.261 606.16 104.677 606.16C106.373 606.16 107.525 605.28 108.069 603.808L106.885 603.392C106.645 604.448 105.893 605.04 104.645 605.04C103.045 605.04 102.085 603.904 102.085 602C102.085 600.096 103.045 598.96 104.645 598.96C105.749 598.96 106.437 599.52 106.773 600.544L107.989 599.968C107.397 598.656 106.325 597.84 104.677 597.84ZM113.564 594.944L114.94 596.784H116.108L114.284 594.112H112.844L111.02 596.784H112.188L113.564 594.944ZM117.196 601.584C117.196 599.52 115.932 597.84 113.612 597.84C111.196 597.84 109.836 599.408 109.836 602C109.836 604.592 111.292 606.16 113.708 606.16C115.436 606.16 116.428 605.504 117.036 604.416L115.964 603.856C115.676 604.624 114.876 605.04 113.708 605.04C112.236 605.04 111.26 604.096 111.1 602.48H117.132C117.164 602.256 117.196 601.952 117.196 601.584ZM113.612 598.96C114.972 598.96 115.788 599.872 115.964 601.344H111.116C111.308 599.84 112.188 598.96 113.612 598.96ZM128.858 597.84C127.61 597.84 126.746 598.336 126.298 599.312L126.122 598H125.082V606H126.362V601.68C126.362 599.888 127.514 599.04 128.474 599.04C128.89 599.04 129.242 599.12 129.482 599.248L129.738 598C129.498 597.872 129.13 597.84 128.858 597.84ZM138.227 601.584C138.227 599.52 136.963 597.84 134.643 597.84C132.227 597.84 130.867 599.408 130.867 602C130.867 604.592 132.323 606.16 134.739 606.16C136.467 606.16 137.459 605.504 138.067 604.416L136.995 603.856C136.707 604.624 135.907 605.04 134.739 605.04C133.267 605.04 132.291 604.096 132.131 602.48H138.163C138.195 602.256 138.227 601.952 138.227 601.584ZM134.643 598.96C136.003 598.96 136.819 599.872 136.995 601.344H132.147C132.339 599.84 133.219 598.96 134.643 598.96ZM144.036 597.84C141.62 597.84 140.164 599.408 140.164 602C140.164 604.592 141.62 606.16 144.036 606.16C145.732 606.16 146.884 605.28 147.428 603.808L146.244 603.392C146.004 604.448 145.252 605.04 144.004 605.04C142.404 605.04 141.444 603.904 141.444 602C141.444 600.096 142.404 598.96 144.004 598.96C145.108 598.96 145.796 599.52 146.132 600.544L147.348 599.968C146.756 598.656 145.684 597.84 144.036 597.84ZM156.555 601.584C156.555 599.52 155.291 597.84 152.971 597.84C150.555 597.84 149.195 599.408 149.195 602C149.195 604.592 150.651 606.16 153.067 606.16C154.795 606.16 155.787 605.504 156.395 604.416L155.323 603.856C155.035 604.624 154.235 605.04 153.067 605.04C151.595 605.04 150.619 604.096 150.459 602.48H156.491C156.523 602.256 156.555 601.952 156.555 601.584ZM152.971 598.96C154.331 598.96 155.147 599.872 155.323 601.344H150.475C150.667 599.84 151.547 598.96 152.971 598.96ZM162.924 597.84C161.724 597.84 160.764 598.416 160.268 599.248V594.32H158.988V606H160.108L160.188 604.608C160.652 605.52 161.66 606.16 162.924 606.16C165.148 606.16 166.572 604.608 166.572 602C166.572 599.392 165.148 597.84 162.924 597.84ZM162.78 605.04C161.26 605.04 160.268 603.904 160.268 602.096V601.904C160.268 600.096 161.26 598.96 162.78 598.96C164.348 598.96 165.292 600.144 165.292 602C165.292 603.856 164.348 605.04 162.78 605.04ZM175.93 601.584C175.93 599.52 174.666 597.84 172.346 597.84C169.93 597.84 168.57 599.408 168.57 602C168.57 604.592 170.026 606.16 172.442 606.16C174.17 606.16 175.162 605.504 175.77 604.416L174.698 603.856C174.41 604.624 173.61 605.04 172.442 605.04C170.97 605.04 169.994 604.096 169.834 602.48H175.866C175.898 602.256 175.93 601.952 175.93 601.584ZM172.346 598.96C173.706 598.96 174.522 599.872 174.698 601.344H169.85C170.042 599.84 170.922 598.96 172.346 598.96ZM182.139 597.84C180.891 597.84 180.027 598.336 179.579 599.312L179.403 598H178.363V606H179.643V601.68C179.643 599.888 180.795 599.04 181.755 599.04C182.171 599.04 182.523 599.12 182.763 599.248L183.019 598C182.779 597.872 182.411 597.84 182.139 597.84ZM189.428 594H188.036L186.82 596.672H187.86L189.428 594ZM191.236 605.072C190.788 605.072 190.628 604.88 190.628 604.496V600.56C190.628 598.704 189.3 597.84 187.476 597.84C185.924 597.84 184.66 598.608 184.243 599.792L185.188 600.48C185.62 599.472 186.42 598.96 187.476 598.96C188.676 598.96 189.348 599.664 189.348 600.72V601.168L187.22 601.52C185.156 601.872 184.1 602.816 184.1 604.016C184.1 605.456 185.316 606.16 186.82 606.16C187.844 606.16 188.884 605.728 189.396 604.976C189.54 605.872 190.052 606.16 190.836 606.16C191.236 606.16 191.572 606.08 191.796 606L191.876 604.992C191.684 605.04 191.444 605.072 191.236 605.072ZM186.884 605.04C185.972 605.04 185.428 604.688 185.428 604.016C185.428 603.264 186.148 602.8 187.556 602.544L189.348 602.208V603.312C189.348 604.368 188.164 605.04 186.884 605.04ZM202.752 597.84C201.488 597.84 200.48 598.48 200.016 599.392L199.936 598H198.816V609.36H200.096V604.752C200.592 605.584 201.552 606.16 202.752 606.16C204.976 606.16 206.4 604.608 206.4 602C206.4 599.392 204.976 597.84 202.752 597.84ZM202.608 605.04C201.088 605.04 200.096 603.904 200.096 602.096V601.904C200.096 600.096 201.088 598.96 202.608 598.96C204.176 598.96 205.12 600.144 205.12 602C205.12 603.856 204.176 605.04 202.608 605.04ZM212.27 597.84C209.854 597.84 208.398 599.408 208.398 602C208.398 604.592 209.854 606.16 212.27 606.16C214.686 606.16 216.142 604.592 216.142 602C216.142 599.408 214.686 597.84 212.27 597.84ZM212.27 598.944C213.886 598.944 214.862 600.096 214.862 602C214.862 603.904 213.886 605.056 212.27 605.056C210.654 605.056 209.678 603.904 209.678 602C209.678 600.096 210.654 598.944 212.27 598.944ZM222.405 597.84C221.157 597.84 220.293 598.336 219.845 599.312L219.669 598H218.629V606H219.909V601.68C219.909 599.888 221.061 599.04 222.021 599.04C222.437 599.04 222.789 599.12 223.029 599.248L223.285 598C223.045 597.872 222.677 597.84 222.405 597.84ZM237.102 601.584C237.102 599.52 235.838 597.84 233.518 597.84C231.102 597.84 229.742 599.408 229.742 602C229.742 604.592 231.198 606.16 233.614 606.16C235.342 606.16 236.334 605.504 236.942 604.416L235.87 603.856C235.582 604.624 234.782 605.04 233.614 605.04C232.142 605.04 231.166 604.096 231.006 602.48H237.038C237.07 602.256 237.102 601.952 237.102 601.584ZM233.518 598.96C234.878 598.96 235.694 599.872 235.87 601.344H231.022C231.214 599.84 232.094 598.96 233.518 598.96ZM248.831 597.84C247.823 597.84 246.543 598.32 246.047 599.408C245.519 598.336 244.415 597.84 243.295 597.84C242.303 597.84 241.311 598.272 240.735 599.248L240.655 598H239.535V606H240.815V601.728C240.815 599.744 242.127 598.96 243.183 598.96C244.239 598.96 245.071 599.552 245.071 601.008V606H246.351V601.616C246.351 599.904 247.471 598.96 248.719 598.96C249.775 598.96 250.607 599.552 250.607 601.008V606H251.887V600.88C251.887 598.768 250.367 597.84 248.831 597.84ZM261.345 605.072C260.897 605.072 260.737 604.88 260.737 604.496V600.56C260.737 598.704 259.409 597.84 257.585 597.84C256.033 597.84 254.769 598.608 254.353 599.792L255.297 600.48C255.729 599.472 256.529 598.96 257.585 598.96C258.785 598.96 259.457 599.664 259.457 600.72V601.168L257.329 601.52C255.265 601.872 254.209 602.816 254.209 604.016C254.209 605.456 255.425 606.16 256.929 606.16C257.953 606.16 258.993 605.728 259.505 604.976C259.649 605.872 260.161 606.16 260.945 606.16C261.345 606.16 261.681 606.08 261.905 606L261.985 604.992C261.793 605.04 261.553 605.072 261.345 605.072ZM256.993 605.04C256.081 605.04 255.537 604.688 255.537 604.016C255.537 603.264 256.257 602.8 257.665 602.544L259.457 602.208V603.312C259.457 604.368 258.273 605.04 256.993 605.04ZM264.487 596.464C265.063 596.464 265.447 596.08 265.447 595.504C265.447 594.928 265.063 594.544 264.487 594.544C263.911 594.544 263.527 594.928 263.527 595.504C263.527 596.08 263.911 596.464 264.487 596.464ZM265.127 598H263.847V606H265.127V598ZM269.313 594.32H268.033V604.016C268.033 605.472 268.657 606.16 269.953 606.16C270.369 606.16 270.801 606.08 271.137 605.936L271.345 604.704C270.881 604.88 270.609 604.928 270.177 604.928C269.521 604.928 269.313 604.672 269.313 603.856V594.32ZM281.255 597.84C278.839 597.84 277.383 599.408 277.383 602C277.383 604.592 278.839 606.16 281.255 606.16C283.671 606.16 285.127 604.592 285.127 602C285.127 599.408 283.671 597.84 281.255 597.84ZM281.255 598.944C282.871 598.944 283.847 600.096 283.847 602C283.847 603.904 282.871 605.056 281.255 605.056C279.639 605.056 278.663 603.904 278.663 602C278.663 600.096 279.639 598.944 281.255 598.944ZM290.333 606.16C292.381 606.16 293.677 605.184 293.677 603.792C293.677 602.48 292.877 601.808 290.637 601.44C289.005 601.168 288.477 600.816 288.477 600.128C288.477 599.536 289.277 598.96 290.349 598.96C291.357 598.96 292.077 599.344 292.429 600.4L293.517 599.76C293.069 598.448 292.061 597.84 290.349 597.84C288.397 597.84 287.197 598.944 287.197 600.24C287.197 601.584 288.029 602.208 290.301 602.624C291.901 602.912 292.397 603.264 292.397 603.856C292.397 604.512 291.773 605.04 290.461 605.04C289.309 605.04 288.317 604.608 287.933 603.632L286.893 604.352C287.501 605.584 288.861 606.16 290.333 606.16ZM80.1064 627.16C82.1544 627.16 83.4504 626.184 83.4504 624.792C83.4504 623.48 82.6504 622.808 80.4104 622.44C78.7784 622.168 78.2504 621.816 78.2504 621.128C78.2504 620.536 79.0504 619.96 80.1224 619.96C81.1304 619.96 81.8504 620.344 82.2024 621.4L83.2904 620.76C82.8424 619.448 81.8344 618.84 80.1224 618.84C78.1704 618.84 76.9704 619.944 76.9704 621.24C76.9704 622.584 77.8024 623.208 80.0744 623.624C81.6744 623.912 82.1704 624.264 82.1704 624.856C82.1704 625.512 81.5464 626.04 80.2344 626.04C79.0824 626.04 78.0904 625.608 77.7064 624.632L76.6664 625.352C77.2744 626.584 78.6344 627.16 80.1064 627.16ZM92.6879 622.584C92.6879 620.52 91.4239 618.84 89.1039 618.84C86.6879 618.84 85.3279 620.408 85.3279 623C85.3279 625.592 86.7839 627.16 89.1999 627.16C90.9279 627.16 91.9199 626.504 92.5279 625.416L91.4559 624.856C91.1679 625.624 90.3679 626.04 89.1999 626.04C87.7279 626.04 86.7519 625.096 86.5919 623.48H92.6239C92.6559 623.256 92.6879 622.952 92.6879 622.584ZM89.1039 619.96C90.4639 619.96 91.2799 620.872 91.4559 622.344H86.6079C86.7999 620.84 87.6799 619.96 89.1039 619.96ZM100.769 619V623.352C100.769 625.24 99.5688 626.04 98.2088 626.04C97.0568 626.04 96.3208 625.544 96.3208 623.896V619H95.0408V624.232C95.0408 626.344 96.4008 627.16 97.9848 627.16C99.2648 627.16 100.289 626.744 100.849 625.784L100.929 627H102.049V619H100.769ZM107.747 627.16C109.795 627.16 111.091 626.184 111.091 624.792C111.091 623.48 110.291 622.808 108.051 622.44C106.419 622.168 105.891 621.816 105.891 621.128C105.891 620.536 106.691 619.96 107.763 619.96C108.771 619.96 109.491 620.344 109.843 621.4L110.931 620.76C110.483 619.448 109.475 618.84 107.763 618.84C105.811 618.84 104.611 619.944 104.611 621.24C104.611 622.584 105.443 623.208 107.715 623.624C109.315 623.912 109.811 624.264 109.811 624.856C109.811 625.512 109.187 626.04 107.875 626.04C106.723 626.04 105.731 625.608 105.347 624.632L104.307 625.352C104.915 626.584 106.275 627.16 107.747 627.16ZM124.742 615.32V620.248C124.246 619.416 123.286 618.84 122.086 618.84C119.862 618.84 118.438 620.392 118.438 623C118.438 625.608 119.862 627.16 122.086 627.16C123.35 627.16 124.358 626.52 124.822 625.608L124.902 627H126.022V615.32H124.742ZM122.23 626.04C120.662 626.04 119.718 624.856 119.718 623C119.718 621.144 120.662 619.96 122.23 619.96C123.75 619.96 124.742 621.096 124.742 622.904V623.096C124.742 624.904 123.75 626.04 122.23 626.04ZM135.556 626.072C135.108 626.072 134.948 625.88 134.948 625.496V621.56C134.948 619.704 133.62 618.84 131.796 618.84C130.244 618.84 128.98 619.608 128.564 620.792L129.508 621.48C129.94 620.472 130.74 619.96 131.796 619.96C132.996 619.96 133.668 620.664 133.668 621.72V622.168L131.54 622.52C129.476 622.872 128.42 623.816 128.42 625.016C128.42 626.456 129.636 627.16 131.14 627.16C132.164 627.16 133.204 626.728 133.716 625.976C133.86 626.872 134.372 627.16 135.156 627.16C135.556 627.16 135.892 627.08 136.116 627L136.196 625.992C136.004 626.04 135.764 626.072 135.556 626.072ZM131.204 626.04C130.292 626.04 129.748 625.688 129.748 625.016C129.748 624.264 130.468 623.8 131.876 623.544L133.668 623.208V624.312C133.668 625.368 132.484 626.04 131.204 626.04ZM143.882 615.32V620.248C143.386 619.416 142.426 618.84 141.226 618.84C139.002 618.84 137.578 620.392 137.578 623C137.578 625.608 139.002 627.16 141.226 627.16C142.49 627.16 143.498 626.52 143.962 625.608L144.042 627H145.162V615.32H143.882ZM141.37 626.04C139.802 626.04 138.858 624.856 138.858 623C138.858 621.144 139.802 619.96 141.37 619.96C142.89 619.96 143.882 621.096 143.882 622.904V623.096C143.882 624.904 142.89 626.04 141.37 626.04ZM151.512 618.84C149.096 618.84 147.64 620.408 147.64 623C147.64 625.592 149.096 627.16 151.512 627.16C153.928 627.16 155.384 625.592 155.384 623C155.384 620.408 153.928 618.84 151.512 618.84ZM151.512 619.944C153.128 619.944 154.104 621.096 154.104 623C154.104 624.904 153.128 626.056 151.512 626.056C149.896 626.056 148.92 624.904 148.92 623C148.92 621.096 149.896 619.944 151.512 619.944ZM160.591 627.16C162.639 627.16 163.935 626.184 163.935 624.792C163.935 623.48 163.135 622.808 160.895 622.44C159.263 622.168 158.735 621.816 158.735 621.128C158.735 620.536 159.535 619.96 160.607 619.96C161.615 619.96 162.335 620.344 162.687 621.4L163.775 620.76C163.327 619.448 162.319 618.84 160.607 618.84C158.655 618.84 157.455 619.944 157.455 621.24C157.455 622.584 158.287 623.208 160.559 623.624C162.159 623.912 162.655 624.264 162.655 624.856C162.655 625.512 162.031 626.04 160.719 626.04C159.567 626.04 158.575 625.608 158.191 624.632L157.151 625.352C157.759 626.584 159.119 627.16 160.591 627.16ZM177.585 615.32V620.248C177.089 619.416 176.129 618.84 174.929 618.84C172.705 618.84 171.281 620.392 171.281 623C171.281 625.608 172.705 627.16 174.929 627.16C176.193 627.16 177.201 626.52 177.665 625.608L177.745 627H178.865V615.32H177.585ZM175.073 626.04C173.505 626.04 172.561 624.856 172.561 623C172.561 621.144 173.505 619.96 175.073 619.96C176.593 619.96 177.585 621.096 177.585 622.904V623.096C177.585 624.904 176.593 626.04 175.073 626.04ZM188.704 622.584C188.704 620.52 187.44 618.84 185.12 618.84C182.704 618.84 181.344 620.408 181.344 623C181.344 625.592 182.8 627.16 185.216 627.16C186.944 627.16 187.936 626.504 188.544 625.416L187.472 624.856C187.184 625.624 186.384 626.04 185.216 626.04C183.744 626.04 182.768 625.096 182.608 623.48H188.64C188.672 623.256 188.704 622.952 188.704 622.584ZM185.12 619.96C186.48 619.96 187.296 620.872 187.472 622.344H182.624C182.816 620.84 183.696 619.96 185.12 619.96ZM197.806 615.32H196.526V625.016C196.526 626.472 197.15 627.16 198.446 627.16C198.862 627.16 199.294 627.08 199.63 626.936L199.838 625.704C199.374 625.88 199.102 625.928 198.67 625.928C198.014 625.928 197.806 625.672 197.806 624.856V615.32ZM204.856 618.84C202.44 618.84 200.984 620.408 200.984 623C200.984 625.592 202.44 627.16 204.856 627.16C207.272 627.16 208.728 625.592 208.728 623C208.728 620.408 207.272 618.84 204.856 618.84ZM204.856 619.944C206.472 619.944 207.448 621.096 207.448 623C207.448 624.904 206.472 626.056 204.856 626.056C203.24 626.056 202.264 624.904 202.264 623C202.264 621.096 203.24 619.944 204.856 619.944ZM215.679 625.976H213.023C212.399 625.976 211.967 625.672 211.967 625.112C211.967 624.568 212.223 624.248 212.863 624.104C213.215 624.2 213.631 624.248 214.095 624.248C216.015 624.248 217.375 623.128 217.375 621.544C217.375 620.712 217.007 620.008 216.367 619.528C216.591 618.952 217.199 618.648 218.271 618.648L217.983 617.528C216.783 617.528 216.031 618.056 215.727 619.16C215.247 618.952 214.703 618.84 214.095 618.84C212.175 618.84 210.815 619.96 210.815 621.544C210.815 622.472 211.215 623.256 211.983 623.736C211.279 623.976 210.783 624.472 210.783 625.304C210.783 626.008 211.263 626.488 211.871 626.776C210.991 627.016 210.463 627.592 210.463 628.328C210.463 629.528 211.615 630.44 214.143 630.44C216.303 630.44 218.095 629.464 218.095 627.88C218.095 626.728 217.199 625.976 215.679 625.976ZM214.095 619.88C215.199 619.88 216.047 620.552 216.047 621.544C216.047 622.536 215.199 623.208 214.095 623.208C212.991 623.208 212.143 622.536 212.143 621.544C212.143 620.552 212.991 619.88 214.095 619.88ZM214.287 629.368C212.527 629.368 211.647 628.856 211.647 628.072C211.647 627.464 212.175 627.08 213.183 627.08H215.327C216.527 627.08 216.911 627.448 216.911 628.024C216.911 628.728 215.983 629.368 214.287 629.368ZM220.636 617.464C221.212 617.464 221.596 617.08 221.596 616.504C221.596 615.928 221.212 615.544 220.636 615.544C220.06 615.544 219.676 615.928 219.676 616.504C219.676 617.08 220.06 617.464 220.636 617.464ZM221.276 619H219.996V627H221.276V619ZM228.134 618.84C227.03 618.84 226.006 619.24 225.446 620.248L225.366 619H224.246V627H225.526V622.744C225.526 620.696 226.838 619.96 228.006 619.96C229.11 619.96 229.974 620.552 229.974 622.328V627H231.254V621.88C231.254 619.816 229.846 618.84 228.134 618.84ZM246.469 622.584C246.469 620.52 245.205 618.84 242.885 618.84C240.469 618.84 239.109 620.408 239.109 623C239.109 625.592 240.565 627.16 242.981 627.16C244.709 627.16 245.701 626.504 246.309 625.416L245.237 624.856C244.949 625.624 244.149 626.04 242.981 626.04C241.509 626.04 240.533 625.096 240.373 623.48H246.405C246.437 623.256 246.469 622.952 246.469 622.584ZM242.885 619.96C244.245 619.96 245.061 620.872 245.237 622.344H240.389C240.581 620.84 241.461 619.96 242.885 619.96ZM257.075 627.16C259.123 627.16 260.419 626.184 260.419 624.792C260.419 623.48 259.619 622.808 257.379 622.44C255.747 622.168 255.219 621.816 255.219 621.128C255.219 620.536 256.019 619.96 257.091 619.96C258.099 619.96 258.819 620.344 259.171 621.4L260.259 620.76C259.811 619.448 258.803 618.84 257.091 618.84C255.139 618.84 253.939 619.944 253.939 621.24C253.939 622.584 254.771 623.208 257.043 623.624C258.643 623.912 259.139 624.264 259.139 624.856C259.139 625.512 258.515 626.04 257.203 626.04C256.051 626.04 255.059 625.608 254.675 624.632L253.635 625.352C254.243 626.584 255.603 627.16 257.075 627.16ZM269.657 622.584C269.657 620.52 268.393 618.84 266.073 618.84C263.657 618.84 262.297 620.408 262.297 623C262.297 625.592 263.753 627.16 266.169 627.16C267.897 627.16 268.889 626.504 269.497 625.416L268.425 624.856C268.137 625.624 267.337 626.04 266.169 626.04C264.697 626.04 263.721 625.096 263.561 623.48H269.593C269.625 623.256 269.657 622.952 269.657 622.584ZM266.073 619.96C267.433 619.96 268.249 620.872 268.425 622.344H263.577C263.769 620.84 264.649 619.96 266.073 619.96ZM275.978 618.84C274.874 618.84 273.85 619.24 273.29 620.248L273.21 619H272.09V627H273.37V622.744C273.37 620.696 274.682 619.96 275.85 619.96C276.954 619.96 277.818 620.552 277.818 622.328V627H279.098V621.88C279.098 619.816 277.69 618.84 275.978 618.84ZM285.884 618.84C284.796 618.84 283.836 619.24 283.276 620.2V615.32H281.996V627H283.276V622.76C283.276 620.712 284.588 619.96 285.756 619.96C286.86 619.96 287.724 620.552 287.724 622.328V627H289.004V621.88C289.004 619.816 287.596 618.84 285.884 618.84ZM298.462 626.072C298.014 626.072 297.854 625.88 297.854 625.496V621.56C297.854 619.704 296.526 618.84 294.702 618.84C293.15 618.84 291.886 619.608 291.47 620.792L292.414 621.48C292.846 620.472 293.646 619.96 294.702 619.96C295.902 619.96 296.574 620.664 296.574 621.72V622.168L294.446 622.52C292.382 622.872 291.326 623.816 291.326 625.016C291.326 626.456 292.542 627.16 294.046 627.16C295.07 627.16 296.11 626.728 296.622 625.976C296.766 626.872 297.278 627.16 298.062 627.16C298.462 627.16 298.798 627.08 299.022 627L299.102 625.992C298.91 626.04 298.67 626.072 298.462 626.072ZM294.11 626.04C293.198 626.04 292.654 625.688 292.654 625.016C292.654 624.264 293.374 623.8 294.782 623.544L296.574 623.208V624.312C296.574 625.368 295.39 626.04 294.11 626.04ZM123.033 639.84C121.769 639.84 120.761 640.48 120.297 641.392L120.217 640H119.097V651.36H120.377V646.752C120.873 647.584 121.833 648.16 123.033 648.16C125.257 648.16 126.681 646.608 126.681 644C126.681 641.392 125.257 639.84 123.033 639.84ZM122.889 647.04C121.369 647.04 120.377 645.904 120.377 644.096V643.904C120.377 642.096 121.369 640.96 122.889 640.96C124.457 640.96 125.401 642.144 125.401 644C125.401 645.856 124.457 647.04 122.889 647.04ZM135.736 647.072C135.288 647.072 135.128 646.88 135.128 646.496V642.56C135.128 640.704 133.8 639.84 131.976 639.84C130.424 639.84 129.16 640.608 128.743 641.792L129.688 642.48C130.12 641.472 130.92 640.96 131.976 640.96C133.176 640.96 133.848 641.664 133.848 642.72V643.168L131.72 643.52C129.656 643.872 128.6 644.816 128.6 646.016C128.6 647.456 129.816 648.16 131.32 648.16C132.344 648.16 133.384 647.728 133.896 646.976C134.04 647.872 134.552 648.16 135.336 648.16C135.736 648.16 136.072 648.08 136.296 648L136.376 646.992C136.184 647.04 135.944 647.072 135.736 647.072ZM131.384 647.04C130.472 647.04 129.928 646.688 129.928 646.016C129.928 645.264 130.648 644.8 132.056 644.544L133.848 644.208V645.312C133.848 646.368 132.664 647.04 131.384 647.04ZM142.014 639.84C140.766 639.84 139.902 640.336 139.454 641.312L139.278 640H138.238V648H139.518V643.68C139.518 641.888 140.67 641.04 141.63 641.04C142.046 641.04 142.398 641.12 142.638 641.248L142.894 640C142.654 639.872 142.286 639.84 142.014 639.84ZM151.111 647.072C150.663 647.072 150.503 646.88 150.503 646.496V642.56C150.503 640.704 149.175 639.84 147.351 639.84C145.799 639.84 144.535 640.608 144.118 641.792L145.062 642.48C145.495 641.472 146.295 640.96 147.351 640.96C148.551 640.96 149.223 641.664 149.223 642.72V643.168L147.095 643.52C145.031 643.872 143.975 644.816 143.975 646.016C143.975 647.456 145.191 648.16 146.695 648.16C147.719 648.16 148.759 647.728 149.271 646.976C149.415 647.872 149.927 648.16 150.711 648.16C151.111 648.16 151.447 648.08 151.671 648L151.751 646.992C151.559 647.04 151.319 647.072 151.111 647.072ZM146.759 647.04C145.847 647.04 145.303 646.688 145.303 646.016C145.303 645.264 146.023 644.8 147.431 644.544L149.223 644.208V645.312C149.223 646.368 148.039 647.04 146.759 647.04ZM165.251 647.072C164.803 647.072 164.643 646.88 164.643 646.496V642.56C164.643 640.704 163.315 639.84 161.491 639.84C159.939 639.84 158.675 640.608 158.259 641.792L159.203 642.48C159.635 641.472 160.435 640.96 161.491 640.96C162.691 640.96 163.363 641.664 163.363 642.72V643.168L161.235 643.52C159.171 643.872 158.115 644.816 158.115 646.016C158.115 647.456 159.331 648.16 160.835 648.16C161.859 648.16 162.899 647.728 163.411 646.976C163.555 647.872 164.067 648.16 164.851 648.16C165.251 648.16 165.587 648.08 165.811 648L165.891 646.992C165.699 647.04 165.459 647.072 165.251 647.072ZM160.899 647.04C159.987 647.04 159.443 646.688 159.443 646.016C159.443 645.264 160.163 644.8 161.571 644.544L163.363 644.208V645.312C163.363 646.368 162.179 647.04 160.899 647.04ZM176.768 639.84C175.504 639.84 174.496 640.48 174.032 641.392L173.952 640H172.832V651.36H174.112V646.752C174.608 647.584 175.568 648.16 176.768 648.16C178.992 648.16 180.416 646.608 180.416 644C180.416 641.392 178.992 639.84 176.768 639.84ZM176.624 647.04C175.104 647.04 174.112 645.904 174.112 644.096V643.904C174.112 642.096 175.104 640.96 176.624 640.96C178.192 640.96 179.136 642.144 179.136 644C179.136 645.856 178.192 647.04 176.624 647.04ZM184.126 636.32H182.846V646.016C182.846 647.472 183.47 648.16 184.766 648.16C185.182 648.16 185.614 648.08 185.95 647.936L186.158 646.704C185.694 646.88 185.422 646.928 184.99 646.928C184.334 646.928 184.126 646.672 184.126 645.856V636.32ZM194.361 647.072C193.913 647.072 193.753 646.88 193.753 646.496V642.56C193.753 640.704 192.425 639.84 190.601 639.84C189.049 639.84 187.785 640.608 187.368 641.792L188.312 642.48C188.745 641.472 189.545 640.96 190.601 640.96C191.801 640.96 192.473 641.664 192.473 642.72V643.168L190.345 643.52C188.281 643.872 187.225 644.816 187.225 646.016C187.225 647.456 188.441 648.16 189.945 648.16C190.969 648.16 192.009 647.728 192.521 646.976C192.665 647.872 193.177 648.16 193.961 648.16C194.361 648.16 194.697 648.08 194.921 648L195.001 646.992C194.809 647.04 194.569 647.072 194.361 647.072ZM190.009 647.04C189.097 647.04 188.553 646.688 188.553 646.016C188.553 645.264 189.273 644.8 190.681 644.544L192.473 644.208V645.312C192.473 646.368 191.289 647.04 190.009 647.04ZM200.999 646.368C200.631 646.736 200.215 646.96 199.639 646.96C198.935 646.96 198.439 646.576 198.439 645.792V641.104H201.399V640H198.439V637.728L197.159 638.08V640H195.559V641.104H197.159V646.016C197.174 647.568 198.199 648.16 199.383 648.16C200.263 648.16 200.951 647.888 201.447 647.44L200.999 646.368ZM209.814 647.072C209.366 647.072 209.206 646.88 209.206 646.496V642.56C209.206 640.704 207.878 639.84 206.054 639.84C204.502 639.84 203.238 640.608 202.822 641.792L203.766 642.48C204.198 641.472 204.998 640.96 206.054 640.96C207.254 640.96 207.926 641.664 207.926 642.72V643.168L205.798 643.52C203.734 643.872 202.678 644.816 202.678 646.016C202.678 647.456 203.894 648.16 205.398 648.16C206.422 648.16 207.462 647.728 207.974 646.976C208.118 647.872 208.63 648.16 209.414 648.16C209.814 648.16 210.15 648.08 210.374 648L210.454 646.992C210.262 647.04 210.022 647.072 209.814 647.072ZM205.462 647.04C204.55 647.04 204.006 646.688 204.006 646.016C204.006 645.264 204.726 644.8 206.134 644.544L207.926 644.208V645.312C207.926 646.368 206.742 647.04 205.462 647.04ZM214.142 638.784C214.142 637.824 214.67 637.408 215.598 637.408C215.966 637.408 216.254 637.488 216.51 637.648L216.846 636.608C216.558 636.368 216.046 636.24 215.486 636.24C213.726 636.24 212.862 637.232 212.862 638.656V640H211.262V641.104H212.862V648H214.142V641.104H216.814V640H214.142V638.784ZM221.677 639.84C219.261 639.84 217.805 641.408 217.805 644C217.805 646.592 219.261 648.16 221.677 648.16C224.093 648.16 225.549 646.592 225.549 644C225.549 641.408 224.093 639.84 221.677 639.84ZM221.677 640.944C223.293 640.944 224.269 642.096 224.269 644C224.269 645.904 223.293 647.056 221.677 647.056C220.061 647.056 219.085 645.904 219.085 644C219.085 642.096 220.061 640.944 221.677 640.944ZM231.811 639.84C230.563 639.84 229.699 640.336 229.251 641.312L229.075 640H228.035V648H229.315V643.68C229.315 641.888 230.467 641.04 231.427 641.04C231.843 641.04 232.195 641.12 232.435 641.248L232.691 640C232.451 639.872 232.083 639.84 231.811 639.84ZM243.862 639.84C242.854 639.84 241.574 640.32 241.078 641.408C240.55 640.336 239.446 639.84 238.326 639.84C237.334 639.84 236.342 640.272 235.766 641.248L235.686 640H234.566V648H235.846V643.728C235.846 641.744 237.158 640.96 238.214 640.96C239.27 640.96 240.102 641.552 240.102 643.008V648H241.382V643.616C241.382 641.904 242.502 640.96 243.75 640.96C244.806 640.96 245.638 641.552 245.638 643.008V648H246.918V642.88C246.918 640.768 245.398 639.84 243.862 639.84ZM256.376 647.072C255.928 647.072 255.768 646.88 255.768 646.496V642.56C255.768 640.704 254.44 639.84 252.616 639.84C251.064 639.84 249.8 640.608 249.384 641.792L250.328 642.48C250.76 641.472 251.56 640.96 252.616 640.96C253.816 640.96 254.488 641.664 254.488 642.72V643.168L252.36 643.52C250.296 643.872 249.24 644.816 249.24 646.016C249.24 647.456 250.456 648.16 251.96 648.16C252.984 648.16 254.024 647.728 254.536 646.976C254.68 647.872 255.192 648.16 255.976 648.16C256.376 648.16 256.712 648.08 256.936 648L257.016 646.992C256.824 647.04 256.584 647.072 256.376 647.072ZM252.024 647.04C251.112 647.04 250.568 646.688 250.568 646.016C250.568 645.264 251.288 644.8 252.696 644.544L254.488 644.208V645.312C254.488 646.368 253.304 647.04 252.024 647.04Z" fill="#2C2C2C"/>
<g filter="url(#filter3_d_601_1050)">
<path fill-rule="evenodd" clip-rule="evenodd" d="M40 738C28.9543 738 20 746.954 20 758L20 918C20 929.046 28.9543 938 40 938L335 938C346.046 938 355 929.046 355 918L355 758C355 746.954 346.046 738 335 738L231.652 738C224.059 738 217.43 742.678 211.959 747.943C205.488 754.171 196.691 758 187 758C177.309 758 168.512 754.171 162.041 747.943C156.57 742.678 149.941 738 142.348 738L40 738Z" fill="url(#paint3_linear_601_1050)"/>
</g>
<path d="M147.269 799.84H139.391V817H143.863V811.046H147.269C151.533 811.046 153.899 809.044 153.899 805.534C153.899 801.842 151.533 799.84 147.269 799.84ZM146.567 807.77H143.863V803.22H146.567C148.543 803.22 149.401 803.974 149.401 805.482C149.401 807.016 148.543 807.77 146.567 807.77ZM169.004 814.478C168.38 814.478 168.068 814.14 168.068 813.464V808.732C168.068 805.378 165.858 803.74 161.854 803.74C158.318 803.74 156.29 805.274 155.848 807.744L159.436 808.784C159.696 807.276 160.606 806.782 161.854 806.782C163.024 806.782 163.7 807.536 163.7 808.706V809.174L160.762 809.746C157.07 810.474 155.692 811.852 155.692 814.01C155.692 816.116 157.148 817.26 159.722 817.26C162.114 817.26 163.622 816.506 164.35 815.258C164.74 816.662 165.962 817.26 167.704 817.26C168.354 817.26 168.952 817.13 169.472 816.844L169.81 814.374C169.576 814.452 169.316 814.478 169.004 814.478ZM161.334 814.4C160.528 814.4 160.06 814.01 160.06 813.282C160.06 812.554 160.502 812.19 161.594 811.93L163.7 811.436V812.554C163.7 813.75 162.426 814.4 161.334 814.4ZM176.936 817.26C181.122 817.26 183.124 815.388 183.124 812.996C183.124 810.76 181.59 809.538 177.742 808.862C175.922 808.524 175.35 808.186 175.35 807.666C175.35 807.146 176.026 806.678 177.326 806.678C178.886 806.678 180.03 807.198 180.862 808.42L183.15 806.184C182.032 804.65 180.316 803.74 177.196 803.74C172.958 803.74 170.93 805.924 170.93 808.056C170.93 810.188 172.36 811.462 176.312 812.242C178.054 812.606 178.678 812.918 178.678 813.412C178.678 813.958 177.95 814.322 176.728 814.322C175.064 814.322 173.66 813.776 172.88 812.476L170.592 814.972C171.918 816.584 174.076 817.26 176.936 817.26ZM190.799 817.26C194.985 817.26 196.987 815.388 196.987 812.996C196.987 810.76 195.453 809.538 191.605 808.862C189.785 808.524 189.213 808.186 189.213 807.666C189.213 807.146 189.889 806.678 191.189 806.678C192.749 806.678 193.893 807.198 194.725 808.42L197.013 806.184C195.895 804.65 194.179 803.74 191.059 803.74C186.821 803.74 184.793 805.924 184.793 808.056C184.793 810.188 186.223 811.462 190.175 812.242C191.917 812.606 192.541 812.918 192.541 813.412C192.541 813.958 191.813 814.322 190.591 814.322C188.927 814.322 187.523 813.776 186.743 812.476L184.455 814.972C185.781 816.584 187.939 817.26 190.799 817.26ZM205.444 803.74C201.102 803.74 198.58 806.236 198.58 810.5C198.58 814.764 201.102 817.26 205.444 817.26C209.786 817.26 212.308 814.764 212.308 810.5C212.308 806.236 209.786 803.74 205.444 803.74ZM205.444 806.886C207.082 806.886 207.888 807.952 207.888 810.5C207.888 813.048 207.082 814.114 205.444 814.114C203.806 814.114 203 813.048 203 810.5C203 807.952 203.806 806.886 205.444 806.886ZM236.766 810.162H234.14V799.84H228.914L221.556 811.124V813.23H230.188V817H234.14V813.23H236.766V810.162ZM228.732 805.586C229.278 804.728 229.876 803.688 230.24 802.778H230.292L230.188 805.586V810.162H225.716L228.732 805.586Z" fill="#2DB563"/>
<path d="M86.8416 848.296L85.5616 847.816C85.0976 849.24 83.9936 849.96 82.5856 849.96C80.3936 849.96 79.0336 848.376 79.0336 845.72C79.0336 843.048 80.4896 841.48 82.6496 841.48C84.0576 841.48 84.9216 842.12 85.3856 843.336L86.6496 842.744C85.9776 841.144 84.6016 840.28 82.5536 840.28C79.6096 840.28 77.6896 842.376 77.6896 845.72C77.6896 849.064 79.5776 851.16 82.5856 851.16C84.5696 851.16 86.1696 850.104 86.8416 848.296ZM92.4343 842.84C90.0183 842.84 88.5623 844.408 88.5623 847C88.5623 849.592 90.0183 851.16 92.4343 851.16C94.8503 851.16 96.3063 849.592 96.3063 847C96.3063 844.408 94.8503 842.84 92.4343 842.84ZM92.4343 843.944C94.0503 843.944 95.0263 845.096 95.0263 847C95.0263 848.904 94.0503 850.056 92.4343 850.056C90.8183 850.056 89.8423 848.904 89.8423 847C89.8423 845.096 90.8183 843.944 92.4343 843.944ZM108.089 842.84C107.081 842.84 105.801 843.32 105.305 844.408C104.777 843.336 103.673 842.84 102.553 842.84C101.561 842.84 100.569 843.272 99.9927 844.248L99.9127 843H98.7927V851H100.073V846.728C100.073 844.744 101.385 843.96 102.441 843.96C103.497 843.96 104.329 844.552 104.329 846.008V851H105.609V846.616C105.609 844.904 106.729 843.96 107.977 843.96C109.033 843.96 109.865 844.552 109.865 846.008V851H111.145V845.88C111.145 843.768 109.625 842.84 108.089 842.84ZM120.907 846.584C120.907 844.52 119.643 842.84 117.323 842.84C114.907 842.84 113.547 844.408 113.547 847C113.547 849.592 115.003 851.16 117.419 851.16C119.147 851.16 120.139 850.504 120.747 849.416L119.675 848.856C119.387 849.624 118.587 850.04 117.419 850.04C115.947 850.04 114.971 849.096 114.811 847.48H120.843C120.875 847.256 120.907 846.952 120.907 846.584ZM117.323 843.96C118.683 843.96 119.499 844.872 119.675 846.344H114.827C115.019 844.84 115.899 843.96 117.323 843.96ZM126.716 842.84C124.3 842.84 122.844 844.408 122.844 847C122.844 849.592 124.3 851.16 126.716 851.16C128.412 851.16 129.564 850.28 130.108 848.808L128.924 848.392C128.684 849.448 127.932 850.04 126.684 850.04C125.084 850.04 124.124 848.904 124.124 847C124.124 845.096 125.084 843.96 126.684 843.96C127.788 843.96 128.476 844.52 128.812 845.544L130.028 844.968C129.436 843.656 128.364 842.84 126.716 842.84ZM139.235 846.584C139.235 844.52 137.971 842.84 135.651 842.84C133.235 842.84 131.875 844.408 131.875 847C131.875 849.592 133.331 851.16 135.747 851.16C137.475 851.16 138.467 850.504 139.075 849.416L138.003 848.856C137.715 849.624 136.915 850.04 135.747 850.04C134.275 850.04 133.299 849.096 133.139 847.48H139.171C139.203 847.256 139.235 846.952 139.235 846.584ZM135.651 843.96C137.011 843.96 137.827 844.872 138.003 846.344H133.155C133.347 844.84 134.227 843.96 135.651 843.96ZM153.681 850.072C153.233 850.072 153.073 849.88 153.073 849.496V845.56C153.073 843.704 151.745 842.84 149.921 842.84C148.369 842.84 147.105 843.608 146.689 844.792L147.633 845.48C148.065 844.472 148.865 843.96 149.921 843.96C151.121 843.96 151.793 844.664 151.793 845.72V846.168L149.665 846.52C147.601 846.872 146.545 847.816 146.545 849.016C146.545 850.456 147.761 851.16 149.265 851.16C150.289 851.16 151.329 850.728 151.841 849.976C151.985 850.872 152.497 851.16 153.281 851.16C153.681 851.16 154.017 851.08 154.241 851L154.321 849.992C154.129 850.04 153.889 850.072 153.681 850.072ZM149.329 850.04C148.417 850.04 147.873 849.688 147.873 849.016C147.873 848.264 148.593 847.8 150.001 847.544L151.793 847.208V848.312C151.793 849.368 150.609 850.04 149.329 850.04ZM168.125 846.584C168.125 844.52 166.861 842.84 164.541 842.84C162.125 842.84 160.765 844.408 160.765 847C160.765 849.592 162.221 851.16 164.637 851.16C166.365 851.16 167.357 850.504 167.965 849.416L166.893 848.856C166.605 849.624 165.805 850.04 164.637 850.04C163.165 850.04 162.189 849.096 162.029 847.48H168.061C168.093 847.256 168.125 846.952 168.125 846.584ZM164.541 843.96C165.901 843.96 166.717 844.872 166.893 846.344H162.045C162.237 844.84 163.117 843.96 164.541 843.96ZM173.278 851.16C175.326 851.16 176.622 850.184 176.622 848.792C176.622 847.48 175.822 846.808 173.582 846.44C171.95 846.168 171.422 845.816 171.422 845.128C171.422 844.536 172.222 843.96 173.294 843.96C174.302 843.96 175.022 844.344 175.374 845.4L176.462 844.76C176.014 843.448 175.006 842.84 173.294 842.84C171.342 842.84 170.142 843.944 170.142 845.24C170.142 846.584 170.974 847.208 173.246 847.624C174.846 847.912 175.342 848.264 175.342 848.856C175.342 849.512 174.718 850.04 173.406 850.04C172.254 850.04 171.262 849.608 170.878 848.632L169.838 849.352C170.446 850.584 171.806 851.16 173.278 851.16ZM183.444 849.368C183.076 849.736 182.66 849.96 182.084 849.96C181.38 849.96 180.884 849.576 180.884 848.792V844.104H183.844V843H180.884V840.728L179.604 841.08V843H178.004V844.104H179.604V849.016C179.62 850.568 180.644 851.16 181.828 851.16C182.708 851.16 183.396 850.888 183.892 850.44L183.444 849.368ZM191.347 843V847.352C191.347 849.24 190.147 850.04 188.787 850.04C187.635 850.04 186.899 849.544 186.899 847.896V843H185.619V848.232C185.619 850.344 186.979 851.16 188.563 851.16C189.843 851.16 190.867 850.744 191.427 849.784L191.507 851H192.627V843H191.347ZM201.429 839.32V844.248C200.933 843.416 199.973 842.84 198.773 842.84C196.549 842.84 195.125 844.392 195.125 847C195.125 849.608 196.549 851.16 198.773 851.16C200.037 851.16 201.045 850.52 201.509 849.608L201.589 851H202.709V839.32H201.429ZM198.917 850.04C197.349 850.04 196.405 848.856 196.405 847C196.405 845.144 197.349 843.96 198.917 843.96C200.437 843.96 201.429 845.096 201.429 846.904V847.096C201.429 848.904 200.437 850.04 198.917 850.04ZM212.243 850.072C211.795 850.072 211.635 849.88 211.635 849.496V845.56C211.635 843.704 210.307 842.84 208.483 842.84C206.931 842.84 205.667 843.608 205.251 844.792L206.195 845.48C206.627 844.472 207.427 843.96 208.483 843.96C209.683 843.96 210.355 844.664 210.355 845.72V846.168L208.227 846.52C206.163 846.872 205.107 847.816 205.107 849.016C205.107 850.456 206.323 851.16 207.827 851.16C208.851 851.16 209.891 850.728 210.403 849.976C210.547 850.872 211.059 851.16 211.843 851.16C212.243 851.16 212.579 851.08 212.803 851L212.883 849.992C212.691 850.04 212.451 850.072 212.243 850.072ZM207.891 850.04C206.979 850.04 206.435 849.688 206.435 849.016C206.435 848.264 207.155 847.8 208.563 847.544L210.355 847.208V848.312C210.355 849.368 209.171 850.04 207.891 850.04ZM218.522 842.84C217.274 842.84 216.41 843.336 215.962 844.312L215.786 843H214.746V851H216.026V846.68C216.026 844.888 217.178 844.04 218.138 844.04C218.554 844.04 218.906 844.12 219.146 844.248L219.402 843C219.162 842.872 218.794 842.84 218.522 842.84ZM232.355 843L232.275 844.392C231.811 843.48 230.803 842.84 229.539 842.84C227.315 842.84 225.891 844.392 225.891 847C225.891 849.608 227.315 851.16 229.539 851.16C230.739 851.16 231.699 850.584 232.195 849.752V854.36H233.475V843H232.355ZM229.683 850.04C228.115 850.04 227.171 848.856 227.171 847C227.171 845.144 228.115 843.96 229.683 843.96C231.203 843.96 232.195 845.096 232.195 846.904V847.096C232.195 848.904 231.203 850.04 229.683 850.04ZM242.097 843V847.352C242.097 849.24 240.897 850.04 239.537 850.04C238.385 850.04 237.649 849.544 237.649 847.896V843H236.369V848.232C236.369 850.344 237.729 851.16 239.313 851.16C240.593 851.16 241.617 850.744 242.177 849.784L242.257 851H243.377V843H242.097ZM252.915 850.072C252.467 850.072 252.307 849.88 252.307 849.496V845.56C252.307 843.704 250.979 842.84 249.155 842.84C247.603 842.84 246.339 843.608 245.923 844.792L246.867 845.48C247.299 844.472 248.099 843.96 249.155 843.96C250.355 843.96 251.027 844.664 251.027 845.72V846.168L248.899 846.52C246.835 846.872 245.779 847.816 245.779 849.016C245.779 850.456 246.995 851.16 248.499 851.16C249.523 851.16 250.563 850.728 251.075 849.976C251.219 850.872 251.731 851.16 252.515 851.16C252.915 851.16 253.251 851.08 253.475 851L253.555 849.992C253.363 850.04 253.123 850.072 252.915 850.072ZM248.563 850.04C247.651 850.04 247.107 849.688 247.107 849.016C247.107 848.264 247.827 847.8 249.235 847.544L251.027 847.208V848.312C251.027 849.368 249.843 850.04 248.563 850.04ZM259.306 842.84C258.202 842.84 257.178 843.24 256.618 844.248L256.538 843H255.418V851H256.698V846.744C256.698 844.696 258.01 843.96 259.178 843.96C260.282 843.96 261.146 844.552 261.146 846.328V851H262.426V845.88C262.426 843.816 261.018 842.84 259.306 842.84ZM271.148 839.32V844.248C270.652 843.416 269.692 842.84 268.492 842.84C266.268 842.84 264.844 844.392 264.844 847C264.844 849.608 266.268 851.16 268.492 851.16C269.756 851.16 270.764 850.52 271.228 849.608L271.308 851H272.428V839.32H271.148ZM268.636 850.04C267.068 850.04 266.124 848.856 266.124 847C266.124 845.144 267.068 843.96 268.636 843.96C270.156 843.96 271.148 845.096 271.148 846.904V847.096C271.148 848.904 270.156 850.04 268.636 850.04ZM278.778 842.84C276.362 842.84 274.906 844.408 274.906 847C274.906 849.592 276.362 851.16 278.778 851.16C281.194 851.16 282.65 849.592 282.65 847C282.65 844.408 281.194 842.84 278.778 842.84ZM278.778 843.944C280.394 843.944 281.37 845.096 281.37 847C281.37 848.904 280.394 850.056 278.778 850.056C277.162 850.056 276.186 848.904 276.186 847C276.186 845.096 277.162 843.944 278.778 843.944ZM297.454 846.584C297.454 844.52 296.19 842.84 293.87 842.84C291.454 842.84 290.094 844.408 290.094 847C290.094 849.592 291.55 851.16 293.966 851.16C295.694 851.16 296.686 850.504 297.294 849.416L296.222 848.856C295.934 849.624 295.134 850.04 293.966 850.04C292.494 850.04 291.518 849.096 291.358 847.48H297.39C297.422 847.256 297.454 846.952 297.454 846.584ZM293.87 843.96C295.23 843.96 296.046 844.872 296.222 846.344H291.374C291.566 844.84 292.446 843.96 293.87 843.96ZM77.9031 863.84C75.4871 863.84 74.0311 865.408 74.0311 868C74.0311 870.592 75.4871 872.16 77.9031 872.16C80.3191 872.16 81.7751 870.592 81.7751 868C81.7751 865.408 80.3191 863.84 77.9031 863.84ZM77.9031 864.944C79.5191 864.944 80.4951 866.096 80.4951 868C80.4951 869.904 79.5191 871.056 77.9031 871.056C76.2871 871.056 75.3111 869.904 75.3111 868C75.3111 866.096 76.2871 864.944 77.9031 864.944ZM88.1494 863.84C87.0454 863.84 86.0214 864.24 85.4614 865.248L85.3814 864H84.2614V872H85.5414V867.744C85.5414 865.696 86.8534 864.96 88.0214 864.96C89.1254 864.96 89.9894 865.552 89.9894 867.328V872H91.2694V866.88C91.2694 864.816 89.8614 863.84 88.1494 863.84ZM99.9917 860.32V865.248C99.4957 864.416 98.5357 863.84 97.3357 863.84C95.1117 863.84 93.6877 865.392 93.6877 868C93.6877 870.608 95.1117 872.16 97.3357 872.16C98.5997 872.16 99.6077 871.52 100.072 870.608L100.152 872H101.272V860.32H99.9917ZM97.4797 871.04C95.9117 871.04 94.9677 869.856 94.9677 868C94.9677 866.144 95.9117 864.96 97.4797 864.96C98.9997 864.96 99.9917 866.096 99.9917 867.904V868.096C99.9917 869.904 98.9997 871.04 97.4797 871.04ZM111.11 867.584C111.11 865.52 109.846 863.84 107.526 863.84C105.11 863.84 103.75 865.408 103.75 868C103.75 870.592 105.206 872.16 107.622 872.16C109.35 872.16 110.342 871.504 110.95 870.416L109.878 869.856C109.59 870.624 108.79 871.04 107.622 871.04C106.15 871.04 105.174 870.096 105.014 868.48H111.046C111.078 868.256 111.11 867.952 111.11 867.584ZM107.526 864.96C108.886 864.96 109.702 865.872 109.878 867.344H105.03C105.222 865.84 106.102 864.96 107.526 864.96ZM124.996 864L124.916 865.392C124.452 864.48 123.444 863.84 122.18 863.84C119.956 863.84 118.532 865.392 118.532 868C118.532 870.608 119.956 872.16 122.18 872.16C123.38 872.16 124.34 871.584 124.836 870.752V875.36H126.116V864H124.996ZM122.324 871.04C120.756 871.04 119.812 869.856 119.812 868C119.812 866.144 120.756 864.96 122.324 864.96C123.844 864.96 124.836 866.096 124.836 867.904V868.096C124.836 869.904 123.844 871.04 122.324 871.04ZM134.738 864V868.352C134.738 870.24 133.538 871.04 132.178 871.04C131.026 871.04 130.29 870.544 130.29 868.896V864H129.01V869.232C129.01 871.344 130.37 872.16 131.954 872.16C133.234 872.16 134.258 871.744 134.818 870.784L134.898 872H136.018V864H134.738ZM139.636 862.464C140.212 862.464 140.596 862.08 140.596 861.504C140.596 860.928 140.212 860.544 139.636 860.544C139.06 860.544 138.676 860.928 138.676 861.504C138.676 862.08 139.06 862.464 139.636 862.464ZM140.276 864H138.996V872H140.276V864ZM145.966 872.16C148.014 872.16 149.31 871.184 149.31 869.792C149.31 868.48 148.51 867.808 146.27 867.44C144.638 867.168 144.11 866.816 144.11 866.128C144.11 865.536 144.91 864.96 145.982 864.96C146.99 864.96 147.71 865.344 148.062 866.4L149.15 865.76C148.702 864.448 147.694 863.84 145.982 863.84C144.03 863.84 142.83 864.944 142.83 866.24C142.83 867.584 143.662 868.208 145.934 868.624C147.534 868.912 148.03 869.264 148.03 869.856C148.03 870.512 147.406 871.04 146.094 871.04C144.942 871.04 143.95 870.608 143.566 869.632L142.526 870.352C143.134 871.584 144.494 872.16 145.966 872.16ZM158.547 867.584C158.547 865.52 157.283 863.84 154.963 863.84C152.547 863.84 151.187 865.408 151.187 868C151.187 870.592 152.643 872.16 155.059 872.16C156.787 872.16 157.779 871.504 158.387 870.416L157.315 869.856C157.027 870.624 156.227 871.04 155.059 871.04C153.587 871.04 152.611 870.096 152.451 868.48H158.483C158.515 868.256 158.547 867.952 158.547 867.584ZM154.963 864.96C156.323 864.96 157.139 865.872 157.315 867.344H152.467C152.659 865.84 153.539 864.96 154.963 864.96ZM164.756 863.84C163.508 863.84 162.644 864.336 162.196 865.312L162.02 864H160.98V872H162.26V867.68C162.26 865.888 163.412 865.04 164.372 865.04C164.788 865.04 165.14 865.12 165.38 865.248L165.636 864C165.396 863.872 165.028 863.84 164.756 863.84ZM176.725 870.368C176.357 870.736 175.941 870.96 175.365 870.96C174.661 870.96 174.165 870.576 174.165 869.792V865.104H177.125V864H174.165V861.728L172.885 862.08V864H171.285V865.104H172.885V870.016C172.901 871.568 173.925 872.16 175.109 872.16C175.989 872.16 176.677 871.888 177.173 871.44L176.725 870.368ZM182.356 863.84C179.94 863.84 178.484 865.408 178.484 868C178.484 870.592 179.94 872.16 182.356 872.16C184.772 872.16 186.228 870.592 186.228 868C186.228 865.408 184.772 863.84 182.356 863.84ZM182.356 864.944C183.972 864.944 184.948 866.096 184.948 868C184.948 869.904 183.972 871.056 182.356 871.056C180.74 871.056 179.764 869.904 179.764 868C179.764 866.096 180.74 864.944 182.356 864.944ZM194.539 860.32V865.248C194.043 864.416 193.083 863.84 191.883 863.84C189.659 863.84 188.235 865.392 188.235 868C188.235 870.608 189.659 872.16 191.883 872.16C193.147 872.16 194.155 871.52 194.619 870.608L194.699 872H195.819V860.32H194.539ZM192.027 871.04C190.459 871.04 189.515 869.856 189.515 868C189.515 866.144 190.459 864.96 192.027 864.96C193.547 864.96 194.539 866.096 194.539 867.904V868.096C194.539 869.904 193.547 871.04 192.027 871.04ZM202.169 863.84C199.753 863.84 198.297 865.408 198.297 868C198.297 870.592 199.753 872.16 202.169 872.16C204.585 872.16 206.041 870.592 206.041 868C206.041 865.408 204.585 863.84 202.169 863.84ZM202.169 864.944C203.785 864.944 204.761 866.096 204.761 868C204.761 869.904 203.785 871.056 202.169 871.056C200.553 871.056 199.577 869.904 199.577 868C199.577 866.096 200.553 864.944 202.169 864.944ZM217.356 863.84C214.94 863.84 213.484 865.408 213.484 868C213.484 870.592 214.94 872.16 217.356 872.16C219.772 872.16 221.228 870.592 221.228 868C221.228 865.408 219.772 863.84 217.356 863.84ZM217.356 864.944C218.972 864.944 219.948 866.096 219.948 868C219.948 869.904 218.972 871.056 217.356 871.056C215.74 871.056 214.764 869.904 214.764 868C214.764 866.096 215.74 864.944 217.356 864.944ZM232.544 863.84C230.128 863.84 228.672 865.408 228.672 868C228.672 870.592 230.128 872.16 232.544 872.16C234.24 872.16 235.392 871.28 235.936 869.808L234.752 869.392C234.512 870.448 233.76 871.04 232.512 871.04C230.912 871.04 229.952 869.904 229.952 868C229.952 866.096 230.912 864.96 232.512 864.96C233.616 864.96 234.304 865.52 234.64 866.544L235.856 865.968C235.264 864.656 234.192 863.84 232.544 863.84ZM241.575 863.84C239.159 863.84 237.703 865.408 237.703 868C237.703 870.592 239.159 872.16 241.575 872.16C243.991 872.16 245.447 870.592 245.447 868C245.447 865.408 243.991 863.84 241.575 863.84ZM241.575 864.944C243.191 864.944 244.167 866.096 244.167 868C244.167 869.904 243.191 871.056 241.575 871.056C239.959 871.056 238.983 869.904 238.983 868C238.983 866.096 239.959 864.944 241.575 864.944ZM251.821 863.84C250.717 863.84 249.693 864.24 249.133 865.248L249.053 864H247.933V872H249.213V867.744C249.213 865.696 250.525 864.96 251.693 864.96C252.797 864.96 253.661 865.552 253.661 867.328V872H254.941V866.88C254.941 864.816 253.533 863.84 251.821 863.84ZM262.178 870.368C261.81 870.736 261.394 870.96 260.818 870.96C260.114 870.96 259.618 870.576 259.618 869.792V865.104H262.578V864H259.618V861.728L258.338 862.08V864H256.738V865.104H258.338V870.016C258.354 871.568 259.378 872.16 260.562 872.16C261.442 872.16 262.13 871.888 262.626 871.44L262.178 870.368ZM271.297 867.584C271.297 865.52 270.033 863.84 267.713 863.84C265.297 863.84 263.937 865.408 263.937 868C263.937 870.592 265.393 872.16 267.809 872.16C269.537 872.16 270.529 871.504 271.137 870.416L270.065 869.856C269.777 870.624 268.977 871.04 267.809 871.04C266.337 871.04 265.361 870.096 265.201 868.48H271.233C271.265 868.256 271.297 867.952 271.297 867.584ZM267.713 864.96C269.073 864.96 269.889 865.872 270.065 867.344H265.217C265.409 865.84 266.289 864.96 267.713 864.96ZM278.994 860H277.602L276.386 862.672H277.426L278.994 860ZM279.378 864V868.352C279.378 870.24 278.178 871.04 276.818 871.04C275.666 871.04 274.93 870.544 274.93 868.896V864H273.65V869.232C273.65 871.344 275.01 872.16 276.594 872.16C277.874 872.16 278.898 871.744 279.458 870.784L279.538 872H280.658V864H279.378ZM289.46 860.32V865.248C288.964 864.416 288.004 863.84 286.804 863.84C284.58 863.84 283.156 865.392 283.156 868C283.156 870.608 284.58 872.16 286.804 872.16C288.068 872.16 289.076 871.52 289.54 870.608L289.62 872H290.74V860.32H289.46ZM286.948 871.04C285.38 871.04 284.436 869.856 284.436 868C284.436 866.144 285.38 864.96 286.948 864.96C288.468 864.96 289.46 866.096 289.46 867.904V868.096C289.46 869.904 288.468 871.04 286.948 871.04ZM297.091 863.84C294.675 863.84 293.219 865.408 293.219 868C293.219 870.592 294.675 872.16 297.091 872.16C299.507 872.16 300.963 870.592 300.963 868C300.963 865.408 299.507 863.84 297.091 863.84ZM297.091 864.944C298.707 864.944 299.683 866.096 299.683 868C299.683 869.904 298.707 871.056 297.091 871.056C295.475 871.056 294.499 869.904 294.499 868C294.499 866.096 295.475 864.944 297.091 864.944ZM155.195 881.32V886.248C154.699 885.416 153.739 884.84 152.539 884.84C150.315 884.84 148.891 886.392 148.891 889C148.891 891.608 150.315 893.16 152.539 893.16C153.803 893.16 154.811 892.52 155.275 891.608L155.355 893H156.475V881.32H155.195ZM152.683 892.04C151.115 892.04 150.171 890.856 150.171 889C150.171 887.144 151.115 885.96 152.683 885.96C154.203 885.96 155.195 887.096 155.195 888.904V889.096C155.195 890.904 154.203 892.04 152.683 892.04ZM160.089 883.464C160.665 883.464 161.049 883.08 161.049 882.504C161.049 881.928 160.665 881.544 160.089 881.544C159.513 881.544 159.129 881.928 159.129 882.504C159.129 883.08 159.513 883.464 160.089 883.464ZM160.729 885H159.449V893H160.729V885ZM166.419 893.16C168.467 893.16 169.763 892.184 169.763 890.792C169.763 889.48 168.963 888.808 166.723 888.44C165.091 888.168 164.563 887.816 164.563 887.128C164.563 886.536 165.363 885.96 166.435 885.96C167.443 885.96 168.163 886.344 168.515 887.4L169.603 886.76C169.155 885.448 168.147 884.84 166.435 884.84C164.483 884.84 163.283 885.944 163.283 887.24C163.283 888.584 164.115 889.208 166.387 889.624C167.987 889.912 168.483 890.264 168.483 890.856C168.483 891.512 167.859 892.04 166.547 892.04C165.395 892.04 164.403 891.608 164.019 890.632L162.979 891.352C163.587 892.584 164.947 893.16 166.419 893.16ZM176.072 884.84C174.808 884.84 173.8 885.48 173.336 886.392L173.256 885H172.136V896.36H173.416V891.752C173.912 892.584 174.872 893.16 176.072 893.16C178.296 893.16 179.72 891.608 179.72 889C179.72 886.392 178.296 884.84 176.072 884.84ZM175.928 892.04C174.408 892.04 173.416 890.904 173.416 889.096V888.904C173.416 887.096 174.408 885.96 175.928 885.96C177.496 885.96 178.44 887.144 178.44 889C178.44 890.856 177.496 892.04 175.928 892.04ZM185.591 884.84C183.175 884.84 181.719 886.408 181.719 889C181.719 891.592 183.175 893.16 185.591 893.16C188.007 893.16 189.463 891.592 189.463 889C189.463 886.408 188.007 884.84 185.591 884.84ZM185.591 885.944C187.207 885.944 188.183 887.096 188.183 889C188.183 890.904 187.207 892.056 185.591 892.056C183.975 892.056 182.999 890.904 182.999 889C182.999 887.096 183.975 885.944 185.591 885.944ZM195.837 884.84C194.733 884.84 193.709 885.24 193.149 886.248L193.069 885H191.949V893H193.229V888.744C193.229 886.696 194.541 885.96 195.709 885.96C196.813 885.96 197.677 886.552 197.677 888.328V893H198.957V887.88C198.957 885.816 197.549 884.84 195.837 884.84ZM203.087 881L201.871 883.672H202.911L204.479 881H203.087ZM203.135 885H201.855V893H203.135V885ZM211.401 885L208.793 891.704L206.265 885H204.809L208.137 893H209.417L212.745 885H211.401ZM221.282 888.584C221.282 886.52 220.018 884.84 217.698 884.84C215.282 884.84 213.922 886.408 213.922 889C213.922 891.592 215.378 893.16 217.794 893.16C219.522 893.16 220.514 892.504 221.122 891.416L220.05 890.856C219.762 891.624 218.962 892.04 217.794 892.04C216.322 892.04 215.346 891.096 215.186 889.48H221.218C221.25 889.256 221.282 888.952 221.282 888.584ZM217.698 885.96C219.058 885.96 219.874 886.872 220.05 888.344H215.202C215.394 886.84 216.274 885.96 217.698 885.96ZM224.931 881.32H223.651V891.016C223.651 892.472 224.275 893.16 225.571 893.16C225.987 893.16 226.419 893.08 226.755 892.936L226.963 891.704C226.499 891.88 226.227 891.928 225.795 891.928C225.139 891.928 224.931 891.672 224.931 890.856V881.32Z" fill="#2C2C2C"/>
<defs>
<filter id="filter0_d_601_1050" x="-10" y="0" width="415" height="280" filterUnits="userSpaceOnUse" color-interpolation-filters="sRGB">
<feFlood flood-opacity="0" result="BackgroundImageFix"/>
<feColorMatrix in="SourceAlpha" type="matrix" values="0 0 0 0 0 0 0 0 0 0 0 0 0 0 0 0 0 0 127 0" result="hardAlpha"/>
<feOffset dx="10" dy="10"/>
<feGaussianBlur stdDeviation="20"/>
<feComposite in2="hardAlpha" operator="out"/>
<feColorMatrix type="matrix" values="0 0 0 0 0 0 0 0 0 0 0 0 0 0 0 0 0 0 0.05 0"/>
<feBlend mode="normal" in2="BackgroundImageFix" result="effect1_dropShadow_601_1050"/>
<feBlend mode="normal" in="SourceGraphic" in2="effect1_dropShadow_601_1050" result="shape"/>
</filter>
<filter id="filter1_d_601_1050" x="-10" y="236" width="415" height="280" filterUnits="userSpaceOnUse" color-interpolation-filters="sRGB">
<feFlood flood-opacity="0" result="BackgroundImageFix"/>
<feColorMatrix in="SourceAlpha" type="matrix" values="0 0 0 0 0 0 0 0 0 0 0 0 0 0 0 0 0 0 127 0" result="hardAlpha"/>
<feOffset dx="10" dy="10"/>
<feGaussianBlur stdDeviation="20"/>
<feComposite in2="hardAlpha" operator="out"/>
<feColorMatrix type="matrix" values="0 0 0 0 0 0 0 0 0 0 0 0 0 0 0 0 0 0 0.05 0"/>
<feBlend mode="normal" in2="BackgroundImageFix" result="effect1_dropShadow_601_1050"/>
<feBlend mode="normal" in="SourceGraphic" in2="effect1_dropShadow_601_1050" result="shape"/>
</filter>
<filter id="filter2_d_601_1050" x="-10" y="472" width="415" height="280" filterUnits="userSpaceOnUse" color-interpolation-filters="sRGB">
<feFlood flood-opacity="0" result="BackgroundImageFix"/>
<feColorMatrix in="SourceAlpha" type="matrix" values="0 0 0 0 0 0 0 0 0 0 0 0 0 0 0 0 0 0 127 0" result="hardAlpha"/>
<feOffset dx="10" dy="10"/>
<feGaussianBlur stdDeviation="20"/>
<feComposite in2="hardAlpha" operator="out"/>
<feColorMatrix type="matrix" values="0 0 0 0 0 0 0 0 0 0 0 0 0 0 0 0 0 0 0.05 0"/>
<feBlend mode="normal" in2="BackgroundImageFix" result="effect1_dropShadow_601_1050"/>
<feBlend mode="normal" in="SourceGraphic" in2="effect1_dropShadow_601_1050" result="shape"/>
</filter>
<filter id="filter3_d_601_1050" x="-10" y="708" width="415" height="280" filterUnits="userSpaceOnUse" color-interpolation-filters="sRGB">
<feFlood flood-opacity="0" result="BackgroundImageFix"/>
<feColorMatrix in="SourceAlpha" type="matrix" values="0 0 0 0 0 0 0 0 0 0 0 0 0 0 0 0 0 0 127 0" result="hardAlpha"/>
<feOffset dx="10" dy="10"/>
<feGaussianBlur stdDeviation="20"/>
<feComposite in2="hardAlpha" operator="out"/>
<feColorMatrix type="matrix" values="0 0 0 0 0 0 0 0 0 0 0 0 0 0 0 0 0 0 0.05 0"/>
<feBlend mode="normal" in2="BackgroundImageFix" result="effect1_dropShadow_601_1050"/>
<feBlend mode="normal" in="SourceGraphic" in2="effect1_dropShadow_601_1050" result="shape"/>
</filter>
<linearGradient id="paint0_linear_601_1050" x1="-3.50001" y1="14.5" x2="241.877" y2="411.757" gradientUnits="userSpaceOnUse">
<stop offset="0.403929" stop-color="white"/>
<stop offset="1" stop-color="#F1F3EF"/>
</linearGradient>
<linearGradient id="paint1_linear_601_1050" x1="68.2688" y1="250.5" x2="342.649" y2="528.961" gradientUnits="userSpaceOnUse">
<stop offset="0.403929" stop-color="white"/>
<stop offset="1" stop-color="#F1F3EF"/>
</linearGradient>
<linearGradient id="paint2_linear_601_1050" x1="68.2688" y1="486.5" x2="342.649" y2="764.961" gradientUnits="userSpaceOnUse">
<stop offset="0.403929" stop-color="white"/>
<stop offset="1" stop-color="#F1F3EF"/>
</linearGradient>
<linearGradient id="paint3_linear_601_1050" x1="58.5" y1="727" x2="233.563" y2="1122.39" gradientUnits="userSpaceOnUse">
<stop offset="0.403929" stop-color="white"/>
<stop offset="1" stop-color="#F1F3EF"/>
</linearGradient>
</defs>
</svg>
