<svg width="100" height="100" viewBox="0 0 100 100" fill="none" xmlns="http://www.w3.org/2000/svg">
<rect width="100" height="100" rx="50" fill="#F4F5F2"/>
<g clip-path="url(#clip0_601_96)">
<path d="M35.7699 62.1C34.4247 62.1001 33.1209 61.6349 32.0795 60.7834C31.0381 59.932 30.3231 58.7465 30.0559 57.4281C29.7887 56.1097 29.9856 54.7394 30.6133 53.5496C31.241 52.3598 32.2608 51.4238 33.4999 50.9" stroke="#B8ED75" stroke-width="3" stroke-linecap="round" stroke-linejoin="round"/>
<path d="M27.13 72.4899V66.6C27.1326 65.4047 27.6086 64.259 28.4539 63.4138C29.2991 62.5686 30.4447 62.0926 31.64 62.09" stroke="#B8ED75" stroke-width="3" stroke-miterlimit="10"/>
<path d="M53.34 65.61C51.6564 65.6147 50.0262 65.0201 48.741 63.9327C47.4557 62.8453 46.5993 61.336 46.3251 59.6749C46.0508 58.0139 46.3766 56.3095 47.2441 54.8666C48.1116 53.4238 49.4643 52.3368 51.06 51.8" stroke="#B8ED75" stroke-width="3" stroke-linecap="round" stroke-linejoin="round"/>
<path d="M42.71 78.8699V71.6899C42.7126 70.2374 43.2909 68.8451 44.318 67.8179C45.3451 66.7908 46.7375 66.2126 48.1901 66.21" stroke="#B8ED75" stroke-width="3" stroke-miterlimit="10"/>
<path d="M70.8199 62.1199C69.3695 62.1337 67.9663 61.6054 66.8851 60.6384C65.8039 59.6715 65.1228 58.3357 64.9751 56.8928C64.8274 55.4498 65.2239 54.0037 66.0868 52.8378C66.9497 51.6719 68.2169 50.8703 69.64 50.59" stroke="#B8ED75" stroke-width="3" stroke-linecap="round" stroke-linejoin="round"/>
<path d="M62.13 78.8699V66.6C62.1326 65.4047 62.6086 64.259 63.4539 63.4138C64.2991 62.5686 65.4447 62.0926 66.64 62.09" stroke="#B8ED75" stroke-width="3" stroke-miterlimit="10"/>
<path d="M33.49 62.0999C36.7099 62.0999 39.32 59.4898 39.32 56.2699C39.32 53.0501 36.7099 50.4399 33.49 50.4399C30.2702 50.4399 27.66 53.0501 27.66 56.2699C27.66 59.4898 30.2702 62.0999 33.49 62.0999Z" stroke="#5F5F5F" stroke-width="3" stroke-miterlimit="10"/>
<path d="M24.84 72.4899V66.6C24.8426 65.4047 25.3186 64.259 26.1638 63.4138C27.009 62.5686 28.1546 62.0926 29.3499 62.09H37.81C39.0053 62.0926 40.1508 62.5686 40.996 63.4138C41.8412 64.259 42.3172 65.4047 42.3199 66.6V67.27" stroke="#5F5F5F" stroke-width="3" stroke-miterlimit="10"/>
<path d="M51.06 65.6101C54.9757 65.6101 58.15 62.4358 58.15 58.5201C58.15 54.6044 54.9757 51.4301 51.06 51.4301C47.1443 51.4301 43.97 54.6044 43.97 58.5201C43.97 62.4358 47.1443 65.6101 51.06 65.6101Z" stroke="#5F5F5F" stroke-width="3" stroke-miterlimit="10"/>
<path d="M40.4301 78.8699V71.6899C40.4353 70.2364 41.0157 68.8442 42.0444 67.8173C43.0732 66.7905 44.4665 66.2126 45.92 66.21H56.21C57.6617 66.2152 59.0525 66.7943 60.0791 67.8209C61.1057 68.8474 61.6848 70.2382 61.6901 71.6899V78.8699" stroke="#5F5F5F" stroke-width="3" stroke-miterlimit="10"/>
<path d="M68.54 62.13C71.7598 62.13 74.37 59.5198 74.37 56.3C74.37 53.0801 71.7598 50.47 68.54 50.47C65.3201 50.47 62.71 53.0801 62.71 56.3C62.71 59.5198 65.3201 62.13 68.54 62.13Z" stroke="#5F5F5F" stroke-width="3" stroke-miterlimit="10"/>
<path d="M59.8 67.5699V66.5699C59.8027 65.3746 60.2787 64.2291 61.1239 63.3839C61.9691 62.5386 63.1147 62.0626 64.3101 62.0599H72.77C73.9653 62.0626 75.111 62.5386 75.9562 63.3839C76.8014 64.2291 77.2774 65.3746 77.28 66.5699V72.46" stroke="#5F5F5F" stroke-width="3" stroke-miterlimit="10"/>
<path d="M43.13 25.1V27.39C43.13 27.7436 43.2698 28.083 43.5189 28.334C43.7681 28.585 44.1063 28.7273 44.46 28.73H49.34V38.91C49.3426 39.3087 49.5029 39.6902 49.7858 39.9713C50.0687 40.2523 50.4512 40.41 50.85 40.41H53.9301" stroke="#B8ED75" stroke-width="3" stroke-miterlimit="10"/>
<path d="M49.38 18.55V25.48" stroke="#B8ED75" stroke-width="3" stroke-miterlimit="10"/>
<path d="M58.99 24.09H54.13V20C54.13 19.6022 53.972 19.2206 53.6907 18.9393C53.4094 18.658 53.0278 18.5 52.63 18.5H49.55C49.1522 18.5 48.7707 18.658 48.4894 18.9393C48.2081 19.2206 48.05 19.6022 48.05 20V24.09H43.13C42.7764 24.0927 42.4381 24.235 42.189 24.486C41.9398 24.737 41.8 25.0763 41.8 25.43V28.84C41.8 29.1937 41.9398 29.533 42.189 29.784C42.4381 30.035 42.7764 30.1774 43.13 30.18H48.02V40.36C48.02 40.7579 48.178 41.1393 48.4594 41.4207C48.7407 41.702 49.1222 41.86 49.52 41.86H52.6C52.9978 41.86 53.3793 41.702 53.6606 41.4207C53.9419 41.1393 54.1 40.7579 54.1 40.36V30.18H58.99C59.3436 30.1774 59.6819 30.035 59.931 29.784C60.1802 29.533 60.32 29.1937 60.3199 28.84V25.43C60.32 25.0763 60.1802 24.737 59.931 24.486C59.6819 24.235 59.3436 24.0927 58.99 24.09V24.09Z" stroke="#5F5F5F" stroke-width="3" stroke-miterlimit="10"/>
<path d="M70.4301 33.8L66.8101 34.47V43.1101" stroke="#5F5F5F" stroke-width="3" stroke-miterlimit="10"/>
<path d="M64.55 45.4501C65.7982 45.4501 66.81 44.4382 66.81 43.1901C66.81 41.9419 65.7982 40.9301 64.55 40.9301C63.3019 40.9301 62.29 41.9419 62.29 43.1901C62.29 44.4382 63.3019 45.4501 64.55 45.4501Z" fill="#B8ED75" stroke="#5F5F5F" stroke-width="3" stroke-miterlimit="10"/>
<path d="M33.58 27.97L29.96 28.64V37.28" stroke="#5F5F5F" stroke-width="3" stroke-miterlimit="10"/>
<path d="M27.6999 39.62C28.9481 39.62 29.9599 38.6081 29.9599 37.36C29.9599 36.1118 28.9481 35.1 27.6999 35.1C26.4518 35.1 25.4399 36.1118 25.4399 37.36C25.4399 38.6081 26.4518 39.62 27.6999 39.62Z" fill="#B8ED75" stroke="#5F5F5F" stroke-width="3" stroke-miterlimit="10"/>
<path d="M21.0601 26.25L77.0201 82.21" stroke="#F4F5F2" stroke-width="3" stroke-miterlimit="10"/>
<path d="M22.72 24.01L78.68 79.97" stroke="#5F5F5F" stroke-width="3" stroke-miterlimit="10"/>
</g>
<defs>
<clipPath id="clip0_601_96">
<rect width="59.74" height="66.27" fill="white" transform="translate(20 17)"/>
</clipPath>
</defs>
</svg>
