<svg width="100" height="100" viewBox="0 0 100 100" fill="none" xmlns="http://www.w3.org/2000/svg">
<rect width="100" height="100" rx="50" fill="#F4F5F2"/>
<g clip-path="url(#clip0_601_176)">
<path d="M36.3501 53.4901C36.1217 53.4589 35.8892 53.4809 35.6706 53.5541C35.4521 53.6274 35.2534 53.75 35.09 53.9125C34.9265 54.075 34.8027 54.273 34.7281 54.4911C34.6536 54.7092 34.6303 54.9415 34.66 55.17L37.2201 75.2601C37.2597 75.5818 37.4032 75.8818 37.6288 76.1146C37.8544 76.3474 38.1498 76.5003 38.4701 76.5501" stroke="#B8ED75" stroke-width="3" stroke-miterlimit="10"/>
<path d="M53.25 78.9V55.76" stroke="#B8ED75" stroke-width="3" stroke-miterlimit="10"/>
<path d="M51.76 52.17C47.1 51.58 46.38 48.3 46.38 48.3C39.72 50.3 37.1801 53.6 37.1801 53.6" stroke="#B8ED75" stroke-width="3" stroke-miterlimit="10"/>
<path d="M47.4301 45.72C47.5184 46.9702 47.1914 48.2146 46.5 49.26" stroke="#B8ED75" stroke-width="3" stroke-miterlimit="10"/>
<path d="M51.7601 47.78C50.7094 47.6888 49.6952 47.3505 48.8002 46.7926C47.9052 46.2347 47.1547 45.4732 46.61 44.5701C44.36 40.1401 44.07 35.7301 43.61 31.7401C42.84 25.7401 45.43 21.2401 51.61 20.5801" stroke="#B8ED75" stroke-width="3" stroke-miterlimit="10"/>
<path d="M31.7001 55.17L34.25 75.2601C34.2933 75.582 34.4394 75.8814 34.6664 76.1138C34.8934 76.3462 35.1892 76.4992 35.51 76.5501L50.28 78.9001V55.7601L33.39 53.4901C33.1616 53.4589 32.9292 53.4809 32.7107 53.5541C32.4922 53.6274 32.2935 53.75 32.13 53.9125C31.9665 54.075 31.8427 54.273 31.7682 54.4911C31.6936 54.7092 31.6703 54.9415 31.7001 55.17V55.17Z" stroke="#5F5F5F" stroke-width="3" stroke-linecap="round" stroke-linejoin="round"/>
<path d="M68.86 55.17L66.29 75.2601C66.2467 75.582 66.1008 75.8814 65.8738 76.1138C65.6468 76.3462 65.3509 76.4992 65.03 76.5501L50.29 78.9001V55.7601L67.1801 53.4901C67.4077 53.4606 67.639 53.4838 67.8562 53.5578C68.0734 53.6318 68.2708 53.7547 68.4331 53.917C68.5954 54.0793 68.7182 54.2767 68.7922 54.4939C68.8663 54.7111 68.8894 54.9424 68.86 55.17V55.17Z" stroke="#5F5F5F" stroke-width="3" stroke-linecap="round" stroke-linejoin="round"/>
<path d="M66.3401 53.6201C66.3401 53.6201 63.8 50.3201 57.15 48.3201C57.15 48.3201 56.28 52.3201 50.28 52.3201C44.28 52.3201 43.41 48.3201 43.41 48.3201C36.76 50.3201 34.2201 53.6201 34.2201 53.6201" stroke="#5F5F5F" stroke-width="3" stroke-miterlimit="10"/>
<path d="M44.4601 45.72C44.5552 46.9694 44.2314 48.215 43.54 49.26" stroke="#5F5F5F" stroke-width="3" stroke-miterlimit="10"/>
<path d="M55.94 45.72C55.8455 46.9708 56.1729 48.2172 56.8699 49.26" stroke="#5F5F5F" stroke-width="3" stroke-miterlimit="10"/>
<path d="M50.2901 20.5C54.9801 20.5 56.2901 23.31 56.2901 23.31C57.6161 23.6919 58.7729 24.5136 59.5701 25.64C60.6801 27.71 60.14 30.03 60 31.74C59.67 35.74 59.21 40.14 57 44.57C54.79 49 46.0001 49 43.7201 44.57C41.4401 40.14 41.1901 35.73 40.7201 31.74C39.8801 25.21 42.99 20.5 50.4 20.5" stroke="#5F5F5F" stroke-width="3" stroke-miterlimit="10"/>
<path d="M59.41 36.62C59.41 36.62 60.31 31.06 56.66 29.54C53.01 28.02 48.5 34.54 43.9 29.54C41.31 30.31 41.3101 37.09 41.3101 37.09" stroke="#5F5F5F" stroke-width="3" stroke-miterlimit="10"/>
<path d="M53.62 41.7101C53.62 42.5201 52.13 43.87 50.28 43.87C48.43 43.87 46.9401 42.5201 46.9401 41.7101C46.9401 40.9001 48.44 40.9501 50.28 40.9501C52.12 40.9501 53.62 40.9101 53.62 41.7101Z" fill="#5F5F5F"/>
<path d="M56.64 69.83L57.35 62.59L62.82 61.4L61.94 68" stroke="#5F5F5F" stroke-width="3" stroke-linejoin="round"/>
<path d="M61.21 68.6601C61.6187 68.6601 61.95 68.3287 61.95 67.9201C61.95 67.5114 61.6187 67.1801 61.21 67.1801C60.8013 67.1801 60.47 67.5114 60.47 67.9201C60.47 68.3287 60.8013 68.6601 61.21 68.6601Z" stroke="#5F5F5F" stroke-width="3" stroke-linejoin="round"/>
<path d="M55.78 70.69C56.255 70.69 56.64 70.3049 56.64 69.83C56.64 69.355 56.255 68.97 55.78 68.97C55.3051 68.97 54.92 69.355 54.92 69.83C54.92 70.3049 55.3051 70.69 55.78 70.69Z" stroke="#5F5F5F" stroke-width="3" stroke-linejoin="round"/>
<path d="M25.0601 27.83L73.8101 76.58" stroke="#F4F5F2" stroke-width="3" stroke-miterlimit="10"/>
<path d="M26.75 25.63L75.51 74.38" stroke="#5F5F5F" stroke-width="3" stroke-miterlimit="10"/>
</g>
<defs>
<clipPath id="clip0_601_176">
<rect width="52.57" height="61.4" fill="white" transform="translate(24 19)"/>
</clipPath>
</defs>
</svg>
