<svg width="100" height="100" viewBox="0 0 100 100" fill="none" xmlns="http://www.w3.org/2000/svg">
<rect width="100" height="100" rx="50" fill="#F4F5F2"/>
<g clip-path="url(#clip0_601_137)">
<path d="M33.2299 39.9V56.9C33.2273 57.2281 33.0959 57.5419 32.864 57.7739C32.632 58.0059 32.318 58.1374 31.9899 58.14H25.4799C25.1519 58.1374 24.838 58.0059 24.606 57.7739C24.374 57.5419 24.2425 57.2281 24.2399 56.9V39.9C24.2399 39.5702 24.3703 39.2538 24.6026 39.0197C24.8349 38.7855 25.1501 38.6527 25.4799 38.65" stroke="#B8ED75" stroke-width="3" stroke-miterlimit="10"/>
<path d="M73.6 59.6799C73.272 59.6773 72.958 59.5458 72.726 59.3138C72.494 59.0819 72.3625 58.768 72.3599 58.4399V41.4399C72.3599 41.1101 72.4903 40.7937 72.7226 40.5596C72.9549 40.3254 73.2703 40.1926 73.6 40.1899" stroke="#B8ED75" stroke-width="3" stroke-miterlimit="10"/>
<path d="M50.03 34.7C49.2256 34.7509 48.4244 34.8443 47.6299 34.9799C43.0999 35.7599 39.0899 37.8599 33.2299 40.1899" stroke="#B8ED75" stroke-width="3" stroke-miterlimit="10"/>
<path d="M32.89 57.74L38.97 64.44C40.4581 65.7999 42.072 67.0154 43.79 68.07L48.04 70.51" stroke="#B8ED75" stroke-width="3" stroke-miterlimit="10"/>
<path d="M43.79 47.2899C36.9 46.4599 37.51 43.03 37.51 43.03C37.51 43.03 46.0599 39.97 50.1199 38.65C51.5289 38.1972 53 37.9677 54.4799 37.97" stroke="#B8ED75" stroke-width="3" stroke-miterlimit="10"/>
<path d="M69.2399 57.9899L51.16 45.7" stroke="#B8ED75" stroke-width="3" stroke-miterlimit="10"/>
<path d="M29.25 38.66H22.74C22.0552 38.66 21.5 39.2152 21.5 39.9V56.91C21.5 57.5949 22.0552 58.15 22.74 58.15H29.25C29.9348 58.15 30.49 57.5949 30.49 56.91V39.9C30.49 39.2152 29.9348 38.66 29.25 38.66Z" stroke="#5F5F5F" stroke-width="3" stroke-miterlimit="10"/>
<path d="M77.37 40.2H70.86C70.1752 40.2 69.62 40.7551 69.62 41.44V58.45C69.62 59.1348 70.1752 59.6899 70.86 59.6899H77.37C78.0548 59.6899 78.61 59.1348 78.61 58.45V41.44C78.61 40.7551 78.0548 40.2 77.37 40.2Z" stroke="#5F5F5F" stroke-width="3" stroke-miterlimit="10"/>
<path d="M55.9899 38.38C55.9899 38.38 56.43 34.66 48.67 34.66C42.36 34.66 37.9099 37.23 30.4899 40.19" stroke="#5F5F5F" stroke-width="3" stroke-miterlimit="10"/>
<path d="M30.16 57.74L36.2399 64.44C37.7163 65.801 39.3204 67.0167 41.03 68.07L45.27 70.51C45.9442 70.8945 46.7431 70.9967 47.4925 70.7944C48.2418 70.592 48.8808 70.1016 49.27 69.43L49.92 68.32" stroke="#5F5F5F" stroke-width="3" stroke-miterlimit="10"/>
<path d="M45.69 65.77L52.69 69.77C52.9856 69.9405 53.3123 70.05 53.651 70.092C53.9896 70.134 54.3332 70.1075 54.6615 70.0143C54.9897 69.921 55.2959 69.7629 55.5619 69.5491C55.8279 69.3354 56.0483 69.0704 56.2101 68.77V68.77C56.5318 68.1808 56.6072 67.4882 56.4198 66.8436C56.2324 66.199 55.7975 65.6548 55.2101 65.33L48.9 61.6799L56.8 66.2999C57.1443 66.5082 57.5269 66.6451 57.9251 66.7025C58.3234 66.7599 58.7292 66.7366 59.1183 66.634C59.5073 66.5313 59.8717 66.3515 60.1898 66.1052C60.5079 65.8588 60.7733 65.551 60.9701 65.2V65.2C61.3832 64.5209 61.51 63.7055 61.3225 62.933C61.135 62.1606 60.6486 61.4941 59.9701 61.08L52.52 56.51L63.29 63.01C63.9442 63.3974 64.7211 63.5221 65.4636 63.3587C66.2061 63.1953 66.8589 62.7562 67.29 62.1299V62.1299C67.5132 61.8034 67.6695 61.4359 67.7501 61.0486C67.8307 60.6614 67.8338 60.262 67.7595 59.8735C67.6851 59.485 67.5347 59.1151 67.3169 58.785C67.099 58.4548 66.8179 58.1711 66.49 57.95L48.41 45.66C46.3174 46.8725 43.9143 47.4428 41.5 47.2999C34.14 46.5699 34.77 42.9899 34.77 42.9899C34.77 42.9899 43.32 39.9299 47.38 38.6099C51.44 37.2899 55.51 38.08 60.38 39.35C65.25 40.62 69.63 42.35 69.63 42.35" stroke="#5F5F5F" stroke-width="3" stroke-miterlimit="10"/>
<path d="M22.98 28.24L68.98 74.25" stroke="#F4F5F2" stroke-width="3" stroke-miterlimit="10"/>
<path d="M24.69 26.0601L70.69 72.0701" stroke="#5F5F5F" stroke-width="3" stroke-miterlimit="10"/>
</g>
<defs>
<clipPath id="clip0_601_137">
<rect width="60.11" height="50.31" fill="white" transform="translate(20 25)"/>
</clipPath>
</defs>
</svg>
