<svg width="100" height="100" viewBox="0 0 100 100" fill="none" xmlns="http://www.w3.org/2000/svg">
<rect width="100" height="100" rx="50" fill="#F4F5F2"/>
<g clip-path="url(#clip0_601_83)">
<path d="M40.54 72.6C39.7722 72.6013 39.0118 72.4512 38.3021 72.1583C37.5924 71.8654 36.9474 71.4354 36.4041 70.893C35.8607 70.3506 35.4296 69.7064 35.1355 68.9972C34.8414 68.288 34.69 67.5278 34.69 66.76V31.34C34.69 30.5722 34.8414 29.812 35.1355 29.1028C35.4296 28.3936 35.8607 27.7493 36.4041 27.2069C36.9474 26.6645 37.5924 26.2346 38.3021 25.9417C39.0118 25.6488 39.7722 25.4987 40.54 25.5" stroke="#B8ED75" stroke-width="3" stroke-miterlimit="10"/>
<path d="M63.96 25.5H37.57C36.8022 25.4987 36.0417 25.6488 35.332 25.9417C34.6223 26.2346 33.9774 26.6645 33.434 27.2069C32.8907 27.7493 32.4596 28.3936 32.1655 29.1028C31.8714 29.812 31.72 30.5722 31.72 31.34V66.76C31.7227 68.3098 32.3401 69.7952 33.437 70.8901C34.5338 71.985 36.0202 72.6 37.57 72.6H63.96C65.5089 72.6 66.9943 71.9847 68.0895 70.8895C69.1847 69.7943 69.8 68.3089 69.8 66.76V31.34C69.8013 30.5727 69.6512 29.8127 69.3582 29.1036C69.0651 28.3944 68.635 27.7501 68.0925 27.2075C67.5499 26.665 66.9055 26.2349 66.1964 25.9418C65.4873 25.6488 64.7273 25.4987 63.96 25.5V25.5Z" stroke="#5F5F5F" stroke-width="3" stroke-miterlimit="10"/>
<path d="M41.85 57.86H59.67" stroke="#5F5F5F" stroke-width="3" stroke-miterlimit="10"/>
<path d="M41.85 64.47H59.67" stroke="#5F5F5F" stroke-width="3" stroke-miterlimit="10"/>
<path d="M56.93 36.07C56.93 36.07 52.03 34.89 52.03 31.96V45.65" stroke="#5F5F5F" stroke-width="3" stroke-miterlimit="10"/>
<path d="M49 48.69C49.5933 48.69 50.1733 48.514 50.6667 48.1844C51.16 47.8547 51.5446 47.3862 51.7717 46.838C51.9987 46.2898 52.0581 45.6866 51.9424 45.1047C51.8266 44.5228 51.5409 43.9882 51.1213 43.5686C50.7018 43.1491 50.1672 42.8633 49.5853 42.7476C49.0033 42.6318 48.4001 42.6912 47.8519 42.9183C47.3038 43.1454 46.8353 43.5299 46.5056 44.0232C46.176 44.5166 46 45.0966 46 45.69C46 46.4856 46.3161 47.2486 46.8787 47.8112C47.4413 48.3739 48.2044 48.69 49 48.69Z" fill="#B8ED75" stroke="#5F5F5F" stroke-width="3" stroke-miterlimit="10"/>
<path d="M26.06 28.25L72.07 74.25" stroke="#F4F5F2" stroke-width="3" stroke-miterlimit="10"/>
<path d="M27.77 26.0601L73.77 72.0701" stroke="#5F5F5F" stroke-width="3" stroke-miterlimit="10"/>
</g>
<defs>
<clipPath id="clip0_601_83">
<rect width="49.83" height="51.31" fill="white" transform="translate(25 24)"/>
</clipPath>
</defs>
</svg>
