<svg width="100" height="100" viewBox="0 0 100 100" fill="none" xmlns="http://www.w3.org/2000/svg">
<rect width="100" height="100" rx="50" fill="#F4F5F2"/>
<g clip-path="url(#clip0_601_154)">
<path d="M38.45 72.23C36.4545 72.2247 34.5424 71.4296 33.1313 70.0186C31.7203 68.6076 30.9253 66.6954 30.92 64.7V34.3799C30.9253 32.3845 31.7203 30.4723 33.1313 29.0613C34.5424 27.6503 36.4545 26.8553 38.45 26.85" stroke="#B8ED75" stroke-width="3" stroke-miterlimit="10"/>
<path d="M38.97 38.1899C38.3776 38.1899 37.8094 37.9553 37.3896 37.5374C36.9699 37.1195 36.7326 36.5523 36.73 35.96V35.83C36.7326 35.2367 36.9694 34.6685 37.3889 34.249C37.8084 33.8294 38.3767 33.5926 38.97 33.59" stroke="#B8ED75" stroke-width="3" stroke-miterlimit="10"/>
<path d="M51.47 38.1899C50.8785 38.1899 50.3114 37.955 49.8932 37.5368C49.475 37.1186 49.24 36.5514 49.24 35.96V35.83C49.24 35.2376 49.4747 34.6694 49.8926 34.2496C50.3105 33.8298 50.8776 33.5926 51.47 33.59" stroke="#B8ED75" stroke-width="3" stroke-miterlimit="10"/>
<path d="M63.98 38.1899C63.3876 38.1899 62.8193 37.9553 62.3995 37.5374C61.9797 37.1195 61.7426 36.5523 61.74 35.96V35.83C61.7426 35.2367 61.9794 34.6685 62.3989 34.249C62.8184 33.8294 63.3867 33.5926 63.98 33.59" stroke="#B8ED75" stroke-width="3" stroke-miterlimit="10"/>
<path d="M41.5599 55.6199C40.9234 55.6199 40.313 55.3671 39.8629 54.917C39.4128 54.4669 39.16 53.8565 39.16 53.22V49.64C39.16 49.0034 39.4128 48.393 39.8629 47.9429C40.313 47.4928 40.9234 47.24 41.5599 47.24" stroke="#B8ED75" stroke-width="3" stroke-miterlimit="10"/>
<path d="M60.47 59.28C59.8335 59.28 59.223 59.0272 58.7729 58.5771C58.3229 58.127 58.0699 57.5165 58.0699 56.88V53.3C58.0699 52.6635 58.3229 52.0531 58.7729 51.603C59.223 51.1529 59.8335 50.9 60.47 50.9" stroke="#B8ED75" stroke-width="3" stroke-miterlimit="10"/>
<path d="M64.65 26.84H35.92C31.7613 26.84 28.39 30.2113 28.39 34.37V64.7C28.39 68.8587 31.7613 72.23 35.92 72.23H64.65C68.8087 72.23 72.18 68.8587 72.18 64.7V34.37C72.18 30.2113 68.8087 26.84 64.65 26.84Z" stroke="#5F5F5F" stroke-width="3" stroke-miterlimit="10"/>
<path d="M39.11 33.59H36.45C35.2128 33.59 34.21 34.5928 34.21 35.83V35.95C34.21 37.1871 35.2128 38.19 36.45 38.19H39.11C40.3471 38.19 41.35 37.1871 41.35 35.95V35.83C41.35 34.5928 40.3471 33.59 39.11 33.59Z" stroke="#5F5F5F" stroke-width="3" stroke-miterlimit="10"/>
<path d="M51.61 33.59H48.95C47.7128 33.59 46.71 34.5928 46.71 35.83V35.95C46.71 37.1871 47.7128 38.19 48.95 38.19H51.61C52.8471 38.19 53.85 37.1871 53.85 35.95V35.83C53.85 34.5928 52.8471 33.59 51.61 33.59Z" stroke="#5F5F5F" stroke-width="3" stroke-miterlimit="10"/>
<path d="M64.12 33.59H61.46C60.2229 33.59 59.22 34.5928 59.22 35.83V35.95C59.22 37.1871 60.2229 38.19 61.46 38.19H64.12C65.3571 38.19 66.36 37.1871 66.36 35.95V35.83C66.36 34.5928 65.3571 33.59 64.12 33.59Z" stroke="#5F5F5F" stroke-width="3" stroke-miterlimit="10"/>
<path d="M42.62 47.24H39.04C37.7145 47.24 36.64 48.3145 36.64 49.64V53.22C36.64 54.5455 37.7145 55.62 39.04 55.62H42.62C43.9455 55.62 45.02 54.5455 45.02 53.22V49.64C45.02 48.3145 43.9455 47.24 42.62 47.24Z" stroke="#5F5F5F" stroke-width="3" stroke-miterlimit="10"/>
<path d="M40.83 66.84V55.62" stroke="#5F5F5F" stroke-width="3" stroke-miterlimit="10"/>
<path d="M61.53 50.89H57.9501C56.6246 50.89 55.55 51.9645 55.55 53.29V56.87C55.55 58.1955 56.6246 59.27 57.9501 59.27H61.53C62.8555 59.27 63.93 58.1955 63.93 56.87V53.29C63.93 51.9645 62.8555 50.89 61.53 50.89Z" stroke="#5F5F5F" stroke-width="3" stroke-miterlimit="10"/>
<path d="M59.74 66.84V59.28" stroke="#5F5F5F" stroke-width="3" stroke-miterlimit="10"/>
<path d="M59.74 50.89V43.9" stroke="#5F5F5F" stroke-width="3" stroke-miterlimit="10"/>
<path d="M40.83 47.24V43.9" stroke="#5F5F5F" stroke-width="3" stroke-miterlimit="10"/>
<path d="M25.0601 26.26L73.8101 75.01" stroke="#F4F5F2" stroke-width="3" stroke-miterlimit="10"/>
<path d="M26.75 24.0601L75.51 72.8101" stroke="#5F5F5F" stroke-width="3" stroke-miterlimit="10"/>
</g>
<defs>
<clipPath id="clip0_601_154">
<rect width="52.57" height="53.07" fill="white" transform="translate(24 23)"/>
</clipPath>
</defs>
</svg>
