<svg width="163" height="68" viewBox="0 0 163 68" fill="none" xmlns="http://www.w3.org/2000/svg">
<rect y="0.396973" width="162.45" height="67.3367" rx="16.8342" fill="#F4F5F2"/>
<path d="M42.6544 16.3894L27.7763 22.8359V36.8545C27.7768 39.4152 28.5205 41.9245 29.923 44.0977C31.3256 46.2708 33.3309 48.0207 35.7113 49.1489L42.9271 52.5829" stroke="#D1FF96" stroke-width="2.52513" stroke-miterlimit="10"/>
<path d="M37.8769 41.6404C37.4304 41.6404 37.0022 41.4685 36.6865 41.1625C36.3708 40.8565 36.1935 40.4414 36.1935 40.0087V33.1717C36.1935 32.7389 36.3708 32.3238 36.6865 32.0178C37.0022 31.7118 37.4304 31.5399 37.8769 31.5399" stroke="#D1FF96" stroke-width="2.52513" stroke-miterlimit="10"/>
<path d="M38.7187 31.5401V28.2439C38.7187 27.109 39.162 26.0206 39.9513 25.2181C40.7405 24.4156 41.811 23.9647 42.9272 23.9647" stroke="#D1FF96" stroke-width="2.52513" stroke-miterlimit="10"/>
<path d="M43.348 36.5903C44.0453 36.5903 44.6105 36.2134 44.6105 35.7486C44.6105 35.2837 44.0453 34.9069 43.348 34.9069C42.6507 34.9069 42.0854 35.2837 42.0854 35.7486C42.0854 36.2134 42.6507 36.5903 43.348 36.5903Z" stroke="#D1FF96" stroke-width="2.52513" stroke-miterlimit="10"/>
<path d="M42.9272 38.2738V34.907V38.2738Z" stroke="#D1FF96" stroke-width="2.52513" stroke-miterlimit="10"/>
<path d="M41.3328 52.2068C41.8066 52.4436 42.3642 52.4436 42.8379 52.2068L49.6607 48.7968C51.9329 47.6661 53.847 45.9127 55.1859 43.7355C56.5249 41.5583 57.2351 39.0445 57.2361 36.479V23.5177C57.2361 22.8575 56.8502 22.2583 56.2492 21.9851L42.7819 15.8643C42.3393 15.6632 41.8314 15.6632 41.3888 15.8643L27.9215 21.9851C27.3205 22.2583 26.9346 22.8575 26.9346 23.5177V36.479C26.935 39.0446 27.6451 41.5587 28.9841 43.736C30.3231 45.9133 32.2375 47.6665 34.51 48.7968L41.3328 52.2068Z" stroke="#494949" stroke-width="1.9696" stroke-miterlimit="10"/>
<path d="M47.1003 31.5399H37.0706C36.1213 31.5399 35.3517 32.2715 35.3517 33.1739V40.0064C35.3517 40.9089 36.1213 41.6404 37.0706 41.6404H47.1003C48.0495 41.6404 48.8191 40.9089 48.8191 40.0064V33.1739C48.8191 32.2715 48.0495 31.5399 47.1003 31.5399Z" stroke="#494949" stroke-width="1.9696" stroke-miterlimit="10"/>
<path d="M41.9347 23.9647H42.2362C43.3124 23.9647 44.3445 24.4153 45.1055 25.2173C45.8665 26.0192 46.294 27.107 46.294 28.2411V31.5401H37.8769V28.2411C37.8769 27.107 38.3044 26.0192 39.0654 25.2173C39.8264 24.4153 40.8585 23.9647 41.9347 23.9647Z" stroke="#494949" stroke-width="1.9696" stroke-miterlimit="10"/>
<path d="M42.0854 36.5903C42.5503 36.5903 42.9271 36.2134 42.9271 35.7486C42.9271 35.2837 42.5503 34.9069 42.0854 34.9069C41.6206 34.9069 41.2437 35.2837 41.2437 35.7486C41.2437 36.2134 41.6206 36.5903 42.0854 36.5903Z" stroke="#494949" stroke-width="1.9696" stroke-miterlimit="10"/>
<path d="M42.0854 38.2738V34.907V38.2738Z" stroke="#494949" stroke-width="1.9696" stroke-miterlimit="10"/>
<path d="M76.0922 25.6554L74.8094 25.2715C74.5973 26.0695 74.0721 26.4533 73.2741 26.4533C72.153 26.4533 71.4964 25.6352 71.4964 24.1605C71.4964 22.6757 72.1934 21.8677 73.3044 21.8677C74.0721 21.8677 74.5165 22.1808 74.7387 22.9888L76.0012 22.4535C75.6275 21.2919 74.6074 20.7263 73.2438 20.7263C71.2944 20.7263 70.0521 22.0192 70.0521 24.1605C70.0521 26.3018 71.2843 27.5947 73.264 27.5947C74.6175 27.5947 75.6881 26.9583 76.0922 25.6554ZM79.4619 22.3424C77.8357 22.3424 76.8761 23.3221 76.8761 24.9685C76.8761 26.6149 77.8357 27.5947 79.4619 27.5947C81.088 27.5947 82.0476 26.6149 82.0476 24.9685C82.0476 23.3221 81.088 22.3424 79.4619 22.3424ZM79.4619 23.3726C80.2396 23.3726 80.6638 23.8979 80.6638 24.9685C80.6638 26.0392 80.2396 26.5644 79.4619 26.5644C78.6841 26.5644 78.2599 26.0392 78.2599 24.9685C78.2599 23.8979 78.6841 23.3726 79.4619 23.3726ZM89.5575 22.3424C88.8504 22.3424 88.1737 22.6757 87.8404 23.3625C87.5677 22.6757 86.9212 22.3424 86.194 22.3424C85.487 22.3424 84.8607 22.6656 84.5274 23.3322L84.4769 22.4434H83.2345V27.4937H84.6183V24.817C84.6183 23.8272 85.194 23.4333 85.7294 23.4333C86.2445 23.4333 86.6081 23.7161 86.6081 24.4534V27.4937H87.9919V24.7766C87.9919 23.8979 88.4868 23.4333 89.1029 23.4333C89.608 23.4333 89.9716 23.7161 89.9716 24.4534V27.4937H91.3453L91.3554 24.1807C91.3655 22.9383 90.5372 22.3424 89.5575 22.3424ZM95.7522 22.3424C94.9442 22.3424 94.3382 22.7767 94.0553 23.4231L94.0048 22.4434H92.7827V29.6148H94.1664V26.6553C94.4594 27.2209 95.0048 27.5947 95.7522 27.5947C97.0855 27.5947 97.9137 26.6149 97.9137 24.9584C97.9137 23.312 97.0956 22.3424 95.7522 22.3424ZM95.3381 26.5341C94.6109 26.5341 94.1664 25.9786 94.1664 25.019V24.918C94.1664 23.9383 94.621 23.4029 95.3381 23.4029C96.0754 23.4029 96.5199 23.9383 96.5199 24.9685C96.5199 25.9988 96.0754 26.5341 95.3381 26.5341ZM101.993 22.3424C101.206 22.3424 100.69 22.7363 100.428 23.4333L100.337 22.4434H99.1349V27.4937H100.519V24.8776C100.519 23.9585 101.125 23.5141 101.731 23.5141C101.993 23.5141 102.226 23.5747 102.367 23.6656L102.539 22.4535C102.418 22.3828 102.216 22.3424 101.993 22.3424ZM107.923 26.6553C107.661 26.6553 107.55 26.5341 107.55 26.2715V24.2009C107.55 22.9484 106.661 22.3424 105.257 22.3424C104.024 22.3424 103.267 22.8878 103.055 23.7464L104.156 24.211C104.307 23.5747 104.731 23.3524 105.317 23.3524C105.863 23.3524 106.176 23.6959 106.176 24.2312V24.4736L104.964 24.7059C103.61 24.9584 102.994 25.514 102.994 26.3018C102.994 27.1502 103.6 27.5947 104.56 27.5947C105.408 27.5947 106.045 27.332 106.348 26.8371C106.489 27.3825 106.903 27.5947 107.509 27.5947C107.762 27.5947 107.984 27.5442 108.166 27.4533L108.267 26.6149C108.166 26.6452 108.044 26.6553 107.923 26.6553ZM104.994 26.6553C104.63 26.6553 104.418 26.4836 104.418 26.1604C104.418 25.8271 104.651 25.6655 105.095 25.5645L106.176 25.322V25.8473C106.176 26.3826 105.519 26.6553 104.994 26.6553ZM113.544 20.8273C113.201 21.3222 112.13 21.9081 111.524 21.9788L111.706 23.1504C112.292 23.0393 112.867 22.6959 113.332 22.2818C113.322 22.3626 113.322 22.4434 113.322 22.5242V27.4937H114.675V20.8273H113.544ZM118.743 27.5947C120.511 27.5947 121.41 26.4129 121.41 24.1605C121.41 21.9081 120.511 20.7263 118.743 20.7263C116.976 20.7263 116.077 21.9081 116.077 24.1605C116.077 26.4129 116.976 27.5947 118.743 27.5947ZM118.743 26.4735C117.885 26.4735 117.471 25.7463 117.471 24.1605C117.471 22.5747 117.885 21.8475 118.743 21.8475C119.602 21.8475 120.016 22.5747 120.016 24.1605C120.016 25.7463 119.602 26.4735 118.743 26.4735ZM125.164 27.5947C126.932 27.5947 127.831 26.4129 127.831 24.1605C127.831 21.9081 126.932 20.7263 125.164 20.7263C123.397 20.7263 122.498 21.9081 122.498 24.1605C122.498 26.4129 123.397 27.5947 125.164 27.5947ZM125.164 26.4735C124.306 26.4735 123.892 25.7463 123.892 24.1605C123.892 22.5747 124.306 21.8475 125.164 21.8475C126.023 21.8475 126.437 22.5747 126.437 24.1605C126.437 25.7463 126.023 26.4735 125.164 26.4735ZM130.495 20.7263C129.424 20.7263 128.717 21.4738 128.717 22.605C128.717 23.7363 129.424 24.4837 130.495 24.4837C131.576 24.4837 132.273 23.7363 132.273 22.605C132.273 21.4738 131.576 20.7263 130.495 20.7263ZM130.162 27.4937H131.273L135.767 20.8273H134.656L130.162 27.4937ZM130.495 21.6859C130.949 21.6859 131.202 22.0293 131.202 22.605C131.202 23.1807 130.949 23.5141 130.495 23.5141C130.04 23.5141 129.788 23.1807 129.788 22.605C129.788 22.0293 130.04 21.6859 130.495 21.6859ZM135.424 23.8373C134.343 23.8373 133.646 24.5847 133.646 25.716C133.646 26.8472 134.343 27.5947 135.424 27.5947C136.495 27.5947 137.202 26.8472 137.202 25.716C137.202 24.5847 136.495 23.8373 135.424 23.8373ZM135.424 24.8069C135.879 24.8069 136.131 25.1402 136.131 25.716C136.131 26.2917 135.879 26.6351 135.424 26.6351C134.959 26.6351 134.717 26.2917 134.717 25.716C134.717 25.1402 134.959 24.8069 135.424 24.8069Z" fill="#5F5F5F"/>
<path d="M75.0888 34.9986C72.0418 34.9986 70.3079 36.5305 70.3079 38.6179C70.3079 40.7895 72.0082 41.5639 74.6343 42.0858C76.1494 42.3719 76.7891 42.6581 76.7891 43.18C76.7891 43.8197 76.1831 44.19 74.9373 44.19C73.4559 44.19 72.3785 43.8028 71.4695 42.5403L69.9881 44.5604C71.0823 45.7724 72.4627 46.4458 75.0888 46.4458C77.7655 46.4458 79.7856 45.2001 79.7856 43.0285C79.7856 41.0757 78.5903 40.0825 75.5097 39.527C73.9273 39.2408 73.3212 38.9378 73.3212 38.3654C73.3212 37.7257 73.9441 37.2543 75.1393 37.2543C76.5534 37.2543 77.4961 37.7762 78.2368 38.8873L79.8697 37.0018C78.5903 35.5709 77.1763 34.9986 75.0888 34.9986ZM84.4748 44.0385V41.7659H89.0537V39.6616H84.4748V37.4059H90.2321V35.1669H81.5793V46.2775H90.4509V44.0385H84.4748ZM96.8479 40.2677V42.2204H99.6087V42.3888C99.6087 43.6345 98.6323 44.2237 97.3193 44.2237C95.518 44.2237 94.5921 43.0958 94.5921 40.7222C94.5921 38.4327 95.5517 37.2712 97.2351 37.2712C98.2957 37.2712 99.0869 37.7762 99.373 38.9041L102.05 37.8435C101.157 35.8403 99.6761 34.9986 97.1509 34.9986C93.7336 34.9986 91.6125 37.1533 91.6125 40.739C91.6125 44.4257 93.7841 46.4458 96.7806 46.4458C98.3125 46.4458 99.3562 45.9071 99.9622 44.9812L100.046 46.2775H102.067V40.2677H96.8479ZM113.996 35.1669H111.118V41.7996C111.118 43.3988 110.427 44.1732 109.03 44.1732C107.65 44.1732 106.976 43.3988 106.976 41.7996V35.1669H104.064V41.7491C104.064 44.8802 105.764 46.4458 109.03 46.4458C112.313 46.4458 113.996 44.8802 113.996 41.7491V35.1669ZM123.219 46.2775H126.418L123.607 41.9174C125.004 41.4124 125.761 40.3182 125.761 38.7021C125.761 36.4126 124.246 35.1669 121.57 35.1669H116.267V46.2775H119.112V42.2204H120.846L123.219 46.2775ZM119.112 37.3554H121.082C122.31 37.3554 122.849 37.7762 122.849 38.7526C122.849 39.7458 122.31 40.1667 121.082 40.1667H119.112V37.3554ZM134.994 46.2775H137.974L134.085 35.1669H130.617L126.712 46.2775H129.624L130.398 43.7692H134.237L134.994 46.2775ZM131.021 41.7996L131.846 39.1229L132.301 37.389H132.334L132.823 39.1398L133.631 41.7996H131.021Z" fill="#5F5F5F"/>
</svg>
