<svg width="163" height="68" viewBox="0 0 163 68" fill="none" xmlns="http://www.w3.org/2000/svg">
<rect x="0.550232" y="0.396973" width="162.45" height="67.3367" rx="23.6421" fill="#F4F5F2"/>
<g clip-path="url(#clip0_601_1016)">
<path d="M40.9521 39.9573V53.4246" stroke="#D1FF96" stroke-width="2.52513" stroke-miterlimit="10"/>
<path d="M47.6859 43.324L43.8439 40.4847L40.0621 39.9357C39.4475 39.8458 38.8784 39.5619 38.4391 39.126C37.9998 38.6901 37.7137 38.1254 37.6231 37.5156L37.0749 33.763L34.7919 30.7241C34.4197 30.2299 34.2186 29.6295 34.2186 29.0125C34.2186 28.3955 34.4197 27.7951 34.7919 27.3009L37.0749 24.2619L37.6231 20.5094C37.7137 19.8995 37.9998 19.3348 38.4391 18.8989C38.8784 18.463 39.4475 18.1791 40.0621 18.0892L43.8439 17.5453L47.6859 14.7059" stroke="#D1FF96" stroke-width="2.52513" stroke-miterlimit="10"/>
<path d="M44.3191 22.2825H51.5542C51.7386 22.2735 51.9224 22.312 52.0893 22.3948C52.2562 22.4775 52.4013 22.6019 52.5117 22.7572C52.6222 22.9124 52.6947 23.0936 52.7229 23.285C52.7511 23.4765 52.7341 23.6722 52.6734 23.8551L47.457 37.432" stroke="#D1FF96" stroke-width="2.52513" stroke-miterlimit="10"/>
<path d="M39.2704 39.9573V52.8792C39.2629 52.9738 39.2827 53.0686 39.3276 53.1527C39.3725 53.2368 39.4406 53.3068 39.5242 53.3549C39.6078 53.4029 39.7035 53.427 39.8003 53.4244C39.8972 53.4218 39.9914 53.3926 40.0722 53.3401L47.2676 49.3942L54.4579 53.3401C54.5387 53.3926 54.6329 53.4218 54.7298 53.4244C54.8267 53.427 54.9223 53.4029 55.0059 53.3549C55.0894 53.3068 55.1575 53.2368 55.2024 53.1527C55.2473 53.0686 55.2672 52.9738 55.2598 52.8792V39.9573" stroke="#494949" stroke-width="2.52513" stroke-miterlimit="10"/>
<path d="M49.3956 15.2745L52.4406 17.5412L56.1895 18.0854C56.7999 18.1746 57.3652 18.4584 57.8014 18.8946C58.2376 19.3309 58.5213 19.8963 58.6105 20.5068L59.1596 24.2613L61.4259 27.3018C61.7953 27.7963 61.995 28.3971 61.995 29.0144C61.995 29.6316 61.7953 30.2324 61.4259 30.7268L59.1596 33.7674L58.6105 37.5219C58.5213 38.1324 58.2376 38.6978 57.8014 39.134C57.3652 39.5703 56.7999 39.8541 56.1895 39.9433L52.4406 40.4925L49.3956 42.7592C48.901 43.126 48.3016 43.324 47.6859 43.324C47.0702 43.324 46.4708 43.126 45.9762 42.7592L42.9362 40.4925L39.1824 39.9433C38.572 39.8541 38.0066 39.5703 37.5704 39.134C37.1342 38.6978 36.8504 38.1324 36.7613 37.5219L36.2122 33.7674L33.9459 30.7268C33.5764 30.2324 33.3769 29.6316 33.3769 29.0144C33.3769 28.3971 33.5764 27.7963 33.9459 27.3018L36.2122 24.2613L36.7613 20.5068C36.8504 19.8963 37.1342 19.3309 37.5704 18.8946C38.0066 18.4584 38.572 18.1746 39.1824 18.0854L42.9362 17.5412L45.9762 15.2745C46.4698 14.9054 47.0696 14.7059 47.6859 14.7059C48.3022 14.7059 48.902 14.9054 49.3956 15.2745V15.2745Z" stroke="#494949" stroke-width="2.52513" stroke-miterlimit="10"/>
<path d="M43.4773 22.2828H50.706C50.891 22.2729 51.0756 22.3108 51.2434 22.3931C51.4112 22.4755 51.5571 22.5998 51.6683 22.7551C51.7795 22.9105 51.8525 23.092 51.881 23.2839C51.9095 23.4758 51.8924 23.672 51.8315 23.8554L46.6039 37.432" stroke="#494949" stroke-width="2.52513" stroke-miterlimit="10"/>
</g>
<path d="M74.0991 23.3831V25.6557H80.4119C77.8531 28.2818 76.742 31.1437 76.742 34.4937H79.6039C79.6039 31.0763 80.4624 28.1303 83.24 25.4369V23.3831H74.0991ZM94.0808 23.3831H89.3673V34.4937H94.0808C97.5655 34.4937 99.4678 32.4904 99.4678 28.9384C99.4678 25.3864 97.5655 23.3831 94.0808 23.3831ZM93.7947 32.3052H92.2628V25.5715H93.7947C95.6801 25.5715 96.505 26.7163 96.505 28.9384C96.505 31.1605 95.6801 32.3052 93.7947 32.3052ZM104.346 23.3831H101.45V34.4937H104.346V23.3831ZM113.931 34.4937H116.91L113.022 23.3831H109.554L105.648 34.4937H108.56L109.335 31.9854H113.173L113.931 34.4937ZM109.958 30.0158L110.783 27.3391L111.237 25.6052H111.271L111.759 27.356L112.567 30.0158H109.958ZM122.496 23.2148C119.449 23.2148 117.715 24.7467 117.715 26.8341C117.715 29.0057 119.416 29.7801 122.042 30.3019C123.557 30.5881 124.197 30.8743 124.197 31.3962C124.197 32.0359 123.59 32.4062 122.345 32.4062C120.863 32.4062 119.786 32.019 118.877 30.7565L117.396 32.7766C118.49 33.9886 119.87 34.662 122.496 34.662C125.173 34.662 127.193 33.4163 127.193 31.2447C127.193 29.2919 125.998 28.2987 122.917 27.7431C121.335 27.457 120.729 27.154 120.729 26.5816C120.729 25.9419 121.352 25.4705 122.547 25.4705C123.961 25.4705 124.904 25.9924 125.644 27.1035L127.277 25.218C125.998 23.7871 124.584 23.2148 122.496 23.2148Z" fill="#5F5F5F"/>
<path d="M77.6242 39.5906V42.6208C77.3312 42.0653 76.7858 41.7016 76.0485 41.7016C74.7152 41.7016 73.887 42.6814 73.887 44.3379C73.887 45.9843 74.7051 46.9539 76.0485 46.9539C76.8262 46.9539 77.4221 46.5499 77.7151 45.9439L77.7757 46.8529H79.0079V39.5906H77.6242ZM76.4626 45.8934C75.7253 45.8934 75.2808 45.358 75.2808 44.3278C75.2808 43.2975 75.7253 42.7622 76.4626 42.7622C77.1292 42.7622 77.5535 43.2268 77.6242 44.0349V44.6207C77.5535 45.4489 77.1191 45.8934 76.4626 45.8934ZM85.1885 44.3076C85.1885 42.6511 84.3299 41.7016 82.7543 41.7016C81.1281 41.7016 80.2089 42.6713 80.2089 44.3278C80.2089 45.9843 81.1584 46.9539 82.8351 46.9539C83.9764 46.9539 84.7542 46.5196 85.0774 45.7115L83.9461 45.2974C83.8047 45.7014 83.4209 45.9237 82.8351 45.9237C82.1583 45.9237 81.7139 45.5802 81.5725 44.853H85.1481C85.1683 44.7217 85.1885 44.449 85.1885 44.3076ZM82.7442 42.7218C83.3805 42.7218 83.8047 43.1258 83.9158 43.8834H81.5624C81.6735 43.1157 82.0775 42.7218 82.7442 42.7218ZM92.2053 43.3278V44.3581H94.1547V44.5096C94.1547 45.3984 93.4577 45.8328 92.5588 45.8328C91.3265 45.8328 90.6902 45.0348 90.6902 43.5197C90.6902 42.035 91.3871 41.2269 92.5285 41.2269C93.2658 41.2269 93.8314 41.5703 94.0435 42.2774L95.3263 41.7218C94.8011 40.5906 93.9324 40.0856 92.4881 40.0856C90.5084 40.0856 89.2458 41.3885 89.2458 43.5298C89.2458 45.7014 90.5084 46.9539 92.3366 46.9539C93.2759 46.9539 93.9223 46.6206 94.3062 46.055L94.3365 46.8529H95.3566V43.3278H92.2053ZM101.353 46.0146C101.09 46.0146 100.979 45.8934 100.979 45.6307V43.5601C100.979 42.3077 100.09 41.7016 98.6863 41.7016C97.454 41.7016 96.6965 42.2471 96.4844 43.1056L97.5854 43.5702C97.7369 42.9339 98.1611 42.7117 98.7469 42.7117C99.2923 42.7117 99.6055 43.0551 99.6055 43.5904V43.8329L98.3934 44.0652C97.0399 44.3177 96.4238 44.8732 96.4238 45.661C96.4238 46.5095 97.0298 46.9539 97.9894 46.9539C98.8378 46.9539 99.4741 46.6913 99.7772 46.1964C99.9186 46.7418 100.333 46.9539 100.939 46.9539C101.191 46.9539 101.413 46.9034 101.595 46.8125L101.696 45.9742C101.595 46.0045 101.474 46.0146 101.353 46.0146ZM98.4237 46.0146C98.0601 46.0146 97.848 45.8429 97.848 45.5196C97.848 45.1863 98.0803 45.0247 98.5247 44.9237L99.6055 44.6813V45.2065C99.6055 45.7418 98.9489 46.0146 98.4237 46.0146ZM105.395 41.7016C104.607 41.7016 104.092 42.0956 103.83 42.7925L103.739 41.8027H102.537V46.8529H103.921V44.2369C103.921 43.3177 104.527 42.8733 105.133 42.8733C105.395 42.8733 105.628 42.9339 105.769 43.0248L105.941 41.8128C105.819 41.7421 105.617 41.7016 105.395 41.7016ZM111.325 46.0146C111.063 46.0146 110.951 45.8934 110.951 45.6307V43.5601C110.951 42.3077 110.063 41.7016 108.659 41.7016C107.426 41.7016 106.669 42.2471 106.457 43.1056L107.558 43.5702C107.709 42.9339 108.133 42.7117 108.719 42.7117C109.265 42.7117 109.578 43.0551 109.578 43.5904V43.8329L108.366 44.0652C107.012 44.3177 106.396 44.8732 106.396 45.661C106.396 46.5095 107.002 46.9539 107.962 46.9539C108.81 46.9539 109.446 46.6913 109.749 46.1964C109.891 46.7418 110.305 46.9539 110.911 46.9539C111.164 46.9539 111.386 46.9034 111.568 46.8125L111.669 45.9742C111.568 46.0045 111.446 46.0146 111.325 46.0146ZM108.396 46.0146C108.032 46.0146 107.82 45.8429 107.82 45.5196C107.82 45.1863 108.053 45.0247 108.497 44.9237L109.578 44.6813V45.2065C109.578 45.7418 108.921 46.0146 108.396 46.0146ZM115.519 41.7016C114.761 41.7016 114.135 42.0249 113.802 42.7016L113.751 41.8027H112.509V46.8529H113.893V44.1864C113.893 43.1763 114.469 42.7925 115.054 42.7925C115.58 42.7925 115.953 43.0753 115.953 43.944V46.8529H117.337V43.5399C117.337 42.3178 116.569 41.7016 115.519 41.7016ZM121.976 45.6206C121.764 45.8025 121.531 45.9035 121.198 45.9035C120.764 45.9035 120.501 45.6913 120.501 45.2065V42.8329H122.137V41.8027H120.501V40.2573L119.117 40.6411V41.8027H118.198V42.8329H119.117V45.4287C119.117 46.5398 119.804 46.9539 120.804 46.9539C121.339 46.9539 121.865 46.8024 122.188 46.5398L121.976 45.6206ZM123.75 41.0754C124.326 41.0754 124.609 40.833 124.609 40.3381C124.609 39.8432 124.326 39.5906 123.75 39.5906C123.175 39.5906 122.892 39.8432 122.892 40.3381C122.892 40.833 123.175 41.0754 123.75 41.0754ZM124.437 41.8027H123.053V46.8529H124.437V41.8027ZM130.52 46.0146C130.257 46.0146 130.146 45.8934 130.146 45.6307V43.5601C130.146 42.3077 129.257 41.7016 127.853 41.7016C126.621 41.7016 125.864 42.2471 125.652 43.1056L126.753 43.5702C126.904 42.9339 127.328 42.7117 127.914 42.7117C128.46 42.7117 128.773 43.0551 128.773 43.5904V43.8329L127.561 44.0652C126.207 44.3177 125.591 44.8732 125.591 45.661C125.591 46.5095 126.197 46.9539 127.157 46.9539C128.005 46.9539 128.641 46.6913 128.944 46.1964C129.086 46.7418 129.5 46.9539 130.106 46.9539C130.358 46.9539 130.581 46.9034 130.762 46.8125L130.863 45.9742C130.762 46.0045 130.641 46.0146 130.52 46.0146ZM127.591 46.0146C127.227 46.0146 127.015 45.8429 127.015 45.5196C127.015 45.1863 127.247 45.0247 127.692 44.9237L128.773 44.6813V45.2065C128.773 45.7418 128.116 46.0146 127.591 46.0146Z" fill="#5F5F5F"/>
<defs>
<clipPath id="clip0_601_1016">
<rect width="31.5981" height="42.0854" fill="white" transform="translate(31.6934 13.0226)"/>
</clipPath>
</defs>
</svg>
