<svg width="634" height="110" viewBox="0 0 634 110" fill="none" xmlns="http://www.w3.org/2000/svg">
<rect width="190" height="110" rx="20" fill="#F4F5F2"/>
<path d="M48.676 34L31 41.6589V58.3138C31.0005 61.356 31.8841 64.3372 33.5504 66.9191C35.2168 69.5009 37.5992 71.5799 40.4272 72.9202L49 77" stroke="#D1FF96" stroke-width="3" stroke-miterlimit="10"/>
<path d="M43 64C42.4696 64 41.9609 63.7958 41.5858 63.4322C41.2107 63.0686 41 62.5756 41 62.0614V53.9386C41 53.4245 41.2107 52.9314 41.5858 52.5678C41.9609 52.2042 42.4696 52 43 52" stroke="#D1FF96" stroke-width="3" stroke-miterlimit="10"/>
<path d="M44 52V48.0839C44 46.7356 44.5267 45.4425 45.4644 44.489C46.4021 43.5356 47.6739 43 49 43" stroke="#D1FF96" stroke-width="3" stroke-miterlimit="10"/>
<path d="M49.5 58C50.3284 58 51 57.5523 51 57C51 56.4477 50.3284 56 49.5 56C48.6716 56 48 56.4477 48 57C48 57.5523 48.6716 58 49.5 58Z" stroke="#D1FF96" stroke-width="3" stroke-miterlimit="10"/>
<path d="M49 60V56V60Z" stroke="#D1FF96" stroke-width="3" stroke-miterlimit="10"/>
<path d="M47.1059 76.5531C47.6688 76.8345 48.3312 76.8345 48.8941 76.5531L57 72.5019C59.6995 71.1585 61.9735 69.0754 63.5643 66.4888C65.155 63.9022 65.9988 60.9155 66 57.8676V42.4688C66 41.6844 65.5416 40.9725 64.8275 40.648L48.8275 33.3761C48.3017 33.1371 47.6983 33.1371 47.1725 33.3761L31.1725 40.648C30.4584 40.9725 30 41.6844 30 42.4688V57.8676C30.0005 60.9157 30.8441 63.9026 32.4349 66.4893C34.0257 69.0761 36.3001 71.1591 39 72.5019L47.1059 76.5531Z" stroke="#494949" stroke-width="2.34" stroke-miterlimit="10"/>
<path d="M53.9579 52H42.0421C40.9143 52 40 52.8691 40 53.9413V62.0587C40 63.1309 40.9143 64 42.0421 64H53.9579C55.0857 64 56 63.1309 56 62.0587V53.9413C56 52.8691 55.0857 52 53.9579 52Z" stroke="#494949" stroke-width="2.34" stroke-miterlimit="10"/>
<path d="M47.8209 43H48.1791C49.4577 43 50.6839 43.5353 51.588 44.4881C52.4921 45.4409 53 46.7332 53 48.0806V52H43V48.0806C43 46.7332 43.5079 45.4409 44.412 44.4881C45.3161 43.5353 46.5423 43 47.8209 43Z" stroke="#494949" stroke-width="2.34" stroke-miterlimit="10"/>
<path d="M48 58C48.5523 58 49 57.5523 49 57C49 56.4477 48.5523 56 48 56C47.4477 56 47 56.4477 47 57C47 57.5523 47.4477 58 48 58Z" stroke="#494949" stroke-width="2.34" stroke-miterlimit="10"/>
<path d="M48 60V56V60Z" stroke="#494949" stroke-width="2.34" stroke-miterlimit="10"/>
<path d="M88.4021 45.316C88.2501 45.828 88.0101 46.256 87.6821 46.6C87.3541 46.944 86.9661 47.2 86.5181 47.368C86.0701 47.536 85.5781 47.62 85.0421 47.62C84.2581 47.62 83.5781 47.456 83.0021 47.128C82.4341 46.8 81.9941 46.332 81.6821 45.724C81.3781 45.116 81.2261 44.388 81.2261 43.54C81.2261 42.692 81.3781 41.964 81.6821 41.356C81.9941 40.748 82.4341 40.28 83.0021 39.952C83.5781 39.624 84.2501 39.46 85.0181 39.46C85.5621 39.46 86.0541 39.536 86.4941 39.688C86.9341 39.832 87.3061 40.056 87.6101 40.36C87.9221 40.664 88.1501 41.048 88.2941 41.512L86.7941 42.148C86.6581 41.668 86.4501 41.328 86.1701 41.128C85.8901 40.92 85.5301 40.816 85.0901 40.816C84.6581 40.816 84.2781 40.92 83.9501 41.128C83.6301 41.336 83.3821 41.644 83.2061 42.052C83.0301 42.452 82.9421 42.948 82.9421 43.54C82.9421 44.124 83.0221 44.62 83.1821 45.028C83.3501 45.436 83.5941 45.744 83.9141 45.952C84.2341 46.16 84.6261 46.264 85.0901 46.264C85.5221 46.264 85.8941 46.148 86.2061 45.916C86.5261 45.684 86.7501 45.332 86.8781 44.86L88.4021 45.316ZM92.3815 41.38C92.9895 41.38 93.5215 41.504 93.9775 41.752C94.4415 42 94.8015 42.356 95.0575 42.82C95.3215 43.284 95.4535 43.844 95.4535 44.5C95.4535 45.148 95.3215 45.708 95.0575 46.18C94.8015 46.644 94.4415 47 93.9775 47.248C93.5215 47.496 92.9895 47.62 92.3815 47.62C91.7815 47.62 91.2495 47.496 90.7855 47.248C90.3215 47 89.9575 46.644 89.6935 46.18C89.4375 45.708 89.3095 45.148 89.3095 44.5C89.3095 43.844 89.4375 43.284 89.6935 42.82C89.9575 42.356 90.3215 42 90.7855 41.752C91.2495 41.504 91.7815 41.38 92.3815 41.38ZM92.3815 42.604C92.0775 42.604 91.8175 42.676 91.6015 42.82C91.3935 42.956 91.2335 43.164 91.1215 43.444C91.0095 43.724 90.9535 44.076 90.9535 44.5C90.9535 44.924 91.0095 45.276 91.1215 45.556C91.2335 45.836 91.3935 46.048 91.6015 46.192C91.8175 46.328 92.0775 46.396 92.3815 46.396C92.6775 46.396 92.9295 46.328 93.1375 46.192C93.3535 46.048 93.5175 45.836 93.6295 45.556C93.7415 45.276 93.7975 44.924 93.7975 44.5C93.7975 44.076 93.7415 43.724 93.6295 43.444C93.5175 43.164 93.3535 42.956 93.1375 42.82C92.9295 42.676 92.6775 42.604 92.3815 42.604ZM96.8291 47.5V41.5H98.3051L98.3651 42.58C98.5651 42.18 98.8371 41.88 99.1811 41.68C99.5331 41.48 99.9211 41.38 100.345 41.38C100.777 41.38 101.165 41.48 101.509 41.68C101.861 41.88 102.125 42.176 102.301 42.568C102.429 42.304 102.601 42.084 102.817 41.908C103.033 41.732 103.273 41.6 103.537 41.512C103.801 41.424 104.069 41.38 104.341 41.38C104.733 41.38 105.089 41.46 105.409 41.62C105.737 41.78 105.997 42.02 106.189 42.34C106.381 42.66 106.477 43.068 106.477 43.564V47.5H104.833V43.888C104.833 43.448 104.737 43.136 104.545 42.952C104.353 42.768 104.105 42.676 103.801 42.676C103.561 42.676 103.337 42.736 103.129 42.856C102.929 42.976 102.769 43.156 102.649 43.396C102.537 43.628 102.481 43.92 102.481 44.272V47.5H100.837V43.888C100.837 43.448 100.737 43.136 100.537 42.952C100.345 42.768 100.097 42.676 99.7931 42.676C99.5851 42.676 99.3771 42.732 99.1691 42.844C98.9691 42.956 98.8011 43.132 98.6651 43.372C98.5371 43.612 98.4731 43.928 98.4731 44.32V47.5H96.8291ZM108.173 50.02V41.5H109.649L109.757 43.408L109.553 43.192C109.625 42.84 109.757 42.528 109.949 42.256C110.149 41.984 110.401 41.772 110.705 41.62C111.009 41.46 111.349 41.38 111.725 41.38C112.213 41.38 112.649 41.504 113.033 41.752C113.417 42 113.717 42.356 113.933 42.82C114.157 43.276 114.269 43.832 114.269 44.488C114.269 45.144 114.157 45.708 113.933 46.18C113.709 46.644 113.401 47 113.009 47.248C112.625 47.496 112.185 47.62 111.689 47.62C111.161 47.62 110.721 47.472 110.369 47.176C110.025 46.88 109.789 46.508 109.661 46.06L109.817 45.808V50.02H108.173ZM111.209 46.36C111.649 46.36 111.993 46.204 112.241 45.892C112.497 45.572 112.625 45.108 112.625 44.5C112.625 43.892 112.501 43.432 112.253 43.12C112.013 42.8 111.673 42.64 111.233 42.64C110.953 42.64 110.705 42.716 110.489 42.868C110.281 43.012 110.117 43.224 109.997 43.504C109.877 43.776 109.817 44.108 109.817 44.5C109.817 44.884 109.873 45.216 109.985 45.496C110.097 45.776 110.257 45.992 110.465 46.144C110.681 46.288 110.929 46.36 111.209 46.36ZM115.696 47.5V41.5H117.124L117.232 42.676C117.392 42.26 117.624 41.94 117.928 41.716C118.24 41.492 118.628 41.38 119.092 41.38C119.228 41.38 119.352 41.392 119.464 41.416C119.576 41.44 119.668 41.472 119.74 41.512L119.548 42.892C119.468 42.86 119.368 42.836 119.248 42.82C119.136 42.804 118.988 42.796 118.804 42.796C118.564 42.796 118.332 42.856 118.108 42.976C117.884 43.088 117.7 43.264 117.556 43.504C117.412 43.736 117.34 44.032 117.34 44.392V47.5H115.696ZM124.073 43.672C124.073 43.328 123.973 43.06 123.773 42.868C123.581 42.676 123.325 42.58 123.005 42.58C122.709 42.58 122.449 42.656 122.225 42.808C122.001 42.96 121.837 43.212 121.733 43.564L120.329 43.132C120.465 42.604 120.761 42.18 121.217 41.86C121.681 41.54 122.301 41.38 123.077 41.38C123.605 41.38 124.065 41.464 124.457 41.632C124.849 41.792 125.153 42.036 125.369 42.364C125.593 42.692 125.705 43.104 125.705 43.6V46.036C125.705 46.34 125.849 46.492 126.137 46.492C126.273 46.492 126.401 46.472 126.521 46.432L126.425 47.452C126.217 47.556 125.957 47.608 125.645 47.608C125.365 47.608 125.113 47.56 124.889 47.464C124.665 47.368 124.489 47.224 124.361 47.032C124.233 46.832 124.169 46.584 124.169 46.288V46.24L124.457 46.192C124.409 46.496 124.277 46.756 124.061 46.972C123.845 47.18 123.581 47.34 123.269 47.452C122.965 47.564 122.649 47.62 122.321 47.62C121.913 47.62 121.561 47.56 121.265 47.44C120.969 47.312 120.741 47.128 120.581 46.888C120.421 46.648 120.341 46.352 120.341 46C120.341 45.552 120.485 45.188 120.773 44.908C121.061 44.62 121.473 44.424 122.009 44.32L124.265 43.864L124.253 44.884L122.813 45.172C122.541 45.228 122.333 45.304 122.189 45.4C122.053 45.488 121.985 45.636 121.985 45.844C121.985 46.044 122.057 46.196 122.201 46.3C122.353 46.404 122.533 46.456 122.741 46.456C122.909 46.456 123.073 46.436 123.233 46.396C123.393 46.356 123.537 46.292 123.665 46.204C123.793 46.116 123.893 45.996 123.965 45.844C124.037 45.692 124.073 45.508 124.073 45.292V43.672ZM132.395 47.5V42.484C132.395 42.3 132.395 42.112 132.395 41.92C132.403 41.72 132.411 41.516 132.419 41.308C132.147 41.556 131.843 41.772 131.507 41.956C131.171 42.14 130.827 42.268 130.475 42.34L130.259 40.948C130.443 40.932 130.647 40.88 130.871 40.792C131.103 40.696 131.335 40.584 131.567 40.456C131.807 40.32 132.023 40.18 132.215 40.036C132.415 39.884 132.567 39.732 132.671 39.58H134.015V47.5H132.395ZM138.84 47.62C137.824 47.62 137.04 47.276 136.488 46.588C135.944 45.9 135.672 44.884 135.672 43.54C135.672 42.196 135.944 41.18 136.488 40.492C137.04 39.804 137.824 39.46 138.84 39.46C139.856 39.46 140.636 39.804 141.18 40.492C141.732 41.18 142.008 42.196 142.008 43.54C142.008 44.884 141.732 45.9 141.18 46.588C140.636 47.276 139.856 47.62 138.84 47.62ZM138.84 46.288C139.184 46.288 139.464 46.192 139.68 46C139.904 45.8 140.072 45.5 140.184 45.1C140.296 44.692 140.352 44.172 140.352 43.54C140.352 42.908 140.296 42.392 140.184 41.992C140.072 41.584 139.904 41.284 139.68 41.092C139.464 40.892 139.184 40.792 138.84 40.792C138.496 40.792 138.212 40.892 137.988 41.092C137.764 41.284 137.596 41.584 137.484 41.992C137.38 42.392 137.328 42.908 137.328 43.54C137.328 44.172 137.38 44.692 137.484 45.1C137.596 45.5 137.764 45.8 137.988 46C138.212 46.192 138.496 46.288 138.84 46.288ZM146.469 47.62C145.453 47.62 144.669 47.276 144.117 46.588C143.573 45.9 143.301 44.884 143.301 43.54C143.301 42.196 143.573 41.18 144.117 40.492C144.669 39.804 145.453 39.46 146.469 39.46C147.485 39.46 148.265 39.804 148.809 40.492C149.361 41.18 149.637 42.196 149.637 43.54C149.637 44.884 149.361 45.9 148.809 46.588C148.265 47.276 147.485 47.62 146.469 47.62ZM146.469 46.288C146.813 46.288 147.093 46.192 147.309 46C147.533 45.8 147.701 45.5 147.813 45.1C147.925 44.692 147.981 44.172 147.981 43.54C147.981 42.908 147.925 42.392 147.813 41.992C147.701 41.584 147.533 41.284 147.309 41.092C147.093 40.892 146.813 40.792 146.469 40.792C146.125 40.792 145.841 40.892 145.617 41.092C145.393 41.284 145.225 41.584 145.113 41.992C145.009 42.392 144.957 42.908 144.957 43.54C144.957 44.172 145.009 44.692 145.113 45.1C145.225 45.5 145.393 45.8 145.617 46C145.841 46.192 146.125 46.288 146.469 46.288ZM152.405 47.5L157.745 39.58H159.065L153.725 47.5H152.405ZM152.801 39.46C153.233 39.46 153.605 39.552 153.917 39.736C154.237 39.92 154.481 40.18 154.649 40.516C154.825 40.852 154.913 41.244 154.913 41.692C154.913 42.14 154.825 42.532 154.649 42.868C154.481 43.196 154.237 43.456 153.917 43.648C153.605 43.832 153.233 43.924 152.801 43.924C152.377 43.924 152.005 43.832 151.685 43.648C151.365 43.456 151.117 43.196 150.941 42.868C150.773 42.532 150.689 42.14 150.689 41.692C150.689 41.244 150.773 40.852 150.941 40.516C151.117 40.18 151.365 39.92 151.685 39.736C152.005 39.552 152.377 39.46 152.801 39.46ZM152.801 40.6C152.625 40.6 152.473 40.644 152.345 40.732C152.217 40.812 152.121 40.936 152.057 41.104C151.993 41.264 151.961 41.46 151.961 41.692C151.961 41.916 151.993 42.112 152.057 42.28C152.121 42.44 152.217 42.564 152.345 42.652C152.473 42.732 152.625 42.772 152.801 42.772C152.985 42.772 153.137 42.732 153.257 42.652C153.385 42.564 153.481 42.44 153.545 42.28C153.609 42.112 153.641 41.916 153.641 41.692C153.641 41.46 153.609 41.264 153.545 41.104C153.481 40.936 153.385 40.812 153.257 40.732C153.137 40.644 152.985 40.6 152.801 40.6ZM158.657 43.156C159.081 43.156 159.449 43.252 159.761 43.444C160.081 43.628 160.329 43.888 160.505 44.224C160.681 44.552 160.769 44.94 160.769 45.388C160.769 45.836 160.681 46.228 160.505 46.564C160.329 46.9 160.081 47.16 159.761 47.344C159.449 47.528 159.081 47.62 158.657 47.62C158.233 47.62 157.861 47.528 157.541 47.344C157.221 47.16 156.973 46.9 156.797 46.564C156.629 46.228 156.545 45.836 156.545 45.388C156.545 44.94 156.629 44.552 156.797 44.224C156.973 43.888 157.221 43.628 157.541 43.444C157.861 43.252 158.233 43.156 158.657 43.156ZM158.657 44.308C158.473 44.308 158.317 44.352 158.189 44.44C158.069 44.52 157.977 44.64 157.913 44.8C157.849 44.96 157.817 45.156 157.817 45.388C157.817 45.612 157.849 45.808 157.913 45.976C157.977 46.144 158.069 46.272 158.189 46.36C158.317 46.44 158.473 46.48 158.657 46.48C158.841 46.48 158.993 46.44 159.113 46.36C159.241 46.272 159.337 46.144 159.401 45.976C159.465 45.808 159.497 45.612 159.497 45.388C159.497 45.156 159.465 44.96 159.401 44.8C159.337 44.64 159.241 44.52 159.113 44.44C158.993 44.352 158.841 44.308 158.657 44.308Z" fill="#5F5F5F"/>
<path d="M87.2101 55.1C88.4368 55.1 89.5168 55.2933 90.4501 55.68C91.3968 56.0533 92.2168 56.6067 92.9101 57.34L91.2501 59.56C90.6768 58.96 90.0568 58.5133 89.3901 58.22C88.7368 57.9133 87.9901 57.76 87.1501 57.76C86.6568 57.76 86.2568 57.8133 85.9501 57.92C85.6434 58.0267 85.4234 58.1733 85.2901 58.36C85.1568 58.5467 85.0901 58.76 85.0901 59C85.0901 59.28 85.2168 59.52 85.4701 59.72C85.7368 59.9067 86.1634 60.0667 86.7501 60.2L88.9701 60.7C90.2901 61.0067 91.2568 61.4533 91.8701 62.04C92.4834 62.6267 92.7901 63.4067 92.7901 64.38C92.7901 65.3133 92.5501 66.1067 92.0701 66.76C91.5901 67.4 90.9301 67.8867 90.0901 68.22C89.2501 68.54 88.2901 68.7 87.2101 68.7C86.3301 68.7 85.4901 68.6067 84.6901 68.42C83.8901 68.22 83.1701 67.94 82.5301 67.58C81.8901 67.22 81.3501 66.8067 80.9101 66.34L82.5701 64.04C82.9034 64.4267 83.3101 64.7733 83.7901 65.08C84.2834 65.3733 84.8168 65.6067 85.3901 65.78C85.9768 65.9533 86.5701 66.04 87.1701 66.04C87.6368 66.04 88.0234 65.9933 88.3301 65.9C88.6501 65.8067 88.8834 65.6667 89.0301 65.48C89.1768 65.2933 89.2501 65.0733 89.2501 64.82C89.2501 64.54 89.1501 64.3067 88.9501 64.12C88.7501 63.92 88.3701 63.7533 87.8101 63.62L85.3701 63.08C84.6234 62.9067 83.9568 62.68 83.3701 62.4C82.7968 62.1067 82.3434 61.72 82.0101 61.24C81.6768 60.7467 81.5101 60.1333 81.5101 59.4C81.5101 58.5733 81.7368 57.84 82.1901 57.2C82.6434 56.5467 83.2968 56.0333 84.1501 55.66C85.0034 55.2867 86.0234 55.1 87.2101 55.1ZM94.9407 68.5V55.3H105.221V57.96H98.3807V60.64H103.821V63.14H98.3807V65.84H105.481V68.5H94.9407ZM112.901 68.7C111.727 68.7 110.681 68.44 109.761 67.92C108.854 67.4 108.147 66.6333 107.641 65.62C107.134 64.6067 106.881 63.3733 106.881 61.92C106.881 60.4933 107.147 59.2733 107.681 58.26C108.214 57.2467 108.974 56.4667 109.961 55.92C110.961 55.3733 112.134 55.1 113.481 55.1C114.974 55.1 116.181 55.3733 117.101 55.92C118.021 56.4533 118.734 57.3067 119.241 58.48L116.061 59.74C115.887 59.06 115.581 58.5667 115.141 58.26C114.701 57.9533 114.154 57.8 113.501 57.8C112.847 57.8 112.287 57.96 111.821 58.28C111.354 58.5867 111.001 59.0467 110.761 59.66C110.521 60.26 110.401 61.0067 110.401 61.9C110.401 62.8333 110.521 63.6133 110.761 64.24C111.014 64.8667 111.381 65.3333 111.861 65.64C112.354 65.9333 112.961 66.08 113.681 66.08C114.067 66.08 114.421 66.0333 114.741 65.94C115.061 65.8467 115.341 65.7133 115.581 65.54C115.821 65.3533 116.007 65.1267 116.141 64.86C116.274 64.58 116.341 64.2533 116.341 63.88V63.68H113.321V61.38H119.261V68.5H116.921L116.661 65.4L117.221 65.88C116.941 66.7867 116.434 67.4867 115.701 67.98C114.981 68.46 114.047 68.7 112.901 68.7ZM133.434 55.3V63.12C133.434 64.9867 132.934 66.3867 131.934 67.32C130.947 68.24 129.481 68.7 127.534 68.7C125.601 68.7 124.134 68.24 123.134 67.32C122.134 66.3867 121.634 64.9867 121.634 63.12V55.3H125.094V63.18C125.094 64.1267 125.294 64.8333 125.694 65.3C126.107 65.7667 126.721 66 127.534 66C128.361 66 128.974 65.7667 129.374 65.3C129.787 64.8333 129.994 64.1267 129.994 63.18V55.3H133.434ZM142.393 55.3C143.966 55.3 145.186 55.6733 146.053 56.42C146.933 57.1533 147.373 58.1333 147.373 59.36C147.373 60.7067 146.94 61.7333 146.073 62.44C145.206 63.1467 143.986 63.5 142.413 63.5L142.093 63.68H139.473V68.5H136.093V55.3H142.393ZM141.913 61.24C142.58 61.24 143.08 61.1067 143.413 60.84C143.746 60.5733 143.913 60.1467 143.913 59.56C143.913 58.9867 143.746 58.5667 143.413 58.3C143.08 58.0333 142.58 57.9 141.913 57.9H139.473V61.24H141.913ZM143.933 61.96L148.153 68.5H144.353L140.973 62.72L143.933 61.96ZM161.882 68.5H158.342L157.422 65.52H152.902L151.962 68.5H148.502L153.142 55.3H157.262L161.882 68.5ZM153.542 63.18H156.782L155.162 57.84L153.542 63.18Z" fill="#5F5F5F"/>
<rect x="222" width="190" height="110" rx="28.0882" fill="#F4F5F2"/>
<g clip-path="url(#clip0_601_393)">
<path d="M269 62V78" stroke="#D1FF96" stroke-width="3" stroke-miterlimit="10"/>
<path d="M277 66L272.435 62.6267L267.942 61.9745C267.212 61.8677 266.536 61.5304 266.014 61.0126C265.492 60.4947 265.152 59.8238 265.045 59.0992L264.394 54.641L261.681 51.0305C261.239 50.4434 261 49.73 261 48.9971C261 48.2641 261.239 47.5507 261.681 46.9635L264.394 43.3531L265.045 38.8949C265.152 38.1703 265.492 37.4994 266.014 36.9816C266.536 36.4637 267.212 36.1263 267.942 36.0195L272.435 35.3733L277 32" stroke="#D1FF96" stroke-width="3" stroke-miterlimit="10"/>
<path d="M273 41.0015H281.596C281.815 40.9908 282.033 41.0366 282.232 41.1349C282.43 41.2332 282.602 41.381 282.733 41.5654C282.865 41.7498 282.951 41.9651 282.984 42.1926C283.018 42.42 282.998 42.6525 282.926 42.8699L276.728 59" stroke="#D1FF96" stroke-width="3" stroke-miterlimit="10"/>
<path d="M267.002 62V77.352C266.993 77.4644 267.017 77.577 267.07 77.6769C267.123 77.7768 267.204 77.8601 267.303 77.9172C267.403 77.9742 267.516 78.0029 267.631 77.9998C267.747 77.9967 267.858 77.962 267.954 77.8996L276.503 73.2116L285.046 77.8996C285.142 77.962 285.253 77.9967 285.369 77.9998C285.484 78.0029 285.597 77.9742 285.697 77.9172C285.796 77.8601 285.877 77.7768 285.93 77.6769C285.983 77.577 286.007 77.4644 285.998 77.352V62" stroke="#494949" stroke-width="3" stroke-miterlimit="10"/>
<path d="M279.031 32.6755L282.649 35.3684L287.103 36.015C287.828 36.1209 288.5 36.4581 289.018 36.9764C289.536 37.4947 289.873 38.1665 289.979 38.8918L290.631 43.3524L293.324 46.9647C293.763 47.5522 294 48.2659 294 48.9993C294 49.7326 293.763 50.4463 293.324 51.0338L290.631 54.6461L289.979 59.1067C289.873 59.832 289.536 60.5037 289.018 61.022C288.5 61.5404 287.828 61.8775 287.103 61.9835L282.649 62.636L279.031 65.3289C278.444 65.7647 277.731 66 277 66C276.268 66 275.556 65.7647 274.969 65.3289L271.357 62.636L266.897 61.9835C266.172 61.8775 265.5 61.5404 264.982 61.022C264.464 60.5037 264.127 59.832 264.021 59.1067L263.369 54.6461L260.676 51.0338C260.237 50.4463 260 49.7326 260 48.9993C260 48.2659 260.237 47.5522 260.676 46.9647L263.369 43.3524L264.021 38.8918C264.127 38.1665 264.464 37.4947 264.982 36.9764C265.5 36.4581 266.172 36.1209 266.897 36.015L271.357 35.3684L274.969 32.6755C275.555 32.237 276.268 32 277 32C277.732 32 278.445 32.237 279.031 32.6755V32.6755Z" stroke="#494949" stroke-width="3" stroke-miterlimit="10"/>
<path d="M272 41.0018H280.588C280.808 40.99 281.027 41.0351 281.227 41.1329C281.426 41.2308 281.599 41.3785 281.731 41.563C281.863 41.7475 281.95 41.9633 281.984 42.1912C282.018 42.4191 281.998 42.6523 281.925 42.8702L275.715 59" stroke="#494949" stroke-width="3" stroke-miterlimit="10"/>
</g>
<path d="M308.2 41.3H319.06V43.74C317.967 44.82 317.1 45.9333 316.46 47.08C315.834 48.2133 315.387 49.3933 315.12 50.62C314.867 51.8467 314.74 53.14 314.74 54.5H311.34C311.34 53.0467 311.52 51.6667 311.88 50.36C312.254 49.04 312.827 47.78 313.6 46.58C314.387 45.38 315.4 44.22 316.64 43.1L317.36 44H308.2V41.3ZM332.003 41.3C334.069 41.3 335.649 41.8733 336.743 43.02C337.849 44.1667 338.403 45.7933 338.403 47.9C338.403 50.0067 337.849 51.6333 336.743 52.78C335.649 53.9267 334.069 54.5 332.003 54.5H326.403V41.3H332.003ZM331.663 51.9C332.783 51.9 333.596 51.5667 334.103 50.9C334.623 50.22 334.883 49.22 334.883 47.9C334.883 46.58 334.623 45.5867 334.103 44.92C333.596 44.24 332.783 43.9 331.663 43.9H329.843V51.9H331.663ZM344.198 41.3V54.5H340.758V41.3H344.198ZM359.125 54.5H355.585L354.665 51.52H350.145L349.205 54.5H345.745L350.385 41.3H354.505L359.125 54.5ZM350.785 49.18H354.025L352.405 43.84L350.785 49.18ZM365.762 41.1C366.989 41.1 368.069 41.2933 369.002 41.68C369.949 42.0533 370.769 42.6067 371.462 43.34L369.802 45.56C369.229 44.96 368.609 44.5133 367.942 44.22C367.289 43.9133 366.542 43.76 365.702 43.76C365.209 43.76 364.809 43.8133 364.502 43.92C364.195 44.0267 363.975 44.1733 363.842 44.36C363.709 44.5467 363.642 44.76 363.642 45C363.642 45.28 363.769 45.52 364.022 45.72C364.289 45.9067 364.715 46.0667 365.302 46.2L367.522 46.7C368.842 47.0067 369.809 47.4533 370.422 48.04C371.035 48.6267 371.342 49.4067 371.342 50.38C371.342 51.3133 371.102 52.1067 370.622 52.76C370.142 53.4 369.482 53.8867 368.642 54.22C367.802 54.54 366.842 54.7 365.762 54.7C364.882 54.7 364.042 54.6067 363.242 54.42C362.442 54.22 361.722 53.94 361.082 53.58C360.442 53.22 359.902 52.8067 359.462 52.34L361.122 50.04C361.455 50.4267 361.862 50.7733 362.342 51.08C362.835 51.3733 363.369 51.6067 363.942 51.78C364.529 51.9533 365.122 52.04 365.722 52.04C366.189 52.04 366.575 51.9933 366.882 51.9C367.202 51.8067 367.435 51.6667 367.582 51.48C367.729 51.2933 367.802 51.0733 367.802 50.82C367.802 50.54 367.702 50.3067 367.502 50.12C367.302 49.92 366.922 49.7533 366.362 49.62L363.922 49.08C363.175 48.9067 362.509 48.68 361.922 48.4C361.349 48.1067 360.895 47.72 360.562 47.24C360.229 46.7467 360.062 46.1333 360.062 45.4C360.062 44.5733 360.289 43.84 360.742 43.2C361.195 42.5467 361.849 42.0333 362.702 41.66C363.555 41.2867 364.575 41.1 365.762 41.1Z" fill="#5F5F5F"/>
<path d="M310.672 70.62C310.176 70.62 309.732 70.496 309.34 70.248C308.956 70 308.652 69.644 308.428 69.18C308.212 68.716 308.104 68.16 308.104 67.512C308.104 66.848 308.22 66.284 308.452 65.82C308.684 65.348 308.996 64.992 309.388 64.752C309.788 64.504 310.236 64.38 310.732 64.38C311.26 64.38 311.696 64.532 312.04 64.836C312.384 65.14 312.608 65.532 312.712 66.012L312.556 66.204V61.872H314.2V70.5H312.724L312.616 68.676L312.82 68.772C312.764 69.148 312.636 69.476 312.436 69.756C312.236 70.028 311.984 70.24 311.68 70.392C311.376 70.544 311.04 70.62 310.672 70.62ZM311.152 69.36C311.44 69.36 311.688 69.288 311.896 69.144C312.104 68.992 312.264 68.772 312.376 68.484C312.496 68.196 312.556 67.852 312.556 67.452C312.556 67.068 312.5 66.744 312.388 66.48C312.276 66.208 312.116 66 311.908 65.856C311.7 65.712 311.456 65.64 311.176 65.64C310.728 65.64 310.376 65.8 310.12 66.12C309.872 66.432 309.748 66.892 309.748 67.5C309.748 68.108 309.872 68.572 310.12 68.892C310.368 69.204 310.712 69.36 311.152 69.36ZM318.712 70.62C318.08 70.62 317.528 70.496 317.056 70.248C316.592 70 316.232 69.644 315.976 69.18C315.72 68.716 315.592 68.156 315.592 67.5C315.592 66.844 315.72 66.284 315.976 65.82C316.232 65.356 316.588 65 317.044 64.752C317.508 64.504 318.036 64.38 318.628 64.38C319.236 64.38 319.752 64.504 320.176 64.752C320.6 64.992 320.924 65.324 321.148 65.748C321.372 66.164 321.484 66.64 321.484 67.176C321.484 67.336 321.48 67.488 321.472 67.632C321.464 67.776 321.452 67.904 321.436 68.016H316.648V66.876H320.716L319.924 67.164C319.924 66.66 319.808 66.272 319.576 66C319.352 65.728 319.032 65.592 318.616 65.592C318.312 65.592 318.048 65.664 317.824 65.808C317.608 65.952 317.444 66.168 317.332 66.456C317.22 66.736 317.164 67.092 317.164 67.524C317.164 67.948 317.224 68.3 317.344 68.58C317.472 68.852 317.648 69.056 317.872 69.192C318.104 69.328 318.38 69.396 318.7 69.396C319.052 69.396 319.336 69.328 319.552 69.192C319.768 69.056 319.936 68.868 320.056 68.628L321.364 69.132C321.236 69.444 321.04 69.712 320.776 69.936C320.52 70.16 320.212 70.332 319.852 70.452C319.5 70.564 319.12 70.62 318.712 70.62ZM329.965 70.62C329.237 70.62 328.597 70.46 328.045 70.14C327.501 69.82 327.077 69.356 326.773 68.748C326.469 68.14 326.317 67.408 326.317 66.552C326.317 65.704 326.477 64.976 326.797 64.368C327.117 63.752 327.569 63.28 328.153 62.952C328.745 62.624 329.429 62.46 330.205 62.46C331.061 62.46 331.753 62.62 332.281 62.94C332.809 63.252 333.229 63.74 333.541 64.404L332.005 65.064C331.877 64.64 331.657 64.328 331.345 64.128C331.041 63.92 330.665 63.816 330.217 63.816C329.769 63.816 329.381 63.924 329.053 64.14C328.725 64.348 328.473 64.656 328.297 65.064C328.121 65.464 328.033 65.956 328.033 66.54C328.033 67.14 328.117 67.648 328.285 68.064C328.453 68.472 328.701 68.78 329.029 68.988C329.365 69.188 329.777 69.288 330.265 69.288C330.529 69.288 330.773 69.256 330.997 69.192C331.229 69.128 331.429 69.032 331.597 68.904C331.765 68.776 331.897 68.612 331.993 68.412C332.089 68.212 332.137 67.98 332.137 67.716V67.536H330.061V66.324H333.565V70.5H332.401L332.281 68.772L332.569 68.976C332.393 69.504 332.081 69.912 331.633 70.2C331.193 70.48 330.637 70.62 329.965 70.62ZM338.637 66.672C338.637 66.328 338.537 66.06 338.337 65.868C338.145 65.676 337.889 65.58 337.569 65.58C337.273 65.58 337.013 65.656 336.789 65.808C336.565 65.96 336.401 66.212 336.297 66.564L334.893 66.132C335.029 65.604 335.325 65.18 335.781 64.86C336.245 64.54 336.865 64.38 337.641 64.38C338.169 64.38 338.629 64.464 339.021 64.632C339.413 64.792 339.717 65.036 339.933 65.364C340.157 65.692 340.269 66.104 340.269 66.6V69.036C340.269 69.34 340.413 69.492 340.701 69.492C340.837 69.492 340.965 69.472 341.085 69.432L340.989 70.452C340.781 70.556 340.521 70.608 340.209 70.608C339.929 70.608 339.677 70.56 339.453 70.464C339.229 70.368 339.053 70.224 338.925 70.032C338.797 69.832 338.733 69.584 338.733 69.288V69.24L339.021 69.192C338.973 69.496 338.841 69.756 338.625 69.972C338.409 70.18 338.145 70.34 337.833 70.452C337.529 70.564 337.213 70.62 336.885 70.62C336.477 70.62 336.125 70.56 335.829 70.44C335.533 70.312 335.305 70.128 335.145 69.888C334.985 69.648 334.905 69.352 334.905 69C334.905 68.552 335.049 68.188 335.337 67.908C335.625 67.62 336.037 67.424 336.573 67.32L338.829 66.864L338.817 67.884L337.377 68.172C337.105 68.228 336.897 68.304 336.753 68.4C336.617 68.488 336.549 68.636 336.549 68.844C336.549 69.044 336.621 69.196 336.765 69.3C336.917 69.404 337.097 69.456 337.305 69.456C337.473 69.456 337.637 69.436 337.797 69.396C337.957 69.356 338.101 69.292 338.229 69.204C338.357 69.116 338.457 68.996 338.529 68.844C338.601 68.692 338.637 68.508 338.637 68.292V66.672ZM342.108 70.5V64.5H343.536L343.644 65.676C343.804 65.26 344.036 64.94 344.34 64.716C344.652 64.492 345.04 64.38 345.504 64.38C345.64 64.38 345.764 64.392 345.876 64.416C345.988 64.44 346.08 64.472 346.152 64.512L345.96 65.892C345.88 65.86 345.78 65.836 345.66 65.82C345.548 65.804 345.4 65.796 345.216 65.796C344.976 65.796 344.744 65.856 344.52 65.976C344.296 66.088 344.112 66.264 343.968 66.504C343.824 66.736 343.752 67.032 343.752 67.392V70.5H342.108ZM350.485 66.672C350.485 66.328 350.385 66.06 350.185 65.868C349.993 65.676 349.737 65.58 349.417 65.58C349.121 65.58 348.861 65.656 348.637 65.808C348.413 65.96 348.249 66.212 348.145 66.564L346.741 66.132C346.877 65.604 347.173 65.18 347.629 64.86C348.093 64.54 348.713 64.38 349.489 64.38C350.017 64.38 350.477 64.464 350.869 64.632C351.261 64.792 351.565 65.036 351.781 65.364C352.005 65.692 352.117 66.104 352.117 66.6V69.036C352.117 69.34 352.261 69.492 352.549 69.492C352.685 69.492 352.813 69.472 352.933 69.432L352.837 70.452C352.629 70.556 352.369 70.608 352.057 70.608C351.777 70.608 351.525 70.56 351.301 70.464C351.077 70.368 350.901 70.224 350.773 70.032C350.645 69.832 350.581 69.584 350.581 69.288V69.24L350.869 69.192C350.821 69.496 350.689 69.756 350.473 69.972C350.257 70.18 349.993 70.34 349.681 70.452C349.377 70.564 349.061 70.62 348.733 70.62C348.325 70.62 347.973 70.56 347.677 70.44C347.381 70.312 347.153 70.128 346.993 69.888C346.833 69.648 346.753 69.352 346.753 69C346.753 68.552 346.897 68.188 347.185 67.908C347.473 67.62 347.885 67.424 348.421 67.32L350.677 66.864L350.665 67.884L349.225 68.172C348.953 68.228 348.745 68.304 348.601 68.4C348.465 68.488 348.397 68.636 348.397 68.844C348.397 69.044 348.469 69.196 348.613 69.3C348.765 69.404 348.945 69.456 349.153 69.456C349.321 69.456 349.485 69.436 349.645 69.396C349.805 69.356 349.949 69.292 350.077 69.204C350.205 69.116 350.305 68.996 350.377 68.844C350.449 68.692 350.485 68.508 350.485 68.292V66.672ZM353.955 70.5V64.5H355.431L355.527 66.3L355.323 66.108C355.419 65.716 355.571 65.392 355.779 65.136C355.987 64.88 356.239 64.692 356.535 64.572C356.839 64.444 357.171 64.38 357.531 64.38C357.947 64.38 358.315 64.46 358.635 64.62C358.963 64.78 359.219 65.024 359.403 65.352C359.595 65.672 359.691 66.076 359.691 66.564V70.5H358.047V67.032C358.047 66.52 357.947 66.168 357.747 65.976C357.547 65.776 357.287 65.676 356.967 65.676C356.743 65.676 356.523 65.732 356.307 65.844C356.099 65.948 355.927 66.12 355.791 66.36C355.663 66.6 355.599 66.92 355.599 67.32V70.5H353.955ZM363.462 62.664V68.544C363.462 68.832 363.534 69.044 363.678 69.18C363.83 69.308 364.034 69.372 364.29 69.372C364.49 69.372 364.666 69.344 364.818 69.288C364.97 69.224 365.106 69.14 365.226 69.036L365.49 70.128C365.298 70.28 365.058 70.4 364.77 70.488C364.482 70.576 364.178 70.62 363.858 70.62C363.458 70.62 363.102 70.56 362.79 70.44C362.486 70.32 362.246 70.128 362.07 69.864C361.902 69.6 361.818 69.248 361.818 68.808V63.12L363.462 62.664ZM365.382 64.5V65.724H360.714V64.5H365.382ZM367.322 63.636C366.978 63.636 366.722 63.564 366.554 63.42C366.386 63.268 366.302 63.048 366.302 62.76C366.302 62.464 366.386 62.244 366.554 62.1C366.722 61.948 366.978 61.872 367.322 61.872C367.666 61.872 367.922 61.948 368.09 62.1C368.258 62.244 368.342 62.464 368.342 62.76C368.342 63.048 368.258 63.268 368.09 63.42C367.922 63.564 367.666 63.636 367.322 63.636ZM368.138 64.5V70.5H366.494V64.5H368.138ZM373.301 66.672C373.301 66.328 373.201 66.06 373.001 65.868C372.809 65.676 372.553 65.58 372.233 65.58C371.937 65.58 371.677 65.656 371.453 65.808C371.229 65.96 371.065 66.212 370.961 66.564L369.557 66.132C369.693 65.604 369.989 65.18 370.445 64.86C370.909 64.54 371.529 64.38 372.305 64.38C372.833 64.38 373.293 64.464 373.685 64.632C374.077 64.792 374.381 65.036 374.597 65.364C374.821 65.692 374.933 66.104 374.933 66.6V69.036C374.933 69.34 375.077 69.492 375.365 69.492C375.501 69.492 375.629 69.472 375.749 69.432L375.653 70.452C375.445 70.556 375.185 70.608 374.873 70.608C374.593 70.608 374.341 70.56 374.117 70.464C373.893 70.368 373.717 70.224 373.589 70.032C373.461 69.832 373.397 69.584 373.397 69.288V69.24L373.685 69.192C373.637 69.496 373.505 69.756 373.289 69.972C373.073 70.18 372.809 70.34 372.497 70.452C372.193 70.564 371.877 70.62 371.549 70.62C371.141 70.62 370.789 70.56 370.493 70.44C370.197 70.312 369.969 70.128 369.809 69.888C369.649 69.648 369.569 69.352 369.569 69C369.569 68.552 369.713 68.188 370.001 67.908C370.289 67.62 370.701 67.424 371.237 67.32L373.493 66.864L373.481 67.884L372.041 68.172C371.769 68.228 371.561 68.304 371.417 68.4C371.281 68.488 371.213 68.636 371.213 68.844C371.213 69.044 371.285 69.196 371.429 69.3C371.581 69.404 371.761 69.456 371.969 69.456C372.137 69.456 372.301 69.436 372.461 69.396C372.621 69.356 372.765 69.292 372.893 69.204C373.021 69.116 373.121 68.996 373.193 68.844C373.265 68.692 373.301 68.508 373.301 68.292V66.672Z" fill="#5F5F5F"/>
<rect x="444" width="190" height="110" rx="28.0882" fill="#F4F5F2"/>
<path d="M478.953 74.42L482.399 63.24" stroke="#D1FF96" stroke-width="3" stroke-miterlimit="10"/>
<path d="M503.075 74.4201L490.153 65.8201" stroke="#D1FF96" stroke-width="3" stroke-miterlimit="10"/>
<path d="M487.568 47.7601L491.014 36.5801" stroke="#D1FF96" stroke-width="3" stroke-miterlimit="10"/>
<path d="M483.261 50.3401H462.584" stroke="#D1FF96" stroke-width="3" stroke-miterlimit="10"/>
<path d="M478.953 55.5H466.892" stroke="#D1FF96" stroke-width="3" stroke-miterlimit="10"/>
<path d="M480.676 60.6599H472.923" stroke="#D1FF96" stroke-width="3" stroke-miterlimit="10"/>
<path d="M485.918 47.4362L489.53 36.227C489.58 36.0793 489.673 35.9509 489.799 35.8599C489.925 35.7689 490.075 35.72 490.23 35.72C490.385 35.72 490.535 35.7689 490.661 35.8599C490.786 35.9509 490.88 36.0793 490.929 36.227L495.455 50.266H510.091C510.247 50.2647 510.398 50.3135 510.525 50.4051C510.651 50.4967 510.745 50.6265 510.793 50.7756C510.841 50.9247 510.841 51.0854 510.792 51.2343C510.744 51.3832 510.649 51.5126 510.523 51.6038L498.668 60.275L503.194 74.314C503.241 74.4621 503.242 74.6216 503.194 74.7697C503.146 74.9178 503.053 75.0469 502.928 75.1386C502.803 75.2303 502.653 75.2797 502.498 75.28C502.344 75.2802 502.193 75.2311 502.068 75.1398L490.214 66.4631L478.392 75.1398C478.267 75.2311 478.116 75.2802 477.962 75.28C477.807 75.2797 477.656 75.2303 477.532 75.1386C477.407 75.0469 477.314 74.9178 477.266 74.7697C477.218 74.6216 477.218 74.4621 477.266 74.314L480.884 63.0828" stroke="#494949" stroke-width="3" stroke-miterlimit="10"/>
<path d="M481.538 50.3401H462.584" stroke="#494949" stroke-width="3" stroke-miterlimit="10"/>
<path d="M476.799 55.5H466.892" stroke="#494949" stroke-width="3" stroke-miterlimit="10"/>
<path d="M478.953 60.6599H472.061" stroke="#494949" stroke-width="3" stroke-miterlimit="10"/>
<path d="M528.908 48H527.192L526.532 46.068H523.496L522.836 48H521.144L524.036 40.08H526.016L528.908 48ZM523.868 44.844H526.16L525.008 41.388L523.868 44.844ZM532.486 41.88C533.022 41.88 533.474 41.96 533.842 42.12C534.218 42.272 534.518 42.484 534.742 42.756C534.974 43.02 535.138 43.316 535.234 43.644L533.698 44.196C533.618 43.836 533.482 43.564 533.29 43.38C533.098 43.196 532.838 43.104 532.51 43.104C532.206 43.104 531.946 43.176 531.73 43.32C531.514 43.456 531.35 43.668 531.238 43.956C531.126 44.236 531.07 44.588 531.07 45.012C531.07 45.436 531.126 45.788 531.238 46.068C531.358 46.348 531.526 46.556 531.742 46.692C531.966 46.828 532.226 46.896 532.522 46.896C532.762 46.896 532.966 46.856 533.134 46.776C533.302 46.688 533.438 46.564 533.542 46.404C533.654 46.244 533.73 46.052 533.77 45.828L535.258 46.308C535.17 46.668 535.006 46.984 534.766 47.256C534.526 47.528 534.218 47.74 533.842 47.892C533.466 48.044 533.03 48.12 532.534 48.12C531.918 48.12 531.374 47.996 530.902 47.748C530.43 47.5 530.066 47.144 529.81 46.68C529.554 46.216 529.426 45.656 529.426 45C529.426 44.344 529.554 43.784 529.81 43.32C530.066 42.856 530.426 42.5 530.89 42.252C531.354 42.004 531.886 41.88 532.486 41.88ZM539.32 48.12C538.688 48.12 538.136 47.996 537.664 47.748C537.2 47.5 536.84 47.144 536.584 46.68C536.328 46.216 536.2 45.656 536.2 45C536.2 44.344 536.328 43.784 536.584 43.32C536.84 42.856 537.196 42.5 537.652 42.252C538.116 42.004 538.644 41.88 539.236 41.88C539.844 41.88 540.36 42.004 540.784 42.252C541.208 42.492 541.532 42.824 541.756 43.248C541.98 43.664 542.092 44.14 542.092 44.676C542.092 44.836 542.088 44.988 542.08 45.132C542.072 45.276 542.06 45.404 542.044 45.516H537.256V44.376H541.324L540.532 44.664C540.532 44.16 540.416 43.772 540.184 43.5C539.96 43.228 539.64 43.092 539.224 43.092C538.92 43.092 538.656 43.164 538.432 43.308C538.216 43.452 538.052 43.668 537.94 43.956C537.828 44.236 537.772 44.592 537.772 45.024C537.772 45.448 537.832 45.8 537.952 46.08C538.08 46.352 538.256 46.556 538.48 46.692C538.712 46.828 538.988 46.896 539.308 46.896C539.66 46.896 539.944 46.828 540.16 46.692C540.376 46.556 540.544 46.368 540.664 46.128L541.972 46.632C541.844 46.944 541.648 47.212 541.384 47.436C541.128 47.66 540.82 47.832 540.46 47.952C540.108 48.064 539.728 48.12 539.32 48.12ZM545.885 48.12C545.277 48.12 544.721 48.012 544.217 47.796C543.721 47.58 543.317 47.276 543.005 46.884L543.953 45.924C544.145 46.212 544.401 46.448 544.721 46.632C545.041 46.816 545.421 46.908 545.861 46.908C546.173 46.908 546.421 46.864 546.605 46.776C546.797 46.68 546.893 46.532 546.893 46.332C546.893 46.204 546.849 46.096 546.761 46.008C546.673 45.912 546.497 45.836 546.233 45.78L545.177 45.564C544.481 45.42 543.985 45.204 543.689 44.916C543.401 44.62 543.257 44.24 543.257 43.776C543.257 43.448 543.353 43.14 543.545 42.852C543.745 42.564 544.041 42.332 544.433 42.156C544.825 41.972 545.313 41.88 545.897 41.88C546.497 41.88 547.017 41.976 547.457 42.168C547.905 42.352 548.257 42.628 548.513 42.996L547.529 43.956C547.353 43.676 547.121 43.464 546.833 43.32C546.553 43.168 546.257 43.092 545.945 43.092C545.721 43.092 545.529 43.116 545.369 43.164C545.209 43.212 545.089 43.28 545.009 43.368C544.929 43.448 544.889 43.552 544.889 43.68C544.889 43.808 544.945 43.92 545.057 44.016C545.169 44.104 545.373 44.18 545.669 44.244L546.893 44.496C547.485 44.616 547.909 44.82 548.165 45.108C548.421 45.388 548.549 45.728 548.549 46.128C548.549 46.512 548.445 46.856 548.237 47.16C548.037 47.456 547.737 47.692 547.337 47.868C546.945 48.036 546.461 48.12 545.885 48.12ZM552.26 48.12C551.652 48.12 551.096 48.012 550.592 47.796C550.096 47.58 549.692 47.276 549.38 46.884L550.328 45.924C550.52 46.212 550.776 46.448 551.096 46.632C551.416 46.816 551.796 46.908 552.236 46.908C552.548 46.908 552.796 46.864 552.98 46.776C553.172 46.68 553.268 46.532 553.268 46.332C553.268 46.204 553.224 46.096 553.136 46.008C553.048 45.912 552.872 45.836 552.608 45.78L551.552 45.564C550.856 45.42 550.36 45.204 550.064 44.916C549.776 44.62 549.632 44.24 549.632 43.776C549.632 43.448 549.728 43.14 549.92 42.852C550.12 42.564 550.416 42.332 550.808 42.156C551.2 41.972 551.688 41.88 552.272 41.88C552.872 41.88 553.392 41.976 553.832 42.168C554.28 42.352 554.632 42.628 554.888 42.996L553.904 43.956C553.728 43.676 553.496 43.464 553.208 43.32C552.928 43.168 552.632 43.092 552.32 43.092C552.096 43.092 551.904 43.116 551.744 43.164C551.584 43.212 551.464 43.28 551.384 43.368C551.304 43.448 551.264 43.552 551.264 43.68C551.264 43.808 551.32 43.92 551.432 44.016C551.544 44.104 551.748 44.18 552.044 44.244L553.268 44.496C553.86 44.616 554.284 44.82 554.54 45.108C554.796 45.388 554.924 45.728 554.924 46.128C554.924 46.512 554.82 46.856 554.612 47.16C554.412 47.456 554.112 47.692 553.712 47.868C553.32 48.036 552.836 48.12 552.26 48.12ZM558.948 41.88C559.556 41.88 560.088 42.004 560.544 42.252C561.008 42.5 561.368 42.856 561.624 43.32C561.888 43.784 562.02 44.344 562.02 45C562.02 45.648 561.888 46.208 561.624 46.68C561.368 47.144 561.008 47.5 560.544 47.748C560.088 47.996 559.556 48.12 558.948 48.12C558.348 48.12 557.816 47.996 557.352 47.748C556.888 47.5 556.524 47.144 556.26 46.68C556.004 46.208 555.876 45.648 555.876 45C555.876 44.344 556.004 43.784 556.26 43.32C556.524 42.856 556.888 42.5 557.352 42.252C557.816 42.004 558.348 41.88 558.948 41.88ZM558.948 43.104C558.644 43.104 558.384 43.176 558.168 43.32C557.96 43.456 557.8 43.664 557.688 43.944C557.576 44.224 557.52 44.576 557.52 45C557.52 45.424 557.576 45.776 557.688 46.056C557.8 46.336 557.96 46.548 558.168 46.692C558.384 46.828 558.644 46.896 558.948 46.896C559.244 46.896 559.496 46.828 559.704 46.692C559.92 46.548 560.084 46.336 560.196 46.056C560.308 45.776 560.364 45.424 560.364 45C560.364 44.576 560.308 44.224 560.196 43.944C560.084 43.664 559.92 43.456 559.704 43.32C559.496 43.176 559.244 43.104 558.948 43.104Z" fill="#5F5F5F"/>
<path d="M525.9 55.8V69H522.46V55.8H525.9ZM544.107 55.8V69H541.067V62.94L541.167 58.88H541.127L537.867 69H535.087L531.827 58.88H531.787L531.887 62.94V69H528.827V55.8H533.727L535.807 62.52L536.547 65.32H536.587L537.347 62.54L539.407 55.8H544.107ZM547.03 69V55.8H557.31V58.46H550.47V61.14H555.91V63.64H550.47V66.34H557.57V69H547.03ZM565.248 55.8C567.314 55.8 568.894 56.3733 569.988 57.52C571.094 58.6667 571.648 60.2933 571.648 62.4C571.648 64.5067 571.094 66.1333 569.988 67.28C568.894 68.4267 567.314 69 565.248 69H559.648V55.8H565.248ZM564.908 66.4C566.028 66.4 566.841 66.0667 567.348 65.4C567.868 64.72 568.128 63.72 568.128 62.4C568.128 61.08 567.868 60.0867 567.348 59.42C566.841 58.74 566.028 58.4 564.908 58.4H563.088V66.4H564.908ZM577.443 55.8V69H574.003V55.8H577.443ZM592.37 69H588.83L587.91 66.02H583.39L582.45 69H578.99L583.63 55.8H587.75L592.37 69ZM584.03 63.68H587.27L585.65 58.34L584.03 63.68ZM603.345 55.8V58.46H599.045V69H595.605V58.46H591.285V55.8H603.345ZM610.685 55.6C612.018 55.6 613.165 55.8733 614.125 56.42C615.098 56.9533 615.845 57.7267 616.365 58.74C616.885 59.7533 617.145 60.9733 617.145 62.4C617.145 63.8267 616.885 65.0467 616.365 66.06C615.845 67.0733 615.098 67.8533 614.125 68.4C613.165 68.9333 612.018 69.2 610.685 69.2C609.351 69.2 608.198 68.9333 607.225 68.4C606.251 67.8533 605.505 67.0733 604.985 66.06C604.465 65.0467 604.205 63.8267 604.205 62.4C604.205 60.9733 604.465 59.7533 604.985 58.74C605.505 57.7267 606.251 56.9533 607.225 56.42C608.198 55.8733 609.351 55.6 610.685 55.6ZM610.685 58.3C610.045 58.3 609.505 58.4533 609.065 58.76C608.625 59.0667 608.291 59.5267 608.065 60.14C607.838 60.74 607.725 61.4933 607.725 62.4C607.725 63.2933 607.838 64.0467 608.065 64.66C608.291 65.2733 608.625 65.7333 609.065 66.04C609.505 66.3467 610.045 66.5 610.685 66.5C611.325 66.5 611.858 66.3467 612.285 66.04C612.725 65.7333 613.058 65.2733 613.285 64.66C613.511 64.0467 613.625 63.2933 613.625 62.4C613.625 61.4933 613.511 60.74 613.285 60.14C613.058 59.5267 612.725 59.0667 612.285 58.76C611.858 58.4533 611.325 58.3 610.685 58.3Z" fill="#5F5F5F"/>
<defs>
<clipPath id="clip0_601_393">
<rect width="37.5405" height="50" fill="white" transform="translate(258 30)"/>
</clipPath>
</defs>
</svg>
