<svg width="163" height="69" viewBox="0 0 163 69" fill="none" xmlns="http://www.w3.org/2000/svg">
<rect x="0.274994" y="0.733643" width="162.45" height="67.3367" rx="23.6421" fill="#F4F5F2"/>
<g clip-path="url(#clip0_601_1028)">
<path d="M27.708 50.7477L30.6086 41.3374" stroke="#D1FF96" stroke-width="2.52513" stroke-miterlimit="10"/>
<path d="M48.0118 50.7478L37.1347 43.5092" stroke="#D1FF96" stroke-width="2.52513" stroke-miterlimit="10"/>
<path d="M34.9593 28.3079L37.8599 18.8976" stroke="#D1FF96" stroke-width="2.52513" stroke-miterlimit="10"/>
<path d="M31.3335 30.4795H13.9302" stroke="#D1FF96" stroke-width="2.52513" stroke-miterlimit="10"/>
<path d="M27.7079 34.8228H17.556" stroke="#D1FF96" stroke-width="2.52513" stroke-miterlimit="10"/>
<path d="M29.1581 39.1658H22.6319" stroke="#D1FF96" stroke-width="2.52513" stroke-miterlimit="10"/>
<path d="M33.5701 28.0353L36.6108 18.6005C36.6522 18.4761 36.7313 18.3681 36.8369 18.2915C36.9426 18.2149 37.0695 18.1737 37.1996 18.1737C37.3298 18.1737 37.4567 18.2149 37.5623 18.2915C37.668 18.3681 37.747 18.4761 37.7884 18.6005L41.5974 30.4172H53.9168C54.0478 30.4162 54.1757 30.4572 54.282 30.5343C54.3882 30.6114 54.4674 30.7207 54.5079 30.8462C54.5484 30.9717 54.5481 31.1069 54.5072 31.2322C54.4662 31.3576 54.3868 31.4665 54.2802 31.5433L44.3023 38.8419L48.1113 50.6586C48.1516 50.7833 48.1517 50.9175 48.1115 51.0422C48.0714 51.1669 47.9932 51.2756 47.888 51.3527C47.7828 51.4299 47.6561 51.4715 47.526 51.4717C47.3959 51.4719 47.269 51.4306 47.1636 51.3537L37.1858 44.0505L27.2356 51.3537C27.1302 51.4306 27.0033 51.4719 26.8732 51.4717C26.7431 51.4715 26.6164 51.4299 26.5113 51.3527C26.4061 51.2756 26.3278 51.1669 26.2877 51.0422C26.2476 50.9175 26.2476 50.7833 26.2879 50.6586L29.3333 41.2052" stroke="#494949" stroke-width="2.52513" stroke-miterlimit="10"/>
<path d="M29.8832 30.4795H13.9302" stroke="#494949" stroke-width="2.52513" stroke-miterlimit="10"/>
<path d="M25.8951 34.8228H17.556" stroke="#494949" stroke-width="2.52513" stroke-miterlimit="10"/>
<path d="M27.708 39.1658H21.9069" stroke="#494949" stroke-width="2.52513" stroke-miterlimit="10"/>
</g>
<path d="M71.6779 28.2511H73.1222L70.688 21.5848H69.0214L66.5872 28.2511H68.0114L68.5568 26.6249H71.1324L71.6779 28.2511ZM68.9103 25.5947L69.5467 23.6958L69.8295 22.7059H69.8497L70.1527 23.716L70.789 25.5947H68.9103ZM76.1643 23.0998C74.5482 23.0998 73.5887 24.0695 73.5887 25.726C73.5887 27.3825 74.5381 28.3521 76.2148 28.3521C77.4976 28.3521 78.2854 27.7259 78.4975 26.8269L77.2451 26.4229C77.1441 26.9986 76.8006 27.3219 76.1946 27.3219C75.4472 27.3219 74.9724 26.8168 74.9724 25.7361C74.9724 24.6755 75.4169 24.1301 76.2047 24.1301C76.74 24.1301 77.0632 24.4432 77.1845 25.0492L78.4773 24.5846C78.2349 23.7564 77.5885 23.0998 76.1643 23.0998ZM84.3188 25.7058C84.3188 24.0493 83.4603 23.0998 81.8846 23.0998C80.2584 23.0998 79.3393 24.0695 79.3393 25.726C79.3393 27.3825 80.2887 28.3521 81.9654 28.3521C83.1067 28.3521 83.8845 27.9178 84.2077 27.1097L83.0764 26.6956C82.935 27.0996 82.5512 27.3219 81.9654 27.3219C81.2886 27.3219 80.8442 26.9784 80.7028 26.2512H84.2784C84.2986 26.1199 84.3188 25.8472 84.3188 25.7058ZM81.8745 24.12C82.5108 24.12 82.935 24.524 83.0461 25.2816H80.6927C80.8038 24.5139 81.2078 24.12 81.8745 24.12ZM87.4402 28.3521C88.9451 28.3521 89.7431 27.6956 89.7431 26.7865C89.7431 25.9482 89.1977 25.5038 87.723 25.2108C86.8745 25.0391 86.622 24.8674 86.622 24.5947C86.622 24.3321 86.9654 24.1099 87.5311 24.1099C88.2078 24.1099 88.6118 24.3725 88.9047 24.8977L89.7633 24.1705C89.2987 23.4433 88.6724 23.0998 87.5109 23.0998C86.016 23.0998 85.2383 23.9079 85.2383 24.726C85.2383 25.5644 85.7635 26.0492 87.3392 26.3623C88.0765 26.5138 88.3492 26.6552 88.3492 26.8875C88.3492 27.1602 88.0159 27.3421 87.42 27.3421C86.7331 27.3421 86.1877 27.1602 85.9049 26.5542L85.0969 27.3825C85.5615 28.0693 86.3998 28.3521 87.4402 28.3521ZM92.8061 28.3521C94.311 28.3521 95.109 27.6956 95.109 26.7865C95.109 25.9482 94.5636 25.5038 93.0889 25.2108C92.2404 25.0391 91.9879 24.8674 91.9879 24.5947C91.9879 24.3321 92.3313 24.1099 92.897 24.1099C93.5737 24.1099 93.9777 24.3725 94.2706 24.8977L95.1292 24.1705C94.6646 23.4433 94.0383 23.0998 92.8768 23.0998C91.3819 23.0998 90.6042 23.9079 90.6042 24.726C90.6042 25.5644 91.1294 26.0492 92.7051 26.3623C93.4424 26.5138 93.7151 26.6552 93.7151 26.8875C93.7151 27.1602 93.3818 27.3421 92.7859 27.3421C92.099 27.3421 91.5536 27.1602 91.2708 26.5542L90.4627 27.3825C90.9274 28.0693 91.7657 28.3521 92.8061 28.3521ZM98.5158 23.0998C96.8897 23.0998 95.9301 24.0796 95.9301 25.726C95.9301 27.3724 96.8897 28.3521 98.5158 28.3521C100.142 28.3521 101.102 27.3724 101.102 25.726C101.102 24.0796 100.142 23.0998 98.5158 23.0998ZM98.5158 24.1301C99.2936 24.1301 99.7178 24.6553 99.7178 25.726C99.7178 26.7966 99.2936 27.3219 98.5158 27.3219C97.7381 27.3219 97.3139 26.7966 97.3139 25.726C97.3139 24.6553 97.7381 24.1301 98.5158 24.1301Z" fill="#5F5F5F"/>
<path d="M70.5904 35.9244H67.6949V47.0349H70.5904V35.9244ZM85.9155 35.9244H81.9595L80.2256 41.5975L79.5859 43.9374H79.5522L78.9293 41.5806L77.1786 35.9244H73.0542V47.0349H75.6298V41.9342L75.5457 38.5168H75.5793L78.3233 47.0349H80.6633L83.4072 38.5168H83.4409L83.3567 41.9342V47.0349H85.9155V35.9244ZM91.2714 44.796V42.5234H95.8503V40.4191H91.2714V38.1633H97.0287V35.9244H88.3759V47.0349H97.2475V44.796H91.2714ZM103.71 35.9244H98.9959V47.0349H103.71C107.194 47.0349 109.096 45.0316 109.096 41.4796C109.096 37.9276 107.194 35.9244 103.71 35.9244ZM103.423 44.8465H101.891V38.1128H103.423C105.309 38.1128 106.134 39.2575 106.134 41.4796C106.134 43.7017 105.309 44.8465 103.423 44.8465ZM113.975 35.9244H111.079V47.0349H113.975V35.9244ZM123.559 47.0349H126.539L122.65 35.9244H119.182L115.277 47.0349H118.189L118.964 44.5266H122.802L123.559 47.0349ZM119.586 42.557L120.411 39.8804L120.866 38.1465H120.899L121.388 39.8972L122.196 42.557H119.586ZM135.678 35.9244H125.527V38.1633H129.163V47.0349H132.059V38.1633H135.678V35.9244ZM141.856 35.756C138.472 35.756 136.401 37.894 136.401 41.4796C136.401 45.0653 138.472 47.2033 141.856 47.2033C145.239 47.2033 147.293 45.0653 147.293 41.4796C147.293 37.894 145.239 35.756 141.856 35.756ZM141.856 38.0286C143.455 38.0286 144.33 39.207 144.33 41.4796C144.33 43.7522 143.455 44.9306 141.856 44.9306C140.24 44.9306 139.364 43.7522 139.364 41.4796C139.364 39.207 140.24 38.0286 141.856 38.0286Z" fill="#5F5F5F"/>
<defs>
<clipPath id="clip0_601_1028">
<rect width="44.6105" height="36.1935" fill="white" transform="translate(11.7549 16.726)"/>
</clipPath>
</defs>
</svg>
