<svg width="190" height="110" viewBox="0 0 190 110" fill="none" xmlns="http://www.w3.org/2000/svg">
<rect width="190" height="110" rx="20" fill="#F4F5F2"/>
<path d="M48.676 34L31 41.6589V58.3138C31.0005 61.356 31.8841 64.3372 33.5504 66.9191C35.2168 69.5009 37.5992 71.5799 40.4272 72.9202L49 77" stroke="#D1FF96" stroke-width="3" stroke-miterlimit="10"/>
<path d="M43 64C42.4696 64 41.9609 63.7958 41.5858 63.4322C41.2107 63.0686 41 62.5756 41 62.0614V53.9386C41 53.4245 41.2107 52.9314 41.5858 52.5678C41.9609 52.2042 42.4696 52 43 52" stroke="#D1FF96" stroke-width="3" stroke-miterlimit="10"/>
<path d="M44 52V48.0839C44 46.7356 44.5267 45.4425 45.4644 44.489C46.4021 43.5356 47.6739 43 49 43" stroke="#D1FF96" stroke-width="3" stroke-miterlimit="10"/>
<path d="M49.5 58C50.3284 58 51 57.5523 51 57C51 56.4477 50.3284 56 49.5 56C48.6716 56 48 56.4477 48 57C48 57.5523 48.6716 58 49.5 58Z" stroke="#D1FF96" stroke-width="3" stroke-miterlimit="10"/>
<path d="M49 60V56V60Z" stroke="#D1FF96" stroke-width="3" stroke-miterlimit="10"/>
<path d="M47.1059 76.5531C47.6688 76.8345 48.3312 76.8345 48.8941 76.5531L57 72.5019C59.6995 71.1585 61.9735 69.0754 63.5643 66.4888C65.155 63.9022 65.9988 60.9155 66 57.8676V42.4688C66 41.6844 65.5416 40.9725 64.8275 40.648L48.8275 33.3761C48.3017 33.1371 47.6983 33.1371 47.1725 33.3761L31.1725 40.648C30.4584 40.9725 30 41.6844 30 42.4688V57.8676C30.0005 60.9157 30.8441 63.9026 32.4349 66.4893C34.0257 69.0761 36.3001 71.1591 39 72.5019L47.1059 76.5531Z" stroke="#494949" stroke-width="2.34" stroke-miterlimit="10"/>
<path d="M53.9579 52H42.0421C40.9143 52 40 52.8691 40 53.9413V62.0587C40 63.1309 40.9143 64 42.0421 64H53.9579C55.0857 64 56 63.1309 56 62.0587V53.9413C56 52.8691 55.0857 52 53.9579 52Z" stroke="#494949" stroke-width="2.34" stroke-miterlimit="10"/>
<path d="M47.8209 43H48.1791C49.4577 43 50.6839 43.5353 51.588 44.4881C52.4921 45.4409 53 46.7332 53 48.0806V52H43V48.0806C43 46.7332 43.5079 45.4409 44.412 44.4881C45.3161 43.5353 46.5423 43 47.8209 43Z" stroke="#494949" stroke-width="2.34" stroke-miterlimit="10"/>
<path d="M48 58C48.5523 58 49 57.5523 49 57C49 56.4477 48.5523 56 48 56C47.4477 56 47 56.4477 47 57C47 57.5523 47.4477 58 48 58Z" stroke="#494949" stroke-width="2.34" stroke-miterlimit="10"/>
<path d="M48 60V56V60Z" stroke="#494949" stroke-width="2.34" stroke-miterlimit="10"/>
<path d="M88.4021 45.316C88.2501 45.828 88.0101 46.256 87.6821 46.6C87.3541 46.944 86.9661 47.2 86.5181 47.368C86.0701 47.536 85.5781 47.62 85.0421 47.62C84.2581 47.62 83.5781 47.456 83.0021 47.128C82.4341 46.8 81.9941 46.332 81.6821 45.724C81.3781 45.116 81.2261 44.388 81.2261 43.54C81.2261 42.692 81.3781 41.964 81.6821 41.356C81.9941 40.748 82.4341 40.28 83.0021 39.952C83.5781 39.624 84.2501 39.46 85.0181 39.46C85.5621 39.46 86.0541 39.536 86.4941 39.688C86.9341 39.832 87.3061 40.056 87.6101 40.36C87.9221 40.664 88.1501 41.048 88.2941 41.512L86.7941 42.148C86.6581 41.668 86.4501 41.328 86.1701 41.128C85.8901 40.92 85.5301 40.816 85.0901 40.816C84.6581 40.816 84.2781 40.92 83.9501 41.128C83.6301 41.336 83.3821 41.644 83.2061 42.052C83.0301 42.452 82.9421 42.948 82.9421 43.54C82.9421 44.124 83.0221 44.62 83.1821 45.028C83.3501 45.436 83.5941 45.744 83.9141 45.952C84.2341 46.16 84.6261 46.264 85.0901 46.264C85.5221 46.264 85.8941 46.148 86.2061 45.916C86.5261 45.684 86.7501 45.332 86.8781 44.86L88.4021 45.316ZM92.3815 41.38C92.9895 41.38 93.5215 41.504 93.9775 41.752C94.4415 42 94.8015 42.356 95.0575 42.82C95.3215 43.284 95.4535 43.844 95.4535 44.5C95.4535 45.148 95.3215 45.708 95.0575 46.18C94.8015 46.644 94.4415 47 93.9775 47.248C93.5215 47.496 92.9895 47.62 92.3815 47.62C91.7815 47.62 91.2495 47.496 90.7855 47.248C90.3215 47 89.9575 46.644 89.6935 46.18C89.4375 45.708 89.3095 45.148 89.3095 44.5C89.3095 43.844 89.4375 43.284 89.6935 42.82C89.9575 42.356 90.3215 42 90.7855 41.752C91.2495 41.504 91.7815 41.38 92.3815 41.38ZM92.3815 42.604C92.0775 42.604 91.8175 42.676 91.6015 42.82C91.3935 42.956 91.2335 43.164 91.1215 43.444C91.0095 43.724 90.9535 44.076 90.9535 44.5C90.9535 44.924 91.0095 45.276 91.1215 45.556C91.2335 45.836 91.3935 46.048 91.6015 46.192C91.8175 46.328 92.0775 46.396 92.3815 46.396C92.6775 46.396 92.9295 46.328 93.1375 46.192C93.3535 46.048 93.5175 45.836 93.6295 45.556C93.7415 45.276 93.7975 44.924 93.7975 44.5C93.7975 44.076 93.7415 43.724 93.6295 43.444C93.5175 43.164 93.3535 42.956 93.1375 42.82C92.9295 42.676 92.6775 42.604 92.3815 42.604ZM96.8291 47.5V41.5H98.3051L98.3651 42.58C98.5651 42.18 98.8371 41.88 99.1811 41.68C99.5331 41.48 99.9211 41.38 100.345 41.38C100.777 41.38 101.165 41.48 101.509 41.68C101.861 41.88 102.125 42.176 102.301 42.568C102.429 42.304 102.601 42.084 102.817 41.908C103.033 41.732 103.273 41.6 103.537 41.512C103.801 41.424 104.069 41.38 104.341 41.38C104.733 41.38 105.089 41.46 105.409 41.62C105.737 41.78 105.997 42.02 106.189 42.34C106.381 42.66 106.477 43.068 106.477 43.564V47.5H104.833V43.888C104.833 43.448 104.737 43.136 104.545 42.952C104.353 42.768 104.105 42.676 103.801 42.676C103.561 42.676 103.337 42.736 103.129 42.856C102.929 42.976 102.769 43.156 102.649 43.396C102.537 43.628 102.481 43.92 102.481 44.272V47.5H100.837V43.888C100.837 43.448 100.737 43.136 100.537 42.952C100.345 42.768 100.097 42.676 99.7931 42.676C99.5851 42.676 99.3771 42.732 99.1691 42.844C98.9691 42.956 98.8011 43.132 98.6651 43.372C98.5371 43.612 98.4731 43.928 98.4731 44.32V47.5H96.8291ZM108.173 50.02V41.5H109.649L109.757 43.408L109.553 43.192C109.625 42.84 109.757 42.528 109.949 42.256C110.149 41.984 110.401 41.772 110.705 41.62C111.009 41.46 111.349 41.38 111.725 41.38C112.213 41.38 112.649 41.504 113.033 41.752C113.417 42 113.717 42.356 113.933 42.82C114.157 43.276 114.269 43.832 114.269 44.488C114.269 45.144 114.157 45.708 113.933 46.18C113.709 46.644 113.401 47 113.009 47.248C112.625 47.496 112.185 47.62 111.689 47.62C111.161 47.62 110.721 47.472 110.369 47.176C110.025 46.88 109.789 46.508 109.661 46.06L109.817 45.808V50.02H108.173ZM111.209 46.36C111.649 46.36 111.993 46.204 112.241 45.892C112.497 45.572 112.625 45.108 112.625 44.5C112.625 43.892 112.501 43.432 112.253 43.12C112.013 42.8 111.673 42.64 111.233 42.64C110.953 42.64 110.705 42.716 110.489 42.868C110.281 43.012 110.117 43.224 109.997 43.504C109.877 43.776 109.817 44.108 109.817 44.5C109.817 44.884 109.873 45.216 109.985 45.496C110.097 45.776 110.257 45.992 110.465 46.144C110.681 46.288 110.929 46.36 111.209 46.36ZM115.696 47.5V41.5H117.124L117.232 42.676C117.392 42.26 117.624 41.94 117.928 41.716C118.24 41.492 118.628 41.38 119.092 41.38C119.228 41.38 119.352 41.392 119.464 41.416C119.576 41.44 119.668 41.472 119.74 41.512L119.548 42.892C119.468 42.86 119.368 42.836 119.248 42.82C119.136 42.804 118.988 42.796 118.804 42.796C118.564 42.796 118.332 42.856 118.108 42.976C117.884 43.088 117.7 43.264 117.556 43.504C117.412 43.736 117.34 44.032 117.34 44.392V47.5H115.696ZM124.073 43.672C124.073 43.328 123.973 43.06 123.773 42.868C123.581 42.676 123.325 42.58 123.005 42.58C122.709 42.58 122.449 42.656 122.225 42.808C122.001 42.96 121.837 43.212 121.733 43.564L120.329 43.132C120.465 42.604 120.761 42.18 121.217 41.86C121.681 41.54 122.301 41.38 123.077 41.38C123.605 41.38 124.065 41.464 124.457 41.632C124.849 41.792 125.153 42.036 125.369 42.364C125.593 42.692 125.705 43.104 125.705 43.6V46.036C125.705 46.34 125.849 46.492 126.137 46.492C126.273 46.492 126.401 46.472 126.521 46.432L126.425 47.452C126.217 47.556 125.957 47.608 125.645 47.608C125.365 47.608 125.113 47.56 124.889 47.464C124.665 47.368 124.489 47.224 124.361 47.032C124.233 46.832 124.169 46.584 124.169 46.288V46.24L124.457 46.192C124.409 46.496 124.277 46.756 124.061 46.972C123.845 47.18 123.581 47.34 123.269 47.452C122.965 47.564 122.649 47.62 122.321 47.62C121.913 47.62 121.561 47.56 121.265 47.44C120.969 47.312 120.741 47.128 120.581 46.888C120.421 46.648 120.341 46.352 120.341 46C120.341 45.552 120.485 45.188 120.773 44.908C121.061 44.62 121.473 44.424 122.009 44.32L124.265 43.864L124.253 44.884L122.813 45.172C122.541 45.228 122.333 45.304 122.189 45.4C122.053 45.488 121.985 45.636 121.985 45.844C121.985 46.044 122.057 46.196 122.201 46.3C122.353 46.404 122.533 46.456 122.741 46.456C122.909 46.456 123.073 46.436 123.233 46.396C123.393 46.356 123.537 46.292 123.665 46.204C123.793 46.116 123.893 45.996 123.965 45.844C124.037 45.692 124.073 45.508 124.073 45.292V43.672ZM132.395 47.5V42.484C132.395 42.3 132.395 42.112 132.395 41.92C132.403 41.72 132.411 41.516 132.419 41.308C132.147 41.556 131.843 41.772 131.507 41.956C131.171 42.14 130.827 42.268 130.475 42.34L130.259 40.948C130.443 40.932 130.647 40.88 130.871 40.792C131.103 40.696 131.335 40.584 131.567 40.456C131.807 40.32 132.023 40.18 132.215 40.036C132.415 39.884 132.567 39.732 132.671 39.58H134.015V47.5H132.395ZM138.84 47.62C137.824 47.62 137.04 47.276 136.488 46.588C135.944 45.9 135.672 44.884 135.672 43.54C135.672 42.196 135.944 41.18 136.488 40.492C137.04 39.804 137.824 39.46 138.84 39.46C139.856 39.46 140.636 39.804 141.18 40.492C141.732 41.18 142.008 42.196 142.008 43.54C142.008 44.884 141.732 45.9 141.18 46.588C140.636 47.276 139.856 47.62 138.84 47.62ZM138.84 46.288C139.184 46.288 139.464 46.192 139.68 46C139.904 45.8 140.072 45.5 140.184 45.1C140.296 44.692 140.352 44.172 140.352 43.54C140.352 42.908 140.296 42.392 140.184 41.992C140.072 41.584 139.904 41.284 139.68 41.092C139.464 40.892 139.184 40.792 138.84 40.792C138.496 40.792 138.212 40.892 137.988 41.092C137.764 41.284 137.596 41.584 137.484 41.992C137.38 42.392 137.328 42.908 137.328 43.54C137.328 44.172 137.38 44.692 137.484 45.1C137.596 45.5 137.764 45.8 137.988 46C138.212 46.192 138.496 46.288 138.84 46.288ZM146.469 47.62C145.453 47.62 144.669 47.276 144.117 46.588C143.573 45.9 143.301 44.884 143.301 43.54C143.301 42.196 143.573 41.18 144.117 40.492C144.669 39.804 145.453 39.46 146.469 39.46C147.485 39.46 148.265 39.804 148.809 40.492C149.361 41.18 149.637 42.196 149.637 43.54C149.637 44.884 149.361 45.9 148.809 46.588C148.265 47.276 147.485 47.62 146.469 47.62ZM146.469 46.288C146.813 46.288 147.093 46.192 147.309 46C147.533 45.8 147.701 45.5 147.813 45.1C147.925 44.692 147.981 44.172 147.981 43.54C147.981 42.908 147.925 42.392 147.813 41.992C147.701 41.584 147.533 41.284 147.309 41.092C147.093 40.892 146.813 40.792 146.469 40.792C146.125 40.792 145.841 40.892 145.617 41.092C145.393 41.284 145.225 41.584 145.113 41.992C145.009 42.392 144.957 42.908 144.957 43.54C144.957 44.172 145.009 44.692 145.113 45.1C145.225 45.5 145.393 45.8 145.617 46C145.841 46.192 146.125 46.288 146.469 46.288ZM152.405 47.5L157.745 39.58H159.065L153.725 47.5H152.405ZM152.801 39.46C153.233 39.46 153.605 39.552 153.917 39.736C154.237 39.92 154.481 40.18 154.649 40.516C154.825 40.852 154.913 41.244 154.913 41.692C154.913 42.14 154.825 42.532 154.649 42.868C154.481 43.196 154.237 43.456 153.917 43.648C153.605 43.832 153.233 43.924 152.801 43.924C152.377 43.924 152.005 43.832 151.685 43.648C151.365 43.456 151.117 43.196 150.941 42.868C150.773 42.532 150.689 42.14 150.689 41.692C150.689 41.244 150.773 40.852 150.941 40.516C151.117 40.18 151.365 39.92 151.685 39.736C152.005 39.552 152.377 39.46 152.801 39.46ZM152.801 40.6C152.625 40.6 152.473 40.644 152.345 40.732C152.217 40.812 152.121 40.936 152.057 41.104C151.993 41.264 151.961 41.46 151.961 41.692C151.961 41.916 151.993 42.112 152.057 42.28C152.121 42.44 152.217 42.564 152.345 42.652C152.473 42.732 152.625 42.772 152.801 42.772C152.985 42.772 153.137 42.732 153.257 42.652C153.385 42.564 153.481 42.44 153.545 42.28C153.609 42.112 153.641 41.916 153.641 41.692C153.641 41.46 153.609 41.264 153.545 41.104C153.481 40.936 153.385 40.812 153.257 40.732C153.137 40.644 152.985 40.6 152.801 40.6ZM158.657 43.156C159.081 43.156 159.449 43.252 159.761 43.444C160.081 43.628 160.329 43.888 160.505 44.224C160.681 44.552 160.769 44.94 160.769 45.388C160.769 45.836 160.681 46.228 160.505 46.564C160.329 46.9 160.081 47.16 159.761 47.344C159.449 47.528 159.081 47.62 158.657 47.62C158.233 47.62 157.861 47.528 157.541 47.344C157.221 47.16 156.973 46.9 156.797 46.564C156.629 46.228 156.545 45.836 156.545 45.388C156.545 44.94 156.629 44.552 156.797 44.224C156.973 43.888 157.221 43.628 157.541 43.444C157.861 43.252 158.233 43.156 158.657 43.156ZM158.657 44.308C158.473 44.308 158.317 44.352 158.189 44.44C158.069 44.52 157.977 44.64 157.913 44.8C157.849 44.96 157.817 45.156 157.817 45.388C157.817 45.612 157.849 45.808 157.913 45.976C157.977 46.144 158.069 46.272 158.189 46.36C158.317 46.44 158.473 46.48 158.657 46.48C158.841 46.48 158.993 46.44 159.113 46.36C159.241 46.272 159.337 46.144 159.401 45.976C159.465 45.808 159.497 45.612 159.497 45.388C159.497 45.156 159.465 44.96 159.401 44.8C159.337 44.64 159.241 44.52 159.113 44.44C158.993 44.352 158.841 44.308 158.657 44.308Z" fill="#5F5F5F"/>
<path d="M87.2101 55.1C88.4368 55.1 89.5168 55.2933 90.4501 55.68C91.3968 56.0533 92.2168 56.6067 92.9101 57.34L91.2501 59.56C90.6768 58.96 90.0568 58.5133 89.3901 58.22C88.7368 57.9133 87.9901 57.76 87.1501 57.76C86.6568 57.76 86.2568 57.8133 85.9501 57.92C85.6434 58.0267 85.4234 58.1733 85.2901 58.36C85.1568 58.5467 85.0901 58.76 85.0901 59C85.0901 59.28 85.2168 59.52 85.4701 59.72C85.7368 59.9067 86.1634 60.0667 86.7501 60.2L88.9701 60.7C90.2901 61.0067 91.2568 61.4533 91.8701 62.04C92.4834 62.6267 92.7901 63.4067 92.7901 64.38C92.7901 65.3133 92.5501 66.1067 92.0701 66.76C91.5901 67.4 90.9301 67.8867 90.0901 68.22C89.2501 68.54 88.2901 68.7 87.2101 68.7C86.3301 68.7 85.4901 68.6067 84.6901 68.42C83.8901 68.22 83.1701 67.94 82.5301 67.58C81.8901 67.22 81.3501 66.8067 80.9101 66.34L82.5701 64.04C82.9034 64.4267 83.3101 64.7733 83.7901 65.08C84.2834 65.3733 84.8168 65.6067 85.3901 65.78C85.9768 65.9533 86.5701 66.04 87.1701 66.04C87.6368 66.04 88.0234 65.9933 88.3301 65.9C88.6501 65.8067 88.8834 65.6667 89.0301 65.48C89.1768 65.2933 89.2501 65.0733 89.2501 64.82C89.2501 64.54 89.1501 64.3067 88.9501 64.12C88.7501 63.92 88.3701 63.7533 87.8101 63.62L85.3701 63.08C84.6234 62.9067 83.9568 62.68 83.3701 62.4C82.7968 62.1067 82.3434 61.72 82.0101 61.24C81.6768 60.7467 81.5101 60.1333 81.5101 59.4C81.5101 58.5733 81.7368 57.84 82.1901 57.2C82.6434 56.5467 83.2968 56.0333 84.1501 55.66C85.0034 55.2867 86.0234 55.1 87.2101 55.1ZM94.9407 68.5V55.3H105.221V57.96H98.3807V60.64H103.821V63.14H98.3807V65.84H105.481V68.5H94.9407ZM112.901 68.7C111.727 68.7 110.681 68.44 109.761 67.92C108.854 67.4 108.147 66.6333 107.641 65.62C107.134 64.6067 106.881 63.3733 106.881 61.92C106.881 60.4933 107.147 59.2733 107.681 58.26C108.214 57.2467 108.974 56.4667 109.961 55.92C110.961 55.3733 112.134 55.1 113.481 55.1C114.974 55.1 116.181 55.3733 117.101 55.92C118.021 56.4533 118.734 57.3067 119.241 58.48L116.061 59.74C115.887 59.06 115.581 58.5667 115.141 58.26C114.701 57.9533 114.154 57.8 113.501 57.8C112.847 57.8 112.287 57.96 111.821 58.28C111.354 58.5867 111.001 59.0467 110.761 59.66C110.521 60.26 110.401 61.0067 110.401 61.9C110.401 62.8333 110.521 63.6133 110.761 64.24C111.014 64.8667 111.381 65.3333 111.861 65.64C112.354 65.9333 112.961 66.08 113.681 66.08C114.067 66.08 114.421 66.0333 114.741 65.94C115.061 65.8467 115.341 65.7133 115.581 65.54C115.821 65.3533 116.007 65.1267 116.141 64.86C116.274 64.58 116.341 64.2533 116.341 63.88V63.68H113.321V61.38H119.261V68.5H116.921L116.661 65.4L117.221 65.88C116.941 66.7867 116.434 67.4867 115.701 67.98C114.981 68.46 114.047 68.7 112.901 68.7ZM133.434 55.3V63.12C133.434 64.9867 132.934 66.3867 131.934 67.32C130.947 68.24 129.481 68.7 127.534 68.7C125.601 68.7 124.134 68.24 123.134 67.32C122.134 66.3867 121.634 64.9867 121.634 63.12V55.3H125.094V63.18C125.094 64.1267 125.294 64.8333 125.694 65.3C126.107 65.7667 126.721 66 127.534 66C128.361 66 128.974 65.7667 129.374 65.3C129.787 64.8333 129.994 64.1267 129.994 63.18V55.3H133.434ZM142.393 55.3C143.966 55.3 145.186 55.6733 146.053 56.42C146.933 57.1533 147.373 58.1333 147.373 59.36C147.373 60.7067 146.94 61.7333 146.073 62.44C145.206 63.1467 143.986 63.5 142.413 63.5L142.093 63.68H139.473V68.5H136.093V55.3H142.393ZM141.913 61.24C142.58 61.24 143.08 61.1067 143.413 60.84C143.746 60.5733 143.913 60.1467 143.913 59.56C143.913 58.9867 143.746 58.5667 143.413 58.3C143.08 58.0333 142.58 57.9 141.913 57.9H139.473V61.24H141.913ZM143.933 61.96L148.153 68.5H144.353L140.973 62.72L143.933 61.96ZM161.882 68.5H158.342L157.422 65.52H152.902L151.962 68.5H148.502L153.142 55.3H157.262L161.882 68.5ZM153.542 63.18H156.782L155.162 57.84L153.542 63.18Z" fill="#5F5F5F"/>
</svg>
