<svg width="146" height="517" viewBox="0 0 146 517" fill="none" xmlns="http://www.w3.org/2000/svg">
<g clip-path="url(#clip0_601_297)">
<g opacity="0.5">
<g clip-path="url(#clip1_601_297)">
<path fill-rule="evenodd" clip-rule="evenodd" d="M451.888 403.993C396.906 420.02 365.51 386.189 306.299 383.215C247.087 380.24 195.898 414.231 132.385 377.686C83.6122 349.609 68.8858 276.977 89.8361 222.963C119.114 147.4 179.017 131.439 230.315 100.807C288.304 66.2145 320.967 10.3207 380.673 4.31344C444.15 -2.12191 556.108 53.8372 527.114 257.765C520.73 302.66 506.87 387.967 451.888 403.993Z" stroke="#494949" stroke-width="2" stroke-miterlimit="10"/>
<path fill-rule="evenodd" clip-rule="evenodd" d="M327.453 389.635C295.933 391.319 266.058 395.106 236.459 399.154C204.735 403.507 172.313 409.667 138.186 389.425C113.808 374.791 105.807 347.142 95.7034 319.848C82.8842 285.408 72.2272 251.649 81.807 216.977C107.423 141.204 167.574 118.524 220.983 88.437C280.675 54.6714 316.381 13.3169 377.98 7.55631C418.665 3.92872 472.7 8.48494 508.646 61.7452C536.054 100.887 549.222 170.333 537.946 255.567C531.992 301.5 518.394 382.823 467.117 400.845C415.272 419.077 384.196 386.603 327.453 389.635Z" stroke="#46534B" stroke-width="1.86" stroke-miterlimit="10"/>
<path fill-rule="evenodd" clip-rule="evenodd" d="M348.636 396.056C314.619 400.765 281.752 401.092 249.963 405.532C215.305 410.385 179.723 422.944 143.937 401.179C116.872 384.405 115.846 350.392 103.711 320.392C88.1398 282.165 66.1995 250.445 73.7192 211.006C95.8051 135.015 156.137 105.654 211.709 76.0599C273.06 43.1214 311.853 16.2991 375.352 10.8286C419.837 7.26636 474.687 -0.888474 514.113 50.4926C545.502 88.9886 559.057 168.382 548.843 253.405C543.202 300.339 529.917 377.723 482.396 397.689C433.617 418.185 402.482 388.605 348.636 396.056Z" stroke="#445D4E" stroke-width="1.73" stroke-miterlimit="10"/>
<path fill-rule="evenodd" clip-rule="evenodd" d="M369.827 402.47C332.701 405.727 297.439 407.077 263.488 411.902C225.882 417.27 187.148 436.214 149.732 412.903C119.988 393.989 125.92 353.664 111.762 320.907C93.4467 278.893 60.2085 249.168 65.6754 205.006C84.1507 128.827 144.694 92.7539 202.406 63.6969C265.439 31.5855 307.296 19.2952 372.695 14.115C420.987 10.6398 476.638 -10.2478 519.558 39.247C554.922 77.1044 568.986 166.466 559.705 251.25C554.456 299.2 541.462 372.709 497.654 394.547C451.939 417.35 421.569 397.935 369.827 402.47Z" stroke="#416650" stroke-width="1.59" stroke-miterlimit="10"/>
<path fill-rule="evenodd" clip-rule="evenodd" d="M391.01 408.891C351.097 413.969 313.12 413.062 277.006 418.272C236.467 424.148 194.581 449.469 155.519 424.642C123.103 403.602 136.003 356.929 119.806 321.444C98.7536 275.635 54.2178 247.913 57.6319 199.02C72.482 122.594 133.258 79.8688 193.103 51.327C257.81 20.0427 302.739 22.3063 370.038 17.4018C422.13 13.9991 478.597 -19.5996 524.996 28.0015C564.349 65.2133 578.937 164.537 570.566 249.088C565.717 298.061 552.978 367.754 512.912 391.406C470.254 416.567 440.183 402.637 391.01 408.891Z" stroke="#3F7052" stroke-width="1.45" stroke-miterlimit="10"/>
<path fill-rule="evenodd" clip-rule="evenodd" d="M412.193 415.312C369.463 422.371 328.829 419.048 290.531 424.649C247.044 431.034 202.006 462.76 161.313 436.381C126.212 413.164 146.085 360.201 127.828 321.974C104.031 272.378 48.1975 246.658 49.5588 193.035C60.8128 116.391 121.786 66.9909 183.778 38.9569C250.159 8.48518 298.16 25.2809 367.352 20.6811C423.243 17.3655 480.518 -28.9806 530.412 16.756C573.747 53.3221 588.888 162.621 581.405 246.934C576.95 296.914 564.509 362.878 528.177 388.272C488.591 415.892 458.811 407.607 412.193 415.312Z" stroke="#3C7A55" stroke-width="1.32" stroke-miterlimit="10"/>
<path fill-rule="evenodd" clip-rule="evenodd" d="M433.384 421.725C387.865 430.961 344.523 425.033 304.049 431.019C257.621 437.919 209.416 476.037 167.1 448.119C129.327 422.784 156.181 363.452 135.908 322.503C109.36 269.12 42.2355 245.395 41.544 187.042C49.1874 110.195 110.379 54.1055 174.504 26.5867C242.567 -3.04345 293.632 28.2771 364.716 23.9603C424.408 20.7317 482.506 -38.3399 535.871 5.50312C583.188 41.4307 598.904 160.699 592.287 244.771C588.276 295.775 576.083 358.083 543.42 385.108C506.95 415.29 477.476 412.779 433.384 421.725Z" stroke="#3A8457" stroke-width="1.18" stroke-miterlimit="10"/>
<path fill-rule="evenodd" clip-rule="evenodd" d="M454.567 428.175C406.326 439.783 360.218 431.077 317.574 437.425C268.205 444.826 216.863 489.336 172.895 459.916C132.443 432.441 166.241 366.767 143.959 323.091C114.666 265.92 36.2227 244.198 33.5002 181.115C37.533 104.05 98.9428 41.2784 165.201 14.2456C234.945 -14.5574 289.075 31.2953 362.059 27.3049C425.536 24.0619 484.464 -47.7063 541.28 -5.74237C592.586 29.5395 608.892 158.783 603.156 242.609C599.581 294.636 587.716 353.367 558.685 381.959C525.382 414.767 496.147 418.127 454.567 428.175Z" stroke="#378E5A" stroke-width="1.05" stroke-miterlimit="10"/>
<path fill-rule="evenodd" clip-rule="evenodd" d="M475.765 434.567C424.881 448.801 375.927 437.004 331.107 443.766C278.797 451.682 224.302 502.584 178.697 471.597C135.573 441.982 176.338 369.974 152.025 323.592C119.995 262.648 30.268 242.907 25.4708 175.1C25.893 97.818 87.5139 28.3643 155.912 1.87562C227.338 -26.1003 284.533 34.2845 359.417 30.5553C426.73 27.4936 486.429 -57.0436 546.769 -16.9588C602.049 17.6774 618.959 156.89 614.031 240.476C610.894 293.526 599.421 348.738 573.95 378.847C543.893 414.318 514.95 423.604 475.765 434.567Z" stroke="#35985C" stroke-width="0.91" stroke-miterlimit="10"/>
<path fill-rule="evenodd" clip-rule="evenodd" d="M496.941 440.98C443.517 458.102 391.607 442.99 344.618 450.136C289.367 458.56 231.72 515.854 184.469 483.336C138.66 451.573 186.391 373.231 160.054 324.099C125.265 259.347 24.2553 241.623 17.3762 169.085C14.1878 91.5858 76.0269 15.4572 146.558 -10.5236C219.666 -37.6724 279.925 37.2517 356.709 33.8055C427.822 30.8309 488.336 -66.4392 552.156 -28.2407C611.425 5.75702 629.122 154.952 624.841 238.293C622.272 292.365 611.163 344.087 589.172 375.669C562.529 413.918 533.79 429.176 496.941 440.98Z" stroke="#32A15E" stroke-width="0.77" stroke-miterlimit="10"/>
<path fill-rule="evenodd" clip-rule="evenodd" d="M518.124 447.401C462.327 467.716 407.294 448.968 358.136 456.514C299.944 465.445 239.146 529.131 190.264 495.075C141.782 461.172 196.481 376.489 168.105 324.629C130.579 256.09 18.2789 240.368 9.37605 163.1C2.59885 85.3828 64.62 2.57231 137.269 -22.8933C212.051 -49.2151 275.375 40.2266 354.059 37.0851C428.972 34.183 490.295 -75.8053 557.601 -39.486C620.852 -6.11217 639.131 153.03 635.71 236.131C633.569 291.226 623.065 339.473 604.408 372.528C581.317 413.534 552.709 434.821 518.124 447.401Z" stroke="#30AB61" stroke-width="0.64" stroke-miterlimit="10"/>
<path fill-rule="evenodd" clip-rule="evenodd" d="M539.307 453.822C481.326 477.619 422.988 454.954 371.661 462.884C310.513 472.315 246.57 542.4 196.058 506.814C144.898 470.77 206.555 379.754 176.156 325.159C135.886 252.832 12.2876 239.105 1.332 157.115C-9.08494 79.1795 53.1837 -10.3131 127.995 -35.2564C204.429 -60.7583 270.847 43.23 351.424 40.3642C430.151 37.5637 492.282 -85.1502 563.067 -50.7317C630.301 -18.0254 649.133 151.107 646.599 233.968C642.705 361.188 597.296 430.018 539.307 453.822Z" stroke="#2DB563" stroke-width="0.5" stroke-miterlimit="10"/>
</g>
</g>
</g>
<defs>
<clipPath id="clip0_601_297">
<rect width="146" height="517" fill="white"/>
</clipPath>
<clipPath id="clip1_601_297">
<rect width="647" height="574" fill="white" transform="translate(647 517) rotate(180)"/>
</clipPath>
</defs>
</svg>
