<svg width="309" height="162" viewBox="0 0 309 162" fill="none" xmlns="http://www.w3.org/2000/svg">
<path d="M61.5296 23.8046V1.55773H66.1475C69.4785 1.55773 71.896 1.82492 73.3999 2.35929C75.56 3.11547 77.2457 4.42618 78.4569 6.29143C79.6783 8.15668 80.289 10.3799 80.289 12.961C80.289 15.1892 79.8045 17.1502 78.8354 18.844C77.8765 20.5379 76.6249 21.7881 75.0806 22.5947C73.5463 23.4013 71.3913 23.8046 68.6155 23.8046H61.5296ZM63.6645 21.7024H66.2384C69.317 21.7024 71.4518 21.5108 72.6429 21.1277C74.3185 20.5833 75.6357 19.6053 76.5946 18.1937C77.5535 16.7721 78.033 15.0379 78.033 12.9912C78.033 10.8436 77.5132 9.00864 76.4735 7.4862C75.4338 5.96375 73.9854 4.92022 72.1281 4.35561C70.7352 3.93214 68.4388 3.72041 65.2391 3.72041H63.6645V21.7024Z" fill="white"/>
<path d="M98.1247 18.345L99.9113 19.2826C99.3259 20.432 98.6496 21.3596 97.8824 22.0654C97.1153 22.7711 96.2523 23.3106 95.2934 23.6836C94.3345 24.0466 93.2494 24.2281 92.0381 24.2281C89.3532 24.2281 87.2537 23.3509 85.7396 21.5965C84.2255 19.8321 83.4685 17.8408 83.4685 15.6227C83.4685 13.5356 84.1095 11.6754 85.3914 10.0421C87.0165 7.96511 89.1917 6.92662 91.917 6.92662C94.7231 6.92662 96.9639 7.99032 98.6395 10.1177C99.8306 11.62 100.436 13.4953 100.456 15.7437H85.6488C85.6891 17.6594 86.2998 19.2322 87.4808 20.4623C88.6618 21.6822 90.1203 22.2922 91.8564 22.2922C92.6942 22.2922 93.5068 22.146 94.2941 21.8536C95.0915 21.5613 95.7678 21.1731 96.323 20.6891C96.8781 20.2052 97.4787 19.4238 98.1247 18.345ZM98.1247 13.9137C97.8421 12.7845 97.4282 11.8821 96.8832 11.2066C96.3482 10.5311 95.6366 9.98664 94.7483 9.57326C93.8601 9.15988 92.9264 8.95319 91.9473 8.95319C90.3323 8.95319 88.9444 9.47243 87.7836 10.5109C86.9357 11.2671 86.2948 12.4014 85.8607 13.9137H98.1247Z" fill="white"/>
<path d="M113.493 1.55773H117.929C120.402 1.55773 122.077 1.65856 122.955 1.86021C124.278 2.16268 125.353 2.81299 126.18 3.81115C127.008 4.79923 127.422 6.0192 127.422 7.47107C127.422 8.68096 127.134 9.74466 126.559 10.6622C125.994 11.5797 125.181 12.2753 124.121 12.7492C123.061 13.213 121.598 13.4499 119.73 13.46L127.74 23.8046H124.984L116.99 13.46H115.718V23.8046H113.493V1.55773ZM115.718 3.73554V11.2974L119.549 11.3276C121.033 11.3276 122.128 11.1864 122.834 10.9041C123.551 10.6218 124.106 10.1732 124.5 9.55813C124.904 8.93302 125.105 8.23734 125.105 7.47107C125.105 6.72497 124.904 6.04945 124.5 5.44451C124.096 4.82948 123.566 4.39089 122.91 4.12875C122.254 3.86661 121.164 3.73554 119.64 3.73554H115.718Z" fill="white"/>
<path d="M137.536 0H139.519V1.64848C140.509 1.82996 141.351 2.1526 142.048 2.61639C142.754 3.08018 143.431 3.76578 144.077 4.6732L142.442 5.98896C141.664 4.78915 140.69 4.06322 139.519 3.81115V11.3578C142.164 12.7492 143.809 13.8785 144.455 14.7455C145.283 15.8546 145.697 17.0796 145.697 18.4206C145.697 19.5296 145.389 20.548 144.773 21.4756C144.168 22.3931 143.345 23.1089 142.305 23.6231C141.629 23.9558 140.7 24.1978 139.519 24.349V29.0827H137.536V24.349C136.294 24.2482 135.3 24.0516 134.553 23.7592C133.806 23.4668 133.074 23.0282 132.358 22.4435C131.651 21.8486 131.061 21.163 130.586 20.3867L132.206 19.1616C133.609 21.0168 135.386 22.0503 137.536 22.262V12.9005C135.951 12.1241 134.947 11.5948 134.523 11.3125C133.665 10.7277 133.029 10.0774 132.615 9.36153C132.201 8.64567 131.994 7.81892 131.994 6.88125C131.994 5.97383 132.222 5.13195 132.676 4.35561C133.13 3.57926 133.746 2.94911 134.523 2.46515C135.31 1.9812 136.315 1.67872 137.536 1.55773V0ZM137.536 3.65992C136.779 3.72041 136.168 3.89181 135.704 4.17412C135.24 4.44635 134.871 4.8194 134.599 5.29327C134.336 5.75706 134.205 6.27127 134.205 6.83588C134.205 7.56181 134.417 8.17684 134.841 8.68096C135.406 9.36657 136.304 9.98664 137.536 10.5412V3.65992ZM139.519 22.2015C140.741 22.0301 141.715 21.5865 142.442 20.8706C143.178 20.1548 143.547 19.3532 143.547 18.466C143.547 17.5989 143.264 16.7973 142.699 16.0613C142.144 15.3253 141.084 14.5388 139.519 13.702V22.2015Z" fill="white"/>
<path d="M166.667 0.99816L168.499 2.19293L162.488 11.2974C163.295 11.0251 164.052 10.889 164.759 10.889C166.525 10.889 168.024 11.5292 169.256 12.8097C170.487 14.0801 171.103 15.6479 171.103 17.5132C171.103 18.7936 170.805 19.9531 170.21 20.9916C169.614 22.02 168.766 22.8417 167.666 23.4567C166.576 24.0617 165.4 24.3642 164.138 24.3642C162.917 24.3642 161.781 24.0718 160.731 23.487C159.692 22.8921 158.874 22.0603 158.279 20.9916C157.683 19.9229 157.385 18.7785 157.385 17.5585C157.385 16.6511 157.567 15.6983 157.93 14.7002C158.304 13.6919 158.965 12.482 159.914 11.0705L166.667 0.99816ZM164.229 12.84C162.937 12.84 161.832 13.2987 160.913 14.2162C160.005 15.1236 159.551 16.2277 159.551 17.5283C159.551 18.8188 160.005 19.9229 160.913 20.8404C161.832 21.7478 162.937 22.2015 164.229 22.2015C165.521 22.2015 166.621 21.7478 167.53 20.8404C168.448 19.9229 168.907 18.8188 168.907 17.5283C168.907 16.2277 168.448 15.1236 167.53 14.2162C166.621 13.2987 165.521 12.84 164.229 12.84Z" fill="white"/>
<path d="M178.446 24.3642L176.614 23.1845L182.625 14.0801C181.817 14.3422 181.06 14.4733 180.354 14.4733C178.587 14.4733 177.088 13.8381 175.857 12.5677C174.626 11.2873 174.01 9.71441 174.01 7.84916C174.01 6.5687 174.308 5.41426 174.903 4.38585C175.499 3.35745 176.342 2.53573 177.432 1.9207C178.532 1.30567 179.708 0.99816 180.959 0.99816C182.191 0.99816 183.326 1.29559 184.366 1.89045C185.416 2.48532 186.239 3.31712 186.834 4.38585C187.43 5.45459 187.727 6.5939 187.727 7.80379C187.727 8.72129 187.541 9.68416 187.167 10.6924C186.804 11.6906 186.148 12.8954 185.199 14.307L178.446 24.3642ZM180.869 12.5224C182.171 12.5224 183.276 12.0687 184.184 11.1612C185.103 10.2437 185.562 9.13971 185.562 7.84916C185.562 6.55861 185.103 5.45963 184.184 4.55221C183.276 3.63471 182.171 3.17596 180.869 3.17596C179.577 3.17596 178.471 3.63471 177.553 4.55221C176.644 5.45963 176.19 6.55861 176.19 7.84916C176.19 9.13971 176.644 10.2437 177.553 11.1612C178.471 12.0687 179.577 12.5224 180.869 12.5224Z" fill="white"/>
<path d="M191.921 1.55773H206.048L194.132 24.3642L192.3 23.4265L202.596 3.65992H191.921V1.55773Z" fill="white"/>
<path d="M211.362 19.7212L213.406 20.6891L210.332 26.4059L208.833 25.7707L211.362 19.7212Z" fill="white"/>
<path d="M216.48 12.6887C216.48 9.75474 216.792 7.4862 217.418 5.88309C218.054 4.27999 218.947 3.06506 220.098 2.2383C221.249 1.41154 222.536 0.99816 223.959 0.99816C225.402 0.99816 226.71 1.41658 227.88 2.25342C229.051 3.08018 229.975 4.32536 230.651 5.98896C231.338 7.65256 231.681 9.88581 231.681 12.6887C231.681 15.4816 231.343 17.7047 230.666 19.3582C230 21.0118 229.077 22.262 227.896 23.1089C226.715 23.9457 225.402 24.3642 223.959 24.3642C222.536 24.3642 221.254 23.9558 220.113 23.1392C218.973 22.3225 218.079 21.1075 217.433 19.4944C216.797 17.8711 216.48 15.6025 216.48 12.6887ZM218.584 12.7341C218.584 15.2446 218.806 17.1452 219.25 18.4357C219.704 19.7162 220.371 20.6891 221.249 21.3546C222.127 22.02 223.056 22.3527 224.035 22.3527C225.024 22.3527 225.948 22.0301 226.805 21.3848C227.663 20.7295 228.314 19.7515 228.759 18.4508C229.314 16.8679 229.591 14.9623 229.591 12.7341C229.591 10.4958 229.344 8.66584 228.849 7.24422C228.355 5.81251 227.669 4.76898 226.79 4.11363C225.922 3.44819 225.004 3.11547 224.035 3.11547C223.046 3.11547 222.117 3.44819 221.249 4.11363C220.381 4.76898 219.72 5.74194 219.265 7.03249C218.811 8.31295 218.584 10.2135 218.584 12.7341Z" fill="white"/>
<path d="M233.679 12.6887C233.679 9.75474 233.992 7.4862 234.618 5.88309C235.254 4.27999 236.147 3.06506 237.298 2.2383C238.449 1.41154 239.736 0.99816 241.159 0.99816C242.602 0.99816 243.909 1.41658 245.08 2.25342C246.251 3.08018 247.175 4.32536 247.851 5.98896C248.537 7.65256 248.881 9.88581 248.881 12.6887C248.881 15.4816 248.542 17.7047 247.866 19.3582C247.2 21.0118 246.276 22.262 245.095 23.1089C243.914 23.9457 242.602 24.3642 241.159 24.3642C239.736 24.3642 238.454 23.9558 237.313 23.1392C236.173 22.3225 235.279 21.1075 234.633 19.4944C233.997 17.8711 233.679 15.6025 233.679 12.6887ZM235.784 12.7341C235.784 15.2446 236.006 17.1452 236.45 18.4357C236.904 19.7162 237.571 20.6891 238.449 21.3546C239.327 22.02 240.255 22.3527 241.235 22.3527C242.224 22.3527 243.147 22.0301 244.005 21.3848C244.863 20.7295 245.514 19.7515 245.958 18.4508C246.514 16.8679 246.791 14.9623 246.791 12.7341C246.791 10.4958 246.544 8.66584 246.049 7.24422C245.555 5.81251 244.868 4.76898 243.99 4.11363C243.122 3.44819 242.204 3.11547 241.235 3.11547C240.245 3.11547 239.317 3.44819 238.449 4.11363C237.581 4.76898 236.919 5.74194 236.465 7.03249C236.011 8.31295 235.784 10.2135 235.784 12.7341Z" fill="white"/>
<path d="M110.661 15.7891H249.88V17.3317H110.661V15.7891Z" fill="white"/>
<path d="M3.51697 69.4347V70.9903C4.1572 70.3508 4.84935 69.8712 5.59341 69.5514C6.33746 69.2317 7.13343 69.0718 7.98131 69.0718C9.82415 69.0718 11.3901 69.7675 12.6793 71.1588C13.9684 72.5502 14.6129 74.3348 14.6129 76.5126C14.6129 78.6126 13.9467 80.3713 12.6144 81.7886C11.282 83.1972 9.70302 83.9016 7.87749 83.9016C7.06422 83.9016 6.30718 83.759 5.60638 83.4738C4.90559 83.18 4.20911 82.7047 3.51697 82.0479V88.6979H0V69.4347H3.51697ZM7.24158 72.3385C6.12549 72.3385 5.19975 72.7187 4.46434 73.4792C3.72894 74.2397 3.36123 75.2336 3.36123 76.4607C3.36123 77.7139 3.72894 78.7293 4.46434 79.5071C5.19975 80.2762 6.12549 80.6608 7.24158 80.6608C8.32306 80.6608 9.2315 80.2676 9.9669 79.4812C10.711 78.6947 11.083 77.6922 11.083 76.4737C11.083 75.2638 10.7196 74.2743 9.99286 73.5052C9.26611 72.7274 8.34901 72.3385 7.24158 72.3385Z" fill="white"/>
<path d="M24.1775 69.0718C25.5099 69.0718 26.7601 69.4045 27.9281 70.0699C29.1047 70.7354 30.0218 71.6385 30.6794 72.7792C31.3369 73.92 31.6657 75.1515 31.6657 76.4737C31.6657 77.8046 31.3326 79.049 30.6664 80.2071C30.0089 81.3651 29.1091 82.2725 27.967 82.9293C26.825 83.5775 25.5661 83.9016 24.1905 83.9016C22.166 83.9016 20.4356 83.1843 18.9994 81.7497C17.5719 80.3065 16.8581 78.5564 16.8581 76.4996C16.8581 74.2959 17.667 72.4595 19.2849 70.9903C20.7038 69.7113 22.3347 69.0718 24.1775 69.0718ZM24.2294 72.4033C23.1307 72.4033 22.2136 72.7879 21.4782 73.557C20.7514 74.3175 20.388 75.2941 20.388 76.4867C20.388 77.7139 20.7471 78.7077 21.4652 79.4682C22.1919 80.2287 23.109 80.6089 24.2165 80.6089C25.3239 80.6089 26.2453 80.2244 26.9807 79.4552C27.7161 78.6861 28.0838 77.6966 28.0838 76.4867C28.0838 75.2768 27.7205 74.2959 26.9937 73.5441C26.2756 72.7835 25.3542 72.4033 24.2294 72.4033Z" fill="white"/>
<path d="M33.7421 69.4347H36.7789V71.2107C37.1077 70.5107 37.5446 69.9792 38.0897 69.6162C38.6347 69.2533 39.2317 69.0718 39.8806 69.0718C40.3391 69.0718 40.8193 69.1928 41.3211 69.4347L40.218 72.4811C39.8027 72.2737 39.461 72.17 39.1928 72.17C38.6477 72.17 38.1848 72.507 37.8042 73.1811C37.4321 73.8552 37.2461 75.1774 37.2461 77.1478L37.2591 77.8348V83.5386H33.7421V69.4347Z" fill="white"/>
<path d="M53.1179 64.4699H58.5556V83.5386H54.9478V67.8792H51.0155L53.1179 64.4699Z" fill="white"/>
<path d="M68.2759 70.6144H64.733C64.8281 68.5576 65.4727 66.9415 66.6667 65.7662C67.8693 64.5822 69.4093 63.9902 71.2867 63.9902C72.4461 63.9902 73.467 64.2365 74.3495 64.7291C75.2406 65.2131 75.9501 65.9174 76.4778 66.8421C77.0142 67.7582 77.2824 68.6915 77.2824 69.6422C77.2824 70.7743 76.958 71.9928 76.3091 73.2978C75.6689 74.6027 74.4922 76.1453 72.7792 77.9256L70.6378 80.1812H77.4382V83.5386H64.2139V81.8016L70.1187 75.7867C71.5463 74.3434 72.4937 73.1854 72.9609 72.3126C73.4367 71.4311 73.6746 70.636 73.6746 69.9273C73.6746 69.1928 73.4281 68.5878 72.9349 68.1125C72.4504 67.6285 71.8231 67.3866 71.0531 67.3866C70.2745 67.3866 69.6256 67.6761 69.1065 68.2551C68.5874 68.8341 68.3105 69.6205 68.2759 70.6144Z" fill="white"/>
<path d="M79.0604 69.4347H83.1743L85.9386 73.2848L88.7418 69.4347H92.8168L87.9891 76.1107L93.4138 83.5386H89.2998L85.9386 78.9108L82.6163 83.5386H78.5543L83.9011 76.1107L79.0604 69.4347Z" fill="white"/>
<path d="M105.743 45.4011H113.451C117.674 45.4011 120.676 45.7814 122.458 46.5419C124.258 47.2851 125.702 48.5296 126.793 50.2753C127.883 52.021 128.428 54.0864 128.428 56.4716C128.428 58.9778 127.822 61.0779 126.611 62.7717C125.417 64.4483 123.609 65.7187 121.186 66.5829L130.219 83.5386H122.276L113.685 67.3866H113.01V83.5386H105.743V45.4011ZM113.01 60.3087H115.294C117.613 60.3087 119.205 60.0062 120.07 59.4013C120.953 58.7963 121.394 57.7939 121.394 56.3939C121.394 55.5642 121.177 54.8469 120.745 54.242C120.312 53.6197 119.733 53.179 119.006 52.9197C118.279 52.6432 116.947 52.5049 115.009 52.5049H113.01V60.3087Z" fill="white"/>
<path d="M158.692 49.8086L153.682 54.6827C151.398 52.3321 149.14 51.1568 146.908 51.1568C145.593 51.1568 144.52 51.5111 143.69 52.2197C142.876 52.9111 142.47 53.7148 142.47 54.6309C142.47 55.4087 142.833 56.1778 143.56 56.9383C144.269 57.7161 145.705 58.5457 147.868 59.4272C151.71 61.0174 154.34 62.3742 155.759 63.4976C157.178 64.6211 158.268 65.9693 159.029 67.5421C159.791 69.115 160.171 70.878 160.171 72.8311C160.171 74.7842 159.765 76.5904 158.951 78.2497C158.138 79.9089 157.091 81.2225 155.811 82.1904C154.53 83.1584 152.687 83.8929 150.282 84.3942V91.3165H145.403V84.5497C143.136 84.2905 141.206 83.7201 139.615 82.8386C137.434 81.6287 135.41 80.0213 133.541 78.0163L138.472 72.9607C141.639 76.3311 144.702 78.0163 147.661 78.0163C149.166 78.0163 150.455 77.4978 151.528 76.4607C152.618 75.4064 153.163 74.1706 153.163 72.7533C153.163 71.5607 152.817 70.515 152.125 69.6162C151.416 68.7175 150.049 67.8014 148.024 66.868C143.906 64.9668 141.12 63.4631 139.666 62.3569C138.213 61.2334 137.123 59.9803 136.396 58.5976C135.687 57.1976 135.332 55.7111 135.332 54.1383C135.332 51.5284 136.284 49.2987 138.187 47.4493C140.09 45.5826 142.496 44.5801 145.403 44.4419V41.8492H150.282V44.7789C151.961 45.1764 153.38 45.7122 154.539 46.3863C155.716 47.0604 157.1 48.2012 158.692 49.8086Z" fill="white"/>
<path d="M194.017 44.4419H201.285V68.994H204.685V75.7089H201.285V83.5386H194.173V75.7089H177.51V68.994L194.017 44.4419ZM194.173 68.994V56.2124L185.452 68.994H194.173Z" fill="white"/>
<path d="M220.57 84.4979L214.392 81.4386L221.063 68.4755C217.827 68.4755 215.076 67.3174 212.809 65.0014C210.542 62.6853 209.409 59.8075 209.409 56.3679C209.409 53.0321 210.568 50.2148 212.887 47.916C215.223 45.5999 218.035 44.4419 221.322 44.4419C224.766 44.4419 227.63 45.6431 229.914 48.0456C232.215 50.4308 233.366 53.179 233.366 56.2901C233.366 57.4655 233.184 58.6494 232.821 59.842C232.475 61.0174 231.661 62.8408 230.381 65.3125L220.57 84.4979ZM221.478 61.605C222.828 61.605 223.961 61.1124 224.878 60.1272C225.795 59.142 226.254 57.9235 226.254 56.4716C226.254 54.9852 225.769 53.7407 224.8 52.7383C223.849 51.7358 222.733 51.2345 221.452 51.2345C220.102 51.2345 218.943 51.7358 217.974 52.7383C217.005 53.7235 216.521 54.9593 216.521 56.4457C216.521 57.9149 216.988 59.142 217.922 60.1272C218.874 61.1124 220.059 61.605 221.478 61.605Z" fill="white"/>
<path d="M242.995 76.357L248.057 78.8978L241.646 89.8387L238.116 88.1535L242.995 76.357Z" fill="white"/>
<path d="M254.104 45.4011H279.151V49.2123L261.917 84.4979L255.765 81.5164L270.093 52.2197H254.104V45.4011Z" fill="white"/>
<path d="M295.477 44.4419C298.263 44.4419 300.66 45.1246 302.667 46.49C304.691 47.8555 306.249 49.9469 307.339 52.7642C308.446 55.5642 309 59.4704 309 64.4828C309 69.5471 308.438 73.4879 307.313 76.3052C306.205 79.1225 304.709 81.1966 302.823 82.5275C300.936 83.8411 298.557 84.4979 295.685 84.4979C292.812 84.4979 290.399 83.8324 288.443 82.5016C286.488 81.1707 284.957 79.1484 283.849 76.4348C282.742 73.7212 282.188 69.8582 282.188 64.8458C282.188 57.8457 283.269 52.7728 285.432 49.6271C287.838 46.1703 291.186 44.4419 295.477 44.4419ZM295.659 51.3382C294.43 51.3382 293.34 51.7358 292.388 52.5308C291.437 53.3086 290.71 54.6568 290.208 56.5753C289.706 58.4939 289.456 61.3026 289.456 65.0014C289.456 69.8236 290.027 73.1595 291.169 75.0089C292.328 76.841 293.825 77.7571 295.659 77.7571C297.424 77.7571 298.825 76.8842 299.864 75.1385C301.127 73.0298 301.758 69.5039 301.758 64.5606C301.758 59.5482 301.187 56.0914 300.045 54.1901C298.921 52.2889 297.458 51.3382 295.659 51.3382Z" fill="white"/>
<path d="M68.6068 142.869H71.8188C73.578 142.869 74.8289 143.027 75.5715 143.344C76.3214 143.654 76.9234 144.172 77.3776 144.899C77.8318 145.627 78.0589 146.487 78.0589 147.481C78.0589 148.526 77.8066 149.401 77.3019 150.106C76.8044 150.805 76.051 151.334 75.0416 151.694L78.8052 158.759H75.4958L71.9161 152.029H71.635V158.759H68.6068V142.869ZM71.635 149.08H72.5867C73.5528 149.08 74.2161 148.954 74.5766 148.702C74.9443 148.45 75.1281 148.032 75.1281 147.449C75.1281 147.103 75.038 146.804 74.8578 146.552C74.6775 146.293 74.436 146.109 74.1332 146.001C73.8304 145.886 73.2752 145.829 72.4677 145.829H71.635V149.08Z" fill="white"/>
<path d="M90.669 144.705L88.5817 146.736C87.63 145.757 86.6891 145.267 85.7591 145.267C85.2111 145.267 84.7641 145.414 84.418 145.71C84.0792 145.998 83.9097 146.333 83.9097 146.714C83.9097 147.038 84.0611 147.359 84.364 147.676C84.6596 148 85.258 148.346 86.1592 148.713C87.7598 149.375 88.8557 149.941 89.4469 150.409C90.0381 150.877 90.4923 151.439 90.8096 152.094C91.1268 152.749 91.2854 153.484 91.2854 154.298C91.2854 155.112 91.116 155.864 90.7771 156.555C90.4383 157.247 90.0021 157.794 89.4685 158.197C88.935 158.601 88.1672 158.907 87.165 159.116V162H85.1318V159.181C84.1873 159.072 83.3834 158.835 82.7201 158.468C81.8117 157.963 80.9681 157.294 80.1895 156.458L82.2443 154.352C83.5637 155.756 84.8398 156.458 86.0727 156.458C86.7 156.458 87.2371 156.242 87.6841 155.81C88.1383 155.371 88.3654 154.856 88.3654 154.265C88.3654 153.768 88.2212 153.333 87.9328 152.958C87.6372 152.584 87.0677 152.202 86.2241 151.813C84.5082 151.021 83.3474 150.394 82.7417 149.934C82.1361 149.465 81.6819 148.943 81.3791 148.367C81.0835 147.784 80.9357 147.164 80.9357 146.509C80.9357 145.422 81.3322 144.493 82.1253 143.722C82.9184 142.944 83.9206 142.527 85.1318 142.469V141.389H87.165V142.609C87.8643 142.775 88.4556 142.998 88.9386 143.279C89.4289 143.56 90.0057 144.035 90.669 144.705Z" fill="white"/>
<path d="M105.388 142.469H108.416V152.699H109.833V155.497H108.416V158.759H105.453V155.497H98.5097V152.699L105.388 142.469ZM105.453 152.699V147.373L101.819 152.699H105.453Z" fill="white"/>
<path d="M116.451 159.159L113.878 157.884L116.657 152.483C115.309 152.483 114.162 152 113.218 151.035C112.273 150.07 111.801 148.871 111.801 147.438C111.801 146.048 112.284 144.874 113.25 143.916C114.224 142.951 115.395 142.469 116.765 142.469C118.2 142.469 119.393 142.969 120.345 143.97C121.304 144.964 121.783 146.109 121.783 147.406C121.783 147.895 121.707 148.389 121.556 148.886C121.412 149.375 121.073 150.135 120.539 151.165L116.451 159.159ZM116.83 149.62C117.392 149.62 117.865 149.415 118.247 149.004C118.629 148.594 118.82 148.086 118.82 147.481C118.82 146.862 118.618 146.343 118.214 145.926C117.818 145.508 117.353 145.299 116.819 145.299C116.257 145.299 115.774 145.508 115.37 145.926C114.966 146.336 114.764 146.851 114.764 147.471C114.764 148.083 114.959 148.594 115.348 149.004C115.745 149.415 116.239 149.62 116.83 149.62Z" fill="white"/>
<path d="M124.216 142.869H134.653V144.457L127.472 159.159L124.909 157.917L130.878 145.71H124.216V142.869Z" fill="white"/>
<path d="M138.211 155.767L140.32 156.826L137.648 161.384L136.178 160.682L138.211 155.767Z" fill="white"/>
<path d="M147.663 142.469C148.824 142.469 149.822 142.753 150.659 143.322C151.502 143.891 152.151 144.763 152.605 145.937C153.067 147.103 153.297 148.731 153.297 150.819C153.297 152.929 153.063 154.571 152.594 155.745C152.133 156.919 151.509 157.783 150.723 158.338C149.938 158.885 148.946 159.159 147.749 159.159C146.553 159.159 145.547 158.882 144.732 158.327C143.917 157.773 143.279 156.93 142.818 155.799C142.356 154.669 142.126 153.059 142.126 150.971C142.126 148.054 142.576 145.94 143.478 144.629C144.48 143.189 145.875 142.469 147.663 142.469ZM147.739 145.342C147.227 145.342 146.772 145.508 146.376 145.839C145.979 146.163 145.677 146.725 145.467 147.525C145.258 148.324 145.154 149.494 145.154 151.035C145.154 153.045 145.392 154.435 145.868 155.205C146.351 155.969 146.974 156.35 147.739 156.35C148.474 156.35 149.058 155.987 149.491 155.259C150.017 154.381 150.28 152.911 150.28 150.852C150.28 148.763 150.042 147.323 149.566 146.531C149.098 145.738 148.488 145.342 147.739 145.342Z" fill="white"/>
<path d="M160.078 142.469C161.239 142.469 162.238 142.753 163.074 143.322C163.918 143.891 164.566 144.763 165.021 145.937C165.482 147.103 165.713 148.731 165.713 150.819C165.713 152.929 165.478 154.571 165.01 155.745C164.548 156.919 163.925 157.783 163.139 158.338C162.353 158.885 161.362 159.159 160.165 159.159C158.968 159.159 157.962 158.882 157.147 158.327C156.333 157.773 155.695 156.93 155.233 155.799C154.772 154.669 154.541 153.059 154.541 150.971C154.541 148.054 154.992 145.94 155.893 144.629C156.895 143.189 158.29 142.469 160.078 142.469ZM160.154 145.342C159.642 145.342 159.188 145.508 158.791 145.839C158.395 146.163 158.092 146.725 157.883 147.525C157.674 148.324 157.569 149.494 157.569 151.035C157.569 153.045 157.807 154.435 158.283 155.205C158.766 155.969 159.39 156.35 160.154 156.35C160.889 156.35 161.473 155.987 161.906 155.259C162.432 154.381 162.695 152.911 162.695 150.852C162.695 148.763 162.458 147.323 161.982 146.531C161.513 145.738 160.904 145.342 160.154 145.342Z" fill="white"/>
<path d="M182.735 147.006H185.677V158.759H182.735V157.517C182.158 158.064 181.578 158.46 180.994 158.705C180.417 158.943 179.79 159.062 179.112 159.062C177.591 159.062 176.275 158.475 175.165 157.301C174.055 156.12 173.499 154.654 173.499 152.904C173.499 151.089 174.037 149.602 175.111 148.443C176.185 147.283 177.49 146.704 179.026 146.704C179.732 146.704 180.396 146.837 181.016 147.103C181.636 147.37 182.209 147.769 182.735 148.302V147.006ZM179.631 149.426C178.716 149.426 177.955 149.75 177.349 150.398C176.744 151.039 176.441 151.864 176.441 152.872C176.441 153.887 176.747 154.723 177.36 155.378C177.98 156.033 178.741 156.361 179.642 156.361C180.572 156.361 181.344 156.041 181.957 155.4C182.569 154.751 182.876 153.905 182.876 152.861C182.876 151.838 182.569 151.01 181.957 150.376C181.344 149.743 180.569 149.426 179.631 149.426ZM179.339 140.622L181.924 144.856H179.804L175.846 140.622H179.339Z" fill="white"/>
<path d="M193.604 147.006H196.611L199.585 153.941L202.548 147.006H205.544L200.536 158.759H198.622L193.604 147.006Z" fill="white"/>
<path d="M208.442 142.166C208.961 142.166 209.404 142.354 209.772 142.728C210.147 143.103 210.335 143.556 210.335 144.089C210.335 144.615 210.151 145.065 209.783 145.44C209.415 145.807 208.976 145.991 208.464 145.991C207.937 145.991 207.487 145.803 207.112 145.429C206.744 145.047 206.56 144.586 206.56 144.046C206.56 143.528 206.744 143.085 207.112 142.717C207.479 142.35 207.923 142.166 208.442 142.166ZM206.96 147.006H209.924V158.759H206.96V147.006Z" fill="white"/>
<path d="M219.808 148.648L217.981 150.474C217.238 149.739 216.564 149.372 215.958 149.372C215.627 149.372 215.367 149.444 215.18 149.588C214.992 149.725 214.898 149.897 214.898 150.106C214.898 150.265 214.956 150.412 215.071 150.549C215.194 150.679 215.49 150.859 215.958 151.089L217.04 151.63C218.179 152.191 218.961 152.764 219.387 153.347C219.812 153.93 220.025 154.615 220.025 155.4C220.025 156.444 219.639 157.315 218.867 158.014C218.103 158.712 217.076 159.062 215.785 159.062C214.069 159.062 212.699 158.392 211.676 157.052L213.492 155.076C213.839 155.479 214.242 155.807 214.704 156.059C215.172 156.303 215.587 156.426 215.947 156.426C216.337 156.426 216.65 156.332 216.888 156.145C217.126 155.958 217.245 155.742 217.245 155.497C217.245 155.043 216.816 154.6 215.958 154.168L214.963 153.671C213.06 152.713 212.108 151.514 212.108 150.074C212.108 149.145 212.465 148.353 213.179 147.697C213.9 147.035 214.819 146.704 215.937 146.704C216.701 146.704 217.418 146.873 218.089 147.211C218.766 147.543 219.34 148.021 219.808 148.648Z" fill="white"/>
<path d="M222.717 142.674H225.659V147.006H227.411V149.545H225.659V158.759H222.717V149.545H221.203V147.006H222.717V142.674Z" fill="white"/>
<path d="M237.696 147.006H240.638V158.759H237.696V157.517C237.119 158.064 236.539 158.46 235.955 158.705C235.378 158.943 234.751 159.062 234.073 159.062C232.552 159.062 231.236 158.475 230.126 157.301C229.015 156.12 228.46 154.654 228.46 152.904C228.46 151.089 228.997 149.602 230.072 148.443C231.146 147.283 232.451 146.704 233.986 146.704C234.693 146.704 235.356 146.837 235.976 147.103C236.596 147.37 237.17 147.769 237.696 148.302V147.006ZM234.592 149.426C233.676 149.426 232.916 149.75 232.31 150.398C231.705 151.039 231.402 151.864 231.402 152.872C231.402 153.887 231.708 154.723 232.321 155.378C232.941 156.033 233.702 156.361 234.603 156.361C235.533 156.361 236.304 156.041 236.917 155.4C237.53 154.751 237.837 153.905 237.837 152.861C237.837 151.838 237.53 151.01 236.917 150.376C236.304 149.743 235.529 149.426 234.592 149.426Z" fill="white"/>
<path d="M148.967 111.504C150.415 111.504 151.615 112.029 152.566 113.077C153.432 114.034 153.864 115.166 153.864 116.474C153.864 117.787 153.406 118.937 152.488 119.922C151.577 120.901 150.403 121.391 148.967 121.391C147.525 121.391 146.346 120.901 145.429 119.922C144.517 118.937 144.062 117.787 144.062 116.474C144.062 115.171 144.494 114.042 145.359 113.086C146.311 112.032 147.514 111.504 148.967 111.504ZM148.967 112.688C147.964 112.688 147.101 113.06 146.38 113.803C145.659 114.546 145.299 115.445 145.299 116.499C145.299 117.179 145.463 117.813 145.792 118.401C146.121 118.988 146.565 119.444 147.124 119.766C147.684 120.083 148.298 120.241 148.967 120.241C149.636 120.241 150.251 120.083 150.81 119.766C151.369 119.444 151.814 118.988 152.142 118.401C152.471 117.813 152.636 117.179 152.636 116.499C152.636 115.445 152.272 114.546 151.545 113.803C150.824 113.06 149.965 112.688 148.967 112.688Z" fill="white"/>
<path d="M155.966 111.746H157.186V116.137C157.186 117.208 157.244 117.946 157.359 118.349C157.532 118.925 157.861 119.38 158.346 119.714C158.836 120.048 159.419 120.216 160.093 120.216C160.768 120.216 161.339 120.054 161.806 119.732C162.279 119.403 162.605 118.974 162.784 118.444C162.905 118.081 162.966 117.312 162.966 116.137V111.746H164.203V116.361C164.203 117.658 164.05 118.634 163.744 119.291C163.445 119.948 162.989 120.463 162.377 120.838C161.772 121.207 161.01 121.391 160.093 121.391C159.176 121.391 158.409 121.207 157.792 120.838C157.181 120.463 156.722 119.945 156.416 119.282C156.116 118.614 155.966 117.611 155.966 116.275V111.746Z" fill="white"/>
</svg>
