<svg width="18" height="19" viewBox="0 0 18 19" fill="none" xmlns="http://www.w3.org/2000/svg">
<path fill-rule="evenodd" clip-rule="evenodd" d="M5.28955 0.804C6.24927 0.759818 6.55527 0.75 9 0.75C11.4447 0.75 11.7507 0.760636 12.7096 0.804C13.6685 0.847364 14.3231 1.00036 14.8958 1.22209C15.4955 1.44873 16.0396 1.803 16.4896 2.26118C16.9478 2.71036 17.3013 3.25364 17.5271 3.85418C17.7496 4.42691 17.9018 5.08145 17.946 6.03873C17.9902 7.00009 18 7.30609 18 9.75C18 12.1947 17.9894 12.5007 17.946 13.4605C17.9026 14.4177 17.7496 15.0723 17.5271 15.645C17.3013 16.2456 16.9472 16.7898 16.4896 17.2396C16.0396 17.6978 15.4955 18.0513 14.8958 18.2771C14.3231 18.4996 13.6685 18.6518 12.7113 18.696C11.7507 18.7402 11.4447 18.75 9 18.75C6.55527 18.75 6.24927 18.7394 5.28955 18.696C4.33227 18.6526 3.67773 18.4996 3.105 18.2771C2.50439 18.0512 1.96022 17.6972 1.51036 17.2396C1.05249 16.7902 0.698167 16.2463 0.472091 15.6458C0.250364 15.0731 0.0981818 14.4185 0.054 13.4613C0.00981817 12.4999 0 12.1939 0 9.75C0 7.30527 0.0106364 6.99927 0.054 6.04036C0.0973636 5.08145 0.250364 4.42691 0.472091 3.85418C0.6985 3.2537 1.0531 2.7098 1.51118 2.26036C1.9604 1.80259 2.50402 1.44827 3.10418 1.22209C3.67691 1.00036 4.33145 0.848182 5.28873 0.804H5.28955ZM12.6368 2.424C11.6877 2.38064 11.403 2.37164 9 2.37164C6.597 2.37164 6.31227 2.38064 5.36318 2.424C4.48527 2.46409 4.00909 2.61055 3.69164 2.73409C3.27191 2.89773 2.97164 3.09164 2.65664 3.40664C2.35804 3.69713 2.12824 4.05078 1.98409 4.44164C1.86055 4.75909 1.71409 5.23527 1.674 6.11318C1.63064 7.06227 1.62164 7.347 1.62164 9.75C1.62164 12.153 1.63064 12.4377 1.674 13.3868C1.71409 14.2647 1.86055 14.7409 1.98409 15.0584C2.12809 15.4486 2.358 15.8029 2.65664 16.0934C2.94709 16.392 3.30136 16.6219 3.69164 16.7659C4.00909 16.8895 4.48527 17.0359 5.36318 17.076C6.31227 17.1194 6.59618 17.1284 9 17.1284C11.4038 17.1284 11.6877 17.1194 12.6368 17.076C13.5147 17.0359 13.9909 16.8895 14.3084 16.7659C14.7281 16.6023 15.0284 16.4084 15.3434 16.0934C15.642 15.8029 15.8719 15.4486 16.0159 15.0584C16.1395 14.7409 16.2859 14.2647 16.326 13.3868C16.3694 12.4377 16.3784 12.153 16.3784 9.75C16.3784 7.347 16.3694 7.06227 16.326 6.11318C16.2859 5.23527 16.1395 4.75909 16.0159 4.44164C15.8523 4.02191 15.6584 3.72164 15.3434 3.40664C15.0528 3.10806 14.6992 2.87826 14.3084 2.73409C13.9909 2.61055 13.5147 2.46409 12.6368 2.424ZM7.85045 12.5245C8.49245 12.7917 9.20731 12.8278 9.87294 12.6265C10.5386 12.4252 11.1137 11.9991 11.5 11.4209C11.8864 10.8427 12.06 10.1483 11.9913 9.45636C11.9226 8.76437 11.6157 8.1177 11.1232 7.62682C10.8092 7.31303 10.4295 7.07276 10.0115 6.9233C9.59355 6.77385 9.14762 6.71893 8.70586 6.7625C8.2641 6.80608 7.83749 6.94705 7.45675 7.17529C7.07601 7.40352 6.75061 7.71334 6.50397 8.08242C6.25734 8.45151 6.09561 8.87069 6.03042 9.30979C5.96524 9.74888 5.99821 10.197 6.12699 10.6218C6.25576 11.0466 6.47712 11.4376 6.77514 11.7666C7.07315 12.0956 7.4404 12.3544 7.85045 12.5245ZM5.72891 6.47891C6.15847 6.04934 6.66844 5.70859 7.2297 5.47611C7.79095 5.24363 8.3925 5.12398 9 5.12398C9.6075 5.12398 10.209 5.24363 10.7703 5.47611C11.3316 5.70859 11.8415 6.04934 12.2711 6.47891C12.7007 6.90847 13.0414 7.41844 13.2739 7.9797C13.5064 8.54095 13.626 9.1425 13.626 9.75C13.626 10.3575 13.5064 10.959 13.2739 11.5203C13.0414 12.0816 12.7007 12.5915 12.2711 13.0211C11.4035 13.8886 10.2269 14.376 9 14.376C7.7731 14.376 6.59646 13.8886 5.72891 13.0211C4.86136 12.1535 4.37398 10.9769 4.37398 9.75C4.37398 8.5231 4.86136 7.34646 5.72891 6.47891ZM14.652 5.81291C14.7584 5.71249 14.8437 5.59174 14.9026 5.4578C14.9616 5.32385 14.993 5.17945 14.9952 5.03312C14.9973 4.8868 14.97 4.74154 14.915 4.60594C14.86 4.47033 14.7784 4.34715 14.6749 4.24367C14.5714 4.14019 14.4482 4.05853 14.3126 4.00351C14.177 3.9485 14.0317 3.92125 13.8854 3.92339C13.7391 3.92552 13.5947 3.95699 13.4607 4.01593C13.3268 4.07488 13.2061 4.1601 13.1056 4.26655C12.9103 4.47357 12.8034 4.74855 12.8076 5.03312C12.8117 5.3177 12.9266 5.58945 13.1279 5.79069C13.3291 5.99193 13.6008 6.10682 13.8854 6.11097C14.17 6.11512 14.445 6.0082 14.652 5.81291Z" fill="#2DB563"/>
</svg>
