<svg width="21" height="16" viewBox="0 0 21 16" fill="none" xmlns="http://www.w3.org/2000/svg">
<path fill-rule="evenodd" clip-rule="evenodd" d="M2.45156 4.8874C2.45156 3.15461 3.85627 1.7499 5.58906 1.7499H15.5891C17.3219 1.7499 18.7266 3.15461 18.7266 4.8874V10.8874C18.7266 12.6202 17.3219 14.0249 15.5891 14.0249H5.58906C3.85627 14.0249 2.45156 12.6202 2.45156 10.8874V4.8874ZM5.58906 0.0249023C2.90358 0.0249023 0.726562 2.20192 0.726562 4.8874V10.8874C0.726562 13.5729 2.90358 15.7499 5.58906 15.7499H15.5891C18.2745 15.7499 20.4516 13.5729 20.4516 10.8874V4.8874C20.4516 2.20192 18.2745 0.0249023 15.5891 0.0249023H5.58906ZM8.76964 4.89936C8.9998 4.76905 9.28226 4.77261 9.50905 4.90869L13.4244 7.2579C13.6455 7.39057 13.7808 7.62953 13.7808 7.88741C13.7808 8.14528 13.6455 8.38424 13.4244 8.51692L9.50905 10.8661C9.28226 11.0022 8.9998 11.0058 8.76964 10.8755C8.53949 10.7451 8.39722 10.5011 8.39722 10.2366V5.5382C8.39722 5.27371 8.53949 5.02967 8.76964 4.89936Z" fill="#2DB563"/>
</svg>
