<svg width="450" viewBox="0 0 335 260" fill="none" xmlns="http://www.w3.org/2000/svg">
<g clip-path="url(#clip0_601_1081)">
<rect width="335" height="260" rx="20" fill="#F4F5F2"/>
<path d="M298.64 274C272.152 274 251.824 254.856 251.824 228.302C251.824 198.66 273.384 185.074 291.248 185.074C300.488 185.074 305.416 186.926 308.496 190.014L311.576 188.779C304.184 161.607 280.776 136.905 246.28 125.172L278.312 98C328.208 120.849 351 164.077 351 208.54C351 246.211 332.52 274 298.64 274ZM172.36 274C145.872 274 125.544 254.856 125.544 228.302C125.544 198.66 147.104 185.074 164.968 185.074C174.208 185.074 179.136 186.926 182.216 190.014L185.296 188.779C177.904 161.607 154.496 136.905 120 125.172L152.032 98C201.928 120.849 224.72 164.077 224.72 208.54C224.72 246.211 206.24 274 172.36 274Z" fill="#D1FF96" fill-opacity="0.5"/>
<path d="M36.372 106.862V108.446H40.008V108.788C40.008 110.624 38.622 111.524 36.822 111.524C34.392 111.524 33.114 109.904 33.114 107.06C33.114 104.234 34.554 102.614 36.786 102.614C38.28 102.614 39.414 103.28 39.882 104.594L41.646 103.748C40.728 101.822 39.216 100.94 36.75 100.94C33.33 100.94 31.098 103.28 31.098 107.06C31.098 110.876 33.276 113.18 36.606 113.18C38.352 113.18 39.558 112.55 40.224 111.488L40.296 113H41.718V106.862H36.372ZM48.4794 103.82C45.6714 103.82 43.9974 105.566 43.9974 108.5C43.9974 111.434 45.6714 113.18 48.4794 113.18C51.2874 113.18 52.9614 111.434 52.9614 108.5C52.9614 105.566 51.2874 103.82 48.4794 103.82ZM48.4794 105.332C50.0994 105.332 51.0354 106.466 51.0354 108.5C51.0354 110.534 50.0994 111.668 48.4794 111.668C46.8594 111.668 45.9414 110.534 45.9414 108.5C45.9414 106.466 46.8594 105.332 48.4794 105.332ZM58.6934 113.18C61.1774 113.18 62.6174 112.046 62.6174 110.462C62.6174 108.968 61.6994 108.194 59.1254 107.726C57.4334 107.42 56.9114 107.078 56.9114 106.43C56.9114 105.872 57.6674 105.332 58.7834 105.332C59.9534 105.332 60.7274 105.782 61.1774 106.862L62.5454 105.854C61.8974 104.468 60.7634 103.82 58.7654 103.82C56.3534 103.82 54.9854 105.152 54.9854 106.61C54.9854 108.122 55.9214 108.896 58.6034 109.4C60.1694 109.706 60.6914 110.03 60.6914 110.588C60.6914 111.2 60.0434 111.668 58.7654 111.668C57.5054 111.668 56.4434 111.254 55.9754 110.174L54.6794 111.29C55.4354 112.604 56.9474 113.18 58.6934 113.18ZM70.3448 111.002C69.9488 111.362 69.4988 111.578 68.8868 111.578C68.0947 111.578 67.5728 111.182 67.5728 110.3V105.512H70.7228V104H67.5728V101.354L65.6468 101.894V104H63.9368V105.512H65.6468V110.624C65.6648 112.478 66.8528 113.18 68.4008 113.18C69.3728 113.18 70.2188 112.892 70.7948 112.406L70.3448 111.002ZM80.6377 108.23C80.6377 105.62 79.1617 103.82 76.4617 103.82C73.6537 103.82 72.0697 105.566 72.0697 108.5C72.0697 111.434 73.7437 113.18 76.5877 113.18C78.5677 113.18 79.8097 112.424 80.4577 111.092L78.8557 110.426C78.5677 111.218 77.7757 111.65 76.5877 111.65C75.1297 111.65 74.1937 110.804 73.9777 109.22H80.5657C80.6017 108.986 80.6377 108.572 80.6377 108.23ZM76.4617 105.35C77.8117 105.35 78.6577 106.232 78.8377 107.744H73.9957C74.1937 106.196 75.0397 105.35 76.4617 105.35ZM84.0226 102.488C84.8506 102.488 85.3006 102.038 85.3006 101.282C85.3006 100.526 84.8506 100.094 84.0226 100.094C83.1946 100.094 82.7266 100.526 82.7266 101.282C82.7266 102.038 83.1946 102.488 84.0226 102.488ZM84.9766 104H83.0506V113H84.9766V104ZM104.698 103.82C103.492 103.82 102.178 104.396 101.584 105.62C101.044 104.396 99.8376 103.82 98.5596 103.82C97.3896 103.82 96.2736 104.36 95.6436 105.494L95.5536 104H93.8436V113H95.7696V108.212C95.7696 106.196 97.0296 105.404 98.1096 105.404C99.1716 105.404 99.9636 105.998 99.9636 107.474V113H101.89V108.104C101.89 106.358 102.97 105.404 104.23 105.404C105.292 105.404 106.084 105.998 106.084 107.474V113H108.01V107.168C108.028 104.882 106.426 103.82 104.698 103.82ZM117.158 104V108.86C117.158 110.768 116.006 111.596 114.638 111.596C113.504 111.596 112.784 111.092 112.784 109.418V104H110.858V109.922C110.858 112.262 112.298 113.18 114.098 113.18C115.556 113.18 116.672 112.676 117.284 111.542L117.374 113H119.084V104H117.158ZM123.046 102.488C123.874 102.488 124.324 102.038 124.324 101.282C124.324 100.526 123.874 100.094 123.046 100.094C122.218 100.094 121.75 100.526 121.75 101.282C121.75 102.038 122.218 102.488 123.046 102.488ZM124 104H122.074V113H124V104ZM132.396 111.002C132 111.362 131.55 111.578 130.938 111.578C130.146 111.578 129.624 111.182 129.624 110.3V105.512H132.774V104H129.624V101.354L127.698 101.894V104H125.988V105.512H127.698V110.624C127.716 112.478 128.904 113.18 130.452 113.18C131.424 113.18 132.27 112.892 132.846 112.406L132.396 111.002ZM138.602 103.82C135.794 103.82 134.12 105.566 134.12 108.5C134.12 111.434 135.794 113.18 138.602 113.18C141.41 113.18 143.084 111.434 143.084 108.5C143.084 105.566 141.41 103.82 138.602 103.82ZM138.602 105.332C140.222 105.332 141.158 106.466 141.158 108.5C141.158 110.534 140.222 111.668 138.602 111.668C136.982 111.668 136.064 110.534 136.064 108.5C136.064 106.466 136.982 105.332 138.602 105.332ZM157.82 99.95V105.458C157.28 104.468 156.254 103.82 154.922 103.82C152.474 103.82 150.926 105.566 150.926 108.518C150.926 111.452 152.456 113.18 154.904 113.18C156.326 113.18 157.424 112.442 157.946 111.38L158.054 113H159.746V99.95H157.82ZM155.336 111.632C153.788 111.632 152.852 110.462 152.852 108.5C152.852 106.538 153.788 105.386 155.336 105.386C156.848 105.386 157.82 106.52 157.82 108.392V108.608C157.82 110.498 156.848 111.632 155.336 111.632ZM166.692 103.82C163.884 103.82 162.21 105.566 162.21 108.5C162.21 111.434 163.884 113.18 166.692 113.18C169.5 113.18 171.174 111.434 171.174 108.5C171.174 105.566 169.5 103.82 166.692 103.82ZM166.692 105.332C168.312 105.332 169.248 106.466 169.248 108.5C169.248 110.534 168.312 111.668 166.692 111.668C165.072 111.668 164.154 110.534 164.154 108.5C164.154 106.466 165.072 105.332 166.692 105.332ZM183.462 103.82C180.654 103.82 178.98 105.566 178.98 108.5C178.98 111.434 180.654 113.18 183.498 113.18C185.586 113.18 186.936 112.136 187.44 110.498L185.676 109.904C185.442 111.02 184.704 111.65 183.462 111.65C181.878 111.65 180.924 110.552 180.924 108.518C180.924 106.484 181.86 105.35 183.462 105.35C184.578 105.35 185.262 105.944 185.568 107.06L187.368 106.34C186.81 104.864 185.64 103.82 183.462 103.82ZM195.925 104V108.86C195.925 110.768 194.773 111.596 193.405 111.596C192.271 111.596 191.551 111.092 191.551 109.418V104H189.625V109.922C189.625 112.262 191.065 113.18 192.865 113.18C194.323 113.18 195.439 112.676 196.051 111.542L196.141 113H197.851V104H195.925ZM205.486 103.82C204.1 103.82 203.146 104.432 202.66 105.602L202.48 104H200.842V113H202.768V108.23C202.768 106.394 203.956 105.53 205.036 105.53C205.522 105.53 205.918 105.62 206.17 105.764L206.476 104C206.224 103.874 205.846 103.82 205.486 103.82ZM211.254 113.18C213.738 113.18 215.178 112.046 215.178 110.462C215.178 108.968 214.26 108.194 211.686 107.726C209.994 107.42 209.472 107.078 209.472 106.43C209.472 105.872 210.228 105.332 211.344 105.332C212.514 105.332 213.288 105.782 213.738 106.862L215.106 105.854C214.458 104.468 213.324 103.82 211.326 103.82C208.914 103.82 207.546 105.152 207.546 106.61C207.546 108.122 208.482 108.896 211.164 109.4C212.73 109.706 213.252 110.03 213.252 110.588C213.252 111.2 212.604 111.668 211.326 111.668C210.066 111.668 209.004 111.254 208.536 110.174L207.24 111.29C207.996 112.604 209.508 113.18 211.254 113.18ZM221.466 103.82C218.658 103.82 216.984 105.566 216.984 108.5C216.984 111.434 218.658 113.18 221.466 113.18C224.274 113.18 225.948 111.434 225.948 108.5C225.948 105.566 224.274 103.82 221.466 103.82ZM221.466 105.332C223.086 105.332 224.022 106.466 224.022 108.5C224.022 110.534 223.086 111.668 221.466 111.668C219.846 111.668 218.928 110.534 218.928 108.5C218.928 106.466 219.846 105.332 221.466 105.332ZM229.042 110.57C228.268 110.57 227.674 111.128 227.674 111.902C227.674 112.766 228.304 113.162 228.826 113.162C229.096 113.162 229.24 113.108 229.33 113.018L229.42 113.054C229.204 113.846 228.52 114.566 227.512 114.908L228.448 115.7C229.906 115.034 230.572 113.774 230.572 112.478C230.572 111.38 230.032 110.57 229.042 110.57ZM242.823 103.82C240.015 103.82 238.341 105.566 238.341 108.5C238.341 111.434 240.015 113.18 242.859 113.18C244.947 113.18 246.297 112.136 246.801 110.498L245.037 109.904C244.803 111.02 244.065 111.65 242.823 111.65C241.239 111.65 240.285 110.552 240.285 108.518C240.285 106.484 241.221 105.35 242.823 105.35C243.939 105.35 244.623 105.944 244.929 107.06L246.729 106.34C246.171 104.864 245.001 103.82 242.823 103.82ZM253.018 103.82C250.21 103.82 248.536 105.566 248.536 108.5C248.536 111.434 250.21 113.18 253.018 113.18C255.826 113.18 257.5 111.434 257.5 108.5C257.5 105.566 255.826 103.82 253.018 103.82ZM253.018 105.332C254.638 105.332 255.574 106.466 255.574 108.5C255.574 110.534 254.638 111.668 253.018 111.668C251.398 111.668 250.48 110.534 250.48 108.5C250.48 106.466 251.398 105.332 253.018 105.332ZM270.828 103.82C269.622 103.82 268.308 104.396 267.714 105.62C267.174 104.396 265.968 103.82 264.69 103.82C263.52 103.82 262.404 104.36 261.774 105.494L261.684 104H259.974V113H261.9V108.212C261.9 106.196 263.16 105.404 264.24 105.404C265.302 105.404 266.094 105.998 266.094 107.474V113H268.02V108.104C268.02 106.358 269.1 105.404 270.36 105.404C271.422 105.404 272.214 105.998 272.214 107.474V113H274.14V107.168C274.158 104.882 272.556 103.82 270.828 103.82ZM35.454 126.82C32.646 126.82 30.972 128.566 30.972 131.5C30.972 134.434 32.646 136.18 35.49 136.18C37.578 136.18 38.928 135.136 39.432 133.498L37.668 132.904C37.434 134.02 36.696 134.65 35.454 134.65C33.87 134.65 32.916 133.552 32.916 131.518C32.916 129.484 33.852 128.35 35.454 128.35C36.57 128.35 37.254 128.944 37.56 130.06L39.36 129.34C38.802 127.864 37.632 126.82 35.454 126.82ZM49.7353 131.23C49.7353 128.62 48.2593 126.82 45.5593 126.82C42.7513 126.82 41.1673 128.566 41.1673 131.5C41.1673 134.434 42.8413 136.18 45.6853 136.18C47.6653 136.18 48.9073 135.424 49.5553 134.092L47.9533 133.426C47.6653 134.218 46.8733 134.65 45.6853 134.65C44.2273 134.65 43.2913 133.804 43.0753 132.22H49.6633C49.6993 131.986 49.7353 131.572 49.7353 131.23ZM45.5593 128.35C46.9093 128.35 47.7553 129.232 47.9353 130.744H43.0933C43.2913 129.196 44.1373 128.35 45.5593 128.35ZM56.7923 126.82C55.4063 126.82 54.4523 127.432 53.9663 128.602L53.7863 127H52.1483V136H54.0743V131.23C54.0743 129.394 55.2623 128.53 56.3423 128.53C56.8283 128.53 57.2243 128.62 57.4763 128.764L57.7823 127C57.5303 126.874 57.1523 126.82 56.7923 126.82ZM64.5264 134.002C64.1304 134.362 63.6804 134.578 63.0684 134.578C62.2764 134.578 61.7544 134.182 61.7544 133.3V128.512H64.9044V127H61.7544V124.354L59.8284 124.894V127H58.1184V128.512H59.8284V133.624C59.8464 135.478 61.0344 136.18 62.5824 136.18C63.5544 136.18 64.4004 135.892 64.9764 135.406L64.5264 134.002ZM74.8193 131.23C74.8193 128.62 73.3433 126.82 70.6433 126.82C67.8353 126.82 66.2513 128.566 66.2513 131.5C66.2513 134.434 67.9253 136.18 70.7693 136.18C72.7493 136.18 73.9913 135.424 74.6393 134.092L73.0373 133.426C72.7493 134.218 71.9573 134.65 70.7693 134.65C69.3113 134.65 68.3753 133.804 68.1593 132.22H74.7473C74.7833 131.986 74.8193 131.572 74.8193 131.23ZM70.6433 128.35C71.9933 128.35 72.8393 129.232 73.0193 130.744H68.1773C68.3753 129.196 69.2213 128.35 70.6433 128.35ZM76.6563 136H84.3963V134.488H80.5083L78.7983 134.524L79.8783 133.408L84.2343 128.332V127H76.6923V128.512H80.5623L82.1103 128.476L81.0303 129.592L76.6563 134.668V136ZM94.518 134.74C94.032 134.74 93.852 134.524 93.852 134.074V130.006C93.852 127.846 92.304 126.82 90.054 126.82C88.092 126.82 86.706 127.738 86.274 129.16L87.768 129.952C88.146 128.818 88.974 128.332 90.09 128.332C91.26 128.332 91.926 129.034 91.926 130.114V130.582L89.64 130.996C87.282 131.41 86.13 132.436 86.13 133.822C86.13 135.388 87.372 136.18 89.064 136.18C90.396 136.18 91.548 135.694 92.106 134.83C92.304 135.82 92.97 136.18 93.942 136.18C94.392 136.18 94.77 136.09 95.058 135.964L95.184 134.668C94.986 134.722 94.752 134.74 94.518 134.74ZM89.478 134.722C88.632 134.722 88.128 134.362 88.128 133.696C88.128 132.976 88.74 132.562 89.964 132.328L91.926 131.932V133.012C91.926 134.092 90.684 134.722 89.478 134.722ZM108.575 122.572H106.631L105.317 125.596H106.793L108.575 122.572ZM110.573 131.23C110.573 128.62 109.097 126.82 106.397 126.82C103.589 126.82 102.005 128.566 102.005 131.5C102.005 134.434 103.679 136.18 106.523 136.18C108.503 136.18 109.745 135.424 110.393 134.092L108.791 133.426C108.503 134.218 107.711 134.65 106.523 134.65C105.065 134.65 104.129 133.804 103.913 132.22H110.501C110.537 131.986 110.573 131.572 110.573 131.23ZM106.397 128.35C107.747 128.35 108.593 129.232 108.773 130.744H103.931C104.129 129.196 104.975 128.35 106.397 128.35ZM122.8 126.82C119.992 126.82 118.318 128.566 118.318 131.5C118.318 134.434 119.992 136.18 122.8 136.18C125.608 136.18 127.282 134.434 127.282 131.5C127.282 128.566 125.608 126.82 122.8 126.82ZM122.8 128.332C124.42 128.332 125.356 129.466 125.356 131.5C125.356 133.534 124.42 134.668 122.8 134.668C121.18 134.668 120.262 133.534 120.262 131.5C120.262 129.466 121.18 128.332 122.8 128.332ZM146.463 126.82C145.257 126.82 143.943 127.396 143.349 128.62C142.809 127.396 141.603 126.82 140.325 126.82C139.155 126.82 138.039 127.36 137.409 128.494L137.319 127H135.609V136H137.535V131.212C137.535 129.196 138.795 128.404 139.875 128.404C140.937 128.404 141.729 128.998 141.729 130.474V136H143.655V131.104C143.655 129.358 144.735 128.404 145.995 128.404C147.057 128.404 147.849 128.998 147.849 130.474V136H149.775V130.168C149.793 127.882 148.191 126.82 146.463 126.82ZM160.741 131.23C160.741 128.62 159.265 126.82 156.565 126.82C153.757 126.82 152.173 128.566 152.173 131.5C152.173 134.434 153.847 136.18 156.691 136.18C158.671 136.18 159.913 135.424 160.561 134.092L158.959 133.426C158.671 134.218 157.879 134.65 156.691 134.65C155.233 134.65 154.297 133.804 154.081 132.22H160.669C160.705 131.986 160.741 131.572 160.741 131.23ZM156.565 128.35C157.915 128.35 158.761 129.232 158.941 130.744H154.099C154.297 129.196 155.143 128.35 156.565 128.35ZM165.026 122.95H163.1V133.642C163.1 135.388 163.838 136.18 165.44 136.18C165.962 136.18 166.538 136.072 166.934 135.874L167.15 134.326C166.682 134.506 166.412 134.56 165.962 134.56C165.242 134.56 165.026 134.254 165.026 133.372V122.95ZM173.604 126.82C172.344 126.82 171.282 127.324 170.688 128.44V122.95H168.762V136H170.688V131.248C170.688 129.178 171.948 128.404 173.136 128.404C174.234 128.404 175.062 128.998 175.062 130.78V136H176.988V130.168C176.988 127.918 175.512 126.82 173.604 126.82ZM183.866 126.82C181.058 126.82 179.384 128.566 179.384 131.5C179.384 134.434 181.058 136.18 183.866 136.18C186.674 136.18 188.348 134.434 188.348 131.5C188.348 128.566 186.674 126.82 183.866 126.82ZM183.866 128.332C185.486 128.332 186.422 129.466 186.422 131.5C186.422 133.534 185.486 134.668 183.866 134.668C182.246 134.668 181.328 133.534 181.328 131.5C181.328 129.466 182.246 128.332 183.866 128.332ZM195.466 126.82C194.08 126.82 193.126 127.432 192.64 128.602L192.46 127H190.822V136H192.748V131.23C192.748 129.394 193.936 128.53 195.016 128.53C195.502 128.53 195.898 128.62 196.15 128.764L196.456 127C196.204 126.874 195.826 126.82 195.466 126.82ZM210.15 122.95V128.458C209.61 127.468 208.584 126.82 207.252 126.82C204.804 126.82 203.256 128.566 203.256 131.518C203.256 134.452 204.786 136.18 207.234 136.18C208.656 136.18 209.754 135.442 210.276 134.38L210.384 136H212.076V122.95H210.15ZM207.666 134.632C206.118 134.632 205.182 133.462 205.182 131.5C205.182 129.538 206.118 128.386 207.666 128.386C209.178 128.386 210.15 129.52 210.15 131.392V131.608C210.15 133.498 209.178 134.632 207.666 134.632ZM216.034 125.488C216.862 125.488 217.312 125.038 217.312 124.282C217.312 123.526 216.862 123.094 216.034 123.094C215.206 123.094 214.738 123.526 214.738 124.282C214.738 125.038 215.206 125.488 216.034 125.488ZM216.988 127H215.062V136H216.988V127ZM223.26 136.18C225.744 136.18 227.184 135.046 227.184 133.462C227.184 131.968 226.266 131.194 223.692 130.726C222 130.42 221.478 130.078 221.478 129.43C221.478 128.872 222.234 128.332 223.35 128.332C224.52 128.332 225.294 128.782 225.744 129.862L227.112 128.854C226.464 127.468 225.33 126.82 223.332 126.82C220.92 126.82 219.552 128.152 219.552 129.61C219.552 131.122 220.488 131.896 223.17 132.4C224.736 132.706 225.258 133.03 225.258 133.588C225.258 134.2 224.61 134.668 223.332 134.668C222.072 134.668 221.01 134.254 220.542 133.174L219.246 134.29C220.002 135.604 221.514 136.18 223.26 136.18ZM234.371 126.82C232.931 126.82 231.833 127.558 231.311 128.656L231.221 127H229.529V139.78H231.455V134.542C231.995 135.532 233.021 136.18 234.353 136.18C236.801 136.18 238.349 134.434 238.349 131.482C238.349 128.548 236.819 126.82 234.371 126.82ZM233.939 134.614C232.427 134.614 231.455 133.48 231.455 131.608V131.392C231.455 129.502 232.427 128.368 233.939 128.368C235.487 128.368 236.423 129.538 236.423 131.5C236.423 133.462 235.487 134.614 233.939 134.614ZM244.809 126.82C242.001 126.82 240.327 128.566 240.327 131.5C240.327 134.434 242.001 136.18 244.809 136.18C247.617 136.18 249.291 134.434 249.291 131.5C249.291 128.566 247.617 126.82 244.809 126.82ZM244.809 128.332C246.429 128.332 247.365 129.466 247.365 131.5C247.365 133.534 246.429 134.668 244.809 134.668C243.189 134.668 242.271 133.534 242.271 131.5C242.271 129.466 243.189 128.332 244.809 128.332ZM256.607 126.82C255.311 126.82 254.177 127.324 253.565 128.512L253.475 127H251.765V136H253.691V131.23C253.691 129.16 254.951 128.404 256.139 128.404C257.237 128.404 258.065 128.998 258.065 130.78V136H259.991V130.168C259.991 127.918 258.515 126.82 256.607 126.82ZM264.314 122.572L263 125.596H264.476L266.258 122.572H264.314ZM264.836 127H262.91V136H264.836V127ZM273.771 127L271.161 134.434L268.623 127H266.499L270.099 136H272.205L275.787 127H273.771ZM285.423 131.23C285.423 128.62 283.947 126.82 281.247 126.82C278.439 126.82 276.855 128.566 276.855 131.5C276.855 134.434 278.529 136.18 281.373 136.18C283.353 136.18 284.595 135.424 285.243 134.092L283.641 133.426C283.353 134.218 282.561 134.65 281.373 134.65C279.915 134.65 278.979 133.804 278.763 132.22H285.351C285.387 131.986 285.423 131.572 285.423 131.23ZM281.247 128.35C282.597 128.35 283.443 129.232 283.623 130.744H278.781C278.979 129.196 279.825 128.35 281.247 128.35ZM289.708 122.95H287.782V133.642C287.782 135.388 288.52 136.18 290.122 136.18C290.644 136.18 291.22 136.072 291.616 135.874L291.832 134.326C291.364 134.506 291.094 134.56 290.644 134.56C289.924 134.56 289.708 134.254 289.708 133.372V122.95ZM294.521 133.57C293.693 133.57 293.153 134.074 293.153 134.866C293.153 135.658 293.693 136.18 294.521 136.18C295.349 136.18 295.871 135.658 295.871 134.866C295.871 134.074 295.349 133.57 294.521 133.57ZM43.914 147.12H41.106L38.73 153.996L37.884 156.822H37.848L37.02 153.996L34.626 147.12H31.764V159H33.546V152.124L33.402 148.848H33.42L37.038 159H38.64L42.258 148.848H42.276L42.15 152.124V159H43.914V147.12ZM55.0966 154.23C55.0966 151.62 53.6206 149.82 50.9206 149.82C48.1126 149.82 46.5286 151.566 46.5286 154.5C46.5286 157.434 48.2026 159.18 51.0466 159.18C53.0266 159.18 54.2686 158.424 54.9166 157.092L53.3146 156.426C53.0266 157.218 52.2346 157.65 51.0466 157.65C49.5886 157.65 48.6526 156.804 48.4366 155.22H55.0246C55.0606 154.986 55.0966 154.572 55.0966 154.23ZM50.9206 151.35C52.2706 151.35 53.1166 152.232 53.2966 153.744H48.4546C48.6526 152.196 49.4986 151.35 50.9206 151.35ZM66.6211 159.18C69.1051 159.18 70.5451 158.046 70.5451 156.462C70.5451 154.968 69.6271 154.194 67.0531 153.726C65.3611 153.42 64.8391 153.078 64.8391 152.43C64.8391 151.872 65.5951 151.332 66.7111 151.332C67.8811 151.332 68.6551 151.782 69.1051 152.862L70.4731 151.854C69.8251 150.468 68.6911 149.82 66.6931 149.82C64.2811 149.82 62.9131 151.152 62.9131 152.61C62.9131 154.122 63.8491 154.896 66.5311 155.4C68.0971 155.706 68.6191 156.03 68.6191 156.588C68.6191 157.2 67.9711 157.668 66.6931 157.668C65.4331 157.668 64.3711 157.254 63.9031 156.174L62.6071 157.29C63.3631 158.604 64.8751 159.18 66.6211 159.18ZM79.1185 150V154.86C79.1185 156.768 77.9665 157.596 76.5985 157.596C75.4645 157.596 74.7445 157.092 74.7445 155.418V150H72.8185V155.922C72.8185 158.262 74.2585 159.18 76.0585 159.18C77.5165 159.18 78.6325 158.676 79.2445 157.542L79.3345 159H81.0445V150H79.1185ZM88.679 149.82C87.293 149.82 86.339 150.432 85.853 151.602L85.673 150H84.035V159H85.961V154.23C85.961 152.394 87.149 151.53 88.229 151.53C88.715 151.53 89.111 151.62 89.363 151.764L89.669 150C89.417 149.874 89.039 149.82 88.679 149.82ZM96.3301 149.82C94.8901 149.82 93.7921 150.558 93.2701 151.656L93.1801 150H91.4881V162.78H93.4141V157.542C93.9541 158.532 94.9801 159.18 96.3121 159.18C98.7601 159.18 100.308 157.434 100.308 154.482C100.308 151.548 98.7781 149.82 96.3301 149.82ZM95.8981 157.614C94.3861 157.614 93.4141 156.48 93.4141 154.608V154.392C93.4141 152.502 94.3861 151.368 95.8981 151.368C97.4461 151.368 98.3821 152.538 98.3821 154.5C98.3821 156.462 97.4461 157.614 95.8981 157.614ZM107.452 149.82C106.066 149.82 105.112 150.432 104.626 151.602L104.446 150H102.808V159H104.734V154.23C104.734 152.394 105.922 151.53 107.002 151.53C107.488 151.53 107.884 151.62 108.136 151.764L108.442 150C108.19 149.874 107.812 149.82 107.452 149.82ZM118.079 154.23C118.079 151.62 116.603 149.82 113.903 149.82C111.095 149.82 109.511 151.566 109.511 154.5C109.511 157.434 111.185 159.18 114.029 159.18C116.009 159.18 117.251 158.424 117.899 157.092L116.297 156.426C116.009 157.218 115.217 157.65 114.029 157.65C112.571 157.65 111.635 156.804 111.419 155.22H118.007C118.043 154.986 118.079 154.572 118.079 154.23ZM113.903 151.35C115.253 151.35 116.099 152.232 116.279 153.744H111.437C111.635 152.196 112.481 151.35 113.903 151.35ZM128.538 154.23C128.538 151.62 127.062 149.82 124.362 149.82C121.554 149.82 119.97 151.566 119.97 154.5C119.97 157.434 121.644 159.18 124.488 159.18C126.468 159.18 127.71 158.424 128.358 157.092L126.756 156.426C126.468 157.218 125.676 157.65 124.488 157.65C123.03 157.65 122.094 156.804 121.878 155.22H128.466C128.502 154.986 128.538 154.572 128.538 154.23ZM124.362 151.35C125.712 151.35 126.558 152.232 126.738 153.744H121.896C122.094 152.196 122.94 151.35 124.362 151.35ZM135.793 149.82C134.497 149.82 133.363 150.324 132.751 151.512L132.661 150H130.951V159H132.877V154.23C132.877 152.16 134.137 151.404 135.325 151.404C136.423 151.404 137.251 151.998 137.251 153.78V159H139.177V153.168C139.177 150.918 137.701 149.82 135.793 149.82ZM148.504 145.95V151.458C147.964 150.468 146.938 149.82 145.606 149.82C143.158 149.82 141.61 151.566 141.61 154.518C141.61 157.452 143.14 159.18 145.588 159.18C147.01 159.18 148.108 158.442 148.63 157.38L148.738 159H150.43V145.95H148.504ZM146.02 157.632C144.472 157.632 143.536 156.462 143.536 154.5C143.536 152.538 144.472 151.386 146.02 151.386C147.532 151.386 148.504 152.52 148.504 154.392V154.608C148.504 156.498 147.532 157.632 146.02 157.632ZM161.462 154.23C161.462 151.62 159.986 149.82 157.286 149.82C154.478 149.82 152.894 151.566 152.894 154.5C152.894 157.434 154.568 159.18 157.412 159.18C159.392 159.18 160.634 158.424 161.282 157.092L159.68 156.426C159.392 157.218 158.6 157.65 157.412 157.65C155.954 157.65 155.018 156.804 154.802 155.22H161.39C161.426 154.986 161.462 154.572 161.462 154.23ZM157.286 151.35C158.636 151.35 159.482 152.232 159.662 153.744H154.82C155.018 152.196 155.864 151.35 157.286 151.35ZM168.519 149.82C167.133 149.82 166.179 150.432 165.693 151.602L165.513 150H163.875V159H165.801V154.23C165.801 152.394 166.989 151.53 168.069 151.53C168.555 151.53 168.951 151.62 169.203 151.764L169.509 150C169.257 149.874 168.879 149.82 168.519 149.82ZM178.911 157.74C178.425 157.74 178.245 157.524 178.245 157.074V153.006C178.245 150.846 176.697 149.82 174.447 149.82C172.485 149.82 171.099 150.738 170.667 152.16L172.161 152.952C172.539 151.818 173.367 151.332 174.483 151.332C175.653 151.332 176.319 152.034 176.319 153.114V153.582L174.033 153.996C171.675 154.41 170.523 155.436 170.523 156.822C170.523 158.388 171.765 159.18 173.457 159.18C174.789 159.18 175.941 158.694 176.499 157.83C176.697 158.82 177.363 159.18 178.335 159.18C178.785 159.18 179.163 159.09 179.451 158.964L179.577 157.668C179.379 157.722 179.145 157.74 178.911 157.74ZM173.871 157.722C173.025 157.722 172.521 157.362 172.521 156.696C172.521 155.976 173.133 155.562 174.357 155.328L176.319 154.932V156.012C176.319 157.092 175.077 157.722 173.871 157.722ZM192.254 149.82C191.048 149.82 189.734 150.396 189.14 151.62C188.6 150.396 187.394 149.82 186.116 149.82C184.946 149.82 183.83 150.36 183.2 151.494L183.11 150H181.4V159H183.326V154.212C183.326 152.196 184.586 151.404 185.666 151.404C186.728 151.404 187.52 151.998 187.52 153.474V159H189.446V154.104C189.446 152.358 190.526 151.404 191.786 151.404C192.848 151.404 193.64 151.998 193.64 153.474V159H195.566V153.168C195.584 150.882 193.982 149.82 192.254 149.82ZM199.458 156.57C198.63 156.57 198.09 157.074 198.09 157.866C198.09 158.658 198.63 159.18 199.458 159.18C200.286 159.18 200.808 158.658 200.808 157.866C200.808 157.074 200.286 156.57 199.458 156.57Z" fill="black"/>
</g>
<defs>
<clipPath id="clip0_601_1081">
<rect width="335" height="260" rx="20" fill="white"/>
</clipPath>
</defs>
</svg>
