<svg width="450" viewBox="0 0 335 260" fill="none" xmlns="http://www.w3.org/2000/svg">
<g clip-path="url(#clip0_601_1223)">
<rect width="335" height="260" rx="20" fill="#F4F5F2"/>
<path d="M298.64 274C272.152 274 251.824 254.856 251.824 228.302C251.824 198.66 273.384 185.074 291.248 185.074C300.488 185.074 305.416 186.926 308.496 190.014L311.576 188.779C304.184 161.607 280.776 136.905 246.28 125.172L278.312 98C328.208 120.849 351 164.077 351 208.54C351 246.211 332.52 274 298.64 274ZM172.36 274C145.872 274 125.544 254.856 125.544 228.302C125.544 198.66 147.104 185.074 164.968 185.074C174.208 185.074 179.136 186.926 182.216 190.014L185.296 188.779C177.904 161.607 154.496 136.905 120 125.172L152.032 98C201.928 120.849 224.72 164.077 224.72 208.54C224.72 246.211 206.24 274 172.36 274Z" fill="#D1FF96" fill-opacity="0.5"/>
<path d="M84.61 117.85L82.774 117.238C82.324 118.75 81.226 119.506 79.714 119.506C77.464 119.506 76.114 117.868 76.114 115.06C76.114 112.234 77.572 110.614 79.786 110.614C81.262 110.614 82.144 111.262 82.612 112.666L84.43 111.856C83.71 109.93 82.036 108.94 79.678 108.94C76.276 108.94 74.098 111.28 74.098 115.06C74.098 118.84 76.258 121.18 79.696 121.18C82.018 121.18 83.872 120.028 84.61 117.85ZM93.0267 112V116.86C93.0267 118.768 91.8747 119.596 90.5067 119.596C89.3727 119.596 88.6527 119.092 88.6527 117.418V112H86.7267V117.922C86.7267 120.262 88.1667 121.18 89.9667 121.18C91.4247 121.18 92.5407 120.676 93.1527 119.542L93.2427 121H94.9527V112H93.0267ZM102.587 111.82C101.201 111.82 100.247 112.432 99.7612 113.602L99.5812 112H97.9432V121H99.8692V116.23C99.8692 114.394 101.057 113.53 102.137 113.53C102.623 113.53 103.019 113.62 103.271 113.764L103.577 112C103.325 111.874 102.947 111.82 102.587 111.82ZM108.356 121.18C110.84 121.18 112.28 120.046 112.28 118.462C112.28 116.968 111.362 116.194 108.788 115.726C107.096 115.42 106.574 115.078 106.574 114.43C106.574 113.872 107.33 113.332 108.446 113.332C109.616 113.332 110.39 113.782 110.84 114.862L112.208 113.854C111.56 112.468 110.426 111.82 108.428 111.82C106.016 111.82 104.648 113.152 104.648 114.61C104.648 116.122 105.584 116.896 108.266 117.4C109.832 117.706 110.354 118.03 110.354 118.588C110.354 119.2 109.706 119.668 108.428 119.668C107.168 119.668 106.106 119.254 105.638 118.174L104.342 119.29C105.098 120.604 106.61 121.18 108.356 121.18ZM118.567 111.82C115.759 111.82 114.085 113.566 114.085 116.5C114.085 119.434 115.759 121.18 118.567 121.18C121.375 121.18 123.049 119.434 123.049 116.5C123.049 113.566 121.375 111.82 118.567 111.82ZM118.567 113.332C120.187 113.332 121.123 114.466 121.123 116.5C121.123 118.534 120.187 119.668 118.567 119.668C116.947 119.668 116.029 118.534 116.029 116.5C116.029 114.466 116.947 113.332 118.567 113.332ZM142.231 111.82C141.025 111.82 139.711 112.396 139.117 113.62C138.577 112.396 137.371 111.82 136.093 111.82C134.923 111.82 133.807 112.36 133.177 113.494L133.087 112H131.377V121H133.303V116.212C133.303 114.196 134.563 113.404 135.643 113.404C136.705 113.404 137.497 113.998 137.497 115.474V121H139.423V116.104C139.423 114.358 140.503 113.404 141.763 113.404C142.825 113.404 143.617 113.998 143.617 115.474V121H145.543V115.168C145.561 112.882 143.959 111.82 142.231 111.82ZM156.239 119.74C155.753 119.74 155.573 119.524 155.573 119.074V115.006C155.573 112.846 154.025 111.82 151.775 111.82C149.813 111.82 148.427 112.738 147.995 114.16L149.489 114.952C149.867 113.818 150.695 113.332 151.811 113.332C152.981 113.332 153.647 114.034 153.647 115.114V115.582L151.361 115.996C149.003 116.41 147.851 117.436 147.851 118.822C147.851 120.388 149.093 121.18 150.785 121.18C152.117 121.18 153.269 120.694 153.827 119.83C154.025 120.82 154.691 121.18 155.663 121.18C156.113 121.18 156.491 121.09 156.779 120.964L156.905 119.668C156.707 119.722 156.473 119.74 156.239 119.74ZM151.199 119.722C150.353 119.722 149.849 119.362 149.849 118.696C149.849 117.976 150.461 117.562 151.685 117.328L153.647 116.932V118.012C153.647 119.092 152.405 119.722 151.199 119.722ZM163.372 111.82C161.986 111.82 161.032 112.432 160.546 113.602L160.366 112H158.728V121H160.654V116.23C160.654 114.394 161.842 113.53 162.922 113.53C163.408 113.53 163.804 113.62 164.056 113.764L164.362 112C164.11 111.874 163.732 111.82 163.372 111.82ZM173.764 119.74C173.278 119.74 173.098 119.524 173.098 119.074V115.006C173.098 112.846 171.55 111.82 169.3 111.82C167.338 111.82 165.952 112.738 165.52 114.16L167.014 114.952C167.392 113.818 168.22 113.332 169.336 113.332C170.506 113.332 171.172 114.034 171.172 115.114V115.582L168.886 115.996C166.528 116.41 165.376 117.436 165.376 118.822C165.376 120.388 166.618 121.18 168.31 121.18C169.642 121.18 170.794 120.694 171.352 119.83C171.55 120.82 172.216 121.18 173.188 121.18C173.638 121.18 174.016 121.09 174.304 120.964L174.43 119.668C174.232 119.722 173.998 119.74 173.764 119.74ZM168.724 119.722C167.878 119.722 167.374 119.362 167.374 118.696C167.374 117.976 167.986 117.562 169.21 117.328L171.172 116.932V118.012C171.172 119.092 169.93 119.722 168.724 119.722ZM181.859 112L179.249 119.434L176.711 112H174.587L178.187 121H180.293L183.875 112H181.859ZM186.489 110.488C187.317 110.488 187.767 110.038 187.767 109.282C187.767 108.526 187.317 108.094 186.489 108.094C185.661 108.094 185.193 108.526 185.193 109.282C185.193 110.038 185.661 110.488 186.489 110.488ZM187.443 112H185.517V121H187.443V112ZM192.329 107.95H190.403V118.642C190.403 120.388 191.141 121.18 192.743 121.18C193.265 121.18 193.841 121.072 194.237 120.874L194.453 119.326C193.985 119.506 193.715 119.56 193.265 119.56C192.545 119.56 192.329 119.254 192.329 118.372V107.95ZM200.906 111.82C199.646 111.82 198.584 112.324 197.99 113.44V107.95H196.064V121H197.99V116.248C197.99 114.178 199.25 113.404 200.438 113.404C201.536 113.404 202.364 113.998 202.364 115.78V121H204.29V115.168C204.29 112.918 202.814 111.82 200.906 111.82ZM211.169 111.82C208.361 111.82 206.687 113.566 206.687 116.5C206.687 119.434 208.361 121.18 211.169 121.18C213.977 121.18 215.651 119.434 215.651 116.5C215.651 113.566 213.977 111.82 211.169 111.82ZM211.169 113.332C212.789 113.332 213.725 114.466 213.725 116.5C213.725 118.534 212.789 119.668 211.169 119.668C209.549 119.668 208.631 118.534 208.631 116.5C208.631 114.466 209.549 113.332 211.169 113.332ZM221.383 121.18C223.867 121.18 225.307 120.046 225.307 118.462C225.307 116.968 224.389 116.194 221.815 115.726C220.123 115.42 219.601 115.078 219.601 114.43C219.601 113.872 220.357 113.332 221.473 113.332C222.643 113.332 223.417 113.782 223.867 114.862L225.235 113.854C224.587 112.468 223.453 111.82 221.455 111.82C219.043 111.82 217.675 113.152 217.675 114.61C217.675 116.122 218.611 116.896 221.293 117.4C222.859 117.706 223.381 118.03 223.381 118.588C223.381 119.2 222.733 119.668 221.455 119.668C220.195 119.668 219.133 119.254 218.665 118.174L217.369 119.29C218.125 120.604 219.637 121.18 221.383 121.18ZM231.595 111.82C228.787 111.82 227.113 113.566 227.113 116.5C227.113 119.434 228.787 121.18 231.595 121.18C234.403 121.18 236.077 119.434 236.077 116.5C236.077 113.566 234.403 111.82 231.595 111.82ZM231.595 113.332C233.215 113.332 234.151 114.466 234.151 116.5C234.151 118.534 233.215 119.668 231.595 119.668C229.975 119.668 229.057 118.534 229.057 116.5C229.057 114.466 229.975 113.332 231.595 113.332ZM239.189 118.57C238.361 118.57 237.821 119.074 237.821 119.866C237.821 120.658 238.361 121.18 239.189 121.18C240.017 121.18 240.539 120.658 240.539 119.866C240.539 119.074 240.017 118.57 239.189 118.57ZM82.594 144H84.628L80.146 132.12H77.842L73.36 144H75.34L76.474 140.886H81.478L82.594 144ZM77.032 139.32L78.436 135.468L78.94 133.794H78.994L79.534 135.504L80.902 139.32H77.032ZM91.3067 134.82C89.8667 134.82 88.7687 135.558 88.2467 136.656L88.1567 135H86.4647V147.78H88.3907V142.542C88.9307 143.532 89.9567 144.18 91.2887 144.18C93.7367 144.18 95.2847 142.434 95.2847 139.482C95.2847 136.548 93.7547 134.82 91.3067 134.82ZM90.8747 142.614C89.3627 142.614 88.3907 141.48 88.3907 139.608V139.392C88.3907 137.502 89.3627 136.368 90.8747 136.368C92.4227 136.368 93.3587 137.538 93.3587 139.5C93.3587 141.462 92.4227 142.614 90.8747 142.614ZM102.429 134.82C101.043 134.82 100.089 135.432 99.603 136.602L99.423 135H97.785V144H99.711V139.23C99.711 137.394 100.899 136.53 101.979 136.53C102.465 136.53 102.861 136.62 103.113 136.764L103.419 135C103.167 134.874 102.789 134.82 102.429 134.82ZM113.056 139.23C113.056 136.62 111.58 134.82 108.88 134.82C106.072 134.82 104.488 136.566 104.488 139.5C104.488 142.434 106.162 144.18 109.006 144.18C110.986 144.18 112.228 143.424 112.876 142.092L111.274 141.426C110.986 142.218 110.194 142.65 109.006 142.65C107.548 142.65 106.612 141.804 106.396 140.22H112.984C113.02 139.986 113.056 139.572 113.056 139.23ZM108.88 136.35C110.23 136.35 111.076 137.232 111.256 138.744H106.414C106.612 137.196 107.458 136.35 108.88 136.35ZM120.311 134.82C119.015 134.82 117.881 135.324 117.269 136.512L117.179 135H115.469V144H117.395V139.23C117.395 137.16 118.655 136.404 119.843 136.404C120.941 136.404 121.769 136.998 121.769 138.78V144H123.695V138.168C123.695 135.918 122.219 134.82 120.311 134.82ZM133.021 130.95V136.458C132.481 135.468 131.455 134.82 130.123 134.82C127.675 134.82 126.127 136.566 126.127 139.518C126.127 142.452 127.657 144.18 130.105 144.18C131.527 144.18 132.625 143.442 133.147 142.38L133.255 144H134.947V130.95H133.021ZM130.537 142.632C128.989 142.632 128.053 141.462 128.053 139.5C128.053 137.538 128.989 136.386 130.537 136.386C132.049 136.386 133.021 137.52 133.021 139.392V139.608C133.021 141.498 132.049 142.632 130.537 142.632ZM138.905 133.488C139.733 133.488 140.183 133.038 140.183 132.282C140.183 131.526 139.733 131.094 138.905 131.094C138.077 131.094 137.609 131.526 137.609 132.282C137.609 133.038 138.077 133.488 138.905 133.488ZM139.859 135H137.933V144H139.859V135ZM159.58 134.82C158.374 134.82 157.06 135.396 156.466 136.62C155.926 135.396 154.72 134.82 153.442 134.82C152.272 134.82 151.156 135.36 150.526 136.494L150.436 135H148.726V144H150.652V139.212C150.652 137.196 151.912 136.404 152.992 136.404C154.054 136.404 154.846 136.998 154.846 138.474V144H156.772V139.104C156.772 137.358 157.852 136.404 159.112 136.404C160.174 136.404 160.966 136.998 160.966 138.474V144H162.892V138.168C162.91 135.882 161.308 134.82 159.58 134.82ZM172.04 135V139.86C172.04 141.768 170.888 142.596 169.52 142.596C168.386 142.596 167.666 142.092 167.666 140.418V135H165.74V140.922C165.74 143.262 167.18 144.18 168.98 144.18C170.438 144.18 171.554 143.676 172.166 142.542L172.256 144H173.966V135H172.04ZM177.929 133.488C178.757 133.488 179.207 133.038 179.207 132.282C179.207 131.526 178.757 131.094 177.929 131.094C177.101 131.094 176.633 131.526 176.633 132.282C176.633 133.038 177.101 133.488 177.929 133.488ZM178.883 135H176.957V144H178.883V135ZM187.278 142.002C186.882 142.362 186.432 142.578 185.82 142.578C185.028 142.578 184.506 142.182 184.506 141.3V136.512H187.656V135H184.506V132.354L182.58 132.894V135H180.87V136.512H182.58V141.624C182.598 143.478 183.786 144.18 185.334 144.18C186.306 144.18 187.152 143.892 187.728 143.406L187.278 142.002ZM193.485 134.82C190.677 134.82 189.003 136.566 189.003 139.5C189.003 142.434 190.677 144.18 193.485 144.18C196.293 144.18 197.967 142.434 197.967 139.5C197.967 136.566 196.293 134.82 193.485 134.82ZM193.485 136.332C195.105 136.332 196.041 137.466 196.041 139.5C196.041 141.534 195.105 142.668 193.485 142.668C191.865 142.668 190.947 141.534 190.947 139.5C190.947 137.466 191.865 136.332 193.485 136.332ZM210.255 134.82C207.447 134.82 205.773 136.566 205.773 139.5C205.773 142.434 207.447 144.18 210.291 144.18C212.379 144.18 213.729 143.136 214.233 141.498L212.469 140.904C212.235 142.02 211.497 142.65 210.255 142.65C208.671 142.65 207.717 141.552 207.717 139.518C207.717 137.484 208.653 136.35 210.255 136.35C211.371 136.35 212.055 136.944 212.361 138.06L214.161 137.34C213.603 135.864 212.433 134.82 210.255 134.82ZM220.45 134.82C217.642 134.82 215.968 136.566 215.968 139.5C215.968 142.434 217.642 144.18 220.45 144.18C223.258 144.18 224.932 142.434 224.932 139.5C224.932 136.566 223.258 134.82 220.45 134.82ZM220.45 136.332C222.07 136.332 223.006 137.466 223.006 139.5C223.006 141.534 222.07 142.668 220.45 142.668C218.83 142.668 217.912 141.534 217.912 139.5C217.912 137.466 218.83 136.332 220.45 136.332ZM228.378 133.488C229.206 133.488 229.656 133.038 229.656 132.282C229.656 131.526 229.206 131.094 228.378 131.094C227.55 131.094 227.082 131.526 227.082 132.282C227.082 133.038 227.55 133.488 228.378 133.488ZM229.332 135H227.406V144H229.332V135ZM235.604 144.18C238.088 144.18 239.528 143.046 239.528 141.462C239.528 139.968 238.61 139.194 236.036 138.726C234.344 138.42 233.822 138.078 233.822 137.43C233.822 136.872 234.578 136.332 235.694 136.332C236.864 136.332 237.638 136.782 238.088 137.862L239.456 136.854C238.808 135.468 237.674 134.82 235.676 134.82C233.264 134.82 231.896 136.152 231.896 137.61C231.896 139.122 232.832 139.896 235.514 140.4C237.08 140.706 237.602 141.03 237.602 141.588C237.602 142.2 236.954 142.668 235.676 142.668C234.416 142.668 233.354 142.254 232.886 141.174L231.59 142.29C232.346 143.604 233.858 144.18 235.604 144.18ZM249.649 142.74C249.163 142.74 248.983 142.524 248.983 142.074V138.006C248.983 135.846 247.435 134.82 245.185 134.82C243.223 134.82 241.837 135.738 241.405 137.16L242.899 137.952C243.277 136.818 244.105 136.332 245.221 136.332C246.391 136.332 247.057 137.034 247.057 138.114V138.582L244.771 138.996C242.413 139.41 241.261 140.436 241.261 141.822C241.261 143.388 242.503 144.18 244.195 144.18C245.527 144.18 246.679 143.694 247.237 142.83C247.435 143.82 248.101 144.18 249.073 144.18C249.523 144.18 249.901 144.09 250.189 143.964L250.315 142.668C250.117 142.722 249.883 142.74 249.649 142.74ZM244.609 142.722C243.763 142.722 243.259 142.362 243.259 141.696C243.259 140.976 243.871 140.562 245.095 140.328L247.057 139.932V141.012C247.057 142.092 245.815 142.722 244.609 142.722ZM253.198 141.57C252.37 141.57 251.83 142.074 251.83 142.866C251.83 143.658 252.37 144.18 253.198 144.18C254.026 144.18 254.548 143.658 254.548 142.866C254.548 142.074 254.026 141.57 253.198 141.57Z" fill="black"/>
</g>
<defs>
<clipPath id="clip0_601_1223">
<rect width="335" height="260" rx="20" fill="white"/>
</clipPath>
</defs>
</svg>
