<svg width="450" viewBox="0 0 335 260" fill="none" xmlns="http://www.w3.org/2000/svg">
<g clip-path="url(#clip0_601_1208)">
<rect width="335" height="260" rx="20" fill="#F4F5F2"/>
<path d="M298.64 274C272.152 274 251.824 254.856 251.824 228.302C251.824 198.66 273.384 185.074 291.248 185.074C300.488 185.074 305.416 186.926 308.496 190.014L311.576 188.779C304.184 161.607 280.776 136.905 246.28 125.172L278.312 98C328.208 120.849 351 164.077 351 208.54C351 246.211 332.52 274 298.64 274ZM172.36 274C145.872 274 125.544 254.856 125.544 228.302C125.544 198.66 147.104 185.074 164.968 185.074C174.208 185.074 179.136 186.926 182.216 190.014L185.296 188.779C177.904 161.607 154.496 136.905 120 125.172L152.032 98C201.928 120.849 224.72 164.077 224.72 208.54C224.72 246.211 206.24 274 172.36 274Z" fill="#D1FF96" fill-opacity="0.5"/>
<path d="M33.28 41.44H31.568V52H33.28V41.44ZM40.4133 43.84C39.2613 43.84 38.2533 44.288 37.7093 45.344L37.6293 44H36.1093V52H37.8213V47.76C37.8213 45.92 38.9413 45.248 39.9973 45.248C40.9733 45.248 41.7093 45.776 41.7093 47.36V52H43.4213V46.816C43.4213 44.816 42.1093 43.84 40.4133 43.84ZM51.0764 44L48.7564 50.608L46.5004 44H44.6124L47.8124 52H49.6844L52.8684 44H51.0764ZM61.4331 47.76C61.4331 45.44 60.1211 43.84 57.7211 43.84C55.2251 43.84 53.8171 45.392 53.8171 48C53.8171 50.608 55.3051 52.16 57.8331 52.16C59.5931 52.16 60.6971 51.488 61.2731 50.304L59.8491 49.712C59.5931 50.416 58.8891 50.8 57.8331 50.8C56.5371 50.8 55.7051 50.048 55.5131 48.64H61.3691C61.4011 48.432 61.4331 48.064 61.4331 47.76ZM57.7211 45.2C58.9211 45.2 59.6731 45.984 59.8331 47.328H55.5291C55.7051 45.952 56.4571 45.2 57.7211 45.2ZM66.474 52.16C68.682 52.16 69.962 51.152 69.962 49.744C69.962 48.416 69.146 47.728 66.858 47.312C65.354 47.04 64.89 46.736 64.89 46.16C64.89 45.664 65.562 45.184 66.554 45.184C67.594 45.184 68.282 45.584 68.682 46.544L69.898 45.648C69.322 44.416 68.314 43.84 66.538 43.84C64.394 43.84 63.178 45.024 63.178 46.32C63.178 47.664 64.01 48.352 66.394 48.8C67.786 49.072 68.25 49.36 68.25 49.856C68.25 50.4 67.674 50.816 66.538 50.816C65.418 50.816 64.474 50.448 64.058 49.488L62.906 50.48C63.578 51.648 64.922 52.16 66.474 52.16ZM76.8308 50.224C76.4788 50.544 76.0788 50.736 75.5348 50.736C74.8307 50.736 74.3668 50.384 74.3668 49.6V45.344H77.1668V44H74.3668V41.648L72.6548 42.128V44H71.1348V45.344H72.6548V49.888C72.6708 51.536 73.7268 52.16 75.1028 52.16C75.9668 52.16 76.7188 51.904 77.2308 51.472L76.8308 50.224ZM79.692 42.656C80.428 42.656 80.828 42.256 80.828 41.584C80.828 40.912 80.428 40.528 79.692 40.528C78.956 40.528 78.54 40.912 78.54 41.584C78.54 42.256 78.956 42.656 79.692 42.656ZM80.54 44H78.828V52H80.54V44ZM92.8666 43.84C91.7946 43.84 90.6266 44.352 90.0986 45.44C89.6186 44.352 88.5466 43.84 87.4106 43.84C86.3706 43.84 85.3786 44.32 84.8186 45.328L84.7386 44H83.2186V52H84.9306V47.744C84.9306 45.952 86.0506 45.248 87.0106 45.248C87.9546 45.248 88.6586 45.776 88.6586 47.088V52H90.3706V47.648C90.3706 46.096 91.3306 45.248 92.4506 45.248C93.3946 45.248 94.0986 45.776 94.0986 47.088V52H95.8106V46.816C95.8266 44.784 94.4026 43.84 92.8666 43.84ZM105.558 47.76C105.558 45.44 104.246 43.84 101.846 43.84C99.3501 43.84 97.9421 45.392 97.9421 48C97.9421 50.608 99.4301 52.16 101.958 52.16C103.718 52.16 104.822 51.488 105.398 50.304L103.974 49.712C103.718 50.416 103.014 50.8 101.958 50.8C100.662 50.8 99.8301 50.048 99.6381 48.64H105.494C105.526 48.432 105.558 48.064 105.558 47.76ZM101.846 45.2C103.046 45.2 103.798 45.984 103.958 47.328H99.6541C99.8301 45.952 100.582 45.2 101.846 45.2ZM112.007 43.84C110.855 43.84 109.847 44.288 109.303 45.344L109.223 44H107.703V52H109.415V47.76C109.415 45.92 110.535 45.248 111.591 45.248C112.567 45.248 113.303 45.776 113.303 47.36V52H115.015V46.816C115.015 44.816 113.703 43.84 112.007 43.84ZM122.3 50.224C121.948 50.544 121.548 50.736 121.004 50.736C120.299 50.736 119.836 50.384 119.836 49.6V45.344H122.636V44H119.836V41.648L118.124 42.128V44H116.604V45.344H118.124V49.888C118.14 51.536 119.196 52.16 120.572 52.16C121.436 52.16 122.188 51.904 122.7 51.472L122.3 50.224ZM127.817 43.84C125.321 43.84 123.833 45.392 123.833 48C123.833 50.608 125.321 52.16 127.817 52.16C130.313 52.16 131.801 50.608 131.801 48C131.801 45.392 130.313 43.84 127.817 43.84ZM127.817 45.184C129.257 45.184 130.089 46.192 130.089 48C130.089 49.808 129.257 50.816 127.817 50.816C126.377 50.816 125.561 49.808 125.561 48C125.561 46.192 126.377 45.184 127.817 45.184ZM145.123 44L145.043 45.472C144.579 44.496 143.603 43.84 142.323 43.84C140.147 43.84 138.787 45.376 138.787 47.984C138.787 50.608 140.163 52.16 142.339 52.16C143.523 52.16 144.435 51.584 144.915 50.704V55.36H146.627V44H145.123ZM142.707 50.768C141.331 50.768 140.499 49.744 140.499 48C140.499 46.256 141.331 45.216 142.707 45.216C144.051 45.216 144.915 46.224 144.915 47.904V48.096C144.915 49.76 144.051 50.768 142.707 50.768ZM154.817 44V48.32C154.817 50.016 153.793 50.752 152.577 50.752C151.569 50.752 150.929 50.304 150.929 48.816V44H149.217V49.264C149.217 51.344 150.497 52.16 152.097 52.16C153.393 52.16 154.385 51.712 154.929 50.704L155.009 52H156.529V44H154.817ZM166.339 47.76C166.339 45.44 165.027 43.84 162.627 43.84C160.131 43.84 158.723 45.392 158.723 48C158.723 50.608 160.211 52.16 162.739 52.16C164.499 52.16 165.603 51.488 166.179 50.304L164.755 49.712C164.499 50.416 163.795 50.8 162.739 50.8C161.443 50.8 160.611 50.048 160.419 48.64H166.275C166.307 48.432 166.339 48.064 166.339 47.76ZM162.627 45.2C163.827 45.2 164.579 45.984 164.739 47.328H160.435C160.611 45.952 161.363 45.2 162.627 45.2ZM178.561 44L176.241 50.608L173.985 44H172.097L175.297 52H177.169L180.353 44H178.561ZM188.537 50.88C188.105 50.88 187.945 50.688 187.945 50.288V46.672C187.945 44.752 186.569 43.84 184.569 43.84C182.825 43.84 181.593 44.656 181.209 45.92L182.537 46.624C182.873 45.616 183.609 45.184 184.601 45.184C185.641 45.184 186.233 45.808 186.233 46.768V47.184L184.201 47.552C182.105 47.92 181.081 48.832 181.081 50.064C181.081 51.456 182.185 52.16 183.689 52.16C184.873 52.16 185.897 51.728 186.393 50.96C186.569 51.84 187.161 52.16 188.025 52.16C188.425 52.16 188.761 52.08 189.017 51.968L189.129 50.816C188.953 50.864 188.745 50.88 188.537 50.88ZM184.057 50.864C183.305 50.864 182.857 50.544 182.857 49.952C182.857 49.312 183.401 48.944 184.489 48.736L186.233 48.384V49.344C186.233 50.304 185.129 50.864 184.057 50.864ZM192.414 40.4H190.702V49.904C190.702 51.456 191.358 52.16 192.782 52.16C193.246 52.16 193.758 52.064 194.11 51.888L194.302 50.512C193.886 50.672 193.646 50.72 193.246 50.72C192.606 50.72 192.414 50.448 192.414 49.664V40.4ZM202.886 47.76C202.886 45.44 201.574 43.84 199.174 43.84C196.678 43.84 195.27 45.392 195.27 48C195.27 50.608 196.758 52.16 199.286 52.16C201.046 52.16 202.15 51.488 202.726 50.304L201.302 49.712C201.046 50.416 200.342 50.8 199.286 50.8C197.99 50.8 197.158 50.048 196.966 48.64H202.822C202.854 48.432 202.886 48.064 202.886 47.76ZM199.174 45.2C200.374 45.2 201.126 45.984 201.286 47.328H196.982C197.158 45.952 197.91 45.2 199.174 45.2ZM219.882 43.84C218.81 43.84 217.642 44.352 217.114 45.44C216.634 44.352 215.562 43.84 214.426 43.84C213.386 43.84 212.394 44.32 211.834 45.328L211.754 44H210.234V52H211.946V47.744C211.946 45.952 213.066 45.248 214.026 45.248C214.97 45.248 215.674 45.776 215.674 47.088V52H217.386V47.648C217.386 46.096 218.346 45.248 219.466 45.248C220.41 45.248 221.114 45.776 221.114 47.088V52H222.826V46.816C222.842 44.784 221.418 43.84 219.882 43.84ZM230.958 44V48.32C230.958 50.016 229.934 50.752 228.718 50.752C227.71 50.752 227.07 50.304 227.07 48.816V44H225.358V49.264C225.358 51.344 226.638 52.16 228.238 52.16C229.534 52.16 230.526 51.712 231.07 50.704L231.15 52H232.67V44H230.958ZM236.192 42.656C236.928 42.656 237.328 42.256 237.328 41.584C237.328 40.912 236.928 40.528 236.192 40.528C235.456 40.528 235.04 40.912 235.04 41.584C235.04 42.256 235.456 42.656 236.192 42.656ZM237.04 44H235.328V52H237.04V44ZM244.503 50.224C244.151 50.544 243.751 50.736 243.207 50.736C242.503 50.736 242.039 50.384 242.039 49.6V45.344H244.839V44H242.039V41.648L240.327 42.128V44H238.807V45.344H240.327V49.888C240.343 51.536 241.399 52.16 242.775 52.16C243.639 52.16 244.391 51.904 244.903 51.472L244.503 50.224ZM250.02 43.84C247.524 43.84 246.036 45.392 246.036 48C246.036 50.608 247.524 52.16 250.02 52.16C252.516 52.16 254.004 50.608 254.004 48C254.004 45.392 252.516 43.84 250.02 43.84ZM250.02 45.184C251.46 45.184 252.292 46.192 252.292 48C252.292 49.808 251.46 50.816 250.02 50.816C248.58 50.816 247.764 49.808 247.764 48C247.764 46.192 248.58 45.184 250.02 45.184ZM268.318 50.88C267.886 50.88 267.726 50.688 267.726 50.288V46.672C267.726 44.752 266.35 43.84 264.35 43.84C262.606 43.84 261.374 44.656 260.99 45.92L262.318 46.624C262.654 45.616 263.39 45.184 264.382 45.184C265.422 45.184 266.014 45.808 266.014 46.768V47.184L263.982 47.552C261.886 47.92 260.862 48.832 260.862 50.064C260.862 51.456 261.966 52.16 263.47 52.16C264.654 52.16 265.678 51.728 266.174 50.96C266.35 51.84 266.942 52.16 267.806 52.16C268.206 52.16 268.542 52.08 268.798 51.968L268.91 50.816C268.734 50.864 268.526 50.88 268.318 50.88ZM263.838 50.864C263.086 50.864 262.638 50.544 262.638 49.952C262.638 49.312 263.182 48.944 264.27 48.736L266.014 48.384V49.344C266.014 50.304 264.91 50.864 263.838 50.864ZM35.632 64.84C34.352 64.84 33.376 65.496 32.912 66.472L32.832 65H31.328V76.36H33.04V71.704C33.52 72.584 34.432 73.16 35.616 73.16C37.792 73.16 39.168 71.608 39.168 68.984C39.168 66.376 37.808 64.84 35.632 64.84ZM35.248 71.768C33.904 71.768 33.04 70.76 33.04 69.096V68.904C33.04 67.224 33.904 66.216 35.248 66.216C36.624 66.216 37.456 67.256 37.456 69C37.456 70.744 36.624 71.768 35.248 71.768ZM48.5425 68.76C48.5425 66.44 47.2305 64.84 44.8305 64.84C42.3345 64.84 40.9265 66.392 40.9265 69C40.9265 71.608 42.4145 73.16 44.9425 73.16C46.7025 73.16 47.8065 72.488 48.3825 71.304L46.9585 70.712C46.7025 71.416 45.9985 71.8 44.9425 71.8C43.6465 71.8 42.8145 71.048 42.6225 69.64H48.4785C48.5105 69.432 48.5425 69.064 48.5425 68.76ZM44.8305 66.2C46.0305 66.2 46.7825 66.984 46.9425 68.328H42.6385C42.8145 66.952 43.5665 66.2 44.8305 66.2ZM54.9914 64.84C53.8394 64.84 52.8314 65.288 52.2874 66.344L52.2074 65H50.6874V73H52.3994V68.76C52.3994 66.92 53.5194 66.248 54.5754 66.248C55.5514 66.248 56.2874 66.776 56.2874 68.36V73H57.9994V67.816C57.9994 65.816 56.6874 64.84 54.9914 64.84ZM67.5056 71.88C67.0736 71.88 66.9136 71.688 66.9136 71.288V67.672C66.9136 65.752 65.5376 64.84 63.5376 64.84C61.7936 64.84 60.5616 65.656 60.1776 66.92L61.5056 67.624C61.8416 66.616 62.5776 66.184 63.5696 66.184C64.6096 66.184 65.2016 66.808 65.2016 67.768V68.184L63.1696 68.552C61.0736 68.92 60.0496 69.832 60.0496 71.064C60.0496 72.456 61.1536 73.16 62.6576 73.16C63.8416 73.16 64.8656 72.728 65.3616 71.96C65.5376 72.84 66.1296 73.16 66.9936 73.16C67.3936 73.16 67.7296 73.08 67.9856 72.968L68.0976 71.816C67.9216 71.864 67.7136 71.88 67.5056 71.88ZM63.0256 71.864C62.2736 71.864 61.8256 71.544 61.8256 70.952C61.8256 70.312 62.3696 69.944 63.4576 69.736L65.2016 69.384V70.344C65.2016 71.304 64.0976 71.864 63.0256 71.864ZM78.9289 64.84C77.6489 64.84 76.6729 65.496 76.2089 66.472L76.1289 65H74.6249V76.36H76.3369V71.704C76.8169 72.584 77.7289 73.16 78.9129 73.16C81.0889 73.16 82.4649 71.608 82.4649 68.984C82.4649 66.376 81.1049 64.84 78.9289 64.84ZM78.5449 71.768C77.2009 71.768 76.3369 70.76 76.3369 69.096V68.904C76.3369 67.224 77.2009 66.216 78.5449 66.216C79.9209 66.216 80.7529 67.256 80.7529 69C80.7529 70.744 79.9209 71.768 78.5449 71.768ZM88.8154 64.84C87.5834 64.84 86.7354 65.384 86.3034 66.424L86.1434 65H84.6874V73H86.3994V68.76C86.3994 67.128 87.4554 66.36 88.4154 66.36C88.8474 66.36 89.1994 66.44 89.4234 66.568L89.6954 65C89.4714 64.888 89.1354 64.84 88.8154 64.84ZM98.0525 71.88C97.6205 71.88 97.4605 71.688 97.4605 71.288V67.672C97.4605 65.752 96.0845 64.84 94.0845 64.84C92.3405 64.84 91.1085 65.656 90.7245 66.92L92.0525 67.624C92.3885 66.616 93.1245 66.184 94.1165 66.184C95.1565 66.184 95.7485 66.808 95.7485 67.768V68.184L93.7165 68.552C91.6205 68.92 90.5965 69.832 90.5965 71.064C90.5965 72.456 91.7005 73.16 93.2045 73.16C94.3885 73.16 95.4125 72.728 95.9085 71.96C96.0845 72.84 96.6765 73.16 97.5405 73.16C97.9405 73.16 98.2765 73.08 98.5325 72.968L98.6445 71.816C98.4685 71.864 98.2605 71.88 98.0525 71.88ZM93.5725 71.864C92.8205 71.864 92.3725 71.544 92.3725 70.952C92.3725 70.312 92.9165 69.944 94.0045 69.736L95.7485 69.384V70.344C95.7485 71.304 94.6445 71.864 93.5725 71.864ZM111.092 65L111.012 66.472C110.548 65.496 109.572 64.84 108.292 64.84C106.116 64.84 104.756 66.376 104.756 68.984C104.756 71.608 106.132 73.16 108.308 73.16C109.492 73.16 110.404 72.584 110.884 71.704V76.36H112.596V65H111.092ZM108.676 71.768C107.3 71.768 106.468 70.744 106.468 69C106.468 67.256 107.3 66.216 108.676 66.216C110.02 66.216 110.884 67.224 110.884 68.904V69.096C110.884 70.76 110.02 71.768 108.676 71.768ZM120.786 65V69.32C120.786 71.016 119.762 71.752 118.546 71.752C117.538 71.752 116.898 71.304 116.898 69.816V65H115.186V70.264C115.186 72.344 116.466 73.16 118.066 73.16C119.362 73.16 120.354 72.712 120.898 71.704L120.978 73H122.498V65H120.786ZM132.308 68.76C132.308 66.44 130.996 64.84 128.596 64.84C126.1 64.84 124.692 66.392 124.692 69C124.692 71.608 126.18 73.16 128.708 73.16C130.468 73.16 131.572 72.488 132.148 71.304L130.724 70.712C130.468 71.416 129.764 71.8 128.708 71.8C127.412 71.8 126.58 71.048 126.388 69.64H132.244C132.276 69.432 132.308 69.064 132.308 68.76ZM128.596 66.2C129.796 66.2 130.548 66.984 130.708 68.328H126.404C126.58 66.952 127.332 66.2 128.596 66.2ZM144.101 64.84C143.029 64.84 141.861 65.352 141.333 66.44C140.853 65.352 139.781 64.84 138.645 64.84C137.605 64.84 136.613 65.32 136.053 66.328L135.973 65H134.453V73H136.165V68.744C136.165 66.952 137.285 66.248 138.245 66.248C139.189 66.248 139.893 66.776 139.893 68.088V73H141.605V68.648C141.605 67.096 142.565 66.248 143.685 66.248C144.629 66.248 145.333 66.776 145.333 68.088V73H147.045V67.816C147.061 65.784 145.637 64.84 144.101 64.84ZM159.5 71.752H156.828C156.22 71.752 155.836 71.48 155.836 70.984C155.836 70.52 156.06 70.232 156.604 70.104C157.004 70.2 157.436 70.248 157.932 70.248C160.028 70.248 161.404 69.176 161.404 67.544C161.404 66.664 161.004 65.944 160.3 65.464C160.54 64.92 161.148 64.616 162.188 64.648L161.9 63.32C160.588 63.288 159.836 63.96 159.548 65.096C159.084 64.936 158.54 64.84 157.932 64.84C155.852 64.84 154.46 65.912 154.46 67.544C154.46 68.504 154.892 69.272 155.692 69.736C154.94 69.992 154.444 70.504 154.444 71.336C154.444 72.072 154.94 72.568 155.564 72.856C154.652 73.096 154.14 73.672 154.14 74.392C154.14 75.576 155.308 76.44 157.948 76.44C160.268 76.44 162.06 75.464 162.06 73.8C162.06 72.52 161.116 71.752 159.5 71.752ZM157.932 66.04C158.924 66.04 159.66 66.648 159.66 67.544C159.66 68.456 158.924 69.064 157.932 69.064C156.956 69.064 156.22 68.456 156.22 67.544C156.22 66.648 156.956 66.04 157.932 66.04ZM158.108 75.16C156.412 75.16 155.596 74.728 155.596 74.024C155.596 73.496 156.06 73.176 157.036 73.176H159.196C160.252 73.176 160.588 73.48 160.588 73.992C160.588 74.616 159.74 75.16 158.108 75.16ZM167.223 64.84C164.727 64.84 163.239 66.392 163.239 69C163.239 71.608 164.727 73.16 167.223 73.16C169.719 73.16 171.207 71.608 171.207 69C171.207 66.392 169.719 64.84 167.223 64.84ZM167.223 66.184C168.663 66.184 169.495 67.192 169.495 69C169.495 70.808 168.663 71.816 167.223 71.816C165.783 71.816 164.967 70.808 164.967 69C164.967 67.192 165.783 66.184 167.223 66.184ZM176.302 73.16C178.51 73.16 179.79 72.152 179.79 70.744C179.79 69.416 178.974 68.728 176.686 68.312C175.182 68.04 174.718 67.736 174.718 67.16C174.718 66.664 175.39 66.184 176.382 66.184C177.422 66.184 178.11 66.584 178.51 67.544L179.726 66.648C179.15 65.416 178.142 64.84 176.366 64.84C174.222 64.84 173.006 66.024 173.006 67.32C173.006 68.664 173.838 69.352 176.222 69.8C177.614 70.072 178.078 70.36 178.078 70.856C178.078 71.4 177.502 71.816 176.366 71.816C175.246 71.816 174.302 71.448 173.886 70.488L172.734 71.48C173.406 72.648 174.75 73.16 176.302 73.16ZM186.659 71.224C186.307 71.544 185.907 71.736 185.363 71.736C184.659 71.736 184.195 71.384 184.195 70.6V66.344H186.995V65H184.195V62.648L182.483 63.128V65H180.963V66.344H182.483V70.888C182.499 72.536 183.555 73.16 184.931 73.16C185.795 73.16 186.547 72.904 187.059 72.472L186.659 71.224ZM195.615 71.88C195.183 71.88 195.023 71.688 195.023 71.288V67.672C195.023 65.752 193.647 64.84 191.647 64.84C189.903 64.84 188.671 65.656 188.287 66.92L189.615 67.624C189.951 66.616 190.687 66.184 191.679 66.184C192.719 66.184 193.311 66.808 193.311 67.768V68.184L191.279 68.552C189.183 68.92 188.159 69.832 188.159 71.064C188.159 72.456 189.263 73.16 190.767 73.16C191.951 73.16 192.975 72.728 193.471 71.96C193.647 72.84 194.239 73.16 195.103 73.16C195.503 73.16 195.839 73.08 196.095 72.968L196.207 71.816C196.031 71.864 195.823 71.88 195.615 71.88ZM191.135 71.864C190.383 71.864 189.935 71.544 189.935 70.952C189.935 70.312 190.479 69.944 191.567 69.736L193.311 69.384V70.344C193.311 71.304 192.207 71.864 191.135 71.864ZM208.43 61.4V66.296C207.95 65.416 207.038 64.84 205.854 64.84C203.678 64.84 202.302 66.392 202.302 69.016C202.302 71.624 203.662 73.16 205.838 73.16C207.102 73.16 208.078 72.504 208.542 71.56L208.638 73H210.142V61.4H208.43ZM206.222 71.784C204.846 71.784 204.014 70.744 204.014 69C204.014 67.256 204.846 66.232 206.222 66.232C207.566 66.232 208.43 67.24 208.43 68.904V69.096C208.43 70.776 207.566 71.784 206.222 71.784ZM219.949 68.76C219.949 66.44 218.637 64.84 216.237 64.84C213.741 64.84 212.333 66.392 212.333 69C212.333 71.608 213.821 73.16 216.349 73.16C218.109 73.16 219.213 72.488 219.789 71.304L218.365 70.712C218.109 71.416 217.405 71.8 216.349 71.8C215.053 71.8 214.221 71.048 214.029 69.64H219.885C219.917 69.432 219.949 69.064 219.949 68.76ZM216.237 66.2C217.437 66.2 218.189 66.984 218.349 68.328H214.045C214.221 66.952 214.973 66.2 216.237 66.2ZM231.831 71.224C231.479 71.544 231.079 71.736 230.535 71.736C229.831 71.736 229.367 71.384 229.367 70.6V66.344H232.167V65H229.367V62.648L227.655 63.128V65H226.135V66.344H227.655V70.888C227.671 72.536 228.727 73.16 230.103 73.16C230.967 73.16 231.719 72.904 232.231 72.472L231.831 71.224ZM237.348 64.84C234.852 64.84 233.364 66.392 233.364 69C233.364 71.608 234.852 73.16 237.348 73.16C239.844 73.16 241.332 71.608 241.332 69C241.332 66.392 239.844 64.84 237.348 64.84ZM237.348 66.184C238.788 66.184 239.62 67.192 239.62 69C239.62 70.808 238.788 71.816 237.348 71.816C235.908 71.816 235.092 70.808 235.092 69C235.092 67.192 235.908 66.184 237.348 66.184ZM247.051 64.84C244.555 64.84 243.067 66.392 243.067 69C243.067 71.608 244.555 73.16 247.083 73.16C248.939 73.16 250.139 72.232 250.587 70.776L249.019 70.248C248.811 71.24 248.155 71.8 247.051 71.8C245.643 71.8 244.795 70.824 244.795 69.016C244.795 67.208 245.627 66.2 247.051 66.2C248.043 66.2 248.651 66.728 248.923 67.72L250.523 67.08C250.027 65.768 248.987 64.84 247.051 64.84ZM259.506 71.88C259.074 71.88 258.914 71.688 258.914 71.288V67.672C258.914 65.752 257.538 64.84 255.538 64.84C253.794 64.84 252.562 65.656 252.178 66.92L253.506 67.624C253.842 66.616 254.578 66.184 255.57 66.184C256.61 66.184 257.202 66.808 257.202 67.768V68.184L255.17 68.552C253.074 68.92 252.05 69.832 252.05 71.064C252.05 72.456 253.154 73.16 254.658 73.16C255.842 73.16 256.866 72.728 257.362 71.96C257.538 72.84 258.13 73.16 258.994 73.16C259.394 73.16 259.73 73.08 259.986 72.968L260.098 71.816C259.922 71.864 259.714 71.88 259.506 71.88ZM255.026 71.864C254.274 71.864 253.826 71.544 253.826 70.952C253.826 70.312 254.37 69.944 255.458 69.736L257.202 69.384V70.344C257.202 71.304 256.098 71.864 255.026 71.864ZM265.847 64.84C264.615 64.84 263.767 65.384 263.335 66.424L263.175 65H261.719V73H263.431V68.76C263.431 67.128 264.487 66.36 265.447 66.36C265.879 66.36 266.231 66.44 266.455 66.568L266.727 65C266.503 64.888 266.167 64.84 265.847 64.84ZM280.355 68.76C280.355 66.44 279.043 64.84 276.643 64.84C274.147 64.84 272.739 66.392 272.739 69C272.739 71.608 274.227 73.16 276.755 73.16C278.515 73.16 279.619 72.488 280.195 71.304L278.771 70.712C278.515 71.416 277.811 71.8 276.755 71.8C275.459 71.8 274.627 71.048 274.435 69.64H280.291C280.323 69.432 280.355 69.064 280.355 68.76ZM276.643 66.2C277.843 66.2 278.595 66.984 278.755 68.328H274.451C274.627 66.952 275.379 66.2 276.643 66.2ZM35.632 85.84C34.352 85.84 33.376 86.496 32.912 87.472L32.832 86H31.328V97.36H33.04V92.704C33.52 93.584 34.432 94.16 35.616 94.16C37.792 94.16 39.168 92.608 39.168 89.984C39.168 87.376 37.808 85.84 35.632 85.84ZM35.248 92.768C33.904 92.768 33.04 91.76 33.04 90.096V89.904C33.04 88.224 33.904 87.216 35.248 87.216C36.624 87.216 37.456 88.256 37.456 90C37.456 91.744 36.624 92.768 35.248 92.768ZM45.5185 85.84C44.2865 85.84 43.4385 86.384 43.0065 87.424L42.8465 86H41.3905V94H43.1025V89.76C43.1025 88.128 44.1585 87.36 45.1185 87.36C45.5505 87.36 45.9025 87.44 46.1265 87.568L46.3985 86C46.1745 85.888 45.8385 85.84 45.5185 85.84ZM54.9644 89.76C54.9644 87.44 53.6524 85.84 51.2524 85.84C48.7564 85.84 47.3484 87.392 47.3484 90C47.3484 92.608 48.8364 94.16 51.3644 94.16C53.1244 94.16 54.2284 93.488 54.8044 92.304L53.3804 91.712C53.1244 92.416 52.4204 92.8 51.3644 92.8C50.0684 92.8 49.2364 92.048 49.0444 90.64H54.9004C54.9324 90.432 54.9644 90.064 54.9644 89.76ZM51.2524 87.2C52.4524 87.2 53.2044 87.984 53.3644 89.328H49.0604C49.2364 87.952 49.9884 87.2 51.2524 87.2ZM61.7058 92.224C61.3538 92.544 60.9538 92.736 60.4098 92.736C59.7057 92.736 59.2418 92.384 59.2418 91.6V87.344H62.0418V86H59.2418V83.648L57.5298 84.128V86H56.0098V87.344H57.5298V91.888C57.5458 93.536 58.6018 94.16 59.9778 94.16C60.8418 94.16 61.5938 93.904 62.1058 93.472L61.7058 92.224ZM70.855 89.76C70.855 87.44 69.543 85.84 67.143 85.84C64.647 85.84 63.239 87.392 63.239 90C63.239 92.608 64.727 94.16 67.255 94.16C69.015 94.16 70.119 93.488 70.695 92.304L69.271 91.712C69.015 92.416 68.311 92.8 67.255 92.8C65.959 92.8 65.127 92.048 64.935 90.64H70.791C70.823 90.432 70.855 90.064 70.855 89.76ZM67.143 87.2C68.343 87.2 69.095 87.984 69.255 89.328H64.951C65.127 87.952 65.879 87.2 67.143 87.2ZM77.3039 85.84C76.1519 85.84 75.1439 86.288 74.5999 87.344L74.5199 86H72.9999V94H74.7119V89.76C74.7119 87.92 75.8319 87.248 76.8879 87.248C77.8639 87.248 78.5999 87.776 78.5999 89.36V94H80.3119V88.816C80.3119 86.816 78.9999 85.84 77.3039 85.84ZM88.6021 82.4V87.296C88.1221 86.416 87.2101 85.84 86.0261 85.84C83.8501 85.84 82.4741 87.392 82.4741 90.016C82.4741 92.624 83.8341 94.16 86.0101 94.16C87.2741 94.16 88.2501 93.504 88.7141 92.56L88.8101 94H90.3141V82.4H88.6021ZM86.3941 92.784C85.0181 92.784 84.1861 91.744 84.1861 90C84.1861 88.256 85.0181 87.232 86.3941 87.232C87.7381 87.232 88.6021 88.24 88.6021 89.904V90.096C88.6021 91.776 87.7381 92.784 86.3941 92.784ZM100.121 89.76C100.121 87.44 98.8086 85.84 96.4086 85.84C93.9126 85.84 92.5046 87.392 92.5046 90C92.5046 92.608 93.9926 94.16 96.5206 94.16C98.2806 94.16 99.3846 93.488 99.9606 92.304L98.5366 91.712C98.2806 92.416 97.5766 92.8 96.5206 92.8C95.2246 92.8 94.3926 92.048 94.2006 90.64H100.057C100.089 90.432 100.121 90.064 100.121 89.76ZM96.4086 87.2C97.6086 87.2 98.3606 87.984 98.5206 89.328H94.2166C94.3926 87.952 95.1446 87.2 96.4086 87.2ZM114.381 92.88C113.949 92.88 113.789 92.688 113.789 92.288V88.672C113.789 86.752 112.413 85.84 110.413 85.84C108.669 85.84 107.437 86.656 107.053 87.92L108.381 88.624C108.717 87.616 109.453 87.184 110.445 87.184C111.485 87.184 112.077 87.808 112.077 88.768V89.184L110.045 89.552C107.949 89.92 106.925 90.832 106.925 92.064C106.925 93.456 108.029 94.16 109.533 94.16C110.717 94.16 111.741 93.728 112.237 92.96C112.413 93.84 113.005 94.16 113.869 94.16C114.269 94.16 114.605 94.08 114.861 93.968L114.973 92.816C114.797 92.864 114.589 92.88 114.381 92.88ZM109.901 92.864C109.149 92.864 108.701 92.544 108.701 91.952C108.701 91.312 109.245 90.944 110.333 90.736L112.077 90.384V91.344C112.077 92.304 110.973 92.864 109.901 92.864ZM121.576 86L119.256 92.608L117 86H115.112L118.312 94H120.184L123.368 86H121.576ZM131.553 92.88C131.121 92.88 130.961 92.688 130.961 92.288V88.672C130.961 86.752 129.585 85.84 127.585 85.84C125.841 85.84 124.609 86.656 124.225 87.92L125.553 88.624C125.889 87.616 126.625 87.184 127.617 87.184C128.657 87.184 129.249 87.808 129.249 88.768V89.184L127.217 89.552C125.121 89.92 124.097 90.832 124.097 92.064C124.097 93.456 125.201 94.16 126.705 94.16C127.889 94.16 128.913 93.728 129.409 92.96C129.585 93.84 130.177 94.16 131.041 94.16C131.441 94.16 131.777 94.08 132.033 93.968L132.145 92.816C131.969 92.864 131.76 92.88 131.553 92.88ZM127.073 92.864C126.321 92.864 125.873 92.544 125.873 91.952C125.873 91.312 126.417 90.944 127.505 90.736L129.249 90.384V91.344C129.249 92.304 128.145 92.864 127.073 92.864ZM138.07 85.84C136.918 85.84 135.91 86.288 135.366 87.344L135.286 86H133.766V94H135.478V89.76C135.478 87.92 136.598 87.248 137.654 87.248C138.63 87.248 139.366 87.776 139.366 89.36V94H141.078V88.816C141.078 86.816 139.766 85.84 138.07 85.84ZM150.728 91.776L149.16 91.248C148.952 92.24 148.296 92.8 147.192 92.8C145.784 92.8 144.936 91.824 144.936 90.016C144.936 88.208 145.768 87.2 147.192 87.2C148.184 87.2 148.792 87.728 149.064 88.72L150.664 88.08C150.168 86.768 149.128 85.84 147.192 85.84C144.696 85.84 143.208 87.392 143.208 90C143.208 92.384 144.456 93.888 146.616 94.128C147.544 94.544 147.8 94.896 147.8 95.44C147.8 95.984 147.416 96.336 146.904 96.336C146.44 96.336 146.04 96.128 145.784 95.856L145.256 96.848C145.704 97.248 146.264 97.44 147.096 97.44C148.312 97.44 149.08 96.688 149.08 95.68C149.08 95.088 148.776 94.512 148.168 94.064C149.496 93.808 150.36 92.976 150.728 91.776ZM159.646 92.88C159.214 92.88 159.054 92.688 159.054 92.288V88.672C159.054 86.752 157.678 85.84 155.678 85.84C153.934 85.84 152.702 86.656 152.318 87.92L153.646 88.624C153.982 87.616 154.718 87.184 155.71 87.184C156.75 87.184 157.342 87.808 157.342 88.768V89.184L155.31 89.552C153.214 89.92 152.19 90.832 152.19 92.064C152.19 93.456 153.294 94.16 154.798 94.16C155.982 94.16 157.006 93.728 157.502 92.96C157.678 93.84 158.27 94.16 159.134 94.16C159.534 94.16 159.87 94.08 160.126 93.968L160.238 92.816C160.062 92.864 159.854 92.88 159.646 92.88ZM155.166 92.864C154.414 92.864 153.966 92.544 153.966 91.952C153.966 91.312 154.51 90.944 155.598 90.736L157.342 90.384V91.344C157.342 92.304 156.238 92.864 155.166 92.864ZM165.987 85.84C164.755 85.84 163.907 86.384 163.475 87.424L163.315 86H161.859V94H163.571V89.76C163.571 88.128 164.627 87.36 165.587 87.36C166.019 87.36 166.371 87.44 166.595 87.568L166.867 86C166.643 85.888 166.307 85.84 165.987 85.84ZM177.648 85.84C176.496 85.84 175.488 86.288 174.944 87.344L174.864 86H173.344V94H175.056V89.76C175.056 87.92 176.176 87.248 177.232 87.248C178.208 87.248 178.944 87.776 178.944 89.36V94H180.656V88.816C180.656 86.816 179.344 85.84 177.648 85.84ZM190.162 92.88C189.73 92.88 189.57 92.688 189.57 92.288V88.672C189.57 86.752 188.194 85.84 186.194 85.84C184.45 85.84 183.218 86.656 182.834 87.92L184.162 88.624C184.498 87.616 185.234 87.184 186.226 87.184C187.266 87.184 187.858 87.808 187.858 88.768V89.184L185.826 89.552C183.73 89.92 182.706 90.832 182.706 92.064C182.706 93.456 183.81 94.16 185.314 94.16C186.498 94.16 187.522 93.728 188.018 92.96C188.194 93.84 188.786 94.16 189.65 94.16C190.05 94.16 190.386 94.08 190.642 93.968L190.754 92.816C190.578 92.864 190.37 92.88 190.162 92.88ZM185.682 92.864C184.93 92.864 184.482 92.544 184.482 91.952C184.482 91.312 185.026 90.944 186.114 90.736L187.858 90.384V91.344C187.858 92.304 186.754 92.864 185.682 92.864ZM206.929 85.84C205.857 85.84 204.689 86.352 204.161 87.44C203.681 86.352 202.609 85.84 201.473 85.84C200.433 85.84 199.441 86.32 198.881 87.328L198.801 86H197.281V94H198.993V89.744C198.993 87.952 200.113 87.248 201.073 87.248C202.017 87.248 202.721 87.776 202.721 89.088V94H204.433V89.648C204.433 88.096 205.393 87.248 206.513 87.248C207.457 87.248 208.161 87.776 208.161 89.088V94H209.873V88.816C209.889 86.784 208.465 85.84 206.929 85.84ZM218.037 82.064H216.309L215.141 84.752H216.453L218.037 82.064ZM218.005 86V90.32C218.005 92.016 216.981 92.752 215.765 92.752C214.757 92.752 214.117 92.304 214.117 90.816V86H212.405V91.264C212.405 93.344 213.685 94.16 215.285 94.16C216.581 94.16 217.573 93.712 218.117 92.704L218.197 94H219.717V86H218.005ZM225.271 94.16C227.479 94.16 228.759 93.152 228.759 91.744C228.759 90.416 227.943 89.728 225.655 89.312C224.151 89.04 223.687 88.736 223.687 88.16C223.687 87.664 224.359 87.184 225.351 87.184C226.391 87.184 227.079 87.584 227.479 88.544L228.695 87.648C228.119 86.416 227.111 85.84 225.335 85.84C223.191 85.84 221.975 87.024 221.975 88.32C221.975 89.664 222.807 90.352 225.191 90.8C226.583 91.072 227.047 91.36 227.047 91.856C227.047 92.4 226.471 92.816 225.335 92.816C224.215 92.816 223.271 92.448 222.855 91.488L221.703 92.48C222.375 93.648 223.719 94.16 225.271 94.16ZM231.708 84.656C232.444 84.656 232.844 84.256 232.844 83.584C232.844 82.912 232.444 82.528 231.708 82.528C230.972 82.528 230.556 82.912 230.556 83.584C230.556 84.256 230.972 84.656 231.708 84.656ZM232.556 86H230.844V94H232.556V86ZM238.754 85.84C236.258 85.84 234.77 87.392 234.77 90C234.77 92.608 236.258 94.16 238.786 94.16C240.642 94.16 241.842 93.232 242.29 91.776L240.722 91.248C240.514 92.24 239.858 92.8 238.754 92.8C237.346 92.8 236.498 91.824 236.498 90.016C236.498 88.208 237.33 87.2 238.754 87.2C239.746 87.2 240.354 87.728 240.626 88.72L242.226 88.08C241.73 86.768 240.69 85.84 238.754 85.84ZM251.209 92.88C250.777 92.88 250.617 92.688 250.617 92.288V88.672C250.617 86.752 249.241 85.84 247.241 85.84C245.497 85.84 244.265 86.656 243.881 87.92L245.209 88.624C245.545 87.616 246.281 87.184 247.273 87.184C248.313 87.184 248.905 87.808 248.905 88.768V89.184L246.873 89.552C244.777 89.92 243.753 90.832 243.753 92.064C243.753 93.456 244.857 94.16 246.361 94.16C247.545 94.16 248.569 93.728 249.065 92.96C249.241 93.84 249.833 94.16 250.697 94.16C251.097 94.16 251.433 94.08 251.689 93.968L251.801 92.816C251.625 92.864 251.417 92.88 251.209 92.88ZM246.729 92.864C245.977 92.864 245.529 92.544 245.529 91.952C245.529 91.312 246.073 90.944 247.161 90.736L248.905 90.384V91.344C248.905 92.304 247.801 92.864 246.729 92.864ZM254.364 91.84C253.628 91.84 253.148 92.288 253.148 92.992C253.148 93.696 253.628 94.16 254.364 94.16C255.1 94.16 255.564 93.696 255.564 92.992C255.564 92.288 255.1 91.84 254.364 91.84ZM265.03 92.528V89.392H269.67V87.952H265.03V84.912H270.966V83.44H263.318V94H271.19V92.528H265.03ZM278.598 86V90.32C278.598 92.016 277.574 92.752 276.358 92.752C275.35 92.752 274.71 92.304 274.71 90.816V86H272.998V91.264C272.998 93.344 274.278 94.16 275.878 94.16C277.174 94.16 278.166 93.712 278.71 92.704L278.79 94H280.31V86H278.598ZM289.036 82.528C288.332 82.528 287.884 82.944 287.884 83.584C287.884 84.224 288.332 84.656 289.036 84.656C289.724 84.656 290.172 84.224 290.172 83.584C290.172 82.944 289.724 82.528 289.036 82.528ZM289.884 86H288.172V94.544C288.172 95.616 287.724 95.984 287.036 95.984C286.524 95.984 286.092 95.776 285.804 95.536L285.5 96.912C285.932 97.232 286.54 97.44 287.26 97.44C288.604 97.44 289.884 96.752 289.884 94.704V86ZM297.619 82.064H295.891L294.723 84.752H296.035L297.619 82.064ZM299.459 92.88C299.027 92.88 298.867 92.688 298.867 92.288V88.672C298.867 86.752 297.491 85.84 295.491 85.84C293.747 85.84 292.515 86.656 292.131 87.92L293.459 88.624C293.795 87.616 294.531 87.184 295.523 87.184C296.563 87.184 297.155 87.808 297.155 88.768V89.184L295.123 89.552C293.027 89.92 292.003 90.832 292.003 92.064C292.003 93.456 293.107 94.16 294.611 94.16C295.795 94.16 296.819 93.728 297.315 92.96C297.491 93.84 298.083 94.16 298.947 94.16C299.347 94.16 299.683 94.08 299.939 93.968L300.051 92.816C299.875 92.864 299.667 92.88 299.459 92.88ZM294.979 92.864C294.227 92.864 293.779 92.544 293.779 91.952C293.779 91.312 294.323 90.944 295.411 90.736L297.155 90.384V91.344C297.155 92.304 296.051 92.864 294.979 92.864ZM36.112 113.224C35.76 113.544 35.36 113.736 34.816 113.736C34.112 113.736 33.648 113.384 33.648 112.6V108.344H36.448V107H33.648V104.648L31.936 105.128V107H30.416V108.344H31.936V112.888C31.952 114.536 33.008 115.16 34.384 115.16C35.248 115.16 36 114.904 36.512 114.472L36.112 113.224ZM38.9733 105.656C39.7093 105.656 40.1093 105.256 40.1093 104.584C40.1093 103.912 39.7093 103.528 38.9733 103.528C38.2373 103.528 37.8213 103.912 37.8213 104.584C37.8213 105.256 38.2373 105.656 38.9733 105.656ZM39.8213 107H38.1093V115H39.8213V107ZM46.8039 106.84C45.6519 106.84 44.6439 107.288 44.0999 108.344L44.0199 107H42.4999V115H44.2119V110.76C44.2119 108.92 45.3319 108.248 46.3879 108.248C47.3639 108.248 48.0999 108.776 48.0999 110.36V115H49.8119V109.816C49.8119 107.816 48.4999 106.84 46.8039 106.84ZM56.7101 106.84C55.5901 106.84 54.6461 107.288 54.1181 108.28V103.4H52.4061V115H54.1181V110.776C54.1181 108.936 55.2381 108.248 56.2941 108.248C57.2701 108.248 58.0061 108.776 58.0061 110.36V115H59.7181V109.816C59.7181 107.816 58.4061 106.84 56.7101 106.84ZM69.2244 113.88C68.7924 113.88 68.6324 113.688 68.6324 113.288V109.672C68.6324 107.752 67.2564 106.84 65.2564 106.84C63.5124 106.84 62.2804 107.656 61.8964 108.92L63.2244 109.624C63.5604 108.616 64.2964 108.184 65.2884 108.184C66.3284 108.184 66.9204 108.808 66.9204 109.768V110.184L64.8884 110.552C62.7924 110.92 61.7684 111.832 61.7684 113.064C61.7684 114.456 62.8724 115.16 64.3764 115.16C65.5604 115.16 66.5844 114.728 67.0804 113.96C67.2564 114.84 67.8484 115.16 68.7124 115.16C69.1124 115.16 69.4484 115.08 69.7044 114.968L69.8164 113.816C69.6404 113.864 69.4324 113.88 69.2244 113.88ZM64.7444 113.864C63.9924 113.864 63.5444 113.544 63.5444 112.952C63.5444 112.312 64.0884 111.944 65.1764 111.736L66.9204 111.384V112.344C66.9204 113.304 65.8164 113.864 64.7444 113.864ZM79.8636 106.84C77.3676 106.84 75.8796 108.392 75.8796 111C75.8796 113.608 77.3676 115.16 79.8956 115.16C81.7516 115.16 82.9516 114.232 83.3996 112.776L81.8316 112.248C81.6236 113.24 80.9676 113.8 79.8636 113.8C78.4556 113.8 77.6076 112.824 77.6076 111.016C77.6076 109.208 78.4396 108.2 79.8636 108.2C80.8556 108.2 81.4636 108.728 81.7356 109.72L83.3356 109.08C82.8396 107.768 81.7996 106.84 79.8636 106.84ZM88.9261 106.84C86.4301 106.84 84.9421 108.392 84.9421 111C84.9421 113.608 86.4301 115.16 88.9261 115.16C91.4221 115.16 92.9101 113.608 92.9101 111C92.9101 108.392 91.4221 106.84 88.9261 106.84ZM88.9261 108.184C90.3661 108.184 91.1981 109.192 91.1981 111C91.1981 112.808 90.3661 113.816 88.9261 113.816C87.4861 113.816 86.6701 112.808 86.6701 111C86.6701 109.192 87.4861 108.184 88.9261 108.184ZM104.757 106.84C103.685 106.84 102.517 107.352 101.989 108.44C101.509 107.352 100.437 106.84 99.3013 106.84C98.2613 106.84 97.2693 107.32 96.7093 108.328L96.6293 107H95.1093V115H96.8213V110.744C96.8213 108.952 97.9413 108.248 98.9013 108.248C99.8453 108.248 100.549 108.776 100.549 110.088V115H102.261V110.648C102.261 109.096 103.221 108.248 104.341 108.248C105.285 108.248 105.989 108.776 105.989 110.088V115H107.701V109.816C107.717 107.784 106.293 106.84 104.757 106.84ZM114.601 106.84C113.321 106.84 112.345 107.496 111.881 108.472L111.801 107H110.297V118.36H112.009V113.704C112.489 114.584 113.401 115.16 114.585 115.16C116.761 115.16 118.137 113.608 118.137 110.984C118.137 108.376 116.777 106.84 114.601 106.84ZM114.217 113.768C112.873 113.768 112.009 112.76 112.009 111.096V110.904C112.009 109.224 112.873 108.216 114.217 108.216C115.593 108.216 116.425 109.256 116.425 111C116.425 112.744 115.593 113.768 114.217 113.768ZM124.487 106.84C123.255 106.84 122.407 107.384 121.975 108.424L121.815 107H120.359V115H122.071V110.76C122.071 109.128 123.127 108.36 124.087 108.36C124.519 108.36 124.871 108.44 125.095 108.568L125.367 107C125.143 106.888 124.807 106.84 124.487 106.84ZM133.724 113.88C133.292 113.88 133.132 113.688 133.132 113.288V109.672C133.132 107.752 131.756 106.84 129.756 106.84C128.012 106.84 126.78 107.656 126.396 108.92L127.724 109.624C128.06 108.616 128.796 108.184 129.788 108.184C130.828 108.184 131.42 108.808 131.42 109.768V110.184L129.388 110.552C127.292 110.92 126.268 111.832 126.268 113.064C126.268 114.456 127.372 115.16 128.876 115.16C130.06 115.16 131.084 114.728 131.58 113.96C131.756 114.84 132.348 115.16 133.212 115.16C133.612 115.16 133.948 115.08 134.204 114.968L134.316 113.816C134.14 113.864 133.932 113.88 133.724 113.88ZM129.244 113.864C128.492 113.864 128.044 113.544 128.044 112.952C128.044 112.312 128.588 111.944 129.676 111.736L131.42 111.384V112.344C131.42 113.304 130.316 113.864 129.244 113.864ZM141.618 103.4V108.296C141.138 107.416 140.226 106.84 139.042 106.84C136.866 106.84 135.49 108.392 135.49 111.016C135.49 113.624 136.85 115.16 139.026 115.16C140.29 115.16 141.266 114.504 141.73 113.56L141.826 115H143.33V103.4H141.618ZM139.41 113.784C138.034 113.784 137.202 112.744 137.202 111C137.202 109.256 138.034 108.232 139.41 108.232C140.754 108.232 141.618 109.24 141.618 110.904V111.096C141.618 112.776 140.754 113.784 139.41 113.784ZM149.504 106.84C147.008 106.84 145.52 108.392 145.52 111C145.52 113.608 147.008 115.16 149.504 115.16C152 115.16 153.488 113.608 153.488 111C153.488 108.392 152 106.84 149.504 106.84ZM149.504 108.184C150.944 108.184 151.776 109.192 151.776 111C151.776 112.808 150.944 113.816 149.504 113.816C148.064 113.816 147.248 112.808 147.248 111C147.248 109.192 148.064 108.184 149.504 108.184ZM164.411 106.84C161.914 106.84 160.427 108.392 160.427 111C160.427 113.608 161.914 115.16 164.411 115.16C166.907 115.16 168.395 113.608 168.395 111C168.395 108.392 166.907 106.84 164.411 106.84ZM164.411 108.184C165.851 108.184 166.683 109.192 166.683 111C166.683 112.808 165.851 113.816 164.411 113.816C162.971 113.816 162.155 112.808 162.155 111C162.155 109.192 162.971 108.184 164.411 108.184ZM176.13 107V111.32C176.13 113.016 175.106 113.752 173.89 113.752C172.882 113.752 172.242 113.304 172.242 111.816V107H170.53V112.264C170.53 114.344 171.81 115.16 173.41 115.16C174.706 115.16 175.698 114.712 176.242 113.704L176.322 115H177.842V107H176.13ZM185.284 113.224C184.932 113.544 184.532 113.736 183.988 113.736C183.284 113.736 182.82 113.384 182.82 112.6V108.344H185.62V107H182.82V104.648L181.108 105.128V107H179.588V108.344H181.108V112.888C181.124 114.536 182.18 115.16 183.556 115.16C184.42 115.16 185.172 114.904 185.684 114.472L185.284 113.224ZM191.409 106.84C190.177 106.84 189.329 107.384 188.897 108.424L188.737 107H187.281V115H188.993V110.76C188.993 109.128 190.049 108.36 191.009 108.36C191.441 108.36 191.793 108.44 192.017 108.568L192.289 107C192.065 106.888 191.729 106.84 191.409 106.84ZM197.223 106.84C194.727 106.84 193.239 108.392 193.239 111C193.239 113.608 194.727 115.16 197.223 115.16C199.719 115.16 201.207 113.608 201.207 111C201.207 108.392 199.719 106.84 197.223 106.84ZM197.223 108.184C198.663 108.184 199.495 109.192 199.495 111C199.495 112.808 198.663 113.816 197.223 113.816C195.783 113.816 194.967 112.808 194.967 111C194.967 109.192 195.783 108.184 197.223 108.184ZM212.129 106.84C209.633 106.84 208.145 108.392 208.145 111C208.145 113.608 209.633 115.16 212.161 115.16C214.017 115.16 215.217 114.232 215.665 112.776L214.097 112.248C213.889 113.24 213.233 113.8 212.129 113.8C210.721 113.8 209.873 112.824 209.873 111.016C209.873 109.208 210.705 108.2 212.129 108.2C213.121 108.2 213.729 108.728 214.001 109.72L215.601 109.08C215.105 107.768 214.065 106.84 212.129 106.84ZM223.208 107V111.32C223.208 113.016 222.184 113.752 220.968 113.752C219.96 113.752 219.32 113.304 219.32 111.816V107H217.608V112.264C217.608 114.344 218.888 115.16 220.488 115.16C221.784 115.16 222.776 114.712 223.32 113.704L223.4 115H224.92V107H223.208ZM231.706 106.84C230.474 106.84 229.626 107.384 229.194 108.424L229.034 107H227.578V115H229.29V110.76C229.29 109.128 230.346 108.36 231.306 108.36C231.738 108.36 232.09 108.44 232.314 108.568L232.586 107C232.362 106.888 232.026 106.84 231.706 106.84ZM236.833 115.16C239.041 115.16 240.321 114.152 240.321 112.744C240.321 111.416 239.505 110.728 237.217 110.312C235.713 110.04 235.249 109.736 235.249 109.16C235.249 108.664 235.921 108.184 236.913 108.184C237.953 108.184 238.641 108.584 239.041 109.544L240.257 108.648C239.681 107.416 238.673 106.84 236.897 106.84C234.753 106.84 233.537 108.024 233.537 109.32C233.537 110.664 234.369 111.352 236.753 111.8C238.145 112.072 238.609 112.36 238.609 112.856C238.609 113.4 238.033 113.816 236.897 113.816C235.777 113.816 234.833 113.448 234.417 112.488L233.265 113.48C233.937 114.648 235.281 115.16 236.833 115.16ZM245.911 106.84C243.414 106.84 241.927 108.392 241.927 111C241.927 113.608 243.414 115.16 245.911 115.16C248.407 115.16 249.895 113.608 249.895 111C249.895 108.392 248.407 106.84 245.911 106.84ZM245.911 108.184C247.351 108.184 248.183 109.192 248.183 111C248.183 112.808 247.351 113.816 245.911 113.816C244.471 113.816 243.655 112.808 243.655 111C243.655 109.192 244.471 108.184 245.911 108.184ZM264.449 110.76C264.449 108.44 263.137 106.84 260.737 106.84C258.241 106.84 256.833 108.392 256.833 111C256.833 113.608 258.321 115.16 260.849 115.16C262.609 115.16 263.713 114.488 264.289 113.304L262.865 112.712C262.609 113.416 261.905 113.8 260.849 113.8C259.553 113.8 258.721 113.048 258.529 111.64H264.385C264.417 111.432 264.449 111.064 264.449 110.76ZM260.737 108.2C261.937 108.2 262.689 108.984 262.849 110.328H258.545C258.721 108.952 259.473 108.2 260.737 108.2ZM34.848 127.84C32.352 127.84 30.864 129.392 30.864 132C30.864 134.608 32.352 136.16 34.88 136.16C36.736 136.16 37.936 135.232 38.384 133.776L36.816 133.248C36.608 134.24 35.952 134.8 34.848 134.8C33.44 134.8 32.592 133.824 32.592 132.016C32.592 130.208 33.424 129.2 34.848 129.2C35.84 129.2 36.448 129.728 36.72 130.72L38.32 130.08C37.824 128.768 36.784 127.84 34.848 127.84ZM43.9105 127.84C41.4145 127.84 39.9265 129.392 39.9265 132C39.9265 134.608 41.4145 136.16 43.9105 136.16C46.4065 136.16 47.8945 134.608 47.8945 132C47.8945 129.392 46.4065 127.84 43.9105 127.84ZM43.9105 129.184C45.3505 129.184 46.1825 130.192 46.1825 132C46.1825 133.808 45.3505 134.816 43.9105 134.816C42.4705 134.816 41.6545 133.808 41.6545 132C41.6545 130.192 42.4705 129.184 43.9105 129.184ZM54.3976 127.84C53.2456 127.84 52.2376 128.288 51.6936 129.344L51.6136 128H50.0936V136H51.8056V131.76C51.8056 129.92 52.9256 129.248 53.9816 129.248C54.9576 129.248 55.6936 129.776 55.6936 131.36V136H57.4056V130.816C57.4056 128.816 56.0936 127.84 54.3976 127.84ZM62.1781 126.976C62.1781 126.064 62.6901 125.68 63.5861 125.68C63.9701 125.68 64.2581 125.76 64.4981 125.92L64.8181 124.672C64.5141 124.432 63.9541 124.288 63.3141 124.288C61.5381 124.288 60.5141 125.232 60.5141 126.848V128H59.0101V129.344H60.5141V136H62.2261V129.344H64.7701V128H62.1781V126.976ZM73.2925 131.76C73.2925 129.44 71.9805 127.84 69.5805 127.84C67.0845 127.84 65.6765 129.392 65.6765 132C65.6765 134.608 67.1645 136.16 69.6925 136.16C71.4525 136.16 72.5565 135.488 73.1325 134.304L71.7085 133.712C71.4525 134.416 70.7485 134.8 69.6925 134.8C68.3965 134.8 67.5645 134.048 67.3725 132.64H73.2285C73.2605 132.432 73.2925 132.064 73.2925 131.76ZM69.5805 129.2C70.7805 129.2 71.5325 129.984 71.6925 131.328H67.3885C67.5645 129.952 68.3165 129.2 69.5805 129.2ZM78.3334 136.16C80.5414 136.16 81.8214 135.152 81.8214 133.744C81.8214 132.416 81.0054 131.728 78.7174 131.312C77.2134 131.04 76.7494 130.736 76.7494 130.16C76.7494 129.664 77.4214 129.184 78.4134 129.184C79.4534 129.184 80.1414 129.584 80.5414 130.544L81.7574 129.648C81.1814 128.416 80.1734 127.84 78.3974 127.84C76.2534 127.84 75.0374 129.024 75.0374 130.32C75.0374 131.664 75.8694 132.352 78.2534 132.8C79.6454 133.072 80.1094 133.36 80.1094 133.856C80.1094 134.4 79.5334 134.816 78.3974 134.816C77.2774 134.816 76.3334 134.448 75.9174 133.488L74.7654 134.48C75.4374 135.648 76.7814 136.16 78.3334 136.16ZM86.8021 136.16C89.0101 136.16 90.2901 135.152 90.2901 133.744C90.2901 132.416 89.4741 131.728 87.1861 131.312C85.6821 131.04 85.2181 130.736 85.2181 130.16C85.2181 129.664 85.8901 129.184 86.8821 129.184C87.9221 129.184 88.6101 129.584 89.0101 130.544L90.2261 129.648C89.6501 128.416 88.6421 127.84 86.8661 127.84C84.7221 127.84 83.5061 129.024 83.5061 130.32C83.5061 131.664 84.3381 132.352 86.7221 132.8C88.1141 133.072 88.5781 133.36 88.5781 133.856C88.5781 134.4 88.0021 134.816 86.8661 134.816C85.7461 134.816 84.8021 134.448 84.3861 133.488L83.2341 134.48C83.9061 135.648 85.2501 136.16 86.8021 136.16ZM95.8793 127.84C93.3832 127.84 91.8953 129.392 91.8953 132C91.8953 134.608 93.3832 136.16 95.8793 136.16C98.3753 136.16 99.8633 134.608 99.8633 132C99.8633 129.392 98.3753 127.84 95.8793 127.84ZM95.8793 129.184C97.3193 129.184 98.1513 130.192 98.1513 132C98.1513 133.808 97.3193 134.816 95.8793 134.816C94.4393 134.816 93.6233 133.808 93.6233 132C93.6233 130.192 94.4393 129.184 95.8793 129.184ZM113.186 128L113.106 129.472C112.642 128.496 111.666 127.84 110.386 127.84C108.21 127.84 106.85 129.376 106.85 131.984C106.85 134.608 108.226 136.16 110.402 136.16C111.586 136.16 112.498 135.584 112.978 134.704V139.36H114.69V128H113.186ZM110.77 134.768C109.394 134.768 108.562 133.744 108.562 132C108.562 130.256 109.394 129.216 110.77 129.216C112.114 129.216 112.978 130.224 112.978 131.904V132.096C112.978 133.76 112.114 134.768 110.77 134.768ZM122.88 128V132.32C122.88 134.016 121.856 134.752 120.64 134.752C119.632 134.752 118.992 134.304 118.992 132.816V128H117.28V133.264C117.28 135.344 118.56 136.16 120.16 136.16C121.456 136.16 122.448 135.712 122.992 134.704L123.072 136H124.592V128H122.88ZM134.402 131.76C134.402 129.44 133.09 127.84 130.69 127.84C128.194 127.84 126.786 129.392 126.786 132C126.786 134.608 128.274 136.16 130.802 136.16C132.562 136.16 133.666 135.488 134.242 134.304L132.818 133.712C132.562 134.416 131.858 134.8 130.802 134.8C129.506 134.8 128.674 134.048 128.482 132.64H134.338C134.37 132.432 134.402 132.064 134.402 131.76ZM130.69 129.2C131.89 129.2 132.642 129.984 132.802 131.328H128.498C128.674 129.952 129.426 129.2 130.69 129.2ZM146.054 127.84C144.902 127.84 143.894 128.288 143.35 129.344L143.27 128H141.75V136H143.462V131.76C143.462 129.92 144.582 129.248 145.638 129.248C146.614 129.248 147.35 129.776 147.35 131.36V136H149.062V130.816C149.062 128.816 147.75 127.84 146.054 127.84ZM153.64 125.744C154.312 125.744 154.6 126.784 155.816 126.784C156.984 126.784 157.608 126.016 157.704 124.528H156.536C156.44 125.184 156.248 125.568 155.8 125.568C155.16 125.568 154.84 124.528 153.656 124.528C152.456 124.528 151.848 125.296 151.752 126.8H152.92C153.016 126.128 153.208 125.744 153.64 125.744ZM158.568 134.88C158.136 134.88 157.976 134.688 157.976 134.288V130.672C157.976 128.752 156.6 127.84 154.6 127.84C152.856 127.84 151.624 128.656 151.24 129.92L152.568 130.624C152.904 129.616 153.64 129.184 154.632 129.184C155.672 129.184 156.264 129.808 156.264 130.768V131.184L154.232 131.552C152.136 131.92 151.112 132.832 151.112 134.064C151.112 135.456 152.216 136.16 153.72 136.16C154.904 136.16 155.928 135.728 156.424 134.96C156.6 135.84 157.192 136.16 158.056 136.16C158.456 136.16 158.792 136.08 159.048 135.968L159.16 134.816C158.984 134.864 158.776 134.88 158.568 134.88ZM154.088 134.864C153.336 134.864 152.888 134.544 152.888 133.952C152.888 133.312 153.432 132.944 154.52 132.736L156.264 132.384V133.344C156.264 134.304 155.16 134.864 154.088 134.864ZM164.286 127.84C161.789 127.84 160.302 129.392 160.302 132C160.302 134.608 161.789 136.16 164.286 136.16C166.782 136.16 168.27 134.608 168.27 132C168.27 129.392 166.782 127.84 164.286 127.84ZM164.286 129.184C165.726 129.184 166.558 130.192 166.558 132C166.558 133.808 165.726 134.816 164.286 134.816C162.846 134.816 162.03 133.808 162.03 132C162.03 130.192 162.846 129.184 164.286 129.184ZM182.824 131.76C182.824 129.44 181.512 127.84 179.112 127.84C176.616 127.84 175.208 129.392 175.208 132C175.208 134.608 176.696 136.16 179.224 136.16C180.984 136.16 182.088 135.488 182.664 134.304L181.24 133.712C180.984 134.416 180.28 134.8 179.224 134.8C177.928 134.8 177.096 134.048 176.904 132.64H182.76C182.792 132.432 182.824 132.064 182.824 131.76ZM179.112 129.2C180.312 129.2 181.064 129.984 181.224 131.328H176.92C177.096 129.952 177.848 129.2 179.112 129.2ZM189.097 127.84C187.865 127.84 187.017 128.384 186.585 129.424L186.425 128H184.969V136H186.681V131.76C186.681 130.128 187.737 129.36 188.697 129.36C189.129 129.36 189.481 129.44 189.705 129.568L189.977 128C189.753 127.888 189.417 127.84 189.097 127.84ZM198.334 134.88C197.902 134.88 197.742 134.688 197.742 134.288V130.672C197.742 128.752 196.366 127.84 194.366 127.84C192.622 127.84 191.39 128.656 191.006 129.92L192.334 130.624C192.67 129.616 193.406 129.184 194.398 129.184C195.438 129.184 196.03 129.808 196.03 130.768V131.184L193.998 131.552C191.902 131.92 190.878 132.832 190.878 134.064C190.878 135.456 191.982 136.16 193.486 136.16C194.67 136.16 195.694 135.728 196.19 134.96C196.366 135.84 196.958 136.16 197.822 136.16C198.222 136.16 198.558 136.08 198.814 135.968L198.926 134.816C198.75 134.864 198.542 134.88 198.334 134.88ZM193.854 134.864C193.102 134.864 192.654 134.544 192.654 133.952C192.654 133.312 193.198 132.944 194.286 132.736L196.03 132.384V133.344C196.03 134.304 194.926 134.864 193.854 134.864ZM208.973 127.84C206.477 127.84 204.989 129.392 204.989 132C204.989 134.608 206.477 136.16 208.973 136.16C211.469 136.16 212.957 134.608 212.957 132C212.957 129.392 211.469 127.84 208.973 127.84ZM208.973 129.184C210.413 129.184 211.245 130.192 211.245 132C211.245 133.808 210.413 134.816 208.973 134.816C207.533 134.816 206.717 133.808 206.717 132C206.717 130.192 207.533 129.184 208.973 129.184ZM226.279 128L226.199 129.472C225.735 128.496 224.759 127.84 223.479 127.84C221.303 127.84 219.943 129.376 219.943 131.984C219.943 134.608 221.319 136.16 223.495 136.16C224.679 136.16 225.591 135.584 226.071 134.704V139.36H227.783V128H226.279ZM223.863 134.768C222.487 134.768 221.655 133.744 221.655 132C221.655 130.256 222.487 129.216 223.863 129.216C225.207 129.216 226.071 130.224 226.071 131.904V132.096C226.071 133.76 225.207 134.768 223.863 134.768ZM235.973 128V132.32C235.973 134.016 234.949 134.752 233.733 134.752C232.725 134.752 232.085 134.304 232.085 132.816V128H230.373V133.264C230.373 135.344 231.653 136.16 233.253 136.16C234.549 136.16 235.541 135.712 236.085 134.704L236.165 136H237.685V128H235.973ZM247.496 131.76C247.496 129.44 246.184 127.84 243.784 127.84C241.288 127.84 239.88 129.392 239.88 132C239.88 134.608 241.368 136.16 243.896 136.16C245.656 136.16 246.76 135.488 247.336 134.304L245.912 133.712C245.656 134.416 244.952 134.8 243.896 134.8C242.6 134.8 241.768 134.048 241.576 132.64H247.432C247.464 132.432 247.496 132.064 247.496 131.76ZM243.784 129.2C244.984 129.2 245.736 129.984 245.896 131.328H241.592C241.768 129.952 242.52 129.2 243.784 129.2ZM261.996 131.76C261.996 129.44 260.684 127.84 258.284 127.84C255.788 127.84 254.38 129.392 254.38 132C254.38 134.608 255.868 136.16 258.396 136.16C260.156 136.16 261.26 135.488 261.836 134.304L260.412 133.712C260.156 134.416 259.452 134.8 258.396 134.8C257.1 134.8 256.268 134.048 256.076 132.64H261.932C261.964 132.432 261.996 132.064 261.996 131.76ZM258.284 129.2C259.484 129.2 260.236 129.984 260.396 131.328H256.092C256.268 129.952 257.02 129.2 258.284 129.2ZM269.677 128V132.32C269.677 134.016 268.653 134.752 267.437 134.752C266.429 134.752 265.789 134.304 265.789 132.816V128H264.077V133.264C264.077 135.344 265.357 136.16 266.957 136.16C268.253 136.16 269.245 135.712 269.789 134.704L269.869 136H271.389V128H269.677ZM35.632 148.84C34.352 148.84 33.376 149.496 32.912 150.472L32.832 149H31.328V160.36H33.04V155.704C33.52 156.584 34.432 157.16 35.616 157.16C37.792 157.16 39.168 155.608 39.168 152.984C39.168 150.376 37.808 148.84 35.632 148.84ZM35.248 155.768C33.904 155.768 33.04 154.76 33.04 153.096V152.904C33.04 151.224 33.904 150.216 35.248 150.216C36.624 150.216 37.456 151.256 37.456 153C37.456 154.744 36.624 155.768 35.248 155.768ZM45.5185 148.84C44.2865 148.84 43.4385 149.384 43.0065 150.424L42.8465 149H41.3905V157H43.1025V152.76C43.1025 151.128 44.1585 150.36 45.1185 150.36C45.5505 150.36 45.9025 150.44 46.1265 150.568L46.3985 149C46.1745 148.888 45.8385 148.84 45.5185 148.84ZM51.3324 148.84C48.8364 148.84 47.3484 150.392 47.3484 153C47.3484 155.608 48.8364 157.16 51.3324 157.16C53.8284 157.16 55.3164 155.608 55.3164 153C55.3164 150.392 53.8284 148.84 51.3324 148.84ZM51.3324 150.184C52.7724 150.184 53.6044 151.192 53.6044 153C53.6044 154.808 52.7724 155.816 51.3324 155.816C49.8924 155.816 49.0764 154.808 49.0764 153C49.0764 151.192 49.8924 150.184 51.3324 150.184ZM61.0355 148.84C58.5395 148.84 57.0515 150.392 57.0515 153C57.0515 155.608 58.5395 157.16 61.0675 157.16C62.9235 157.16 64.1235 156.232 64.5715 154.776L63.0035 154.248C62.7955 155.24 62.1395 155.8 61.0355 155.8C59.6275 155.8 58.7795 154.824 58.7795 153.016C58.7795 151.208 59.6115 150.2 61.0355 150.2C62.0275 150.2 62.6355 150.728 62.9075 151.72L64.5075 151.08C64.0115 149.768 62.9715 148.84 61.0355 148.84ZM72.114 149V153.32C72.114 155.016 71.09 155.752 69.874 155.752C68.866 155.752 68.226 155.304 68.226 153.816V149H66.514V154.264C66.514 156.344 67.794 157.16 69.394 157.16C70.69 157.16 71.682 156.712 72.226 155.704L72.306 157H73.826V149H72.114ZM80.6123 148.84C79.3802 148.84 78.5323 149.384 78.1003 150.424L77.9403 149H76.4843V157H78.1963V152.76C78.1963 151.128 79.2523 150.36 80.2123 150.36C80.6443 150.36 80.9963 150.44 81.2203 150.568L81.4923 149C81.2683 148.888 80.9323 148.84 80.6123 148.84ZM89.8494 155.88C89.4174 155.88 89.2574 155.688 89.2574 155.288V151.672C89.2574 149.752 87.8814 148.84 85.8814 148.84C84.1374 148.84 82.9054 149.656 82.5214 150.92L83.8494 151.624C84.1854 150.616 84.9214 150.184 85.9134 150.184C86.9534 150.184 87.5454 150.808 87.5454 151.768V152.184L85.5134 152.552C83.4174 152.92 82.3934 153.832 82.3934 155.064C82.3934 156.456 83.4974 157.16 85.0014 157.16C86.1854 157.16 87.2094 156.728 87.7054 155.96C87.8814 156.84 88.4734 157.16 89.3374 157.16C89.7374 157.16 90.0734 157.08 90.3294 156.968L90.4414 155.816C90.2654 155.864 90.0574 155.88 89.8494 155.88ZM85.3694 155.864C84.6174 155.864 84.1694 155.544 84.1694 154.952C84.1694 154.312 84.7134 153.944 85.8014 153.736L87.5454 153.384V154.344C87.5454 155.304 86.4414 155.864 85.3694 155.864ZM97.0451 149L94.7251 155.608L92.4691 149H90.5811L93.7811 157H95.6531L98.8371 149H97.0451ZM107.021 155.88C106.589 155.88 106.429 155.688 106.429 155.288V151.672C106.429 149.752 105.053 148.84 103.053 148.84C101.309 148.84 100.077 149.656 99.6933 150.92L101.021 151.624C101.357 150.616 102.093 150.184 103.085 150.184C104.125 150.184 104.717 150.808 104.717 151.768V152.184L102.685 152.552C100.589 152.92 99.5653 153.832 99.5653 155.064C99.5653 156.456 100.669 157.16 102.173 157.16C103.357 157.16 104.381 156.728 104.877 155.96C105.053 156.84 105.645 157.16 106.509 157.16C106.909 157.16 107.245 157.08 107.501 156.968L107.613 155.816C107.437 155.864 107.229 155.88 107.021 155.88ZM102.541 155.864C101.789 155.864 101.341 155.544 101.341 154.952C101.341 154.312 101.885 153.944 102.973 153.736L104.717 153.384V154.344C104.717 155.304 103.613 155.864 102.541 155.864ZM110.272 154.84C109.536 154.84 109.056 155.288 109.056 155.992C109.056 156.696 109.536 157.16 110.272 157.16C111.008 157.16 111.472 156.696 111.472 155.992C111.472 155.288 111.008 154.84 110.272 154.84ZM115.008 154.84C114.272 154.84 113.792 155.288 113.792 155.992C113.792 156.696 114.272 157.16 115.008 157.16C115.744 157.16 116.208 156.696 116.208 155.992C116.208 155.288 115.744 154.84 115.008 154.84ZM119.744 154.84C119.008 154.84 118.528 155.288 118.528 155.992C118.528 156.696 119.008 157.16 119.744 157.16C120.48 157.16 120.944 156.696 120.944 155.992C120.944 155.288 120.48 154.84 119.744 154.84ZM135.184 157H136.992L133.008 146.44H130.96L126.976 157H128.736L129.744 154.232H134.192L135.184 157ZM130.24 152.84L131.488 149.416L131.936 147.928H131.984L132.464 149.448L133.68 152.84H130.24ZM144.373 149L144.293 150.472C143.829 149.496 142.853 148.84 141.573 148.84C139.397 148.84 138.037 150.376 138.037 152.984C138.037 155.608 139.413 157.16 141.589 157.16C142.773 157.16 143.685 156.584 144.165 155.704V160.36H145.877V149H144.373ZM141.957 155.768C140.581 155.768 139.749 154.744 139.749 153C139.749 151.256 140.581 150.216 141.957 150.216C143.301 150.216 144.165 151.224 144.165 152.904V153.096C144.165 154.76 143.301 155.768 141.957 155.768ZM154.067 149V153.32C154.067 155.016 153.043 155.752 151.827 155.752C150.819 155.752 150.179 155.304 150.179 153.816V149H148.467V154.264C148.467 156.344 149.747 157.16 151.347 157.16C152.643 157.16 153.635 156.712 154.179 155.704L154.259 157H155.779V149H154.067ZM159.301 147.656C160.037 147.656 160.437 147.256 160.437 146.584C160.437 145.912 160.037 145.528 159.301 145.528C158.565 145.528 158.149 145.912 158.149 146.584C158.149 147.256 158.565 147.656 159.301 147.656ZM160.149 149H158.437V157H160.149V149ZM172.335 148.84C171.183 148.84 170.175 149.288 169.631 150.344L169.551 149H168.031V157H169.743V152.76C169.743 150.92 170.863 150.248 171.919 150.248C172.895 150.248 173.631 150.776 173.631 152.36V157H175.343V151.816C175.343 149.816 174.031 148.84 172.335 148.84ZM181.457 148.84C178.961 148.84 177.473 150.392 177.473 153C177.473 155.608 178.961 157.16 181.457 157.16C183.953 157.16 185.441 155.608 185.441 153C185.441 150.392 183.953 148.84 181.457 148.84ZM181.457 150.184C182.897 150.184 183.729 151.192 183.729 153C183.729 154.808 182.897 155.816 181.457 155.816C180.017 155.816 179.201 154.808 179.201 153C179.201 151.192 180.017 150.184 181.457 150.184ZM201.836 154.2L200.204 153.656C199.804 155 198.828 155.672 197.484 155.672C195.484 155.672 194.284 154.216 194.284 151.72C194.284 149.208 195.58 147.768 197.548 147.768C198.86 147.768 199.644 148.344 200.06 149.592L201.676 148.872C201.036 147.16 199.548 146.28 197.452 146.28C194.428 146.28 192.492 148.36 192.492 151.72C192.492 155.08 194.412 157.16 197.468 157.16C199.532 157.16 201.18 156.136 201.836 154.2ZM210.693 155.88C210.261 155.88 210.101 155.688 210.101 155.288V151.672C210.101 149.752 208.725 148.84 206.725 148.84C204.981 148.84 203.749 149.656 203.365 150.92L204.693 151.624C205.029 150.616 205.765 150.184 206.757 150.184C207.797 150.184 208.389 150.808 208.389 151.768V152.184L206.357 152.552C204.261 152.92 203.237 153.832 203.237 155.064C203.237 156.456 204.341 157.16 205.845 157.16C207.029 157.16 208.053 156.728 208.549 155.96C208.725 156.84 209.317 157.16 210.181 157.16C210.581 157.16 210.917 157.08 211.173 156.968L211.285 155.816C211.109 155.864 210.901 155.88 210.693 155.88ZM206.213 155.864C205.461 155.864 205.013 155.544 205.013 154.952C205.013 154.312 205.557 153.944 206.645 153.736L208.389 153.384V154.344C208.389 155.304 207.285 155.864 206.213 155.864ZM217.21 148.84C216.058 148.84 215.05 149.288 214.506 150.344L214.426 149H212.906V157H214.618V152.76C214.618 150.92 215.738 150.248 216.794 150.248C217.77 150.248 218.506 150.776 218.506 152.36V157H220.218V151.816C220.218 149.816 218.906 148.84 217.21 148.84ZM227.503 155.224C227.151 155.544 226.751 155.736 226.207 155.736C225.503 155.736 225.039 155.384 225.039 154.6V150.344H227.839V149H225.039V146.648L223.327 147.128V149H221.807V150.344H223.327V154.888C223.343 156.536 224.399 157.16 225.775 157.16C226.639 157.16 227.391 156.904 227.903 156.472L227.503 155.224ZM236.652 152.76C236.652 150.44 235.34 148.84 232.94 148.84C230.444 148.84 229.036 150.392 229.036 153C229.036 155.608 230.524 157.16 233.052 157.16C234.812 157.16 235.916 156.488 236.492 155.304L235.068 154.712C234.812 155.416 234.108 155.8 233.052 155.8C231.756 155.8 230.924 155.048 230.732 153.64H236.588C236.62 153.432 236.652 153.064 236.652 152.76ZM232.94 150.2C234.14 150.2 234.892 150.984 235.052 152.328H230.748C230.924 150.952 231.676 150.2 232.94 150.2ZM250.912 155.88C250.48 155.88 250.32 155.688 250.32 155.288V151.672C250.32 149.752 248.944 148.84 246.944 148.84C245.2 148.84 243.968 149.656 243.584 150.92L244.912 151.624C245.248 150.616 245.984 150.184 246.976 150.184C248.016 150.184 248.608 150.808 248.608 151.768V152.184L246.576 152.552C244.48 152.92 243.456 153.832 243.456 155.064C243.456 156.456 244.56 157.16 246.064 157.16C247.248 157.16 248.272 156.728 248.768 155.96C248.944 156.84 249.536 157.16 250.4 157.16C250.8 157.16 251.136 157.08 251.392 156.968L251.504 155.816C251.328 155.864 251.12 155.88 250.912 155.88ZM246.432 155.864C245.68 155.864 245.232 155.544 245.232 154.952C245.232 154.312 245.776 153.944 246.864 153.736L248.608 153.384V154.344C248.608 155.304 247.504 155.864 246.432 155.864ZM256.021 157.16C258.229 157.16 259.509 156.152 259.509 154.744C259.509 153.416 258.693 152.728 256.405 152.312C254.901 152.04 254.437 151.736 254.437 151.16C254.437 150.664 255.109 150.184 256.101 150.184C257.141 150.184 257.829 150.584 258.229 151.544L259.445 150.648C258.869 149.416 257.861 148.84 256.085 148.84C253.941 148.84 252.725 150.024 252.725 151.32C252.725 152.664 253.557 153.352 255.941 153.8C257.333 154.072 257.797 154.36 257.797 154.856C257.797 155.4 257.221 155.816 256.085 155.816C254.965 155.816 254.021 155.448 253.605 154.488L252.453 155.48C253.125 156.648 254.469 157.16 256.021 157.16ZM33.28 176.528V173.392H37.92V171.952H33.28V168.912H39.216V167.44H31.568V178H39.44V176.528H33.28ZM44.3959 178.16C46.6039 178.16 47.8839 177.152 47.8839 175.744C47.8839 174.416 47.0679 173.728 44.7799 173.312C43.2759 173.04 42.8119 172.736 42.8119 172.16C42.8119 171.664 43.4839 171.184 44.4759 171.184C45.5159 171.184 46.2039 171.584 46.6039 172.544L47.8199 171.648C47.2439 170.416 46.2359 169.84 44.4599 169.84C42.3159 169.84 41.0999 171.024 41.0999 172.32C41.0999 173.664 41.9319 174.352 44.3159 174.8C45.7079 175.072 46.1719 175.36 46.1719 175.856C46.1719 176.4 45.5959 176.816 44.4599 176.816C43.3399 176.816 42.3959 176.448 41.9799 175.488L40.8279 176.48C41.4999 177.648 42.8439 178.16 44.3959 178.16ZM53.473 169.84C50.977 169.84 49.489 171.392 49.489 174C49.489 176.608 50.977 178.16 53.505 178.16C55.361 178.16 56.561 177.232 57.009 175.776L55.441 175.248C55.233 176.24 54.577 176.8 53.473 176.8C52.065 176.8 51.217 175.824 51.217 174.016C51.217 172.208 52.049 171.2 53.473 171.2C54.465 171.2 55.073 171.728 55.345 172.72L56.945 172.08C56.449 170.768 55.409 169.84 53.473 169.84ZM63.1435 169.84C61.9115 169.84 61.0635 170.384 60.6315 171.424L60.4715 170H59.0155V178H60.7275V173.76C60.7275 172.128 61.7835 171.36 62.7435 171.36C63.1755 171.36 63.5275 171.44 63.7515 171.568L64.0235 170C63.7995 169.888 63.4635 169.84 63.1435 169.84ZM66.5045 168.656C67.2405 168.656 67.6405 168.256 67.6405 167.584C67.6405 166.912 67.2405 166.528 66.5045 166.528C65.7685 166.528 65.3525 166.912 65.3525 167.584C65.3525 168.256 65.7685 168.656 66.5045 168.656ZM67.3525 170H65.6405V178H67.3525V170ZM74.8151 176.224C74.4631 176.544 74.0631 176.736 73.5191 176.736C72.8151 176.736 72.3511 176.384 72.3511 175.6V171.344H75.1511V170H72.3511V167.648L70.6391 168.128V170H69.1191V171.344H70.6391V175.888C70.6551 177.536 71.7111 178.16 73.0871 178.16C73.9511 178.16 74.7031 177.904 75.2151 177.472L74.8151 176.224ZM82.3484 170V174.32C82.3484 176.016 81.3244 176.752 80.1084 176.752C79.1004 176.752 78.4604 176.304 78.4604 174.816V170H76.7484V175.264C76.7484 177.344 78.0284 178.16 79.6284 178.16C80.9244 178.16 81.9164 177.712 82.4604 176.704L82.5404 178H84.0604V170H82.3484ZM90.8466 169.84C89.6146 169.84 88.7666 170.384 88.3346 171.424L88.1746 170H86.7186V178H88.4306V173.76C88.4306 172.128 89.4866 171.36 90.4466 171.36C90.8786 171.36 91.2306 171.44 91.4546 171.568L91.7266 170C91.5026 169.888 91.1666 169.84 90.8466 169.84ZM100.084 176.88C99.6518 176.88 99.4918 176.688 99.4918 176.288V172.672C99.4918 170.752 98.1158 169.84 96.1158 169.84C94.3718 169.84 93.1398 170.656 92.7558 171.92L94.0838 172.624C94.4198 171.616 95.1558 171.184 96.1478 171.184C97.1878 171.184 97.7798 171.808 97.7798 172.768V173.184L95.7478 173.552C93.6518 173.92 92.6278 174.832 92.6278 176.064C92.6278 177.456 93.7318 178.16 95.2358 178.16C96.4198 178.16 97.4438 177.728 97.9398 176.96C98.1158 177.84 98.7078 178.16 99.5718 178.16C99.9718 178.16 100.308 178.08 100.564 177.968L100.676 176.816C100.5 176.864 100.292 176.88 100.084 176.88ZM95.6038 176.864C94.8518 176.864 94.4038 176.544 94.4038 175.952C94.4038 175.312 94.9478 174.944 96.0358 174.736L97.7798 174.384V175.344C97.7798 176.304 96.6758 176.864 95.6038 176.864ZM105.193 178.16C107.401 178.16 108.681 177.152 108.681 175.744C108.681 174.416 107.865 173.728 105.577 173.312C104.073 173.04 103.609 172.736 103.609 172.16C103.609 171.664 104.281 171.184 105.273 171.184C106.313 171.184 107.001 171.584 107.401 172.544L108.617 171.648C108.041 170.416 107.033 169.84 105.257 169.84C103.113 169.84 101.897 171.024 101.897 172.32C101.897 173.664 102.729 174.352 105.113 174.8C106.505 175.072 106.969 175.36 106.969 175.856C106.969 176.4 106.393 176.816 105.257 176.816C104.137 176.816 103.193 176.448 102.777 175.488L101.625 176.48C102.297 177.648 103.641 178.16 105.193 178.16ZM121.345 166.064H119.617L118.449 168.752H119.761L121.345 166.064ZM123.121 173.76C123.121 171.44 121.809 169.84 119.409 169.84C116.913 169.84 115.505 171.392 115.505 174C115.505 176.608 116.993 178.16 119.521 178.16C121.281 178.16 122.385 177.488 122.961 176.304L121.537 175.712C121.281 176.416 120.577 176.8 119.521 176.8C118.225 176.8 117.393 176.048 117.201 174.64H123.057C123.089 174.432 123.121 174.064 123.121 173.76ZM119.409 171.2C120.609 171.2 121.361 171.984 121.521 173.328H117.217C117.393 171.952 118.145 171.2 119.409 171.2ZM135.003 176.224C134.651 176.544 134.251 176.736 133.707 176.736C133.003 176.736 132.539 176.384 132.539 175.6V171.344H135.339V170H132.539V167.648L130.827 168.128V170H129.307V171.344H130.827V175.888C130.843 177.536 131.899 178.16 133.275 178.16C134.139 178.16 134.891 177.904 135.403 177.472L135.003 176.224ZM142.536 170V174.32C142.536 176.016 141.512 176.752 140.296 176.752C139.288 176.752 138.648 176.304 138.648 174.816V170H136.936V175.264C136.936 177.344 138.216 178.16 139.816 178.16C141.112 178.16 142.104 177.712 142.648 176.704L142.728 178H144.248V170H142.536ZM152.602 166.4V171.296C152.122 170.416 151.21 169.84 150.026 169.84C147.85 169.84 146.474 171.392 146.474 174.016C146.474 176.624 147.834 178.16 150.01 178.16C151.274 178.16 152.25 177.504 152.714 176.56L152.81 178H154.314V166.4H152.602ZM150.394 176.784C149.018 176.784 148.186 175.744 148.186 174C148.186 172.256 149.018 171.232 150.394 171.232C151.738 171.232 152.602 172.24 152.602 173.904V174.096C152.602 175.776 151.738 176.784 150.394 176.784ZM160.489 169.84C157.993 169.84 156.505 171.392 156.505 174C156.505 176.608 157.993 178.16 160.489 178.16C162.985 178.16 164.473 176.608 164.473 174C164.473 171.392 162.985 169.84 160.489 169.84ZM160.489 171.184C161.929 171.184 162.761 172.192 162.761 174C162.761 175.808 161.929 176.816 160.489 176.816C159.049 176.816 158.233 175.808 158.233 174C158.233 172.192 159.049 171.184 160.489 171.184ZM176.179 169.84C174.899 169.84 173.923 170.496 173.459 171.472L173.379 170H171.875V181.36H173.587V176.704C174.067 177.584 174.979 178.16 176.163 178.16C178.339 178.16 179.715 176.608 179.715 173.984C179.715 171.376 178.355 169.84 176.179 169.84ZM175.795 176.768C174.451 176.768 173.587 175.76 173.587 174.096V173.904C173.587 172.224 174.451 171.216 175.795 171.216C177.171 171.216 178.003 172.256 178.003 174C178.003 175.744 177.171 176.768 175.795 176.768ZM188.834 176.88C188.402 176.88 188.242 176.688 188.242 176.288V172.672C188.242 170.752 186.866 169.84 184.866 169.84C183.122 169.84 181.89 170.656 181.506 171.92L182.834 172.624C183.17 171.616 183.906 171.184 184.898 171.184C185.938 171.184 186.53 171.808 186.53 172.768V173.184L184.498 173.552C182.402 173.92 181.378 174.832 181.378 176.064C181.378 177.456 182.482 178.16 183.986 178.16C185.17 178.16 186.194 177.728 186.69 176.96C186.866 177.84 187.458 178.16 188.322 178.16C188.722 178.16 189.058 178.08 189.314 177.968L189.426 176.816C189.25 176.864 189.042 176.88 188.834 176.88ZM184.354 176.864C183.602 176.864 183.154 176.544 183.154 175.952C183.154 175.312 183.698 174.944 184.786 174.736L186.53 174.384V175.344C186.53 176.304 185.426 176.864 184.354 176.864ZM193.943 178.16C196.151 178.16 197.431 177.152 197.431 175.744C197.431 174.416 196.615 173.728 194.327 173.312C192.823 173.04 192.359 172.736 192.359 172.16C192.359 171.664 193.031 171.184 194.023 171.184C195.063 171.184 195.751 171.584 196.151 172.544L197.367 171.648C196.791 170.416 195.783 169.84 194.007 169.84C191.863 169.84 190.647 171.024 190.647 172.32C190.647 173.664 191.479 174.352 193.863 174.8C195.255 175.072 195.719 175.36 195.719 175.856C195.719 176.4 195.143 176.816 194.007 176.816C192.887 176.816 191.943 176.448 191.527 175.488L190.375 176.48C191.047 177.648 192.391 178.16 193.943 178.16ZM202.411 178.16C204.62 178.16 205.9 177.152 205.9 175.744C205.9 174.416 205.084 173.728 202.796 173.312C201.292 173.04 200.828 172.736 200.828 172.16C200.828 171.664 201.5 171.184 202.492 171.184C203.532 171.184 204.22 171.584 204.62 172.544L205.836 171.648C205.26 170.416 204.252 169.84 202.476 169.84C200.332 169.84 199.116 171.024 199.116 172.32C199.116 173.664 199.948 174.352 202.332 174.8C203.724 175.072 204.188 175.36 204.188 175.856C204.188 176.4 203.612 176.816 202.476 176.816C201.356 176.816 200.412 176.448 199.996 175.488L198.844 176.48C199.516 177.648 200.86 178.16 202.411 178.16ZM211.489 169.84C208.993 169.84 207.505 171.392 207.505 174C207.505 176.608 208.993 178.16 211.489 178.16C213.985 178.16 215.473 176.608 215.473 174C215.473 171.392 213.985 169.84 211.489 169.84ZM211.489 171.184C212.929 171.184 213.761 172.192 213.761 174C213.761 175.808 212.929 176.816 211.489 176.816C210.049 176.816 209.233 175.808 209.233 174C209.233 172.192 210.049 171.184 211.489 171.184ZM229.787 176.88C229.355 176.88 229.195 176.688 229.195 176.288V172.672C229.195 170.752 227.819 169.84 225.819 169.84C224.075 169.84 222.843 170.656 222.459 171.92L223.787 172.624C224.123 171.616 224.859 171.184 225.851 171.184C226.891 171.184 227.483 171.808 227.483 172.768V173.184L225.451 173.552C223.355 173.92 222.331 174.832 222.331 176.064C222.331 177.456 223.435 178.16 224.939 178.16C226.123 178.16 227.147 177.728 227.643 176.96C227.819 177.84 228.411 178.16 229.275 178.16C229.675 178.16 230.011 178.08 230.267 177.968L230.379 176.816C230.203 176.864 229.995 176.88 229.787 176.88ZM225.307 176.864C224.555 176.864 224.107 176.544 224.107 175.952C224.107 175.312 224.651 174.944 225.739 174.736L227.483 174.384V175.344C227.483 176.304 226.379 176.864 225.307 176.864ZM241.21 169.84C239.93 169.84 238.954 170.496 238.49 171.472L238.41 170H236.906V181.36H238.618V176.704C239.098 177.584 240.01 178.16 241.194 178.16C243.37 178.16 244.746 176.608 244.746 173.984C244.746 171.376 243.386 169.84 241.21 169.84ZM240.826 176.768C239.482 176.768 238.618 175.76 238.618 174.096V173.904C238.618 172.224 239.482 171.216 240.826 171.216C242.202 171.216 243.034 172.256 243.034 174C243.034 175.744 242.202 176.768 240.826 176.768ZM253.865 176.88C253.433 176.88 253.273 176.688 253.273 176.288V172.672C253.273 170.752 251.897 169.84 249.897 169.84C248.153 169.84 246.921 170.656 246.537 171.92L247.865 172.624C248.201 171.616 248.937 171.184 249.929 171.184C250.969 171.184 251.561 171.808 251.561 172.768V173.184L249.529 173.552C247.433 173.92 246.409 174.832 246.409 176.064C246.409 177.456 247.513 178.16 249.017 178.16C250.201 178.16 251.225 177.728 251.721 176.96C251.897 177.84 252.489 178.16 253.353 178.16C253.753 178.16 254.089 178.08 254.345 177.968L254.457 176.816C254.281 176.864 254.073 176.88 253.865 176.88ZM249.385 176.864C248.633 176.864 248.185 176.544 248.185 175.952C248.185 175.312 248.729 174.944 249.817 174.736L251.561 174.384V175.344C251.561 176.304 250.457 176.864 249.385 176.864ZM258.974 178.16C261.182 178.16 262.462 177.152 262.462 175.744C262.462 174.416 261.646 173.728 259.358 173.312C257.854 173.04 257.39 172.736 257.39 172.16C257.39 171.664 258.062 171.184 259.054 171.184C260.094 171.184 260.782 171.584 261.182 172.544L262.398 171.648C261.822 170.416 260.814 169.84 259.038 169.84C256.894 169.84 255.678 171.024 255.678 172.32C255.678 173.664 256.51 174.352 258.894 174.8C260.286 175.072 260.75 175.36 260.75 175.856C260.75 176.4 260.174 176.816 259.038 176.816C257.918 176.816 256.974 176.448 256.558 175.488L255.406 176.48C256.078 177.648 257.422 178.16 258.974 178.16ZM267.443 178.16C269.651 178.16 270.931 177.152 270.931 175.744C270.931 174.416 270.115 173.728 267.827 173.312C266.323 173.04 265.859 172.736 265.859 172.16C265.859 171.664 266.531 171.184 267.523 171.184C268.563 171.184 269.251 171.584 269.651 172.544L270.867 171.648C270.291 170.416 269.283 169.84 267.507 169.84C265.363 169.84 264.147 171.024 264.147 172.32C264.147 173.664 264.979 174.352 267.363 174.8C268.755 175.072 269.219 175.36 269.219 175.856C269.219 176.4 268.643 176.816 267.507 176.816C266.387 176.816 265.443 176.448 265.027 175.488L263.875 176.48C264.547 177.648 265.891 178.16 267.443 178.16ZM276.52 169.84C274.024 169.84 272.536 171.392 272.536 174C272.536 176.608 274.024 178.16 276.52 178.16C279.016 178.16 280.504 176.608 280.504 174C280.504 171.392 279.016 169.84 276.52 169.84ZM276.52 171.184C277.96 171.184 278.792 172.192 278.792 174C278.792 175.808 277.96 176.816 276.52 176.816C275.08 176.816 274.264 175.808 274.264 174C274.264 172.192 275.08 171.184 276.52 171.184ZM283.27 175.84C282.534 175.84 282.054 176.288 282.054 176.992C282.054 177.696 282.534 178.16 283.27 178.16C284.006 178.16 284.47 177.696 284.47 176.992C284.47 176.288 284.006 175.84 283.27 175.84ZM34.528 187.048C32.208 188.92 31.008 191.448 31.008 194.552C31.008 197.64 32.208 200.168 34.528 202.04L35.424 201.144C33.408 199.304 32.656 197.448 32.656 194.552C32.656 191.656 33.408 189.784 35.424 187.944L34.528 187.048ZM37.9889 196.84C37.2529 196.84 36.7729 197.288 36.7729 197.992C36.7729 198.696 37.2529 199.16 37.9889 199.16C38.7249 199.16 39.1889 198.696 39.1889 197.992C39.1889 197.288 38.7249 196.84 37.9889 196.84ZM42.3639 196.84C41.6279 196.84 41.1479 197.288 41.1479 197.992C41.1479 198.696 41.6279 199.16 42.3639 199.16C43.0999 199.16 43.5639 198.696 43.5639 197.992C43.5639 197.288 43.0999 196.84 42.3639 196.84ZM46.7389 196.84C46.0029 196.84 45.5229 197.288 45.5229 197.992C45.5229 198.696 46.0029 199.16 46.7389 199.16C47.4749 199.16 47.9389 198.696 47.9389 197.992C47.9389 197.288 47.4749 196.84 46.7389 196.84ZM50.1859 187.048L49.2899 187.944C51.3059 189.784 52.0579 191.656 52.0579 194.552C52.0579 197.448 51.3059 199.304 49.2899 201.144L50.1859 202.04C52.5059 200.168 53.7059 197.64 53.7059 194.552C53.7059 191.448 52.5059 188.92 50.1859 187.048ZM63.2019 197.528V194.392H67.8419V192.952H63.2019V189.912H69.1379V188.44H61.4899V199H69.3619V197.528H63.2019ZM74.3177 199.16C76.5258 199.16 77.8058 198.152 77.8058 196.744C77.8058 195.416 76.9898 194.728 74.7018 194.312C73.1978 194.04 72.7338 193.736 72.7338 193.16C72.7338 192.664 73.4058 192.184 74.3978 192.184C75.4378 192.184 76.1258 192.584 76.5258 193.544L77.7418 192.648C77.1658 191.416 76.1578 190.84 74.3818 190.84C72.2378 190.84 71.0218 192.024 71.0218 193.32C71.0218 194.664 71.8538 195.352 74.2378 195.8C75.6298 196.072 76.0938 196.36 76.0938 196.856C76.0938 197.4 75.5178 197.816 74.3818 197.816C73.2618 197.816 72.3178 197.448 71.9018 196.488L70.7498 197.48C71.4218 198.648 72.7658 199.16 74.3177 199.16ZM84.6745 197.224C84.3225 197.544 83.9225 197.736 83.3785 197.736C82.6745 197.736 82.2105 197.384 82.2105 196.6V192.344H85.0105V191H82.2105V188.648L80.4985 189.128V191H78.9785V192.344H80.4985V196.888C80.5145 198.536 81.5705 199.16 82.9465 199.16C83.8105 199.16 84.5625 198.904 85.0745 198.472L84.6745 197.224ZM90.1918 190.84C87.6957 190.84 86.2078 192.392 86.2078 195C86.2078 197.608 87.6957 199.16 90.1918 199.16C92.6878 199.16 94.1758 197.608 94.1758 195C94.1758 192.392 92.6878 190.84 90.1918 190.84ZM90.1918 192.184C91.6318 192.184 92.4638 193.192 92.4638 195C92.4638 196.808 91.6318 197.816 90.1918 197.816C88.7518 197.816 87.9358 196.808 87.9358 195C87.9358 193.192 88.7518 192.184 90.1918 192.184ZM101.911 191V195.32C101.911 197.016 100.887 197.752 99.6709 197.752C98.6629 197.752 98.0229 197.304 98.0229 195.816V191H96.3109V196.264C96.3109 198.344 97.5909 199.16 99.1909 199.16C100.487 199.16 101.479 198.712 102.023 197.704L102.103 199H103.623V191H101.911ZM121.132 190.84C120.06 190.84 118.892 191.352 118.364 192.44C117.884 191.352 116.812 190.84 115.676 190.84C114.636 190.84 113.644 191.32 113.084 192.328L113.004 191H111.484V199H113.196V194.744C113.196 192.952 114.316 192.248 115.276 192.248C116.22 192.248 116.924 192.776 116.924 194.088V199H118.636V194.648C118.636 193.096 119.596 192.248 120.716 192.248C121.66 192.248 122.364 192.776 122.364 194.088V199H124.076V193.816C124.092 191.784 122.668 190.84 121.132 190.84ZM132.208 191V195.32C132.208 197.016 131.184 197.752 129.968 197.752C128.96 197.752 128.32 197.304 128.32 195.816V191H126.608V196.264C126.608 198.344 127.888 199.16 129.488 199.16C130.784 199.16 131.776 198.712 132.32 197.704L132.4 199H133.92V191H132.208ZM137.442 189.656C138.178 189.656 138.578 189.256 138.578 188.584C138.578 187.912 138.178 187.528 137.442 187.528C136.706 187.528 136.29 187.912 136.29 188.584C136.29 189.256 136.706 189.656 137.442 189.656ZM138.29 191H136.578V199H138.29V191ZM145.753 197.224C145.401 197.544 145.001 197.736 144.457 197.736C143.753 197.736 143.289 197.384 143.289 196.6V192.344H146.089V191H143.289V188.648L141.577 189.128V191H140.057V192.344H141.577V196.888C141.593 198.536 142.649 199.16 144.025 199.16C144.889 199.16 145.641 198.904 146.153 198.472L145.753 197.224ZM151.27 190.84C148.774 190.84 147.286 192.392 147.286 195C147.286 197.608 148.774 199.16 151.27 199.16C153.766 199.16 155.254 197.608 155.254 195C155.254 192.392 153.766 190.84 151.27 190.84ZM151.27 192.184C152.71 192.184 153.542 193.192 153.542 195C153.542 196.808 152.71 197.816 151.27 197.816C149.83 197.816 149.014 196.808 149.014 195C149.014 193.192 149.83 192.184 151.27 192.184ZM165.552 199.16C167.76 199.16 169.04 198.152 169.04 196.744C169.04 195.416 168.224 194.728 165.936 194.312C164.432 194.04 163.968 193.736 163.968 193.16C163.968 192.664 164.64 192.184 165.632 192.184C166.672 192.184 167.36 192.584 167.76 193.544L168.976 192.648C168.4 191.416 167.392 190.84 165.616 190.84C163.472 190.84 162.256 192.024 162.256 193.32C162.256 194.664 163.088 195.352 165.472 195.8C166.864 196.072 167.328 196.36 167.328 196.856C167.328 197.4 166.752 197.816 165.616 197.816C164.496 197.816 163.552 197.448 163.136 196.488L161.984 197.48C162.656 198.648 164 199.16 165.552 199.16ZM178.037 197.88C177.605 197.88 177.445 197.688 177.445 197.288V193.672C177.445 191.752 176.069 190.84 174.069 190.84C172.325 190.84 171.093 191.656 170.709 192.92L172.037 193.624C172.373 192.616 173.109 192.184 174.101 192.184C175.141 192.184 175.733 192.808 175.733 193.768V194.184L173.701 194.552C171.605 194.92 170.581 195.832 170.581 197.064C170.581 198.456 171.685 199.16 173.189 199.16C174.373 199.16 175.397 198.728 175.893 197.96C176.069 198.84 176.661 199.16 177.525 199.16C177.925 199.16 178.261 199.08 178.517 198.968L178.629 197.816C178.453 197.864 178.245 197.88 178.037 197.88ZM173.557 197.864C172.805 197.864 172.357 197.544 172.357 196.952C172.357 196.312 172.901 195.944 173.989 195.736L175.733 195.384V196.344C175.733 197.304 174.629 197.864 173.557 197.864ZM184.721 197.224C184.369 197.544 183.969 197.736 183.425 197.736C182.721 197.736 182.257 197.384 182.257 196.6V192.344H185.057V191H182.257V188.648L180.545 189.128V191H179.025V192.344H180.545V196.888C180.561 198.536 181.617 199.16 182.993 199.16C183.857 199.16 184.609 198.904 185.121 198.472L184.721 197.224ZM187.583 189.656C188.319 189.656 188.719 189.256 188.719 188.584C188.719 187.912 188.319 187.528 187.583 187.528C186.847 187.528 186.431 187.912 186.431 188.584C186.431 189.256 186.847 189.656 187.583 189.656ZM188.431 191H186.719V199H188.431V191ZM194.005 199.16C196.213 199.16 197.493 198.152 197.493 196.744C197.493 195.416 196.677 194.728 194.389 194.312C192.885 194.04 192.421 193.736 192.421 193.16C192.421 192.664 193.093 192.184 194.085 192.184C195.125 192.184 195.813 192.584 196.213 193.544L197.429 192.648C196.853 191.416 195.845 190.84 194.069 190.84C191.925 190.84 190.709 192.024 190.709 193.32C190.709 194.664 191.541 195.352 193.925 195.8C195.317 196.072 195.781 196.36 195.781 196.856C195.781 197.4 195.205 197.816 194.069 197.816C192.949 197.816 192.005 197.448 191.589 196.488L190.437 197.48C191.109 198.648 192.453 199.16 194.005 199.16ZM201.85 189.976C201.85 189.064 202.362 188.68 203.258 188.68C203.642 188.68 203.93 188.76 204.17 188.92L204.49 187.672C204.186 187.432 203.626 187.288 202.986 187.288C201.21 187.288 200.186 188.232 200.186 189.848V191H198.682V192.344H200.186V199H201.898V192.344H204.442V191H201.85V189.976ZM212.964 194.76C212.964 192.44 211.652 190.84 209.252 190.84C206.756 190.84 205.348 192.392 205.348 195C205.348 197.608 206.836 199.16 209.364 199.16C211.124 199.16 212.228 198.488 212.804 197.304L211.38 196.712C211.124 197.416 210.42 197.8 209.364 197.8C208.068 197.8 207.236 197.048 207.044 195.64H212.9C212.932 195.432 212.964 195.064 212.964 194.76ZM209.252 192.2C210.452 192.2 211.204 192.984 211.364 194.328H207.06C207.236 192.952 207.988 192.2 209.252 192.2ZM215.973 189.656C216.709 189.656 217.109 189.256 217.109 188.584C217.109 187.912 216.709 187.528 215.973 187.528C215.237 187.528 214.821 187.912 214.821 188.584C214.821 189.256 215.237 189.656 215.973 189.656ZM216.821 191H215.109V199H216.821V191ZM224.284 197.224C223.932 197.544 223.532 197.736 222.988 197.736C222.284 197.736 221.82 197.384 221.82 196.6V192.344H224.62V191H221.82V188.648L220.108 189.128V191H218.588V192.344H220.108V196.888C220.124 198.536 221.18 199.16 222.556 199.16C223.42 199.16 224.172 198.904 224.684 198.472L224.284 197.224ZM229.801 190.84C227.305 190.84 225.817 192.392 225.817 195C225.817 197.608 227.305 199.16 229.801 199.16C232.297 199.16 233.785 197.608 233.785 195C233.785 192.392 232.297 190.84 229.801 190.84ZM229.801 192.184C231.241 192.184 232.073 193.192 232.073 195C232.073 196.808 231.241 197.816 229.801 197.816C228.361 197.816 227.545 196.808 227.545 195C227.545 193.192 228.361 192.184 229.801 192.184ZM244.707 190.84C242.211 190.84 240.723 192.392 240.723 195C240.723 197.608 242.211 199.16 244.739 199.16C246.595 199.16 247.795 198.232 248.243 196.776L246.675 196.248C246.467 197.24 245.811 197.8 244.707 197.8C243.299 197.8 242.451 196.824 242.451 195.016C242.451 193.208 243.283 192.2 244.707 192.2C245.699 192.2 246.307 192.728 246.579 193.72L248.179 193.08C247.683 191.768 246.643 190.84 244.707 190.84ZM253.77 190.84C251.274 190.84 249.786 192.392 249.786 195C249.786 197.608 251.274 199.16 253.77 199.16C256.266 199.16 257.754 197.608 257.754 195C257.754 192.392 256.266 190.84 253.77 190.84ZM253.77 192.184C255.21 192.184 256.042 193.192 256.042 195C256.042 196.808 255.21 197.816 253.77 197.816C252.33 197.816 251.514 196.808 251.514 195C251.514 193.192 252.33 192.184 253.77 192.184ZM269.601 190.84C268.529 190.84 267.361 191.352 266.833 192.44C266.353 191.352 265.281 190.84 264.145 190.84C263.105 190.84 262.113 191.32 261.553 192.328L261.473 191H259.953V199H261.665V194.744C261.665 192.952 262.785 192.248 263.745 192.248C264.689 192.248 265.393 192.776 265.393 194.088V199H267.105V194.648C267.105 193.096 268.065 192.248 269.185 192.248C270.129 192.248 270.833 192.776 270.833 194.088V199H272.545V193.816C272.561 191.784 271.137 190.84 269.601 190.84ZM283.864 190.84C281.368 190.84 279.88 192.392 279.88 195C279.88 197.608 281.368 199.16 283.864 199.16C286.36 199.16 287.848 197.608 287.848 195C287.848 192.392 286.36 190.84 283.864 190.84ZM283.864 192.184C285.304 192.184 286.136 193.192 286.136 195C286.136 196.808 285.304 197.816 283.864 197.816C282.424 197.816 281.608 196.808 281.608 195C281.608 193.192 282.424 192.184 283.864 192.184ZM34.848 211.84C32.352 211.84 30.864 213.392 30.864 216C30.864 218.608 32.352 220.16 34.88 220.16C36.736 220.16 37.936 219.232 38.384 217.776L36.816 217.248C36.608 218.24 35.952 218.8 34.848 218.8C33.44 218.8 32.592 217.824 32.592 216.016C32.592 214.208 33.424 213.2 34.848 213.2C35.84 213.2 36.448 213.728 36.72 214.72L38.32 214.08C37.824 212.768 36.784 211.84 34.848 211.84ZM45.9265 212V216.32C45.9265 218.016 44.9025 218.752 43.6865 218.752C42.6785 218.752 42.0385 218.304 42.0385 216.816V212H40.3265V217.264C40.3265 219.344 41.6065 220.16 43.2065 220.16C44.5025 220.16 45.4945 219.712 46.0385 218.704L46.1185 220H47.6385V212H45.9265ZM54.4248 211.84C53.1927 211.84 52.3448 212.384 51.9128 213.424L51.7528 212H50.2968V220H52.0088V215.76C52.0088 214.128 53.0648 213.36 54.0248 213.36C54.4568 213.36 54.8088 213.44 55.0328 213.568L55.3048 212C55.0808 211.888 54.7448 211.84 54.4248 211.84ZM59.5521 220.16C61.7601 220.16 63.0401 219.152 63.0401 217.744C63.0401 216.416 62.2241 215.728 59.9361 215.312C58.4321 215.04 57.9681 214.736 57.9681 214.16C57.9681 213.664 58.6401 213.184 59.6321 213.184C60.6721 213.184 61.3601 213.584 61.7601 214.544L62.9761 213.648C62.4001 212.416 61.3921 211.84 59.6161 211.84C57.4721 211.84 56.2561 213.024 56.2561 214.32C56.2561 215.664 57.0881 216.352 59.4721 216.8C60.8641 217.072 61.3281 217.36 61.3281 217.856C61.3281 218.4 60.7521 218.816 59.6161 218.816C58.4961 218.816 57.5521 218.448 57.1361 217.488L55.9841 218.48C56.6561 219.648 58.0001 220.16 59.5521 220.16ZM68.6293 211.84C66.1332 211.84 64.6453 213.392 64.6453 216C64.6453 218.608 66.1332 220.16 68.6293 220.16C71.1253 220.16 72.6133 218.608 72.6133 216C72.6133 213.392 71.1253 211.84 68.6293 211.84ZM68.6293 213.184C70.0693 213.184 70.9013 214.192 70.9013 216C70.9013 217.808 70.0693 218.816 68.6293 218.816C67.1893 218.816 66.3733 217.808 66.3733 216C66.3733 214.192 67.1893 213.184 68.6293 213.184Z" fill="black"/>
</g>
<defs>
<clipPath id="clip0_601_1208">
<rect width="335" height="260" rx="20" fill="white"/>
</clipPath>
</defs>
</svg>
