<svg width="215" height="162" viewBox="0 0 215 162" fill="none" xmlns="http://www.w3.org/2000/svg">
<path d="M178.64 176C152.152 176 131.824 156.856 131.824 130.302C131.824 100.66 153.384 87.0737 171.248 87.0737C180.488 87.0737 185.416 88.9263 188.496 92.014L191.576 90.779C184.184 63.607 160.776 38.9052 126.28 27.1719L158.312 0C208.208 22.8491 231 66.0772 231 110.54C231 148.211 212.52 176 178.64 176ZM52.36 176C25.872 176 5.54398 156.856 5.54398 130.302C5.54398 100.66 27.104 87.0737 44.968 87.0737C54.208 87.0737 59.136 88.9263 62.216 92.014L65.296 90.779C57.904 63.607 34.496 38.9052 0 27.1719L32.032 0C81.928 22.8491 104.72 66.0772 104.72 110.54C104.72 148.211 86.24 176 52.36 176Z" fill="#D1FF96" fill-opacity="0.5"/>
</svg>
