<svg width="56" height="56" viewBox="0 0 56 56" fill="none" xmlns="http://www.w3.org/2000/svg">
<path fill-rule="evenodd" clip-rule="evenodd" d="M56 28C56 12.536 43.464 1.91483e-06 28 2.59078e-06C12.536 3.26673e-06 -1.89987e-06 12.536 -1.22392e-06 28C-5.47967e-07 43.464 12.536 56 28 56C43.464 56 56 43.464 56 28ZM40.2689 26.9275L34.1244 20.7829C33.7474 20.4059 33.136 20.4059 32.759 20.7829C32.3819 21.16 32.3819 21.7713 32.759 22.1484L37.2552 26.6447L16.4138 26.6447C15.8805 26.6447 15.4483 27.0769 15.4483 27.6102C15.4483 28.1434 15.8805 28.5757 16.4138 28.5757L37.2552 28.5757L32.759 33.072C32.3819 33.449 32.3819 34.0604 32.759 34.4374C33.136 34.8145 33.7474 34.8145 34.1244 34.4374L40.2689 28.2929C40.646 27.9158 40.646 27.3045 40.2689 26.9275Z" fill="#2DB563"/>
</svg>
