<svg width="56" height="56" viewBox="0 0 56 56" fill="none" xmlns="http://www.w3.org/2000/svg">
<path fill-rule="evenodd" clip-rule="evenodd" d="M28 56C43.464 56 56 43.464 56 28C56 12.536 43.464 0 28 0C12.536 0 0 12.536 0 28C0 43.464 12.536 56 28 56ZM29.0725 40.2689L35.2171 34.1244C35.5941 33.7474 35.5941 33.136 35.2171 32.759C34.84 32.3819 34.2287 32.3819 33.8516 32.759L29.3553 37.2552L29.3553 16.4138C29.3553 15.8805 28.9231 15.4483 28.3898 15.4483C27.8566 15.4483 27.4243 15.8805 27.4243 16.4138L27.4243 37.2552L22.928 32.759C22.551 32.3819 21.9396 32.3819 21.5626 32.759C21.1855 33.136 21.1855 33.7474 21.5626 34.1244L27.7071 40.2689C28.0842 40.646 28.6955 40.646 29.0725 40.2689Z" fill="#2DB563"/>
</svg>
