<svg width="190" height="55" viewBox="0 0 190 55" fill="none" xmlns="http://www.w3.org/2000/svg">
<path d="M58.9203 18.9642C59.0395 18.9642 59.1588 19.0835 59.1588 19.2028C59.0395 23.4965 57.0119 25.2856 52.241 25.2856C47.4702 25.2856 45.5618 23.3773 45.5618 19.2028V10.973C45.5618 6.67921 47.4702 4.89014 52.241 4.89014C57.0119 4.89014 59.0395 6.55994 59.1588 10.8537C59.1588 10.973 59.0395 11.0923 58.9203 11.0923C58.2046 11.0923 56.4156 11.0923 55.8192 11.0923C55.6999 11.0923 55.5807 10.973 55.5807 10.8537C55.5807 9.06465 54.9843 7.9912 52.3603 7.9912C49.7363 7.9912 49.2593 9.06465 49.2593 10.973V18.8449C49.2593 20.7533 49.7363 21.8267 52.3603 21.8267C54.865 21.8267 55.5807 20.7533 55.5807 18.9642C55.5807 18.8449 55.6999 18.7257 55.8192 18.7257L58.9203 18.9642Z" fill="#2C2C2C"/>
<path d="M75.022 25.1663H71.8016C71.6824 25.1663 71.5631 25.0471 71.5631 25.0471L70.6089 21.8267C70.6089 21.7075 70.4896 21.7075 70.3704 21.7075H65.5995C65.4802 21.7075 65.361 21.8267 65.361 21.8267L64.4068 25.0471C64.4068 25.1663 64.2875 25.1663 64.1682 25.1663H60.9479C60.8286 25.1663 60.7094 25.0471 60.7094 24.8085L66.1959 5.12868C66.1959 5.0094 66.3151 4.89014 66.4344 4.89014H69.6547C69.774 4.89014 69.8933 5.0094 69.8933 5.12868L75.2605 24.8085C75.3798 25.0471 75.2605 25.1663 75.022 25.1663ZM69.774 18.1293L68.1042 10.6152L66.4344 18.1293H69.774Z" fill="#2C2C2C"/>
<path d="M90.1695 25.1663H87.0684C86.9491 25.1663 86.9491 25.1663 86.8298 25.0471L80.9855 12.4043L81.3434 20.0376V24.9278C81.3434 25.0471 81.2241 25.1663 81.1048 25.1663H78.0037C77.8845 25.1663 77.7652 25.0471 77.7652 24.9278V5.24794C77.7652 5.12867 77.8845 5.0094 78.0037 5.0094H81.2241C81.3433 5.0094 81.3433 5.0094 81.4626 5.12867L87.3069 18.2486L86.9491 9.78027V5.24794C86.9491 5.12867 87.0684 5.0094 87.1877 5.0094H90.2887C90.408 5.0094 90.5273 5.12867 90.5273 5.24794V24.9278C90.408 25.0471 90.2887 25.1663 90.1695 25.1663Z" fill="#2C2C2C"/>
<path d="M104.363 8.349H100.666C100.546 8.349 100.427 8.46828 100.427 8.58755V24.9278C100.427 25.0471 100.308 25.1663 100.189 25.1663H97.0874C96.9682 25.1663 96.8489 25.0471 96.8489 24.9278V8.58755C96.8489 8.46828 96.7296 8.349 96.6104 8.349H92.9129C92.7936 8.349 92.6744 8.22973 92.6744 8.11046V5.36721C92.6744 5.24793 92.7936 5.12866 92.9129 5.12866H104.363C104.482 5.12866 104.602 5.24793 104.602 5.36721V8.11046C104.602 8.22973 104.482 8.349 104.363 8.349Z" fill="#2C2C2C"/>
<path d="M118.556 5.24794V7.9912C118.556 8.11047 118.437 8.22974 118.318 8.22974H110.804C110.684 8.22974 110.565 8.34901 110.565 8.46828V13.2392C110.565 13.3584 110.684 13.4777 110.804 13.4777H117.125C117.244 13.4777 117.363 13.597 117.363 13.7162V16.3402C117.363 16.4595 117.244 16.5788 117.125 16.5788H110.804C110.684 16.5788 110.565 16.698 110.565 16.8173V21.7075C110.565 21.8267 110.684 21.946 110.804 21.946H118.675C118.795 21.946 118.914 22.0653 118.914 22.1845V25.0471C118.914 25.1663 118.795 25.2856 118.675 25.2856H107.225C107.106 25.2856 106.987 25.1663 106.987 25.0471V5.24794C106.987 5.12867 107.106 5.0094 107.225 5.0094H118.318C118.437 5.0094 118.556 5.12867 118.556 5.24794Z" fill="#2C2C2C"/>
<path d="M128.575 25.1663H127.263L132.392 4.89014H133.823L138.952 25.1663H137.52L136.208 20.1569H129.887L128.575 25.1663ZM133.107 6.91775L130.126 18.9642H135.97L133.107 6.91775Z" fill="#2C2C2C"/>
<path d="M149.805 9.3032C149.805 6.79849 148.255 5.96359 145.869 5.96359C143.126 5.96359 141.576 6.79849 141.576 10.1381C141.576 13.8355 143.723 13.7163 146.824 14.0741C149.805 14.4319 151.475 16.4595 151.475 19.322C151.475 24.3315 149.09 25.4049 145.631 25.4049C142.053 25.4049 140.264 23.8544 140.264 20.634H141.576C141.576 23.1387 143.007 24.2122 145.75 24.2122C149.09 24.2122 150.283 22.9002 150.283 19.322C150.283 15.7439 147.778 15.2668 144.796 15.0283C142.649 14.7897 140.502 13.9548 140.502 10.1381C140.502 6.32141 142.411 4.77087 146.108 4.77087C148.971 4.77087 151.117 5.72505 151.237 9.3032H149.805Z" fill="#2C2C2C"/>
<path d="M57.4889 30.5335V33.1575C57.4889 33.2768 57.3696 33.3961 57.2503 33.3961H49.7362C49.6169 33.3961 49.4976 33.5153 49.4976 33.6346V38.4055C49.4976 38.5247 49.6169 38.644 49.7362 38.644H56.0576C56.1769 38.644 56.2961 38.7633 56.2961 38.8826V41.6258C56.2961 41.7451 56.1769 41.8644 56.0576 41.8644H49.7362C49.6169 41.8644 49.4976 41.9836 49.4976 42.1029V46.993C49.4976 47.1123 49.6169 47.2316 49.7362 47.2316H57.6081C57.7274 47.2316 57.8467 47.3509 57.8467 47.4701V50.3326C57.8467 50.4519 57.7274 50.5712 57.6081 50.5712H46.158C46.0388 50.5712 45.9195 50.4519 45.9195 50.3326V30.5335C45.9195 30.4143 46.0388 30.295 46.158 30.295H57.2503C57.3696 30.295 57.4889 30.4143 57.4889 30.5335Z" fill="#2C2C2C"/>
<path d="M66.6728 33.2767C64.6452 33.2767 63.8103 33.8731 63.8103 35.7814C63.8103 38.2862 65.8379 38.1669 68.939 38.5247C71.3244 38.8825 73.4713 39.8367 73.4713 43.8919C73.4713 48.5435 71.4437 50.5711 66.5535 50.5711C61.6634 50.5711 59.9936 48.305 59.8743 45.0846C59.8743 44.9654 59.9936 44.8461 60.1129 44.8461H63.3332C63.4525 44.8461 63.5718 44.9654 63.5718 45.0846C63.691 46.5159 64.4067 47.2315 66.6728 47.2315C68.8197 47.2315 69.8932 46.2774 69.8932 44.0112C69.8932 41.6258 67.0306 41.6258 64.8837 41.3872C62.6176 41.1487 60.2321 39.956 60.2321 35.7814C60.2321 31.9647 62.4983 30.0564 66.6728 30.0564C70.251 30.0564 72.6364 31.3684 72.9942 35.1851C72.9942 35.3044 72.875 35.4236 72.7557 35.4236H69.5353C69.4161 35.4236 69.2968 35.3044 69.2968 35.1851C69.2968 33.7538 68.3426 33.2767 66.6728 33.2767Z" fill="#2C2C2C"/>
<path d="M89.9308 44.2498C90.05 44.2498 90.1693 44.3691 90.1693 44.4883C90.05 48.7821 88.0224 50.5712 83.2515 50.5712C78.4807 50.5712 76.5723 48.6629 76.5723 44.4883V36.2586C76.5723 31.9648 78.4807 30.1757 83.2515 30.1757C88.0224 30.1757 90.05 31.8455 90.1693 36.1393C90.1693 36.2586 90.05 36.3779 89.9308 36.3779H86.8297C86.7104 36.3779 86.5912 36.2586 86.5912 36.1393C86.5912 34.3502 85.9948 33.2768 83.3708 33.2768C80.7468 33.2768 80.2697 34.3502 80.2697 36.2586V44.1305C80.2697 46.0389 80.7468 47.1123 83.3708 47.1123C85.8755 47.1123 86.5912 46.0389 86.5912 44.2498C86.5912 44.1305 86.7104 44.0112 86.8297 44.0112H89.9308V44.2498Z" fill="#2C2C2C"/>
<path d="M102.454 50.4519C102.335 50.4519 102.335 50.4519 102.216 50.3326L98.2798 43.4149H96.9678V50.2134C96.9678 50.3326 96.8485 50.4519 96.7293 50.4519H93.6282C93.5089 50.4519 93.3896 50.3326 93.3896 50.2134V30.5335C93.3896 30.4143 93.5089 30.295 93.6282 30.295H98.5183C103.408 30.295 105.675 32.0841 105.675 36.3778V37.4513C105.675 40.3138 104.72 41.9836 102.454 42.6992C102.335 42.6992 102.216 42.9378 102.335 43.0571L106.39 50.0941C106.51 50.2134 106.39 50.4519 106.152 50.4519H102.454ZM98.5183 39.956C101.142 39.956 101.858 39.0018 101.858 37.0935V36.3778C101.858 34.4695 101.381 33.5153 98.5183 33.5153H96.9678V39.956H98.5183Z" fill="#2C2C2C"/>
<path d="M112.592 50.4519H109.372C109.253 50.4519 109.134 50.3326 109.134 50.2134V30.5335C109.134 30.4143 109.253 30.295 109.372 30.295H112.592C112.712 30.295 112.831 30.4143 112.831 30.5335V50.2134C112.831 50.3326 112.712 50.4519 112.592 50.4519Z" fill="#2C2C2C"/>
<path d="M126.905 33.5153H123.208C123.088 33.5153 122.969 33.6346 122.969 33.7539V50.0941C122.969 50.2134 122.85 50.3326 122.731 50.3326H119.629C119.51 50.3326 119.391 50.2134 119.391 50.0941V33.7539C119.391 33.6346 119.272 33.5153 119.152 33.5153H115.455C115.336 33.5153 115.216 33.396 115.216 33.2768V30.5335C115.216 30.4143 115.336 30.295 115.455 30.295H126.905C127.024 30.295 127.144 30.4143 127.144 30.5335V33.2768C127.144 33.5153 127.024 33.5153 126.905 33.5153Z" fill="#2C2C2C"/>
<path d="M139.19 30.295H142.291C142.41 30.295 142.53 30.4143 142.53 30.5335V44.4883C142.53 48.6628 140.025 50.6905 135.731 50.6905C131.437 50.6905 129.171 48.6628 129.171 44.4883V30.5335C129.171 30.4143 129.29 30.295 129.41 30.295H132.511C132.63 30.295 132.749 30.4143 132.749 30.5335V44.2498C132.749 46.1581 133.584 47.3509 135.731 47.3509C137.878 47.3509 138.952 46.1581 138.952 44.2498V30.5335C138.952 30.4143 139.071 30.295 139.19 30.295Z" fill="#2C2C2C"/>
<path d="M155.411 50.4519C155.292 50.4519 155.292 50.4519 155.172 50.3326L151.236 43.4148H149.924V50.2133C149.924 50.3326 149.805 50.4519 149.686 50.4519H146.585C146.466 50.4519 146.346 50.3326 146.346 50.2133V30.5335C146.346 30.4142 146.466 30.2949 146.585 30.2949H151.475C156.365 30.2949 158.631 32.084 158.631 36.3778V37.4512C158.631 40.3138 157.677 41.9836 155.411 42.6992C155.292 42.6992 155.172 42.9377 155.292 43.057L159.347 50.094C159.466 50.2133 159.347 50.4519 159.108 50.4519H155.411ZM151.475 39.9559C154.099 39.9559 154.815 39.0018 154.815 37.0934V36.3778C154.815 34.4694 154.337 33.5153 151.475 33.5153H149.924V39.9559H151.475Z" fill="#2C2C2C"/>
<path d="M174.972 50.4519H171.751C171.632 50.4519 171.513 50.3326 171.513 50.3326L170.559 47.1123C170.559 46.993 170.439 46.993 170.32 46.993H165.549C165.43 46.993 165.311 47.1123 165.311 47.1123L164.356 50.3326C164.356 50.4519 164.237 50.4519 164.118 50.4519H160.898C160.778 50.4519 160.659 50.3327 160.659 50.0941L166.145 30.4143C166.145 30.295 166.265 30.295 166.384 30.295H169.604C169.724 30.295 169.843 30.4143 169.843 30.4143L175.21 50.0941C175.21 50.3327 175.091 50.4519 174.972 50.4519ZM169.604 43.2956L167.935 35.7815L166.265 43.2956H169.604Z" fill="#2C2C2C"/>
<path d="M183.201 33.2767C181.174 33.2767 180.339 33.8731 180.339 35.7814C180.339 38.2862 182.366 38.1669 185.467 38.5247C187.853 38.8825 190 39.8367 190 43.8919C190 48.5435 187.972 50.5711 183.082 50.5711C178.192 50.5711 176.522 48.305 176.403 45.0846C176.403 44.9654 176.522 44.8461 176.641 44.8461H179.862C179.981 44.8461 180.1 44.9654 180.1 45.0846C180.22 46.5159 180.935 47.2315 183.201 47.2315C185.348 47.2315 186.422 46.2774 186.422 44.0112C186.422 41.6258 183.559 41.6258 181.412 41.3872C179.146 41.1487 176.761 39.956 176.761 35.7814C176.761 31.9647 179.027 30.0564 183.201 30.0564C186.779 30.0564 189.165 31.3684 189.523 35.1851C189.523 35.3044 189.403 35.4236 189.284 35.4236H186.183C186.064 35.4236 185.945 35.3044 185.945 35.1851C185.706 33.7538 184.871 33.2767 183.201 33.2767Z" fill="#2C2C2C"/>
<path d="M21.1111 0.119275L16.3402 1.43126C13.8355 2.02762 12.1657 4.29378 12.1657 6.91777V17.2944C12.1657 18.9642 10.8537 20.2762 9.18394 20.2762H6.44068C2.86253 20.2762 0 23.1387 0 26.7169C0 30.295 2.86253 33.1576 6.44068 33.1576H7.39486C12.7621 33.1576 17.0559 28.8638 17.0559 23.4966V15.7439C17.0559 14.7897 17.4137 13.7163 18.01 13.0006C18.2486 12.6428 18.6064 12.285 18.9642 11.9272C19.4413 11.5694 19.9184 11.4501 20.5148 11.2116C21.7075 10.6152 22.5424 9.3032 22.5424 7.99121V0L21.1111 0.119275Z" fill="url(#paint0_linear_601_1397)"/>
<path d="M16.3402 54.6265L21.1111 53.3145C23.6158 52.7182 25.2856 50.452 25.2856 47.828V29.818C25.2856 28.1482 26.5976 26.8362 28.2674 26.8362H31.0107C34.5888 26.8362 37.4513 23.9737 37.4513 20.3955C37.4513 16.8174 34.5888 13.9548 31.0107 13.9548H30.0565C24.6893 13.9548 20.3955 18.2486 20.3955 23.6158V39.0019C20.3955 39.9561 20.0377 41.0295 19.4413 41.7452C19.2028 42.103 18.8449 42.4608 18.4871 42.8186C18.01 43.1764 17.533 43.2957 16.9366 43.5342C15.7439 44.1306 14.909 45.4426 14.909 46.7546V54.7458L16.3402 54.6265Z" fill="url(#paint1_linear_601_1397)"/>
<path d="M17.1751 5.48648C17.6522 5.12866 18.2486 4.89012 18.7257 4.5323C19.9184 3.81667 20.634 2.38541 20.5148 0.954147V0.357788L16.3402 1.43124C13.8355 2.0276 12.1657 4.29376 12.1657 6.91774V17.2944C12.1657 18.9642 10.8537 20.2762 9.18394 20.2762H6.44068C2.86253 20.2762 0 23.1387 0 26.7169C0 26.8361 0 26.8361 0 26.9554C1.31199 28.5059 3.45889 29.4601 5.72505 29.2216L6.7985 29.1023C12.5235 28.6252 16.6981 23.6158 16.221 18.01L15.5053 9.78026C15.3861 8.70682 15.7439 7.63337 16.221 6.6792C16.4595 6.20211 16.8173 5.8443 17.1751 5.48648Z" fill="url(#paint2_linear_601_1397)"/>
<path d="M28.2675 26.8361H31.0107C34.5889 26.8361 37.4514 23.9736 37.4514 20.3954C36.3779 18.4871 34.2311 17.1751 31.8456 17.1751H30.8914C25.5242 17.1751 21.2304 21.4689 21.2304 26.8361V42.2222C21.2304 43.1764 20.8726 44.2498 20.2763 44.9654C20.0377 45.3233 19.6799 45.6811 19.3221 46.0389C18.845 46.3967 18.3679 46.516 17.7715 46.7545C16.5788 47.3509 15.7439 48.6629 15.7439 49.9749V54.6265C16.1017 54.5072 16.3403 54.5072 16.3403 54.5072L21.1112 53.1952C23.6159 52.5988 25.2857 50.3327 25.2857 47.7087V29.8179C25.2857 28.1481 26.5977 26.8361 28.2675 26.8361Z" fill="url(#paint3_linear_601_1397)"/>
<defs>
<linearGradient id="paint0_linear_601_1397" x1="-0.00978029" y1="16.4004" x2="22.4719" y2="16.4004" gradientUnits="userSpaceOnUse">
<stop offset="0.0177665" stop-color="#059342"/>
<stop offset="0.5863" stop-color="#00B554"/>
<stop offset="0.9619" stop-color="#58C554"/>
</linearGradient>
<linearGradient id="paint1_linear_601_1397" x1="37.4047" y1="34.4907" x2="14.923" y2="34.4907" gradientUnits="userSpaceOnUse">
<stop offset="0.0177665" stop-color="#059342"/>
<stop offset="0.5863" stop-color="#00B554"/>
<stop offset="0.9619" stop-color="#58C554"/>
</linearGradient>
<linearGradient id="paint2_linear_601_1397" x1="3.32446" y1="12.4697" x2="17.2393" y2="15.9391" gradientUnits="userSpaceOnUse">
<stop offset="0.0177665" stop-color="#059342"/>
<stop offset="0.5863" stop-color="#00B554"/>
<stop offset="0.9619" stop-color="#58C554"/>
</linearGradient>
<linearGradient id="paint3_linear_601_1397" x1="40.7353" y1="29.531" x2="10.5693" y2="40.5104" gradientUnits="userSpaceOnUse">
<stop offset="0.0177665" stop-color="#059342"/>
<stop offset="0.5863" stop-color="#00B554"/>
<stop offset="0.9619" stop-color="#58C554"/>
</linearGradient>
</defs>
</svg>
