<svg width="222" height="84" viewBox="0 0 222 84" fill="none" xmlns="http://www.w3.org/2000/svg">
<path d="M29.2917 0.182165L22.6721 2.18593C19.1968 3.09673 16.88 6.55778 16.88 10.5653V26.4133C16.88 28.9635 15.0596 30.9673 12.7427 30.9673H8.93644C3.97175 30.9673 0 35.3392 0 40.804C0 46.2688 3.97175 50.6406 8.93644 50.6406H10.2604C17.7074 50.6406 23.665 44.0829 23.665 35.8856V24.0452C23.665 22.5879 24.1615 20.9485 24.9889 19.8555C25.3199 19.309 25.8164 18.7625 26.3129 18.2161C26.9748 17.6696 27.6368 17.4874 28.4642 17.1231C30.1191 16.2123 31.2775 14.2085 31.2775 12.2048V0L29.2917 0.182165Z" fill="url(#paint0_linear_601_2355)"/>
<path d="M22.672 83.4295L29.2916 81.4257C32.7669 80.5149 35.0838 77.0539 35.0838 73.0464V45.5401C35.0838 42.9899 36.9042 40.9861 39.221 40.9861H43.0273C47.992 40.9861 51.9637 36.6142 51.9637 31.1494C51.9637 25.6846 47.992 21.3127 43.0273 21.3127H41.7034C34.2563 21.3127 28.2987 27.8705 28.2987 36.0677V59.5665C28.2987 61.0238 27.8022 62.6632 26.9748 63.7562C26.6438 64.3027 26.1473 64.8491 25.6508 65.3956C24.9889 65.9421 24.3269 66.1243 23.4995 66.4886C21.8446 67.3994 20.6862 69.4031 20.6862 71.4069V83.6117L22.672 83.4295Z" fill="url(#paint1_linear_601_2355)"/>
<path d="M23.8305 8.37954C24.4925 7.83306 25.3199 7.46873 25.9819 6.92225C27.6368 5.82929 28.6297 3.64336 28.4642 1.45743V0.546631L22.6721 2.18608C19.1968 3.09688 16.88 6.55793 16.88 10.5655V26.4134C16.88 28.9637 15.0596 30.9675 12.7427 30.9675H8.93644C3.97175 30.9675 0 35.3393 0 40.8041C0 40.9863 0 40.9863 0 41.1684C1.82039 43.5365 4.79921 44.9938 7.94351 44.6295L9.43292 44.4473C17.3764 43.7187 23.1686 36.068 22.5066 27.5064L21.5137 14.9373C21.3482 13.2979 21.8446 11.6584 22.5066 10.2011C22.8376 9.47251 23.334 8.92602 23.8305 8.37954Z" fill="url(#paint2_linear_601_2355)"/>
<path d="M39.2211 40.986H43.0273C47.992 40.986 51.9638 36.6141 51.9638 31.1493C50.4744 28.2347 47.4956 26.231 44.1858 26.231H42.8618C35.4148 26.231 29.4572 32.7887 29.4572 40.986V64.4847C29.4572 65.942 28.9607 67.5814 28.1333 68.6744C27.8023 69.2209 27.3058 69.7673 26.8094 70.3138C26.1474 70.8603 25.4854 71.0425 24.658 71.4068C23.0031 72.3176 21.8447 74.3213 21.8447 76.3251V83.4294C22.3411 83.2472 22.6721 83.2472 22.6721 83.2472L29.2917 81.2435C32.767 80.3327 35.0838 76.8716 35.0838 72.8641V45.54C35.0838 42.9897 36.9042 40.986 39.2211 40.986Z" fill="url(#paint3_linear_601_2355)"/>
<path d="M62.5038 5.27273H66.8653L71.4719 16.5114H71.6679L76.2744 5.27273H80.6359V22H77.2055V11.1126H77.0667L72.7378 21.9183H70.4019L66.0731 11.0717H65.9342V22H62.5038V5.27273ZM83.5497 22V5.27273H94.821V8.18856H87.0863V12.1744H94.2411V15.0902H87.0863V19.0842H94.8537V22H83.5497ZM106.707 10.0835C106.642 9.4246 106.361 8.91276 105.866 8.54794C105.37 8.18312 104.698 8.00071 103.848 8.00071C103.271 8.00071 102.784 8.08239 102.386 8.24574C101.989 8.40365 101.684 8.62417 101.472 8.90731C101.265 9.19046 101.161 9.51172 101.161 9.87109C101.15 10.1706 101.213 10.4319 101.349 10.6552C101.491 10.8784 101.684 11.0717 101.929 11.2351C102.174 11.393 102.457 11.5318 102.778 11.6516C103.1 11.766 103.443 11.864 103.807 11.9457L105.31 12.305C106.04 12.4684 106.71 12.6862 107.32 12.9585C107.929 13.2307 108.458 13.5656 108.904 13.9631C109.351 14.3606 109.696 14.8288 109.941 15.3679C110.192 15.907 110.32 16.525 110.325 17.2219C110.32 18.2456 110.058 19.1332 109.541 19.8846C109.029 20.6306 108.289 21.2105 107.32 21.6243C106.356 22.0327 105.193 22.2369 103.832 22.2369C102.482 22.2369 101.305 22.0299 100.304 21.6161C99.3071 21.2023 98.5284 20.5897 97.9676 19.7784C97.4122 18.9616 97.1209 17.9516 97.0937 16.7482H100.516C100.554 17.3091 100.715 17.7773 100.998 18.1531C101.286 18.5233 101.67 18.8037 102.149 18.9943C102.634 19.1795 103.181 19.272 103.791 19.272C104.39 19.272 104.91 19.1849 105.351 19.0107C105.798 18.8364 106.143 18.5941 106.388 18.2837C106.633 17.9734 106.756 17.6167 106.756 17.2138C106.756 16.8381 106.644 16.5223 106.421 16.2663C106.203 16.0104 105.882 15.7926 105.457 15.6129C105.038 15.4332 104.523 15.2699 103.914 15.1229L102.092 14.6655C100.682 14.3224 99.5685 13.7861 98.7517 13.0565C97.9349 12.3268 97.5293 11.344 97.5347 10.108C97.5293 9.09517 97.7988 8.21035 98.3433 7.45348C98.8933 6.69661 99.6474 6.10582 100.606 5.68111C101.564 5.25639 102.653 5.04403 103.873 5.04403C105.114 5.04403 106.198 5.25639 107.123 5.68111C108.055 6.10582 108.779 6.69661 109.296 7.45348C109.813 8.21035 110.08 9.087 110.097 10.0835H106.707ZM112.067 8.18856V5.27273H125.805V8.18856H120.684V22H117.188V8.18856H112.067ZM128.067 22V5.27273H134.667C135.93 5.27273 137.008 5.4987 137.901 5.95064C138.8 6.39713 139.483 7.03149 139.951 7.85369C140.425 8.67045 140.662 9.63151 140.662 10.7369C140.662 11.8477 140.422 12.8033 139.943 13.6037C139.464 14.3987 138.77 15.0085 137.86 15.4332C136.956 15.858 135.862 16.0703 134.577 16.0703H130.158V13.228H134.005C134.68 13.228 135.241 13.1354 135.688 12.9503C136.134 12.7652 136.466 12.4875 136.684 12.1172C136.907 11.7469 137.019 11.2868 137.019 10.7369C137.019 10.1815 136.907 9.71319 136.684 9.33203C136.466 8.95088 136.131 8.66229 135.68 8.46626C135.233 8.2648 134.669 8.16406 133.989 8.16406H131.604V22H128.067ZM137.101 14.3878L141.258 22H137.354L133.286 14.3878H137.101ZM143.161 22V5.27273H154.432V8.18856H146.698V12.1744H153.852V15.0902H146.698V19.0842H154.465V22H143.161ZM166.318 10.0835C166.253 9.4246 165.973 8.91276 165.477 8.54794C164.982 8.18312 164.309 8.00071 163.46 8.00071C162.882 8.00071 162.395 8.08239 161.998 8.24574C161.6 8.40365 161.295 8.62417 161.083 8.90731C160.876 9.19046 160.772 9.51172 160.772 9.87109C160.762 10.1706 160.824 10.4319 160.96 10.6552C161.102 10.8784 161.295 11.0717 161.54 11.2351C161.785 11.393 162.068 11.5318 162.39 11.6516C162.711 11.766 163.054 11.864 163.419 11.9457L164.922 12.305C165.651 12.4684 166.321 12.6862 166.931 12.9585C167.541 13.2307 168.069 13.5656 168.515 13.9631C168.962 14.3606 169.308 14.8288 169.553 15.3679C169.803 15.907 169.931 16.525 169.937 17.2219C169.931 18.2456 169.67 19.1332 169.152 19.8846C168.641 20.6306 167.9 21.2105 166.931 21.6243C165.967 22.0327 164.805 22.2369 163.443 22.2369C162.093 22.2369 160.917 22.0299 159.915 21.6161C158.918 21.2023 158.14 20.5897 157.579 19.7784C157.024 18.9616 156.732 17.9516 156.705 16.7482H160.127C160.165 17.3091 160.326 17.7773 160.609 18.1531C160.898 18.5233 161.282 18.8037 161.761 18.9943C162.245 19.1795 162.793 19.272 163.402 19.272C164.001 19.272 164.521 19.1849 164.962 19.0107C165.409 18.8364 165.755 18.5941 166 18.2837C166.245 17.9734 166.367 17.6167 166.367 17.2138C166.367 16.8381 166.256 16.5223 166.032 16.2663C165.815 16.0104 165.493 15.7926 165.069 15.6129C164.649 15.4332 164.135 15.2699 163.525 15.1229L161.704 14.6655C160.293 14.3224 159.18 13.7861 158.363 13.0565C157.546 12.3268 157.141 11.344 157.146 10.108C157.141 9.09517 157.41 8.21035 157.955 7.45348C158.505 6.69661 159.259 6.10582 160.217 5.68111C161.175 5.25639 162.264 5.04403 163.484 5.04403C164.726 5.04403 165.809 5.25639 166.735 5.68111C167.666 6.10582 168.39 6.69661 168.907 7.45348C169.425 8.21035 169.692 9.087 169.708 10.0835H166.318ZM184.518 22H179.356V5.27273H184.746C186.369 5.27273 187.758 5.6076 188.912 6.27734C190.066 6.94164 190.951 7.89725 191.566 9.14418C192.182 10.3857 192.489 11.8722 192.489 13.6037C192.489 15.3461 192.179 16.8462 191.558 18.104C190.938 19.3564 190.034 20.3202 188.847 20.9954C187.66 21.6651 186.217 22 184.518 22ZM181.381 20.2031H184.387C185.77 20.2031 186.916 19.9363 187.826 19.4027C188.735 18.8691 189.413 18.1095 189.859 17.1239C190.306 16.1384 190.529 14.965 190.529 13.6037C190.529 12.2533 190.309 11.0908 189.868 10.1161C189.426 9.13601 188.768 8.38459 187.891 7.86186C187.014 7.33369 185.923 7.0696 184.616 7.0696H181.381V20.2031ZM195.787 22H193.663L199.805 5.27273H201.896L208.038 22H205.915L200.916 7.91903H200.786L195.787 22ZM196.571 15.4659H205.131V17.2628H196.571V15.4659ZM63.0756 33.2727H65.4932L71.1778 47.1577H71.3739L77.0585 33.2727H79.4761V50H77.5812V37.2912H77.4179L72.1906 50H70.3611L65.1338 37.2912H64.9704V50H63.0756V33.2727ZM94.5147 33.2727H96.5403V44.348C96.5403 45.4915 96.2708 46.5124 95.7317 47.4109C95.1981 48.3039 94.444 49.009 93.4693 49.5263C92.4946 50.0381 91.3512 50.294 90.0389 50.294C88.7266 50.294 87.5832 50.0381 86.6085 49.5263C85.6338 49.009 84.877 48.3039 84.3379 47.4109C83.8043 46.5124 83.5375 45.4915 83.5375 44.348V33.2727H85.563V44.1847C85.563 45.0014 85.7427 45.7283 86.1021 46.3654C86.4615 46.997 86.9733 47.4953 87.6376 47.8601C88.3074 48.2195 89.1078 48.3991 90.0389 48.3991C90.97 48.3991 91.7704 48.2195 92.4402 47.8601C93.1099 47.4953 93.6218 46.997 93.9757 46.3654C94.3351 45.7283 94.5147 45.0014 94.5147 44.1847V33.2727ZM109.733 37.4545C109.635 36.6269 109.238 35.9844 108.541 35.527C107.844 35.0696 106.989 34.8409 105.976 34.8409C105.235 34.8409 104.587 34.9607 104.032 35.2003C103.482 35.4399 103.052 35.7693 102.742 36.1886C102.437 36.6078 102.284 37.0843 102.284 37.6179C102.284 38.0644 102.39 38.4483 102.603 38.7695C102.821 39.0853 103.098 39.3494 103.436 39.5618C103.773 39.7687 104.127 39.9402 104.498 40.0763C104.868 40.207 105.208 40.3132 105.519 40.3949L107.217 40.8523C107.653 40.9666 108.138 41.1245 108.671 41.326C109.21 41.5275 109.725 41.8024 110.215 42.1509C110.71 42.494 111.119 42.935 111.44 43.4741C111.761 44.0131 111.922 44.6747 111.922 45.4588C111.922 46.3627 111.685 47.1795 111.211 47.9091C110.743 48.6387 110.057 49.2186 109.153 49.6488C108.255 50.079 107.163 50.294 105.878 50.294C104.68 50.294 103.643 50.1007 102.766 49.7141C101.895 49.3275 101.209 48.7885 100.708 48.0969C100.212 47.4054 99.9319 46.6023 99.8666 45.6875H101.957C102.012 46.3191 102.224 46.8419 102.595 47.2557C102.97 47.6641 103.444 47.969 104.016 48.1705C104.593 48.3665 105.214 48.4645 105.878 48.4645C106.651 48.4645 107.345 48.3393 107.961 48.0888C108.576 47.8329 109.063 47.4789 109.423 47.027C109.782 46.5696 109.962 46.036 109.962 45.4261C109.962 44.8707 109.807 44.4188 109.496 44.0703C109.186 43.7218 108.777 43.4387 108.271 43.2209C107.765 43.0031 107.217 42.8125 106.629 42.6491L104.571 42.0611C103.264 41.6854 102.23 41.149 101.467 40.4521C100.705 39.7551 100.324 38.843 100.324 37.7159C100.324 36.7794 100.577 35.9626 101.084 35.2656C101.595 34.5632 102.281 34.0187 103.142 33.6321C104.008 33.2401 104.974 33.044 106.041 33.044C107.119 33.044 108.078 33.2373 108.916 33.6239C109.755 34.0051 110.419 34.5278 110.909 35.1921C111.405 35.8564 111.666 36.6106 111.693 37.4545H109.733ZM117.278 33.2727V50H115.252V33.2727H117.278ZM134.799 38.5H132.774C132.654 37.9174 132.444 37.4055 132.145 36.9645C131.851 36.5234 131.492 36.1532 131.067 35.8537C130.648 35.5488 130.182 35.3201 129.67 35.1676C129.158 35.0152 128.625 34.9389 128.069 34.9389C127.057 34.9389 126.139 35.1948 125.317 35.7067C124.5 36.2185 123.849 36.9727 123.365 37.9691C122.886 38.9656 122.646 40.188 122.646 41.6364C122.646 43.0848 122.886 44.3072 123.365 45.3036C123.849 46.3001 124.5 47.0542 125.317 47.5661C126.139 48.0779 127.057 48.3338 128.069 48.3338C128.625 48.3338 129.158 48.2576 129.67 48.1051C130.182 47.9527 130.648 47.7267 131.067 47.4272C131.492 47.1223 131.851 46.7493 132.145 46.3082C132.444 45.8617 132.654 45.3499 132.774 44.7727H134.799C134.647 45.6276 134.369 46.3926 133.966 47.0678C133.563 47.743 133.062 48.3175 132.464 48.7912C131.865 49.2595 131.192 49.6161 130.446 49.8612C129.706 50.1062 128.913 50.2287 128.069 50.2287C126.643 50.2287 125.374 49.8802 124.263 49.1832C123.152 48.4863 122.279 47.4953 121.641 46.2102C121.004 44.9252 120.686 43.4006 120.686 41.6364C120.686 39.8722 121.004 38.3475 121.641 37.0625C122.279 35.7775 123.152 34.7865 124.263 34.0895C125.374 33.3925 126.643 33.044 128.069 33.044C128.913 33.044 129.706 33.1665 130.446 33.4116C131.192 33.6566 131.865 34.016 132.464 34.4897C133.062 34.958 133.563 35.5297 133.966 36.2049C134.369 36.8746 134.647 37.6397 134.799 38.5ZM138.759 50H136.635L142.777 33.2727H144.868L151.01 50H148.887L143.888 35.919H143.757L138.759 50ZM139.543 43.4659H148.102V45.2628H139.543V43.4659ZM77.2627 67.1289H73.6853C73.6199 66.6661 73.4865 66.255 73.2851 65.8956C73.0836 65.5308 72.825 65.2204 72.5091 64.9645C72.1933 64.7086 71.8285 64.5125 71.4147 64.3764C71.0063 64.2403 70.5625 64.1722 70.0834 64.1722C69.2176 64.1722 68.4635 64.3873 67.8209 64.8175C67.1784 65.2422 66.6802 65.8629 66.3263 66.6797C65.9723 67.491 65.7954 68.4766 65.7954 69.6364C65.7954 70.8288 65.9723 71.8307 66.3263 72.642C66.6856 73.4534 67.1866 74.0659 67.8291 74.4798C68.4716 74.8936 69.2149 75.1005 70.0589 75.1005C70.5326 75.1005 70.9709 75.0379 71.3739 74.9126C71.7822 74.7874 72.1443 74.605 72.4601 74.3654C72.776 74.1204 73.0373 73.8236 73.2442 73.4751C73.4566 73.1267 73.6036 72.7292 73.6853 72.2827L77.2627 72.299C77.1701 73.0668 76.9387 73.8073 76.5685 74.5206C76.2036 75.2285 75.7109 75.8628 75.0901 76.4237C74.4748 76.979 73.7397 77.4201 72.8849 77.7468C72.0354 78.0681 71.0744 78.2287 70.0017 78.2287C68.5097 78.2287 67.1757 77.8911 65.9996 77.2159C64.8289 76.5407 63.9032 75.5633 63.2226 74.2837C62.5474 73.0041 62.2098 71.455 62.2098 69.6364C62.2098 67.8123 62.5528 66.2604 63.2389 64.9808C63.925 63.7012 64.8561 62.7266 66.0322 62.0568C67.2084 61.3816 68.5315 61.044 70.0017 61.044C70.9709 61.044 71.8694 61.1802 72.697 61.4524C73.5301 61.7247 74.2679 62.1222 74.9104 62.6449C75.5529 63.1622 76.0757 63.7965 76.4786 64.5479C76.887 65.2994 77.1484 66.1597 77.2627 67.1289ZM79.7987 78V61.2727H86.3982C87.6614 61.2727 88.7396 61.4987 89.6326 61.9506C90.531 62.3971 91.2143 63.0315 91.6826 63.8537C92.1563 64.6705 92.3932 65.6315 92.3932 66.7369C92.3932 67.8477 92.1536 68.8033 91.6745 69.6037C91.1953 70.3987 90.501 71.0085 89.5917 71.4332C88.6878 71.858 87.5934 72.0703 86.3083 72.0703H81.8897V69.228H85.7366C86.4118 69.228 86.9726 69.1354 87.4191 68.9503C87.8656 68.7652 88.1978 68.4875 88.4156 68.1172C88.6388 67.7469 88.7504 67.2868 88.7504 66.7369C88.7504 66.1815 88.6388 65.7132 88.4156 65.332C88.1978 64.9509 87.8629 64.6623 87.411 64.4663C86.9645 64.2648 86.4009 64.1641 85.7203 64.1641H83.3353V78H79.7987ZM88.8321 70.3878L92.9894 78H89.0853L85.0179 70.3878H88.8321ZM98.4291 61.2727V78H94.8925V61.2727H98.4291ZM110.413 66.0835C110.348 65.4246 110.067 64.9128 109.572 64.5479C109.076 64.1831 108.404 64.0007 107.554 64.0007C106.977 64.0007 106.49 64.0824 106.092 64.2457C105.695 64.4036 105.39 64.6242 105.178 64.9073C104.971 65.1905 104.867 65.5117 104.867 65.8711C104.856 66.1706 104.919 66.4319 105.055 66.6552C105.197 66.8784 105.39 67.0717 105.635 67.2351C105.88 67.393 106.163 67.5318 106.484 67.6516C106.806 67.766 107.149 67.864 107.514 67.9457L109.016 68.305C109.746 68.4684 110.416 68.6862 111.026 68.9585C111.635 69.2307 112.164 69.5656 112.61 69.9631C113.057 70.3606 113.402 70.8288 113.647 71.3679C113.898 71.907 114.026 72.525 114.031 73.2219C114.026 74.2456 113.764 75.1332 113.247 75.8846C112.735 76.6306 111.995 77.2105 111.026 77.6243C110.062 78.0327 108.899 78.2369 107.538 78.2369C106.188 78.2369 105.011 78.0299 104.01 77.6161C103.013 77.2023 102.234 76.5897 101.674 75.7784C101.118 74.9616 100.827 73.9516 100.8 72.7482H104.222C104.26 73.3091 104.421 73.7773 104.704 74.1531C104.992 74.5233 105.376 74.8037 105.855 74.9943C106.34 75.1795 106.887 75.272 107.497 75.272C108.096 75.272 108.616 75.1849 109.057 75.0107C109.504 74.8364 109.849 74.5941 110.094 74.2837C110.339 73.9734 110.462 73.6167 110.462 73.2138C110.462 72.8381 110.35 72.5223 110.127 72.2663C109.909 72.0104 109.588 71.7926 109.163 71.6129C108.744 71.4332 108.23 71.2699 107.62 71.1229L105.798 70.6655C104.388 70.3224 103.275 69.7861 102.458 69.0565C101.641 68.3268 101.235 67.344 101.241 66.108C101.235 65.0952 101.505 64.2103 102.049 63.4535C102.599 62.6966 103.353 62.1058 104.312 61.6811C105.27 61.2564 106.359 61.044 107.579 61.044C108.82 61.044 109.904 61.2564 110.83 61.6811C111.761 62.1058 112.485 62.6966 113.002 63.4535C113.519 64.2103 113.786 65.087 113.803 66.0835H110.413ZM115.773 64.1886V61.2727H129.511V64.1886H124.39V78H120.894V64.1886H115.773ZM132.613 78H128.823L134.597 61.2727H139.155L144.921 78H141.131L136.941 65.0952H136.811L132.613 78ZM132.376 71.4251H141.327V74.1857H132.376V71.4251ZM134.532 59.6229L132.604 59.5984C132.604 58.5584 132.86 57.7607 133.372 57.2053C133.884 56.6499 134.513 56.3694 135.259 56.364C135.64 56.364 135.967 56.4266 136.239 56.5518C136.511 56.6716 136.759 56.8132 136.982 56.9766C137.205 57.1399 137.418 57.2842 137.619 57.4094C137.821 57.5292 138.039 57.5891 138.273 57.5891C138.589 57.5837 138.828 57.4666 138.991 57.2379C139.16 57.0038 139.245 56.6989 139.245 56.3232L141.148 56.3803C141.137 57.4094 140.875 58.2044 140.364 58.7653C139.852 59.3207 139.226 59.6011 138.485 59.6065C138.082 59.612 137.742 59.5521 137.464 59.4268C137.192 59.3016 136.952 59.16 136.745 59.0021C136.538 58.8388 136.337 58.6945 136.141 58.5692C135.945 58.444 135.724 58.3814 135.479 58.3814C135.196 58.3814 134.968 58.493 134.793 58.7163C134.619 58.9395 134.532 59.2417 134.532 59.6229Z" fill="black"/>
<defs>
<linearGradient id="paint0_linear_601_2355" x1="-0.0135702" y1="25.0478" x2="31.1797" y2="25.0478" gradientUnits="userSpaceOnUse">
<stop offset="0.0177665" stop-color="#059342"/>
<stop offset="0.5863" stop-color="#00B554"/>
<stop offset="0.9619" stop-color="#58C554"/>
</linearGradient>
<linearGradient id="paint1_linear_601_2355" x1="51.899" y1="52.6766" x2="20.7057" y2="52.6766" gradientUnits="userSpaceOnUse">
<stop offset="0.0177665" stop-color="#059342"/>
<stop offset="0.5863" stop-color="#00B554"/>
<stop offset="0.9619" stop-color="#58C554"/>
</linearGradient>
<linearGradient id="paint2_linear_601_2355" x1="4.61269" y1="19.0449" x2="24.1189" y2="23.4632" gradientUnits="userSpaceOnUse">
<stop offset="0.0177665" stop-color="#059379"/>
<stop offset="0.5863" stop-color="#00B554"/>
<stop offset="0.9619" stop-color="#58C554"/>
</linearGradient>
<linearGradient id="paint3_linear_601_2355" x1="56.5202" y1="45.1017" x2="13.7919" y2="59.2302" gradientUnits="userSpaceOnUse">
<stop offset="0.0177665" stop-color="#05932D"/>
<stop offset="0.5863" stop-color="#00B554"/>
<stop offset="0.9619" stop-color="#58C554"/>
</linearGradient>
</defs>
</svg>
