<svg width="210" height="210" viewBox="0 0 210 210" fill="none" xmlns="http://www.w3.org/2000/svg">
<path d="M63.15 28.8C63.23 28.68 63.3 28.56 63.37 28.44L64.87 28.9C64.87 29.04 64.87 29.19 64.87 29.33C64.5199 29.4506 64.1496 29.5015 63.78 29.48C63.52 29.46 63.36 29.04 63.15 28.8ZM62.92 17.36C62.79 16.36 62.09 15.77 60.78 15.9C60.25 18.22 60.25 18.22 61.48 20.02C61.9745 19.7909 62.3818 19.4082 62.6413 18.9289C62.9007 18.4496 62.9985 17.8993 62.92 17.36ZM45.74 25.07C45.64 24.95 45.48 24.71 45.44 24.73C45.08 24.89 44.74 25.09 44.44 25.28L44.84 25.82L45.74 25.07ZM51.57 25.71C50.97 24.61 50.34 24.15 49.3 24.49C49.34 26.57 49.34 26.57 51.57 25.71ZM52.44 38.38C52.44 38.33 52.32 38.29 52.25 38.24L52.06 38.4L52.38 38.62C52.4 38.54 52.46 38.46 52.44 38.38ZM69.34 24.98C69.34 24.83 69.27 24.68 69.23 24.53L68.67 24.77C68.76 24.91 68.82 25.1 68.94 25.15C69.06 25.2 69.21 25.05 69.34 24.98ZM65.57 19.98L65.92 19.66L65.59 19.29C65.49 19.41 65.3 19.51 65.29 19.63C65.28 19.75 65.47 19.82 65.57 19.94V19.98ZM72.65 12.98C72.65 12.84 72.65 12.7 72.65 12.56H72.4C72.4 12.7 72.4 12.84 72.4 12.98H72.65ZM12.88 69.28C12.82 69.28 12.74 69.22 12.7 69.28C12.66 69.34 12.7 69.4 12.65 69.45H12.84C12.85 69.37 12.87 69.31 12.88 69.25V69.28ZM84.48 13.09L84.11 12.8L83.72 13.28C83.87 13.34 84.04 13.46 84.17 13.42C84.3 13.38 84.38 13.18 84.48 13.06V13.09ZM94.26 14.89C94.1986 14.8532 94.1351 14.8198 94.07 14.79C93.9887 14.8979 93.9151 15.0116 93.85 15.13C93.9078 15.1729 93.9719 15.2066 94.04 15.23C94.1299 15.1154 94.207 14.9913 94.27 14.86L94.26 14.89ZM205.69 101.2L205.52 101.34L205.8 101.53C205.8 101.46 205.88 101.38 205.86 101.32C205.84 101.26 205.75 101.22 205.69 101.17V101.2ZM194.34 66.11C194.2 66.92 194.34 67.77 194.19 68.59C194.04 69.41 193.85 70.46 193.67 71.46H193.11L192.74 70.31C192.688 70.1086 192.596 69.9198 192.47 69.7549C192.343 69.59 192.184 69.4525 192.003 69.3507C191.822 69.2488 191.621 69.1847 191.415 69.1623C191.208 69.1398 190.999 69.1594 190.8 69.22C189.13 69.45 187.46 69.65 185.8 69.74C189.459 77.4494 191.466 85.8391 191.69 94.37C191.842 100.881 191.285 107.389 190.03 113.78C190.68 114.102 191.243 114.577 191.67 115.164C192.096 115.751 192.374 116.432 192.48 117.15C192.87 118.72 191.93 119.67 190.69 120.57C190.36 118.84 190.03 117.18 189.69 115.45C189.323 117.11 188.897 118.753 188.41 120.38C188.807 121.286 189.141 122.218 189.41 123.17L191.56 122.74C191.67 122.9 191.77 123.06 191.87 123.23C191.19 123.82 190.54 124.8 189.8 124.89H189.65C189.679 124.925 189.706 124.962 189.73 125L188.65 125.67C188.56 125.54 188.46 125.42 188.36 125.29C188.62 125.08 188.86 124.87 189.11 124.65C188.632 124.286 188.199 123.866 187.82 123.4C187.74 123.3 187.67 123.19 187.6 123.09C187.04 124.75 186.4 126.38 185.73 128C186 128.327 186.199 128.707 186.314 129.115C186.429 129.523 186.459 129.95 186.4 130.37C186.858 129.954 187.357 129.585 187.89 129.27C188.29 131.2 188.66 132.9 189.08 134.88C188.897 134.891 188.713 134.891 188.53 134.88C188.658 135.092 188.756 135.321 188.82 135.56C189.336 137.74 190.663 139.642 192.53 140.88C192.752 141.047 192.945 141.25 193.1 141.48C194.1 142.84 193.62 144.59 191.96 144.85C190.3 145.11 189.76 145.85 190.01 147.23C190.32 149.1 189.5 150.38 188.29 151.65C187.498 152.544 186.851 153.557 186.37 154.65C185.46 156.65 184.85 158.8 183.87 160.77C181.87 164.91 178.87 168.22 175.15 169.88C174.406 171.094 173.581 172.257 172.68 173.36C171.174 174.959 169.582 176.475 167.91 177.9C165.17 180.2 162.34 182.4 159.54 184.64C157.16 184.57 155.83 186.45 154.07 187.54C153.662 187.752 153.233 187.92 152.79 188.04C150.9 188.74 148.97 189.37 147.12 190.16C145.884 190.689 144.494 190.735 143.226 190.288C141.958 189.842 140.903 188.936 140.27 187.75C139.68 186.65 139.14 185.51 138.57 184.39C140.65 182.99 141.17 186.13 143.01 185.39C142.63 183.6 141.23 181.59 142.65 179.99C143.92 178.54 145.02 176.63 146.81 176.33C147.396 175.255 148.101 174.249 148.91 173.33C149.75 172.58 150.04 171.89 149.55 170.94C149.456 170.732 149.386 170.514 149.34 170.29C144.741 173.439 139.824 176.097 134.67 178.22C134.578 178.906 134.67 179.603 134.937 180.241C135.204 180.879 135.637 181.435 136.19 181.85C137.01 182.47 136.52 183.52 135.94 184.3C135.8 183.86 135.67 183.41 135.46 182.69C134.58 183.95 135.07 184.24 135.94 184.3C135.51 184.618 135.055 184.903 134.58 185.15C131.74 186.37 131.71 186.39 132.07 189.53C130.36 189.75 128.76 190.23 129.07 192.93L124.07 191.11C124.35 193.21 123.53 194.11 121.48 193.89C120.85 193.82 120.16 194.37 119.32 194.72C118.751 194.1 118.239 193.431 117.79 192.72C117.477 192.098 116.937 191.62 116.282 191.386C115.627 191.151 114.906 191.178 114.27 191.46C113.13 191.79 112.01 192.22 110.71 192.66C110.35 192.02 109.98 191.34 109.59 190.66C108.892 190.945 108.169 191.162 107.43 191.31C104.97 191.52 103.43 192.57 103.5 195.31C103.5 195.53 103.21 195.76 102.93 196.15C102.344 196.048 101.773 195.874 101.23 195.63C100.258 194.994 99.152 194.591 97.9986 194.452C96.8451 194.313 95.6753 194.443 94.58 194.83C93.1729 195.333 91.6244 195.261 90.27 194.63C83.83 191.77 76.9 191.28 70.06 190.4C69.14 190.27 68.22 190.14 67.32 189.95C65.6804 189.651 63.9895 189.832 62.45 190.47C60.0248 191.328 57.5544 192.052 55.05 192.64C52.51 193.25 49.95 193.69 48.26 195.98C48.2015 196.05 48.1302 196.107 48.05 196.15C47.23 196.66 46.46 197.84 45.43 196.87C44.4 195.9 45.3 195 45.87 194.17C47.3806 191.83 48.3224 189.169 48.62 186.4C48.7717 185.622 48.699 184.817 48.4104 184.078C48.1218 183.34 47.6291 182.699 46.99 182.23C44.51 180.32 41.99 178.41 39.51 176.53C38.8194 175.97 37.992 175.605 37.1132 175.471C36.2343 175.338 35.3357 175.441 34.51 175.77C32.73 176.47 31.02 177.35 29.26 178.15C29.03 176.08 28.8 173.94 28.55 171.8C28.476 171.16 28.3455 170.527 28.16 169.91C27.44 167.61 26.01 167.02 23.93 168.19C20.93 169.9 17.85 171.65 14.8 173.37C14.3499 173.574 13.8853 173.745 13.41 173.88C12.96 171.61 14.26 170.21 15.26 168.75C15.9586 167.891 16.7066 167.073 17.5 166.3C18.5 165.08 18.5 164.3 17.37 163.21C16.5 162.39 15.49 161.7 14.55 160.96C13.4615 160.174 12.648 159.065 12.2244 157.791C11.8009 156.517 11.7888 155.141 12.19 153.86C12.5179 152.511 13.1204 151.245 13.96 150.14C15.49 148.45 15.66 146.55 15.61 144.5C15.6152 144.407 15.6152 144.313 15.61 144.22C15.0612 142.465 14.6696 140.664 14.44 138.84C14.508 137.089 14.756 135.35 15.18 133.65C14.7348 133.425 14.2774 133.224 13.81 133.05C13.5082 133.011 13.2195 132.903 12.9657 132.735C12.7119 132.567 12.4997 132.343 12.3454 132.081C12.1911 131.819 12.0987 131.525 12.0752 131.221C12.0518 130.918 12.0979 130.613 12.21 130.33C12.3978 129.808 12.3792 129.233 12.1581 128.724C11.9369 128.215 11.5299 127.809 11.02 127.59C10.0353 127.043 9.28695 126.151 8.91798 125.087C8.54902 124.022 8.58533 122.859 9.01999 121.82C9.47704 120.321 10.035 118.854 10.69 117.43C10.9253 116.835 11.3172 116.314 11.8242 115.923C12.3311 115.532 12.9344 115.286 13.57 115.21C14.57 116.21 13.29 118.21 15.38 118.63C16.0971 118.85 16.8707 118.793 17.5482 118.471C18.2257 118.149 18.7579 117.585 19.04 116.89C20.45 118.52 23.04 118.99 22.35 121.89C24.12 121.22 24.12 121.22 24.08 117.65C27.61 118.59 30.36 120.17 31.31 124.06C33.55 124.43 34.91 126.06 36.31 127.66C37.01 128.49 37.73 129.31 38.48 130.09C37.21 127.31 35.9 124.55 34.48 121.84C29.7366 112.885 27.5565 102.795 28.18 92.68C27.7976 93.4623 27.5122 94.2885 27.33 95.14C27.05 96.56 26.9 97.99 26.65 99.72C26.1382 100.446 25.5517 101.116 24.9 101.72C24.5595 101.976 24.1611 102.145 23.74 102.21C22.74 103.21 22.64 103.12 21.37 102.21C21.37 101.99 21.44 101.77 21.48 101.55L22.63 101.69C22.5077 101.334 22.4304 100.965 22.4 100.59C22.4088 99.9167 22.4893 99.2463 22.64 98.59C18.87 97.4 16.05 95.04 13.49 91.74L16.49 91.12C16.25 90.64 16.16 90.12 15.86 89.93C14.28 88.78 14.48 87.34 14.92 85.72C15.68 82.97 16.34 80.2 16.92 77.42C17.0374 75.9394 17.6302 74.5363 18.61 73.42C19.112 72.9332 19.4658 72.3142 19.6304 71.6345C19.795 70.9549 19.7637 70.2425 19.54 69.58C18.89 67.17 18.92 67.17 21.42 66.65C21.69 66.59 21.95 66.51 22.02 66.49C22.51 65.07 22.93 63.82 23.37 62.56C23.49 62.22 23.76 61.86 23.72 61.56C23.45 58.94 25.35 57.75 27.12 56.66C28.89 55.57 29.67 54.6 29.06 52.42C28.9023 51.9265 28.8623 51.4029 28.9432 50.8911C29.0242 50.3793 29.2237 49.8936 29.526 49.4728C29.8282 49.052 30.2248 48.7077 30.6839 48.4676C31.143 48.2275 31.6519 48.0982 32.17 48.09C32.9877 48.058 33.7797 47.7948 34.454 47.3311C35.1283 46.8674 35.6574 46.2221 35.98 45.47C36.7356 44.4592 37.6236 43.5545 38.62 42.78C38.51 42.23 38.37 41.45 38.24 40.78L42.24 39.28L46.56 41.51C46.48 41.7 46.39 41.95 46.29 42.22C46.97 41.43 47.58 41.57 48.29 42.37L46.15 42.64C46.0033 43.0344 45.8049 43.4077 45.56 43.75C45.07 44.3655 44.7541 45.1012 44.645 45.8803C44.536 46.6595 44.6378 47.4536 44.94 48.18C45.01 48.36 45.04 48.53 45.09 48.7C47.4722 45.0053 50.3947 41.6885 53.76 38.86C56.0522 36.9806 58.475 35.2662 61.01 33.73C60.9153 33.5428 60.8601 33.3382 60.8479 33.1288C60.8357 32.9193 60.8666 32.7097 60.9388 32.5127C61.011 32.3158 61.1229 32.1358 61.2677 31.9839C61.4124 31.8321 61.5868 31.7116 61.78 31.63C62.1848 31.4086 62.6443 31.307 63.1047 31.3371C63.5651 31.3672 64.0075 31.5277 64.38 31.8C65.56 31.18 66.74 30.59 67.92 30.04C67.7018 29.1124 67.5911 28.1629 67.59 27.21C67.6721 26.8356 67.8344 26.4835 68.0657 26.1779C68.297 25.8723 68.5919 25.6206 68.93 25.44C69.22 25.28 70.16 25.92 70.55 26.44C70.94 26.96 71.49 27.71 71.93 28.37C75.1516 27.1166 78.4479 26.0646 81.8 25.22L84.63 22.65C85.29 23.11 85.63 23.34 86.01 23.6C86.2 23.74 86.4 23.92 86.63 24.12L87.63 23.92L89.42 22.19C88.53 20.71 86.25 21.66 86.2 19.66C86.37 19.49 86.52 19.23 86.63 19.25C89.01 19.61 91.05 18.64 93.22 17.85C95.8368 16.8568 98.6865 16.6483 101.42 17.25C103.593 17.7339 105.85 17.6859 108 17.11C108.9 16.9009 109.811 16.7472 110.73 16.65C114.38 16.2 118.06 15.91 121.67 15.24C123.262 14.824 124.755 14.0929 126.06 13.09C127.612 11.7895 129.374 10.7617 131.27 10.05C133.98 9.24999 136.68 8.04999 137.95 5.09999C138.173 4.58046 138.515 4.1212 138.95 3.75999C139.25 3.49999 139.95 3.24999 140.14 3.39999C140.477 3.77684 140.677 4.25568 140.71 4.75999C140.675 5.22975 140.524 5.68346 140.27 6.07999C138.9 8.83999 139.64 11.71 139.88 14.53C139.956 15.1288 140.216 15.6891 140.625 16.1335C141.033 16.5778 141.57 16.8841 142.16 17.01C145.12 18.05 148.047 19.1833 150.94 20.41C151.889 20.9127 152.966 21.1222 154.034 21.0118C155.102 20.9014 156.114 20.4761 156.94 19.79C157.154 19.6082 157.378 19.438 157.61 19.28C159.88 17.75 160.97 18.01 162.22 20.43C162.68 21.33 162.96 22.32 163.39 23.25C164.63 25.95 166.64 26.51 169.18 24.95C169.955 24.5288 170.753 24.1516 171.57 23.82C171.66 22.42 172 21.02 173.86 20.71C175.55 20.42 176.37 21.25 175.86 22.89C175.71 23.41 175.41 23.89 175.2 24.41C174.47 26.2 174.64 26.77 176.29 27.85C177.6 28.72 178.97 29.49 180.29 30.38C182.91 32.16 183.64 34.59 182.54 37.59C182.06 38.9 181.88 38.98 180.15 38.86C178.53 40.23 177.15 41.46 175.74 42.52C175.258 42.7942 174.876 43.2166 174.653 43.7246C174.43 44.2326 174.376 44.7991 174.5 45.34C174.6 45.88 174.66 46.42 174.77 47.1L173.37 47.91C171.79 48.85 171.74 49.56 173.23 50.44C173.958 51.0027 174.813 51.3771 175.72 51.53C176.83 51.53 178.13 52.8 179.05 51.41C179.97 50.02 181.15 48.75 180.47 46.87C180.213 46.3652 180.146 45.7851 180.279 45.2348C180.413 44.6845 180.74 44.2003 181.2 43.87C181.51 43.97 181.94 43.99 182 44.14C183.19 47.14 185.4 49.84 185.4 53.33C185.32 54.1218 185.526 54.9162 185.981 55.5693C186.436 56.2224 187.109 56.6909 187.88 56.89C188.22 56.9951 188.533 57.173 188.797 57.4113C189.061 57.6497 189.27 57.9427 189.41 58.27C189.593 58.9317 189.931 59.5404 190.395 60.0463C190.859 60.5522 191.436 60.9407 192.08 61.18C194.45 62.39 194.79 63.39 194.34 66.11ZM177.34 33.82C177.34 33.93 177.9 34.17 178.01 34.09C178.36 33.8683 178.633 33.5433 178.79 33.16C178.861 32.5607 178.844 31.9544 178.74 31.36C178.01 32.1 177.68 32.36 177.54 32.61C177.389 32.9948 177.321 33.4071 177.34 33.82ZM173.1 35.29C173.66 35.42 174.1 35.65 174.23 35.53C174.527 35.2419 174.771 34.9033 174.95 34.53C174.61 34.37 174.2 34.02 173.95 34.11C173.7 34.2 173.49 34.74 173.1 35.29ZM16.74 151.01C16.7673 151.152 16.804 151.293 16.85 151.43L17.08 151.35L16.96 150.93C16.88 150.96 16.74 150.99 16.74 151.01ZM18.32 156.86C18.0078 156.677 17.6711 156.539 17.32 156.45C17.16 156.45 16.99 156.76 16.82 156.94C17.0531 157.143 17.3206 157.302 17.61 157.41C17.73 157.46 17.95 157.16 18.32 156.86ZM22.11 156.4C21.96 156.21 21.81 156.02 21.67 155.81L20.47 156.81L20.85 157.26L22.11 156.4ZM22.23 144.67C21.94 144.2 21.69 143.26 21.23 143.12C20.77 142.98 20 143.61 19.47 144.03C19.1448 144.358 18.9104 144.764 18.79 145.21C18.46 146.11 18.23 147.13 19.36 147.57C20.49 148.01 21.14 147.34 21.63 146.49C21.8926 145.902 22.1067 145.293 22.27 144.67H22.23ZM147.48 187.61C147.48 187.61 147.38 187.5 147.32 187.44C147.23 187.55 147.12 187.65 147.04 187.77C146.96 187.89 147.15 187.88 147.21 187.94C147.308 187.837 147.399 187.727 147.48 187.61ZM136.92 42.88C138.016 41.6022 138.947 40.191 139.69 38.68C135.97 36.95 133.19 34.93 130.21 34.55C128.21 34.28 124.13 36.26 124.1 37.32C124.03 39.75 125.21 43.39 127.1 44.47C127.974 45.0488 128.96 45.437 129.993 45.6093C131.027 45.7816 132.086 45.7341 133.1 45.47C133.1 45.28 133.1 45.1 133.01 44.91C133.01 44.6188 133.077 44.3316 133.207 44.0712C133.338 43.8108 133.527 43.5844 133.76 43.41C134.344 43.1343 134.985 43.0039 135.63 43.03C136.17 42.97 136.58 42.93 136.92 42.88ZM162.42 40.75C163.17 41.36 163.92 41.98 164.65 42.61C165.18 42.02 165.77 41.43 166.38 40.74L163.71 37.36C161.34 37.96 162.79 39.66 162.42 40.75ZM158.32 26.07L158.71 26.29L158.95 25.91C158.82 25.84 158.67 25.67 158.56 25.7C158.45 25.73 158.4 25.94 158.32 26.07ZM157.32 36.86C158.23 37.5 159.12 38.17 160 38.86C160.02 38.5736 160.063 38.2892 160.13 38.01C160.42 36.93 160.69 36.01 159.43 35.46C158.17 34.91 157.17 35.46 157.36 36.86H157.32ZM134.78 21.76C135.36 22.5725 135.859 23.44 136.27 24.35C136.61 25.07 136.61 26.16 137.7 26.06C138.79 25.96 138.95 24.93 138.97 23.97C138.962 22.9684 139.006 21.9671 139.1 20.97C139.36 18.76 138.21 17.73 136.01 18.29C133.81 18.85 133.44 19.97 134.78 21.76ZM130.27 23.98C130.54 24.23 130.77 24.42 130.99 24.6C131.59 24.7467 132.19 24.9067 132.79 25.08C132.886 25.0379 132.977 24.9842 133.06 24.92C133.218 24.778 133.341 24.601 133.42 24.4031C133.498 24.2052 133.529 23.9919 133.51 23.78C133.413 23.5963 133.27 23.4414 133.095 23.3308C132.919 23.2202 132.717 23.1578 132.51 23.15C131.74 23.3596 130.991 23.6373 130.27 23.98ZM127.06 20.23C128.06 19.51 128.16 18.78 127.53 18.02C127.385 17.943 127.224 17.9027 127.06 17.9027C126.896 17.9027 126.735 17.943 126.59 18.02C125.88 18.74 126.14 19.46 127.02 20.23H127.06ZM32.56 66.11C32.7 66.2 32.84 66.37 32.98 66.36C33.12 66.35 33.19 66.15 33.3 66.03C33.15 65.94 33.02 65.78 32.88 65.78C32.74 65.78 32.63 66 32.52 66.11H32.56ZM28.27 66.46L28.78 66.78C28.8987 66.5879 28.996 66.3833 29.07 66.17C29.07 66.17 28.72 65.91 28.68 65.94C28.5212 66.0947 28.3834 66.2695 28.27 66.46ZM38.27 149.73C37.08 150 36.22 149.97 35.76 150.38C35.5471 150.646 35.3889 150.952 35.2945 151.28C35.2001 151.608 35.1714 151.951 35.21 152.29C35.21 152.67 36.01 153.29 36.29 153.29C36.862 153.09 37.3441 152.693 37.65 152.17C37.9531 151.391 38.1613 150.579 38.27 149.75V149.73ZM41.06 137.62C40.9362 137.158 40.7258 136.724 40.44 136.34C40.14 136.6 39.6 136.86 39.58 137.13C39.6887 137.734 39.8912 138.318 40.18 138.86C40.63 138.26 41.08 137.93 41.05 137.64L41.06 137.62ZM42.94 146.89C43.564 147.104 44.2412 147.106 44.8667 146.897C45.4921 146.687 46.031 146.277 46.4 145.73C44.88 144.87 43.94 145.24 42.93 146.91L42.94 146.89ZM50.4 152.39C50.53 151.73 50.72 151.09 50.9 150.44C49.8033 149.318 48.7652 148.139 47.79 146.91C47.34 147.48 46.86 148.04 46.34 148.58C45.3247 149.65 44.4014 150.804 43.58 152.03C43.3387 152.621 43.2098 153.252 43.2 153.89L43.87 154.24C45.38 153.31 46.82 152.84 48.54 153.76C49.56 154.34 50.19 153.46 50.39 152.46L50.4 152.39ZM51.12 158.77C51.12 158.68 50.65 158.2 50.46 158.24C50.3028 158.291 50.1591 158.377 50.0396 158.491C49.9202 158.605 49.828 158.745 49.77 158.9C49.71 159.12 49.99 159.43 50.25 160C50.5805 159.63 50.869 159.224 51.11 158.79L51.12 158.77ZM51.83 162.08C51.95 161.97 52.17 161.86 52.17 161.74C52.17 161.62 51.98 161.49 51.87 161.36C51.76 161.48 51.55 161.6 51.55 161.73C51.55 161.86 51.73 162 51.82 162.1L51.83 162.08ZM55.89 180.95C55.6121 180.47 55.1862 180.093 54.6761 179.875C54.1661 179.656 53.5991 179.609 53.06 179.74C52.58 179.74 52.17 180.45 51.72 180.84C52.1 181.27 52.4 181.94 52.87 182.1C53.4226 182.317 54.0362 182.322 54.5922 182.114C55.1481 181.905 55.607 181.497 55.88 180.97L55.89 180.95ZM59.04 177.33C58.9 177.27 58.75 177.14 58.65 177.17C58.55 177.2 58.49 177.4 58.41 177.53L58.8 177.71L59.04 177.33ZM63.04 184.55C62.9 184.47 62.76 184.34 62.62 184.34C62.48 184.34 62.46 184.56 62.39 184.68C62.53 184.76 62.66 184.89 62.81 184.89C62.96 184.89 62.9 184.69 62.98 184.57L63.04 184.55ZM65.7 173.16C63.9 172.77 63.9 172.77 60.28 174.53C60.9 175.53 61.52 175.9 62.43 175.29C63.44 174.59 64.53 173.9 65.64 173.18L65.7 173.16ZM101.92 190.88L101.7 190.53C101.57 190.63 101.4 190.7 101.34 190.82C101.28 190.94 101.48 191.04 101.56 191.16L101.92 190.88ZM125.05 187.2C125.05 187.07 124.72 186.88 124.33 186.53C124.171 186.867 124.069 187.229 124.03 187.6C124.03 187.76 124.4 187.89 124.6 188.04C124.773 187.789 124.904 187.512 124.99 187.22L125.05 187.2ZM120.89 181.84C110.983 182.943 101.011 180.421 92.82 174.74C85.4 169.74 76.82 166.6 68.68 162.74C67.04 161.97 65.47 161.15 63.93 160.28C63.5366 160.48 63.1014 160.585 62.66 160.585C62.2186 160.585 61.7834 160.48 61.39 160.28C61.22 160.2 61.08 160.07 60.92 159.98C58.56 158.7 57.6 159.17 57.21 161.81C57.21 162.07 57.21 162.35 57.13 162.75L52.59 165C53.9465 166.009 55.4044 166.873 56.94 167.58C57.89 167.91 59.14 167.38 60.23 167.07C63.23 167.82 64.46 170.86 66.92 172.49C68.2121 173.447 69.4413 174.485 70.6 175.6C73.94 174 78.34 175.18 81.33 178.31C79.26 179.94 77.33 177.92 75.21 177.88C75.2763 178.311 75.4284 178.723 75.6574 179.094C75.8864 179.465 76.1876 179.785 76.543 180.037C76.8984 180.289 77.3008 180.467 77.7264 180.56C78.1519 180.653 78.5918 180.66 79.02 180.58C80.7 180.34 82.49 180.86 84.08 179.66C85.13 178.87 85.93 179.84 86.5 180.73C89.94 178.95 96.01 180.15 98.89 183.13C101.47 182.13 101.65 182.23 102.56 184.54C102.93 185.54 103.17 186.54 104.76 186.64C104.63 185.39 104.51 184.27 104.37 182.94C104.99 182.89 105.49 182.81 105.99 182.82C106.269 182.851 106.534 182.954 106.76 183.12C108.56 184.35 110.93 182.6 112.32 183.68C113.78 184.907 115.54 185.721 117.42 186.04C119.35 186.35 120.22 185.64 120.42 183.61C120.482 183.012 120.62 182.424 120.83 181.86L120.89 181.84ZM165.24 158.34H164.99C164.99 158.42 164.92 158.51 164.99 158.57C165.06 158.63 165.12 158.68 165.18 158.73C165.12 158.61 165.15 158.46 165.18 158.36L165.24 158.34ZM167.24 175.77C167.16 175.63 167.11 175.41 166.99 175.38C166.87 175.35 166.69 175.45 166.53 175.51L166.86 176.07L167.24 175.77ZM170.45 163.91C170.36 163.77 170.28 163.63 170.19 163.5C170.07 163.59 169.85 163.68 169.83 163.79C169.81 163.9 169.98 164.06 170.07 164.2L170.45 163.91ZM190.55 63.77H189.88C189.88 64.23 189.88 64.68 189.95 65.13H190.41C190.46 64.65 190.5 64.21 190.55 63.77ZM17.16 98.25L17.31 98.17L17.16 98.08V98.25ZM202.73 102.85C202.514 103.11 202.342 103.404 202.22 103.72C202.51 103.8 202.82 104.01 203.07 103.95C203.428 103.823 203.765 103.645 204.07 103.42L203.43 102.95C203.19 102.91 202.83 102.75 202.73 102.85ZM11.27 99.46C12.47 99.57 12.99 99.32 12.92 98.02C12.5453 98.0989 12.1846 98.2338 11.85 98.42C11.57 98.64 11.48 99 11.27 99.46ZM13.99 104.55L12.74 102.08L12.13 102.39C12.32 103.37 12.62 104.29 13.94 104.58L13.99 104.55ZM14.6 81.85C14.92 81.06 14.11 79.95 13.31 80.27C11.1986 81.1589 9.26954 82.4302 7.62 84.02C10.27 85.01 13.77 83.78 14.55 81.88L14.6 81.85ZM170.37 179.58L171.07 179.77C171.15 179.34 171.24 178.89 171.31 178.46L170.81 178.32C170.61 178.77 170.46 179.19 170.32 179.61L170.37 179.58ZM10.88 110.82C10.88 110.26 11.11 109.55 10.88 109.15C10.6087 108.787 10.4523 108.351 10.431 107.898C10.4096 107.446 10.5242 106.997 10.76 106.61C11.12 105.82 11.15 104.85 10.09 104.61C9.03 104.37 8.80998 105.35 8.49998 106.11C7.60998 108.28 9.37999 109.41 10.19 110.92L10.88 110.82ZM12.57 92.09C11.68 91.18 10.78 91.57 9.84999 92.15L11.75 96.15C12.89 94.6 13.27 92.85 12.52 92.12L12.57 92.09Z" fill="#FFDDCE"/>
<path fill-rule="evenodd" clip-rule="evenodd" d="M100.06 10.39L105.87 10.25V11.38L101.27 11.46L101.36 15.09L106.01 14.97V16.11L101.36 16.23L101.5 21.92H100.35L100.06 10.39ZM84.16 21.68L83.3201 22.46C83.8432 23.1038 84.5115 23.6144 85.2701 23.95C85.9082 24.1936 86.6042 24.2424 87.2701 24.09C87.6885 24.0196 88.0889 23.8666 88.4477 23.64C88.8065 23.4134 89.1166 23.1176 89.36 22.77C89.5974 22.4324 89.7625 22.0494 89.8451 21.6451C89.9277 21.2407 89.926 20.8237 89.8401 20.42C89.698 19.8156 89.3816 19.2662 88.9301 18.84C88.2077 18.2027 87.3827 17.6921 86.4901 17.33C85.9064 17.0861 85.3356 16.8124 84.78 16.51C84.5027 16.3469 84.2585 16.1332 84.06 15.88C83.9067 15.6797 83.8007 15.4472 83.75 15.2C83.7027 15.0086 83.6978 14.8091 83.7359 14.6156C83.7739 14.4221 83.8538 14.2393 83.97 14.08C84.2046 13.738 84.5634 13.5012 84.97 13.42C85.3025 13.3472 85.6487 13.3679 85.97 13.48C86.4623 13.6917 86.9128 13.9897 87.3 14.36L88.0701 13.46C87.5609 12.9575 86.9507 12.569 86.28 12.32C85.77 12.1525 85.2244 12.1248 84.7 12.24C84.2129 12.3438 83.7593 12.5672 83.3801 12.89C83.0094 13.2019 82.7325 13.6103 82.58 14.07C82.4296 14.5288 82.4088 15.0202 82.5201 15.49C82.6658 16.1227 83.0176 16.689 83.5201 17.1C84.1708 17.5726 84.8758 17.9654 85.6201 18.27C86.4603 18.6217 87.2451 19.0933 87.95 19.67C88.256 19.9323 88.4756 20.2808 88.58 20.67C88.6499 21.0027 88.6292 21.3481 88.5201 21.67C88.4005 22.0134 88.1896 22.3176 87.91 22.55C87.6217 22.7925 87.2784 22.9607 86.91 23.04C86.0201 23.24 85.16 22.78 84.16 21.68ZM69.84 17.04L70.92 16.62L75.16 27.42L74.08 27.84L69.84 17.04ZM54.4399 24.83L55.0099 25.83L57.2699 24.52L62.5599 33.52L63.5599 32.93L58.2699 23.93L60.4899 22.62L59.9199 21.62L54.4399 24.83ZM41.78 34.46L53.56 39.46L52.63 40.3L48.72 38.69L45 42.03L46.22 46.03L45.22 46.89L41.52 34.61L41.78 34.46ZM43.32 36.39L44.65 40.84L47.65 38.18L43.32 36.39ZM33.74 58.02L33.84 56.87C35.28 57.06 36.27 56.79 36.84 56.05C37.0571 55.7546 37.201 55.4119 37.26 55.05C37.3136 54.6914 37.2686 54.325 37.13 53.99C36.9988 53.6725 36.7804 53.3986 36.5 53.2C36.1619 52.9599 35.7545 52.837 35.34 52.85C34.4301 52.89 33.5307 53.0618 32.67 53.36C31.9132 53.6266 31.1279 53.8045 30.33 53.89C29.6853 53.9142 29.0511 53.7205 28.53 53.34C28.1333 53.0645 27.8216 52.6834 27.63 52.24C27.4337 51.8012 27.3645 51.3162 27.43 50.84C27.4964 50.3447 27.6854 49.8738 27.98 49.47C28.2974 49.0367 28.721 48.6923 29.21 48.47C29.8792 48.2128 30.5936 48.0937 31.31 48.12V49.31C30.7739 49.2919 30.2388 49.3698 29.73 49.54C29.4052 49.6777 29.1248 49.9027 28.92 50.19C28.7877 50.354 28.6902 50.5432 28.6335 50.746C28.5767 50.9489 28.562 51.1612 28.59 51.37C28.6117 51.569 28.6756 51.7612 28.7773 51.9336C28.8791 52.106 29.0163 52.2548 29.18 52.37C29.3813 52.5198 29.6137 52.6224 29.86 52.67C30.1908 52.7283 30.5292 52.7283 30.86 52.67C31.0039 52.67 31.3598 52.5562 31.9205 52.377C32.1393 52.307 32.3893 52.2271 32.67 52.14C33.5734 51.8082 34.5276 51.6356 35.49 51.63C36.113 51.6476 36.7174 51.8457 37.23 52.2C37.5621 52.4422 37.8408 52.75 38.0489 53.1044C38.2571 53.4587 38.3902 53.8521 38.44 54.26C38.5064 54.6875 38.4858 55.124 38.3792 55.5433C38.2727 55.9627 38.0825 56.3561 37.82 56.7C37.4251 57.2535 36.8754 57.6779 36.24 57.92C35.4275 58.1575 34.569 58.1919 33.74 58.02ZM125.66 24.29L122.44 11.9L122.16 11.81L114.67 22.22L115.94 22.46L118.41 19.07L123.32 19.98L124.42 24.06L125.66 24.29ZM119.13 18.07L121.85 14.3L123.03 18.79L119.13 18.07ZM148.18 22.92L147.06 23.19C146.898 22.4176 146.555 21.6945 146.06 21.08C145.537 20.4665 144.88 19.9808 144.14 19.66C143.321 19.2833 142.418 19.1281 141.52 19.21C140.656 19.2771 139.826 19.5778 139.12 20.08C138.407 20.5913 137.842 21.281 137.48 22.08C137.177 22.6746 137.001 23.3262 136.965 23.9928C136.929 24.6593 137.033 25.326 137.27 25.95C137.522 26.5779 137.896 27.1491 138.372 27.63C138.848 28.1108 139.415 28.4917 140.04 28.75C140.746 29.0812 141.517 29.2479 142.297 29.2375C143.076 29.2272 143.843 29.0399 144.54 28.69L145.09 29.69C144.261 30.1188 143.343 30.345 142.41 30.35C141.411 30.3518 140.425 30.1333 139.52 29.71C139.497 29.7011 139.475 29.6921 139.452 29.6829L139.11 30.22C139.206 30.2496 139.3 30.2863 139.39 30.33C139.5 30.3721 139.601 30.4364 139.685 30.519C139.769 30.6016 139.836 30.7006 139.88 30.81C139.927 30.9137 139.951 31.0262 139.951 31.14C139.951 31.2538 139.927 31.3663 139.88 31.47C139.806 31.6272 139.696 31.7646 139.559 31.8707C139.421 31.9768 139.261 32.0486 139.09 32.08C138.622 32.1608 138.14 32.0834 137.72 31.86C137.308 31.6786 136.935 31.4207 136.62 31.1L137 30.68C137.238 30.8962 137.508 31.0749 137.8 31.21C138.049 31.3441 138.327 31.4161 138.61 31.42C138.688 31.4194 138.764 31.3965 138.83 31.354C138.896 31.3115 138.948 31.2511 138.98 31.18C139.002 31.1384 139.013 31.092 139.013 31.045C139.013 30.9979 139.002 30.9516 138.98 30.91C138.909 30.8031 138.808 30.7196 138.69 30.67C138.518 30.6029 138.341 30.5494 138.16 30.51L138.832 29.3878C138.267 29.0782 137.754 28.679 137.314 28.2041C136.701 27.5428 136.245 26.7518 135.98 25.89C135.552 24.4368 135.677 22.8768 136.33 21.51C136.645 20.776 137.109 20.1154 137.693 19.5698C138.276 19.0242 138.967 18.6054 139.72 18.34C140.497 18.0611 141.322 17.9404 142.146 17.985C142.971 18.0297 143.778 18.2388 144.52 18.6C145.451 19.0023 146.276 19.6151 146.93 20.39C147.553 21.1147 147.983 21.9849 148.18 22.92ZM160.56 42.93L163.45 30.46L163.27 30.31L151.76 36.05L152.76 36.84L156.53 34.95L160.47 38.03L159.56 42.16L160.56 42.93ZM157.66 34.46L161.81 32.31L160.79 36.91L157.66 34.46ZM166.71 30.76V29.84C166.286 29.7682 165.885 29.5968 165.54 29.34C165.268 29.0865 165.05 28.7803 164.9 28.44C164.728 28.0548 164.472 27.713 164.15 27.44C163.893 27.2275 163.592 27.0736 163.269 26.989C162.946 26.9044 162.609 26.8911 162.28 26.95L162.19 27.95C162.476 27.9481 162.761 27.9783 163.04 28.04C163.21 28.0916 163.369 28.1728 163.51 28.28C163.617 28.3696 163.714 28.4702 163.8 28.58C163.925 28.7816 164.036 28.9922 164.13 29.21C164.298 29.5949 164.551 29.9368 164.87 30.21C165.093 30.3835 165.343 30.5187 165.61 30.61C165.969 30.7041 166.339 30.7545 166.71 30.76ZM179.85 46.51C180.369 47.1383 180.755 47.8658 180.983 48.6481C181.212 49.4304 181.279 50.251 181.18 51.06C181.095 51.8617 180.844 52.637 180.445 53.3374C180.046 54.0378 179.506 54.6481 178.86 55.13C178.237 55.6346 177.517 56.0066 176.745 56.2233C175.973 56.44 175.165 56.4967 174.37 56.39C173.564 56.3086 172.784 56.0614 172.078 55.6639C171.373 55.2663 170.757 54.7271 170.27 54.08C169.758 53.4543 169.38 52.7306 169.158 51.9533C168.936 51.176 168.876 50.3616 168.98 49.56C169.067 48.7729 169.314 48.012 169.706 47.3241C170.098 46.6361 170.627 46.0358 171.26 45.56C172.127 44.8623 173.167 44.413 174.27 44.26C175.323 44.0969 176.401 44.2213 177.39 44.62C178.365 45.0176 179.215 45.6705 179.85 46.51ZM179 47.24C178.479 46.5681 177.789 46.0469 177 45.73C176.183 45.4126 175.295 45.3194 174.43 45.46C173.56 45.5807 172.737 45.9253 172.04 46.46C171.519 46.8486 171.084 47.3405 170.763 47.9049C170.441 48.4693 170.239 49.094 170.17 49.74C170.083 50.3765 170.127 51.0241 170.299 51.6432C170.471 52.2622 170.767 52.8396 171.17 53.34C171.717 54.0445 172.442 54.59 173.27 54.92C174.063 55.2507 174.931 55.3579 175.78 55.23C176.655 55.0946 177.479 54.7326 178.17 54.18C178.86 53.6631 179.402 52.9732 179.74 52.18C180.06 51.3776 180.164 50.5051 180.04 49.65C179.917 48.7675 179.558 47.9346 179 47.24ZM51.03 172.26H52.27C52.2346 171.226 52.0039 170.208 51.59 169.26C51.17 168.407 50.5894 167.643 49.88 167.01C49.0338 166.232 48 165.688 46.88 165.43C45.8309 165.181 44.733 165.229 43.71 165.57C42.6805 165.896 41.7581 166.494 41.04 167.3C40.0753 168.36 39.5312 169.737 39.51 171.17C39.5 172.126 39.7051 173.071 40.1102 173.937C40.5153 174.802 41.1099 175.565 41.85 176.17C42.4009 176.716 43.0576 177.145 43.7798 177.428C44.5019 177.712 45.2745 177.845 46.05 177.82C46.8241 177.75 47.5766 177.527 48.2634 177.163C48.9502 176.799 49.5575 176.301 50.05 175.7L46.33 172.37L45.58 173.2L48.33 175.67C47.5497 176.36 46.5308 176.719 45.49 176.67C44.3963 176.609 43.3606 176.158 42.57 175.4C41.8569 174.778 41.3162 173.982 41 173.09C40.6826 172.233 40.6098 171.305 40.79 170.41C40.9443 169.547 41.3356 168.744 41.92 168.09C42.4954 167.456 43.2313 166.99 44.05 166.74C44.9054 166.468 45.8197 166.44 46.69 166.66C47.5729 166.867 48.3906 167.289 49.07 167.89C49.6367 168.42 50.0951 169.055 50.42 169.76C50.7803 170.547 50.9874 171.395 51.03 172.26ZM64.7399 178L63.8299 190.77L62.7399 190.16L62.9999 185.94L58.6299 183.51L55.1999 185.97L54.0699 185.34L64.4899 177.86L64.7399 178ZM63.4099 180.08L59.6399 182.79L63.0999 184.71L63.4099 180.08ZM78.76 184.15L76.55 183.46L73.01 194.49L74.12 194.84L75.74 189.71L76.37 189.91L78.72 196.3L80.09 196.73L77.73 190.34C78.4665 190.604 79.2489 190.717 80.03 190.67C80.599 190.621 81.138 190.393 81.57 190.02C82.0112 189.635 82.3337 189.132 82.5 188.57C82.7363 187.924 82.7363 187.216 82.5 186.57C82.2456 185.944 81.7876 185.423 81.2 185.09C80.4179 184.701 79.601 184.386 78.76 184.15ZM76.13 188.65L77.32 184.89L79.27 185.46C79.8118 185.621 80.32 185.878 80.77 186.22C81.0568 186.45 81.2634 186.765 81.36 187.12C81.4628 187.479 81.4628 187.86 81.36 188.22C81.2492 188.589 81.0297 188.917 80.73 189.16C80.4483 189.399 80.0983 189.542 79.73 189.57C79.1491 189.572 78.5729 189.467 78.03 189.26L76.13 188.65ZM96.27 187.9L100.42 200L99.17 199.87L97.77 195.87L92.77 195.34L90.56 198.95L89.28 198.81L95.96 187.81L96.27 187.9ZM95.86 190.33L93.44 194.33L97.44 194.76L95.86 190.33ZM109.16 188.37L110.35 199.91L111.59 199.79L110.68 191.05L119.2 199H119.46L118.27 187.46L117.09 187.57L118.01 196.42L109.41 188.37H109.16ZM125.9 186.95L125.58 185.86L131.67 184.06L131.99 185.15L129.51 185.88L132.51 195.88L131.38 196.21L128.38 186.21L125.9 186.95ZM144.42 191.46L139.61 180.83L138.61 181.3L143.36 191.93L144.42 191.46ZM153.74 186.63L147.27 176.98L149.27 175.64C150.299 174.888 151.44 174.301 152.65 173.9C153.755 173.602 154.929 173.686 155.98 174.14C157.1 174.645 158.046 175.47 158.7 176.51C159.314 177.398 159.683 178.433 159.77 179.51C159.857 180.447 159.669 181.388 159.23 182.22C158.612 183.204 157.769 184.027 156.77 184.62L153.74 186.63ZM154.06 185.1L155.17 184.36C156.133 183.78 157.014 183.073 157.79 182.26C158.34 181.576 158.643 180.727 158.65 179.85C158.635 178.891 158.328 177.96 157.77 177.18C157.231 176.319 156.443 175.642 155.51 175.24C154.62 174.881 153.633 174.846 152.72 175.14C151.593 175.569 150.528 176.144 149.55 176.85L148.87 177.31L154.06 185.1ZM176.92 167.25L164.84 163.03L164.64 163.29L169.12 175.29L170.02 174.37L168.55 170.37L172.04 166.79L176.04 168.15L176.92 167.25ZM168.12 169.21L166.5 164.86L170.89 166.37L168.12 169.21Z" fill="black"/>
<path fill-rule="evenodd" clip-rule="evenodd" d="M30.7918 179.208C50.4757 198.892 77.1628 209.966 105 210C132.838 209.968 159.527 198.896 179.211 179.211C198.896 159.527 209.968 132.838 210 105C209.968 77.162 198.896 50.4733 179.211 30.7889C159.527 11.1044 132.838 0.0317604 105 0C77.162 0.0317604 50.4733 11.1044 30.7889 30.7889C11.1044 50.4733 0.0317604 77.162 0 105C0.0344012 132.837 11.1079 159.524 30.7918 179.208ZM32.2031 32.2031C51.5124 12.8937 77.6925 2.03176 105 2C132.308 2.02912 158.49 12.8902 177.8 32.2002C197.11 51.5101 207.971 77.6916 208 105C207.968 132.308 197.106 158.488 177.797 177.797C158.488 197.106 132.308 207.968 105 208C77.6925 207.968 51.5124 197.106 32.2031 177.797C12.8937 158.488 2.03176 132.308 2 105C2.03176 77.6925 12.8937 51.5124 32.2031 32.2031ZM52.0994 157.901C66.1313 171.933 85.1559 179.826 105 179.85C124.846 179.829 143.873 171.936 157.907 157.904C171.941 143.872 179.836 124.846 179.86 105C179.839 85.1524 171.945 66.1238 157.911 52.0894C143.876 38.055 124.848 30.1612 105 30.14C85.1542 30.1638 66.1281 38.0588 52.0959 52.0929C38.0636 66.127 30.1712 85.1541 30.15 105C30.1738 124.844 38.0674 143.869 52.0994 157.901ZM53.5072 53.5042C67.1649 39.8446 85.6838 32.1612 105 32.14C124.317 32.1612 142.837 39.8443 156.496 53.5036C170.156 67.1629 177.839 85.6828 177.86 105C177.839 124.316 170.155 142.835 156.496 156.493C142.836 170.151 124.316 177.831 105 177.85C85.6855 177.829 67.1681 170.147 53.5107 156.489C39.8532 142.832 32.1712 124.315 32.15 105C32.1686 85.6838 39.8494 67.1638 53.5072 53.5042Z" fill="black"/>
<path fill-rule="evenodd" clip-rule="evenodd" d="M144.381 94.3707C144.825 93.2855 145.049 92.1227 145.04 90.95C145.051 89.7807 144.829 88.6209 144.388 87.5378C143.948 86.4548 143.296 85.4699 142.472 84.6403C141.648 83.8106 140.668 83.1527 139.588 82.7047C138.508 82.2566 137.349 82.0273 136.18 82.03C135.007 82.0206 133.843 82.245 132.757 82.6901C131.671 83.1352 130.685 83.7921 129.855 84.6224C129.026 85.4527 128.37 86.4398 127.926 87.5262C127.482 88.6126 127.259 89.7765 127.27 90.95C127.261 92.1184 127.483 93.2771 127.925 94.359C128.366 95.441 129.017 96.4246 129.841 97.2532C130.665 98.0818 131.645 98.7388 132.725 99.1862C133.804 99.6337 134.962 99.8627 136.13 99.86C137.303 99.8693 138.465 99.6452 139.551 99.2007C140.636 98.7563 141.622 98.1003 142.451 97.2711C143.28 96.4418 143.936 95.4559 144.381 94.3707ZM141.004 88.8849C141.255 89.5436 141.373 90.2455 141.35 90.95C141.374 91.6558 141.258 92.3593 141.007 93.0196C140.757 93.68 140.378 94.2841 139.892 94.7967C139.407 95.3094 138.824 95.7204 138.178 96.006C137.532 96.2915 136.836 96.4458 136.13 96.46C134.714 96.4207 133.37 95.8242 132.391 94.8C131.411 93.7759 130.876 92.4067 130.9 90.99C130.879 90.2831 130.997 89.5789 131.249 88.9179C131.5 88.257 131.88 87.6522 132.366 87.1384C132.852 86.6245 133.435 86.2117 134.081 85.9237C134.727 85.6357 135.423 85.4781 136.13 85.46C136.835 85.4729 137.53 85.6256 138.175 85.9095C138.82 86.1933 139.403 86.6025 139.888 87.1133C140.374 87.6241 140.753 88.2263 141.004 88.8849ZM160.16 82.96L157.76 81.6L133.87 122.78L136.27 124.2L160.16 82.96ZM166.101 118.341C166.545 117.255 166.769 116.093 166.76 114.92H166.8C166.809 113.743 166.584 112.577 166.137 111.488C165.69 110.4 165.031 109.412 164.198 108.581C163.364 107.75 162.374 107.094 161.284 106.651C160.194 106.208 159.027 105.987 157.85 106C156.676 105.991 155.512 106.215 154.425 106.66C153.339 107.105 152.352 107.762 151.522 108.592C150.692 109.422 150.035 110.409 149.59 111.495C149.145 112.582 148.921 113.746 148.93 114.92C148.921 116.093 149.145 117.257 149.59 118.343C150.035 119.429 150.692 120.415 151.522 121.245C152.353 122.074 153.34 122.73 154.426 123.174C155.513 123.618 156.676 123.841 157.85 123.83C159.023 123.839 160.186 123.615 161.271 123.171C162.356 122.726 163.342 122.07 164.171 121.241C165 120.412 165.656 119.426 166.101 118.341ZM162.733 112.843C162.982 113.506 163.097 114.212 163.07 114.92H163.11C163.138 115.628 163.025 116.335 162.776 116.999C162.528 117.663 162.15 118.27 161.663 118.786C161.177 119.302 160.593 119.716 159.945 120.003C159.297 120.291 158.599 120.446 157.89 120.46C157.179 120.446 156.478 120.291 155.828 120.004C155.177 119.717 154.59 119.304 154.1 118.789C153.61 118.274 153.226 117.667 152.972 117.003C152.719 116.339 152.599 115.631 152.62 114.92C152.599 114.213 152.717 113.508 152.969 112.846C153.22 112.185 153.6 111.579 154.085 111.065C154.571 110.55 155.154 110.136 155.8 109.847C156.446 109.558 157.143 109.399 157.85 109.38C158.558 109.395 159.256 109.552 159.904 109.839C160.551 110.127 161.135 110.541 161.62 111.057C162.106 111.572 162.485 112.179 162.733 112.843ZM61.15 102.93C61.15 108.77 62.56 114.06 65.27 117.99C68.41 122.54 72.53 124.14 75.78 124.14C79.03 124.14 83.15 122.54 86.29 117.99C88.99 114.06 90.4 108.77 90.4 102.93C90.4 97.09 88.99 91.81 86.29 87.87C83.15 83.33 79.04 81.73 75.78 81.73C72.52 81.73 68.4 83.33 65.27 87.87C62.56 91.81 61.15 97.09 61.15 102.93ZM65.72 102.94C65.72 98.64 66.51 93.97 68.72 90.46C70.87 87.01 73.73 85.92 75.79 85.92C77.85 85.92 80.65 86.98 82.85 90.46C85.05 93.94 85.85 98.64 85.85 102.94C85.85 107.24 85 111.98 82.85 115.42C80.7 118.86 77.86 119.97 75.79 119.97C73.72 119.97 70.92 118.9 68.72 115.42C66.52 111.94 65.72 107.24 65.72 102.94ZM44.39 86.71H51.27V123.4H55.78V82.4H46.78L44.39 86.71ZM99.27 117.99C96.57 114.06 95.15 108.77 95.15 102.93C95.15 97.09 96.57 91.81 99.27 87.87C102.4 83.33 106.52 81.73 109.78 81.73C113.04 81.73 117.16 83.33 120.29 87.87C122.99 91.81 124.41 97.09 124.41 102.93C124.41 108.77 122.99 114.06 120.29 117.99C117.16 122.54 113.04 124.14 109.78 124.14C106.52 124.14 102.44 122.54 99.27 117.99ZM102.75 90.46C100.54 93.97 99.75 98.64 99.75 102.94C99.75 107.24 100.55 111.94 102.75 115.42C104.95 118.9 107.75 119.97 109.82 119.97C111.89 119.97 114.74 118.86 116.89 115.42C119.04 111.98 119.89 107.24 119.89 102.94C119.89 98.64 119.09 93.94 116.89 90.46C114.69 86.98 111.89 85.92 109.82 85.92C107.75 85.92 104.9 87.01 102.75 90.46Z" fill="black"/>
</svg>
